%TF.GenerationSoftware,KiCad,Pcbnew,10.0.3*%
%TF.CreationDate,2026-05-27T17:04:54-07:00*%
%TF.ProjectId,Beacon_and_eggs,42656163-6f6e-45f6-916e-645f65676773,rev?*%
%TF.SameCoordinates,Original*%
%TF.FileFunction,Copper,L3,Inr*%
%TF.FilePolarity,Positive*%
%FSLAX46Y46*%
G04 Gerber Fmt 4.6, Leading zero omitted, Abs format (unit mm)*
G04 Created by KiCad (PCBNEW 10.0.3) date 2026-05-27 17:04:54*
%MOMM*%
%LPD*%
G01*
G04 APERTURE LIST*
G04 Aperture macros list*
%AMRoundRect*
0 Rectangle with rounded corners*
0 $1 Rounding radius*
0 $2 $3 $4 $5 $6 $7 $8 $9 X,Y pos of 4 corners*
0 Add a 4 corners polygon primitive as box body*
4,1,4,$2,$3,$4,$5,$6,$7,$8,$9,$2,$3,0*
0 Add four circle primitives for the rounded corners*
1,1,$1+$1,$2,$3*
1,1,$1+$1,$4,$5*
1,1,$1+$1,$6,$7*
1,1,$1+$1,$8,$9*
0 Add four rect primitives between the rounded corners*
20,1,$1+$1,$2,$3,$4,$5,0*
20,1,$1+$1,$4,$5,$6,$7,0*
20,1,$1+$1,$6,$7,$8,$9,0*
20,1,$1+$1,$8,$9,$2,$3,0*%
G04 Aperture macros list end*
%TA.AperFunction,ComponentPad*%
%ADD10C,3.600000*%
%TD*%
%TA.AperFunction,ComponentPad*%
%ADD11C,1.500000*%
%TD*%
%TA.AperFunction,ComponentPad*%
%ADD12C,0.508000*%
%TD*%
%TA.AperFunction,ComponentPad*%
%ADD13O,1.000000X2.100000*%
%TD*%
%TA.AperFunction,ComponentPad*%
%ADD14O,1.000000X1.800000*%
%TD*%
%TA.AperFunction,ComponentPad*%
%ADD15R,1.700000X1.700000*%
%TD*%
%TA.AperFunction,ComponentPad*%
%ADD16C,1.700000*%
%TD*%
%TA.AperFunction,ComponentPad*%
%ADD17RoundRect,0.250000X-0.600000X-0.750000X0.600000X-0.750000X0.600000X0.750000X-0.600000X0.750000X0*%
%TD*%
%TA.AperFunction,ComponentPad*%
%ADD18O,1.700000X2.000000*%
%TD*%
%TA.AperFunction,ViaPad*%
%ADD19C,0.600000*%
%TD*%
%TA.AperFunction,ViaPad*%
%ADD20C,0.500000*%
%TD*%
G04 APERTURE END LIST*
D10*
%TO.N,GND*%
%TO.C,ANT.GND1*%
X154000000Y-56000000D03*
%TD*%
D11*
%TO.N,VBAT*%
%TO.C,TP5*%
X132200000Y-125720000D03*
%TD*%
%TO.N,/SCL*%
%TO.C,TP3*%
X157290000Y-78415973D03*
%TD*%
%TO.N,VSYS*%
%TO.C,TP6*%
X148810000Y-114900000D03*
%TD*%
D12*
%TO.N,GND*%
%TO.C,U6*%
X151937599Y-119143701D03*
X152724999Y-119143701D03*
X153512399Y-119143701D03*
X151937599Y-118356301D03*
X152724999Y-118356301D03*
X153512399Y-118356301D03*
%TD*%
D13*
%TO.N,GND*%
%TO.C,J1*%
X135680000Y-123255000D03*
D14*
X135680000Y-127435000D03*
D13*
X144320000Y-123255000D03*
D14*
X144320000Y-127435000D03*
%TD*%
D11*
%TO.N,/SDA*%
%TO.C,TP4*%
X154720000Y-78435973D03*
%TD*%
%TO.N,+3.3V*%
%TO.C,3V3*%
X147980000Y-99510000D03*
%TD*%
D10*
%TO.N,/ANT_SIG*%
%TO.C,ANT.SIG1*%
X126000000Y-56000000D03*
%TD*%
D15*
%TO.N,/SWCLK*%
%TO.C,J2*%
X157270000Y-106060000D03*
D16*
%TO.N,/SWDIO*%
X154730000Y-106060000D03*
%TO.N,GND*%
X152190000Y-106060000D03*
%TD*%
D17*
%TO.N,VBAT*%
%TO.C,J3*%
X124750000Y-114155000D03*
D18*
%TO.N,GND*%
X127250000Y-114155000D03*
%TD*%
D19*
%TO.N,VSYS*%
X125100000Y-71000000D03*
X154300000Y-111600000D03*
X146890000Y-112365000D03*
X149597500Y-110937500D03*
X151940000Y-115170000D03*
X150835000Y-111535000D03*
%TO.N,GND*%
X152937500Y-69905973D03*
X155440000Y-126440000D03*
D20*
X156380000Y-87435973D03*
D19*
X146300000Y-83640000D03*
X157000000Y-112500000D03*
X122880000Y-69950000D03*
X154390000Y-75160000D03*
X155562500Y-108505000D03*
X136497500Y-111760000D03*
X150060000Y-84550000D03*
X135190000Y-116155000D03*
X145660000Y-121450000D03*
X134000000Y-67000000D03*
X150830000Y-115800000D03*
X149812500Y-74630973D03*
X150015000Y-82745973D03*
X149531483Y-110140226D03*
X149000000Y-113000000D03*
X136400000Y-110180000D03*
X156600000Y-117110000D03*
X134290000Y-121460000D03*
X154340000Y-126440000D03*
X154000000Y-113000000D03*
X151772500Y-109625000D03*
X133850000Y-116155000D03*
X143900000Y-100700000D03*
X146000000Y-92500000D03*
X143860000Y-91325973D03*
X154523120Y-94886583D03*
X147445000Y-110275000D03*
X136300000Y-120000000D03*
X155315000Y-97205973D03*
X132550000Y-67000000D03*
X143490000Y-86040000D03*
X143370000Y-90280973D03*
X143900000Y-119900000D03*
X146740000Y-66990000D03*
X147824661Y-107547500D03*
X128700000Y-71700000D03*
X153300000Y-109615000D03*
X154847500Y-68665973D03*
X149875000Y-76605973D03*
X145110000Y-76635973D03*
X149230000Y-117880000D03*
X133300000Y-71700000D03*
%TO.N,+3.3V*%
X148230000Y-66950000D03*
X156381000Y-83185973D03*
D20*
X156330000Y-86615973D03*
D19*
X149965000Y-71005973D03*
X148975000Y-107597500D03*
X155470000Y-82675973D03*
X155320000Y-94815973D03*
X157500000Y-69500000D03*
X155320000Y-73955973D03*
X148220000Y-85330000D03*
X145409877Y-93360536D03*
%TO.N,/BOOT0*%
X135550000Y-69050000D03*
X156750000Y-89350000D03*
%TO.N,/NRST*%
X148290000Y-69830000D03*
X151610000Y-84825973D03*
%TO.N,/BATT_V_ADC*%
X143357600Y-89039173D03*
X135190000Y-113055000D03*
%TO.N,VBUS*%
X143800000Y-120900000D03*
X152360000Y-124620000D03*
X136500000Y-120900000D03*
%TO.N,VBAT*%
X157400000Y-123630000D03*
X134400000Y-117402500D03*
%TO.N,/SDA*%
X157730000Y-81895973D03*
X157760000Y-89165973D03*
%TO.N,/VREF*%
X155890000Y-121680000D03*
X149100000Y-118980000D03*
X149170000Y-123810000D03*
X146360000Y-123840000D03*
X154000000Y-114900000D03*
%TO.N,/BATT_EN*%
X150600000Y-94690000D03*
X140400000Y-109730000D03*
%TO.N,/TX_PWR_DN*%
X124700000Y-82100000D03*
X144526000Y-85787973D03*
%TO.N,/TX_EN*%
X143357600Y-86854773D03*
X124900000Y-86700000D03*
%TO.N,/TXD*%
X149600000Y-96100000D03*
X146100000Y-96000000D03*
%TO.N,/RXD*%
X149600000Y-97500000D03*
X142000000Y-97600000D03*
%TD*%
%TA.AperFunction,Conductor*%
%TO.N,VSYS*%
G36*
X135634348Y-70161928D02*
G01*
X135645201Y-70172976D01*
X135672749Y-70204767D01*
X135672753Y-70204771D01*
X135676860Y-70209510D01*
X135678006Y-70210886D01*
X135678459Y-70211357D01*
X135682469Y-70214832D01*
X135694014Y-70226240D01*
X135697535Y-70230207D01*
X135697538Y-70230210D01*
X135717171Y-70246818D01*
X135717171Y-70246817D01*
X135725981Y-70254270D01*
X135743398Y-70269003D01*
X135743398Y-70269004D01*
X135750876Y-70275330D01*
X135750899Y-70275349D01*
X135750904Y-70275352D01*
X135750911Y-70275358D01*
X135754197Y-70277728D01*
X135754013Y-70277982D01*
X135754117Y-70278070D01*
X135763253Y-70284828D01*
X135782413Y-70301427D01*
X135787202Y-70305577D01*
X135824132Y-70322441D01*
X135838413Y-70330128D01*
X135854172Y-70339992D01*
X135872857Y-70351688D01*
X135894379Y-70357729D01*
X135903371Y-70360254D01*
X135914191Y-70363835D01*
X135917824Y-70365225D01*
X135918082Y-70365343D01*
X135927476Y-70368101D01*
X135927476Y-70368100D01*
X135933139Y-70369763D01*
X135933150Y-70369766D01*
X135960421Y-70377774D01*
X135960421Y-70377775D01*
X135985093Y-70385020D01*
X135985105Y-70385024D01*
X135994231Y-70386335D01*
X135998050Y-70387132D01*
X135998888Y-70387580D01*
X136006257Y-70389137D01*
X136011382Y-70390576D01*
X136036877Y-70393932D01*
X136036877Y-70393931D01*
X136082178Y-70399895D01*
X136090186Y-70400131D01*
X136127521Y-70405500D01*
X142370500Y-70405500D01*
X142437539Y-70425185D01*
X142483294Y-70477989D01*
X142494500Y-70529500D01*
X142494500Y-85190930D01*
X142498440Y-85253925D01*
X142498440Y-85253928D01*
X142502289Y-85284568D01*
X142502291Y-85284582D01*
X142514052Y-85346606D01*
X142569112Y-85479534D01*
X142569115Y-85479539D01*
X142604762Y-85539620D01*
X142695042Y-85651654D01*
X142696517Y-85653027D01*
X142697545Y-85654760D01*
X142700605Y-85658557D01*
X142700059Y-85658996D01*
X142732171Y-85713115D01*
X142729678Y-85782940D01*
X142726587Y-85791228D01*
X142720265Y-85806491D01*
X142720265Y-85806493D01*
X142720257Y-85806527D01*
X142689500Y-85961150D01*
X142689500Y-86118850D01*
X142717154Y-86257878D01*
X142718827Y-86268822D01*
X142723149Y-86309046D01*
X142714833Y-86368734D01*
X142712993Y-86373291D01*
X142712320Y-86374958D01*
X142700449Y-86397403D01*
X142648205Y-86475592D01*
X142648205Y-86475593D01*
X142648202Y-86475598D01*
X142648200Y-86475602D01*
X142587864Y-86621269D01*
X142587857Y-86621300D01*
X142557100Y-86775923D01*
X142557100Y-86775926D01*
X142557100Y-86933619D01*
X142557100Y-86933621D01*
X142557099Y-86933621D01*
X142587857Y-87088244D01*
X142587864Y-87088275D01*
X142648199Y-87233941D01*
X142648608Y-87234801D01*
X142648640Y-87235004D01*
X142649403Y-87236846D01*
X142648962Y-87237028D01*
X142659577Y-87303805D01*
X142631499Y-87367784D01*
X142630304Y-87369185D01*
X142594432Y-87410582D01*
X142594431Y-87410584D01*
X142593865Y-87411821D01*
X142593866Y-87411822D01*
X142534664Y-87541452D01*
X142514976Y-87608500D01*
X142494500Y-87750919D01*
X142494500Y-88143017D01*
X142494682Y-88156599D01*
X142494860Y-88163224D01*
X142495401Y-88176712D01*
X142523469Y-88317825D01*
X142523471Y-88317832D01*
X142541765Y-88369693D01*
X142541767Y-88369697D01*
X142546715Y-88383722D01*
X142546717Y-88383729D01*
X142613408Y-88511220D01*
X142635290Y-88533897D01*
X142642995Y-88547425D01*
X142647595Y-88566886D01*
X142656863Y-88584603D01*
X142655468Y-88600189D01*
X142659069Y-88615421D01*
X142652417Y-88634279D01*
X142650636Y-88654194D01*
X142649381Y-88657090D01*
X142649403Y-88657099D01*
X142587864Y-88805669D01*
X142587857Y-88805700D01*
X142557100Y-88960323D01*
X142557100Y-88960326D01*
X142557100Y-89118019D01*
X142557100Y-89118021D01*
X142557099Y-89118021D01*
X142587857Y-89272644D01*
X142587864Y-89272675D01*
X142648198Y-89418338D01*
X142648202Y-89418345D01*
X142648209Y-89418358D01*
X142735810Y-89549461D01*
X142735813Y-89549465D01*
X142752339Y-89565991D01*
X142773486Y-89594243D01*
X142780977Y-89607963D01*
X142795828Y-89676221D01*
X142795699Y-89678027D01*
X142776333Y-89736226D01*
X142772153Y-89742731D01*
X142755515Y-89763378D01*
X142748225Y-89770667D01*
X142748215Y-89770678D01*
X142748200Y-89770698D01*
X142660613Y-89901780D01*
X142660603Y-89901797D01*
X142660598Y-89901806D01*
X142600264Y-90047469D01*
X142600257Y-90047500D01*
X142569500Y-90202123D01*
X142569500Y-90202126D01*
X142569500Y-90359819D01*
X142569500Y-90359821D01*
X142569499Y-90359821D01*
X142600257Y-90514444D01*
X142600264Y-90514475D01*
X142660598Y-90660138D01*
X142660603Y-90660147D01*
X142660613Y-90660164D01*
X142748211Y-90791263D01*
X142748212Y-90791264D01*
X142748217Y-90791270D01*
X142859701Y-90902754D01*
X142859707Y-90902759D01*
X142859711Y-90902762D01*
X142930073Y-90949777D01*
X142956323Y-90973357D01*
X142967533Y-90986770D01*
X142969778Y-90989457D01*
X142996022Y-91043679D01*
X142997393Y-91050259D01*
X143000000Y-91075552D01*
X143000000Y-91182714D01*
X142980315Y-91249753D01*
X142927511Y-91295508D01*
X142910935Y-91301691D01*
X142862498Y-91315913D01*
X142862492Y-91315916D01*
X142741462Y-91393698D01*
X142741451Y-91393706D01*
X142688659Y-91439450D01*
X142594433Y-91548191D01*
X142594430Y-91548195D01*
X142534664Y-91679061D01*
X142514976Y-91746109D01*
X142494500Y-91888528D01*
X142494500Y-96752793D01*
X142474815Y-96819832D01*
X142422011Y-96865587D01*
X142352853Y-96875531D01*
X142323049Y-96867355D01*
X142233499Y-96830263D01*
X142233471Y-96830257D01*
X142078847Y-96799500D01*
X142078845Y-96799500D01*
X142078842Y-96799500D01*
X141921158Y-96799500D01*
X141921155Y-96799500D01*
X141921153Y-96799500D01*
X141766527Y-96830257D01*
X141766496Y-96830264D01*
X141620833Y-96890598D01*
X141620824Y-96890603D01*
X141620807Y-96890613D01*
X141489708Y-96978211D01*
X141489707Y-96978212D01*
X141489701Y-96978217D01*
X141378217Y-97089701D01*
X141378212Y-97089707D01*
X141378211Y-97089708D01*
X141290613Y-97220807D01*
X141290603Y-97220824D01*
X141290598Y-97220833D01*
X141230264Y-97366496D01*
X141230257Y-97366527D01*
X141199500Y-97521150D01*
X141199500Y-97521153D01*
X141199500Y-97678846D01*
X141199500Y-97678848D01*
X141199499Y-97678848D01*
X141230257Y-97833471D01*
X141230264Y-97833502D01*
X141290598Y-97979165D01*
X141290603Y-97979174D01*
X141290613Y-97979191D01*
X141378211Y-98110290D01*
X141378212Y-98110291D01*
X141378217Y-98110297D01*
X141489701Y-98221781D01*
X141489707Y-98221786D01*
X141489711Y-98221789D01*
X141620814Y-98309390D01*
X141620827Y-98309397D01*
X141766498Y-98369735D01*
X141766503Y-98369737D01*
X141921153Y-98400499D01*
X141921156Y-98400500D01*
X141921158Y-98400500D01*
X142078844Y-98400500D01*
X142078845Y-98400499D01*
X142233497Y-98369737D01*
X142323048Y-98332643D01*
X142392517Y-98325175D01*
X142454996Y-98356450D01*
X142490648Y-98416539D01*
X142494500Y-98447205D01*
X142494500Y-100197312D01*
X142499021Y-100264764D01*
X142503441Y-100297584D01*
X142516928Y-100363846D01*
X142574350Y-100495767D01*
X142574352Y-100495771D01*
X142611073Y-100555219D01*
X142613220Y-100557932D01*
X142614621Y-100559464D01*
X142665896Y-100620818D01*
X142693782Y-100684882D01*
X142682606Y-100753852D01*
X142664461Y-100781538D01*
X142594435Y-100862350D01*
X142594430Y-100862358D01*
X142534664Y-100993224D01*
X142534662Y-100993231D01*
X142514977Y-101060270D01*
X142514976Y-101060274D01*
X142494500Y-101202690D01*
X142494500Y-105993499D01*
X142494500Y-107518441D01*
X142494500Y-108475941D01*
X142494500Y-109776000D01*
X142494501Y-109776009D01*
X142506052Y-109883450D01*
X142506054Y-109883462D01*
X142517260Y-109934972D01*
X142551383Y-110037497D01*
X142551386Y-110037503D01*
X142629171Y-110158537D01*
X142629179Y-110158548D01*
X142674923Y-110211340D01*
X142674926Y-110211343D01*
X142674930Y-110211347D01*
X142783664Y-110305567D01*
X142783667Y-110305568D01*
X142783668Y-110305569D01*
X142888142Y-110353282D01*
X142914541Y-110365338D01*
X142981580Y-110385023D01*
X142981584Y-110385024D01*
X143124000Y-110405500D01*
X146553011Y-110405500D01*
X146620050Y-110425185D01*
X146665805Y-110477989D01*
X146674627Y-110505302D01*
X146675258Y-110508475D01*
X146675264Y-110508502D01*
X146735598Y-110654165D01*
X146735603Y-110654174D01*
X146735613Y-110654191D01*
X146823211Y-110785290D01*
X146823212Y-110785291D01*
X146823217Y-110785297D01*
X146934701Y-110896781D01*
X146934707Y-110896786D01*
X146934711Y-110896789D01*
X147065814Y-110984390D01*
X147065827Y-110984397D01*
X147211498Y-111044735D01*
X147211503Y-111044737D01*
X147366153Y-111075499D01*
X147366156Y-111075500D01*
X147366158Y-111075500D01*
X147523844Y-111075500D01*
X147523845Y-111075499D01*
X147678497Y-111044737D01*
X147824179Y-110984394D01*
X147955289Y-110896789D01*
X148066789Y-110785289D01*
X148154394Y-110654179D01*
X148155911Y-110650518D01*
X148168067Y-110621166D01*
X148214737Y-110508497D01*
X148217507Y-110494569D01*
X148221493Y-110484370D01*
X148236434Y-110465043D01*
X148247758Y-110443396D01*
X148257424Y-110437891D01*
X148264227Y-110429093D01*
X148287243Y-110420912D01*
X148308475Y-110408823D01*
X148327494Y-110406606D01*
X148330062Y-110405694D01*
X148331812Y-110406103D01*
X148336989Y-110405500D01*
X148681670Y-110405500D01*
X148681679Y-110405500D01*
X148690698Y-110405420D01*
X148690830Y-110405417D01*
X148690901Y-110405417D01*
X148758115Y-110424498D01*
X148804343Y-110476888D01*
X148806577Y-110481959D01*
X148822083Y-110519394D01*
X148822085Y-110519398D01*
X148822091Y-110519410D01*
X148822096Y-110519417D01*
X148909688Y-110650507D01*
X148909695Y-110650517D01*
X148909700Y-110650523D01*
X149021184Y-110762007D01*
X149021190Y-110762012D01*
X149021194Y-110762015D01*
X149152297Y-110849616D01*
X149152310Y-110849623D01*
X149266181Y-110896789D01*
X149297986Y-110909963D01*
X149447686Y-110939740D01*
X149449882Y-110940278D01*
X149452638Y-110940726D01*
X149610327Y-110940726D01*
X149614447Y-110940726D01*
X149622297Y-110938344D01*
X149764980Y-110909963D01*
X149910662Y-110849620D01*
X150041772Y-110762015D01*
X150153272Y-110650515D01*
X150240877Y-110519405D01*
X150256521Y-110481635D01*
X150300359Y-110427232D01*
X150366653Y-110405165D01*
X150379947Y-110405403D01*
X150381274Y-110405498D01*
X150381287Y-110405500D01*
X150859914Y-110405500D01*
X150859924Y-110405500D01*
X150873474Y-110405318D01*
X150880112Y-110405140D01*
X150893621Y-110404597D01*
X151034736Y-110376527D01*
X151100626Y-110353282D01*
X151100633Y-110353280D01*
X151216235Y-110292806D01*
X151216770Y-110292535D01*
X151250407Y-110286259D01*
X151283982Y-110279580D01*
X151284752Y-110279851D01*
X151285455Y-110279721D01*
X151292402Y-110282550D01*
X151341821Y-110299983D01*
X151393314Y-110334390D01*
X151393327Y-110334397D01*
X151514863Y-110384738D01*
X151539003Y-110394737D01*
X151539005Y-110394737D01*
X151539010Y-110394739D01*
X151619646Y-110410778D01*
X151693653Y-110425499D01*
X151693656Y-110425500D01*
X151693658Y-110425500D01*
X151851344Y-110425500D01*
X151851345Y-110425499D01*
X152005997Y-110394737D01*
X152151679Y-110334394D01*
X152282789Y-110246789D01*
X152394289Y-110135289D01*
X152426586Y-110086951D01*
X152450166Y-110060701D01*
X152460816Y-110051800D01*
X152524878Y-110023915D01*
X152593827Y-110035081D01*
X152598553Y-110037341D01*
X152648159Y-110080316D01*
X152662084Y-110101155D01*
X152678208Y-110125286D01*
X152678213Y-110125292D01*
X152678215Y-110125294D01*
X152678225Y-110125305D01*
X152789701Y-110236781D01*
X152789707Y-110236786D01*
X152789711Y-110236789D01*
X152920814Y-110324390D01*
X152920827Y-110324397D01*
X153039922Y-110373727D01*
X153066503Y-110384737D01*
X153066510Y-110384738D01*
X153066510Y-110384739D01*
X153150279Y-110401401D01*
X153221153Y-110415499D01*
X153221156Y-110415500D01*
X153221158Y-110415500D01*
X153378844Y-110415500D01*
X153378845Y-110415499D01*
X153533497Y-110384737D01*
X153646166Y-110338067D01*
X153672634Y-110327104D01*
X153675425Y-110326131D01*
X153676868Y-110325464D01*
X153681528Y-110323421D01*
X153688920Y-110320359D01*
X153699674Y-110310699D01*
X153720703Y-110296648D01*
X153787378Y-110275771D01*
X153854758Y-110294255D01*
X153869463Y-110305060D01*
X153870248Y-110305564D01*
X153870251Y-110305567D01*
X153870254Y-110305568D01*
X153870255Y-110305569D01*
X153974729Y-110353282D01*
X154001128Y-110365338D01*
X154068167Y-110385023D01*
X154068171Y-110385024D01*
X154210587Y-110405500D01*
X154210590Y-110405500D01*
X159375500Y-110405500D01*
X159442539Y-110425185D01*
X159488294Y-110477989D01*
X159499500Y-110529500D01*
X159499500Y-115370002D01*
X159479815Y-115437041D01*
X159427011Y-115482796D01*
X159375400Y-115494002D01*
X154800212Y-115490304D01*
X154733188Y-115470565D01*
X154687476Y-115417724D01*
X154677588Y-115348558D01*
X154697212Y-115297410D01*
X154700716Y-115292167D01*
X154709394Y-115279179D01*
X154712627Y-115271375D01*
X154745214Y-115192701D01*
X154769737Y-115133497D01*
X154800500Y-114978842D01*
X154800500Y-114821158D01*
X154800500Y-114821155D01*
X154800500Y-114820978D01*
X154800081Y-114819055D01*
X154796613Y-114801617D01*
X154769737Y-114666503D01*
X154731360Y-114573852D01*
X154709397Y-114520827D01*
X154709390Y-114520814D01*
X154621789Y-114389711D01*
X154621786Y-114389707D01*
X154621781Y-114389701D01*
X154510295Y-114278215D01*
X154510291Y-114278212D01*
X154510290Y-114278211D01*
X154379191Y-114190613D01*
X154379190Y-114190612D01*
X154379185Y-114190609D01*
X154379172Y-114190602D01*
X154379165Y-114190598D01*
X154233502Y-114130264D01*
X154233471Y-114130257D01*
X154078847Y-114099500D01*
X154078845Y-114099500D01*
X154078842Y-114099500D01*
X153921158Y-114099500D01*
X153921155Y-114099500D01*
X153921153Y-114099500D01*
X153766527Y-114130257D01*
X153766496Y-114130264D01*
X153620833Y-114190598D01*
X153620824Y-114190603D01*
X153620807Y-114190613D01*
X153489708Y-114278211D01*
X153489704Y-114278215D01*
X153378217Y-114389701D01*
X153378212Y-114389707D01*
X153378211Y-114389708D01*
X153290613Y-114520807D01*
X153290603Y-114520824D01*
X153290598Y-114520833D01*
X153230264Y-114666496D01*
X153230257Y-114666527D01*
X153199500Y-114821150D01*
X153199500Y-114821153D01*
X153199500Y-114978846D01*
X153199500Y-114978848D01*
X153199499Y-114978848D01*
X153230257Y-115133471D01*
X153230264Y-115133502D01*
X153290598Y-115279165D01*
X153290602Y-115279172D01*
X153290609Y-115279185D01*
X153299283Y-115292167D01*
X153301925Y-115296120D01*
X153322803Y-115362798D01*
X153304318Y-115430178D01*
X153252340Y-115476868D01*
X153198723Y-115489011D01*
X151699749Y-115487800D01*
X151699746Y-115487800D01*
X151699722Y-115487800D01*
X151693894Y-115487848D01*
X151690425Y-115487878D01*
X151685901Y-115487957D01*
X151676773Y-115488200D01*
X151676770Y-115488200D01*
X151673038Y-115488874D01*
X151603569Y-115481399D01*
X151549170Y-115437553D01*
X151541037Y-115423515D01*
X151540888Y-115423596D01*
X151539395Y-115420824D01*
X151539390Y-115420814D01*
X151451789Y-115289711D01*
X151451786Y-115289707D01*
X151451781Y-115289701D01*
X151340297Y-115178217D01*
X151340291Y-115178212D01*
X151340290Y-115178211D01*
X151209191Y-115090613D01*
X151209190Y-115090612D01*
X151209185Y-115090609D01*
X151209172Y-115090602D01*
X151209165Y-115090598D01*
X151063502Y-115030264D01*
X151063471Y-115030257D01*
X150908847Y-114999500D01*
X150908845Y-114999500D01*
X150908842Y-114999500D01*
X150751158Y-114999500D01*
X150751155Y-114999500D01*
X150751153Y-114999500D01*
X150596527Y-115030257D01*
X150596496Y-115030264D01*
X150450833Y-115090598D01*
X150450824Y-115090603D01*
X150450807Y-115090613D01*
X150319711Y-115178209D01*
X150319707Y-115178212D01*
X150259743Y-115238177D01*
X150244440Y-115246638D01*
X150232643Y-115258690D01*
X150231484Y-115259331D01*
X150221557Y-115264751D01*
X150205286Y-115268289D01*
X150199707Y-115271375D01*
X150188697Y-115273893D01*
X150181528Y-115273456D01*
X150153284Y-115279600D01*
X150128102Y-115270206D01*
X150118956Y-115269650D01*
X150111004Y-115263828D01*
X150087820Y-115255180D01*
X150074024Y-115236754D01*
X150062581Y-115228376D01*
X150057102Y-115214152D01*
X150045961Y-115199271D01*
X150044877Y-115196364D01*
X150042983Y-115177492D01*
X150037469Y-115163175D01*
X150040212Y-115149885D01*
X150038579Y-115133618D01*
X150060000Y-114998381D01*
X150060000Y-114801617D01*
X150029221Y-114607294D01*
X149968418Y-114420164D01*
X149879096Y-114244858D01*
X149870274Y-114232715D01*
X149853679Y-114209873D01*
X149853678Y-114209873D01*
X149853677Y-114209873D01*
X149853676Y-114209873D01*
X149309894Y-114753655D01*
X149248571Y-114787140D01*
X149178879Y-114782156D01*
X149122946Y-114740284D01*
X149114825Y-114727973D01*
X149090070Y-114685095D01*
X149024906Y-114619931D01*
X149024898Y-114619925D01*
X148982024Y-114595172D01*
X148933808Y-114544606D01*
X148920584Y-114475999D01*
X148946552Y-114411134D01*
X148956337Y-114400109D01*
X149500125Y-113856320D01*
X149500125Y-113856319D01*
X149495199Y-113852740D01*
X149469892Y-113828148D01*
X149461415Y-113817155D01*
X149436064Y-113752052D01*
X149449933Y-113683575D01*
X149452759Y-113678219D01*
X149493540Y-113632979D01*
X149510289Y-113621789D01*
X149621789Y-113510289D01*
X149709394Y-113379179D01*
X149769737Y-113233497D01*
X149800499Y-113078848D01*
X153199499Y-113078848D01*
X153230257Y-113233471D01*
X153230264Y-113233502D01*
X153290598Y-113379165D01*
X153290603Y-113379174D01*
X153290613Y-113379191D01*
X153378211Y-113510290D01*
X153378212Y-113510291D01*
X153378217Y-113510297D01*
X153489701Y-113621781D01*
X153489705Y-113621784D01*
X153489707Y-113621786D01*
X153489711Y-113621789D01*
X153620814Y-113709390D01*
X153620827Y-113709397D01*
X153753611Y-113764397D01*
X153766503Y-113769737D01*
X153852953Y-113786933D01*
X153913532Y-113798983D01*
X153916254Y-113799704D01*
X153921155Y-113800500D01*
X154078844Y-113800500D01*
X154082964Y-113800500D01*
X154090814Y-113798118D01*
X154233497Y-113769737D01*
X154379179Y-113709394D01*
X154510289Y-113621789D01*
X154621789Y-113510289D01*
X154709394Y-113379179D01*
X154769737Y-113233497D01*
X154800500Y-113078842D01*
X154800500Y-112921158D01*
X154800500Y-112921155D01*
X154800500Y-112920972D01*
X154800065Y-112918972D01*
X154792152Y-112879191D01*
X154792148Y-112879172D01*
X154769737Y-112766503D01*
X154769735Y-112766498D01*
X154709397Y-112620827D01*
X154709390Y-112620814D01*
X154681349Y-112578848D01*
X156199499Y-112578848D01*
X156230257Y-112733471D01*
X156230261Y-112733489D01*
X156230263Y-112733500D01*
X156290598Y-112879165D01*
X156290601Y-112879170D01*
X156290602Y-112879172D01*
X156290609Y-112879185D01*
X156290612Y-112879190D01*
X156290613Y-112879191D01*
X156378211Y-113010290D01*
X156378212Y-113010291D01*
X156378217Y-113010297D01*
X156489701Y-113121781D01*
X156489707Y-113121786D01*
X156489711Y-113121789D01*
X156620814Y-113209390D01*
X156620827Y-113209397D01*
X156766498Y-113269735D01*
X156766503Y-113269737D01*
X156907403Y-113297764D01*
X156921153Y-113300499D01*
X156921156Y-113300500D01*
X156921158Y-113300500D01*
X157078844Y-113300500D01*
X157078845Y-113300499D01*
X157233497Y-113269737D01*
X157379179Y-113209394D01*
X157510289Y-113121789D01*
X157621789Y-113010289D01*
X157709394Y-112879179D01*
X157709395Y-112879175D01*
X157709398Y-112879171D01*
X157756063Y-112766510D01*
X157769737Y-112733497D01*
X157800500Y-112578842D01*
X157800500Y-112421158D01*
X157800500Y-112421155D01*
X157800500Y-112420973D01*
X157800065Y-112418972D01*
X157785472Y-112345609D01*
X157769737Y-112266503D01*
X157755386Y-112231856D01*
X157709397Y-112120827D01*
X157709390Y-112120814D01*
X157621789Y-111989711D01*
X157621786Y-111989707D01*
X157621781Y-111989701D01*
X157510297Y-111878217D01*
X157510291Y-111878212D01*
X157510290Y-111878211D01*
X157379191Y-111790613D01*
X157379190Y-111790612D01*
X157379185Y-111790609D01*
X157379172Y-111790602D01*
X157379165Y-111790598D01*
X157233502Y-111730264D01*
X157233471Y-111730257D01*
X157078847Y-111699500D01*
X157078845Y-111699500D01*
X157078842Y-111699500D01*
X156921158Y-111699500D01*
X156921155Y-111699500D01*
X156921153Y-111699500D01*
X156766527Y-111730257D01*
X156766496Y-111730264D01*
X156620833Y-111790598D01*
X156620824Y-111790603D01*
X156620807Y-111790613D01*
X156489708Y-111878211D01*
X156489707Y-111878212D01*
X156489701Y-111878217D01*
X156378217Y-111989701D01*
X156378212Y-111989707D01*
X156378211Y-111989708D01*
X156290613Y-112120807D01*
X156290603Y-112120824D01*
X156290598Y-112120833D01*
X156230264Y-112266496D01*
X156230257Y-112266527D01*
X156199500Y-112421150D01*
X156199500Y-112421153D01*
X156199500Y-112578846D01*
X156199500Y-112578848D01*
X156199499Y-112578848D01*
X154681349Y-112578848D01*
X154621790Y-112489712D01*
X154621784Y-112489705D01*
X154510292Y-112378213D01*
X154510291Y-112378212D01*
X154510290Y-112378211D01*
X154379191Y-112290613D01*
X154379190Y-112290612D01*
X154379185Y-112290609D01*
X154379172Y-112290602D01*
X154379165Y-112290598D01*
X154233502Y-112230264D01*
X154233471Y-112230257D01*
X154078847Y-112199500D01*
X154078845Y-112199500D01*
X154078842Y-112199500D01*
X153921158Y-112199500D01*
X153921155Y-112199500D01*
X153921153Y-112199500D01*
X153766527Y-112230257D01*
X153766496Y-112230264D01*
X153620833Y-112290598D01*
X153620824Y-112290603D01*
X153620807Y-112290613D01*
X153489708Y-112378211D01*
X153489707Y-112378212D01*
X153489701Y-112378217D01*
X153378217Y-112489701D01*
X153378212Y-112489707D01*
X153378211Y-112489708D01*
X153290613Y-112620807D01*
X153290603Y-112620824D01*
X153290598Y-112620833D01*
X153230264Y-112766496D01*
X153230257Y-112766527D01*
X153199500Y-112921150D01*
X153199500Y-112921153D01*
X153199500Y-113078846D01*
X153199500Y-113078848D01*
X153199499Y-113078848D01*
X149800499Y-113078848D01*
X149800500Y-113078842D01*
X149800500Y-112921158D01*
X149800500Y-112921155D01*
X149800499Y-112921153D01*
X149792148Y-112879172D01*
X149769737Y-112766503D01*
X149769735Y-112766498D01*
X149709397Y-112620827D01*
X149709390Y-112620814D01*
X149621789Y-112489711D01*
X149621786Y-112489707D01*
X149621784Y-112489705D01*
X149621781Y-112489701D01*
X149510297Y-112378217D01*
X149510291Y-112378212D01*
X149510290Y-112378211D01*
X149379191Y-112290613D01*
X149379190Y-112290612D01*
X149379185Y-112290609D01*
X149379172Y-112290602D01*
X149379165Y-112290598D01*
X149233502Y-112230264D01*
X149233471Y-112230257D01*
X149078847Y-112199500D01*
X149078845Y-112199500D01*
X149078842Y-112199500D01*
X148921158Y-112199500D01*
X148921155Y-112199500D01*
X148921153Y-112199500D01*
X148766527Y-112230257D01*
X148766496Y-112230264D01*
X148620833Y-112290598D01*
X148620824Y-112290603D01*
X148620807Y-112290613D01*
X148489708Y-112378211D01*
X148489707Y-112378212D01*
X148489701Y-112378217D01*
X148378217Y-112489701D01*
X148378212Y-112489707D01*
X148378211Y-112489708D01*
X148290613Y-112620807D01*
X148290603Y-112620824D01*
X148290598Y-112620833D01*
X148230264Y-112766496D01*
X148230257Y-112766527D01*
X148199500Y-112921150D01*
X148199500Y-112921153D01*
X148199500Y-113078846D01*
X148199500Y-113078848D01*
X148199499Y-113078848D01*
X148230257Y-113233471D01*
X148230264Y-113233502D01*
X148290598Y-113379165D01*
X148290603Y-113379174D01*
X148290613Y-113379191D01*
X148378211Y-113510290D01*
X148378212Y-113510291D01*
X148378217Y-113510297D01*
X148385307Y-113517387D01*
X148406458Y-113545641D01*
X148413109Y-113557821D01*
X148427962Y-113626093D01*
X148403546Y-113691558D01*
X148403545Y-113691560D01*
X148401544Y-113694233D01*
X148359314Y-113730025D01*
X148357567Y-113730930D01*
X148338854Y-113738756D01*
X148330168Y-113741578D01*
X148330157Y-113741583D01*
X148154863Y-113830898D01*
X148154775Y-113830953D01*
X148154121Y-113831437D01*
X148152495Y-113832619D01*
X148151578Y-113832946D01*
X148150326Y-113833727D01*
X148150156Y-113833454D01*
X148125730Y-113842176D01*
X148119871Y-113856320D01*
X148663657Y-114400104D01*
X148697142Y-114461427D01*
X148692158Y-114531118D01*
X148650287Y-114587052D01*
X148637976Y-114595172D01*
X148595098Y-114619927D01*
X148595093Y-114619931D01*
X148529931Y-114685093D01*
X148529925Y-114685101D01*
X148505171Y-114727976D01*
X148454604Y-114776191D01*
X148385997Y-114789413D01*
X148321132Y-114763445D01*
X148310104Y-114753656D01*
X147766320Y-114209871D01*
X147758030Y-114213305D01*
X147747782Y-114232715D01*
X147746635Y-114236623D01*
X147742619Y-114242495D01*
X147741437Y-114244121D01*
X147740953Y-114244775D01*
X147740898Y-114244863D01*
X147651585Y-114420153D01*
X147651582Y-114420160D01*
X147651582Y-114420161D01*
X147590778Y-114607294D01*
X147590777Y-114607297D01*
X147590777Y-114607299D01*
X147560000Y-114801617D01*
X147560000Y-114998381D01*
X147590777Y-115192701D01*
X147590777Y-115192702D01*
X147632821Y-115322100D01*
X147634816Y-115391941D01*
X147598735Y-115451774D01*
X147536034Y-115482602D01*
X147514790Y-115484418D01*
X141587195Y-115479627D01*
X141520171Y-115459888D01*
X141474459Y-115407047D01*
X141464571Y-115337881D01*
X141493648Y-115274349D01*
X141530998Y-115245143D01*
X141707816Y-115155051D01*
X141763073Y-115114905D01*
X141879786Y-115030109D01*
X141879788Y-115030106D01*
X141879792Y-115030104D01*
X141879796Y-115030099D01*
X141879848Y-115030062D01*
X141880592Y-115029303D01*
X142030104Y-114879792D01*
X142030106Y-114879788D01*
X142030109Y-114879786D01*
X142072704Y-114821158D01*
X142150453Y-114714146D01*
X142152804Y-114710907D01*
X142155048Y-114707820D01*
X142155047Y-114707820D01*
X142155051Y-114707816D01*
X142250323Y-114520833D01*
X142251555Y-114518416D01*
X142251556Y-114518414D01*
X142251557Y-114518412D01*
X142317246Y-114316243D01*
X142350500Y-114106287D01*
X142350500Y-113893713D01*
X142317246Y-113683757D01*
X142251557Y-113481588D01*
X142155051Y-113292184D01*
X142155049Y-113292181D01*
X142155048Y-113292179D01*
X142154702Y-113291703D01*
X142154700Y-113291699D01*
X142030112Y-113120216D01*
X141879788Y-112969892D01*
X141879786Y-112969890D01*
X141707820Y-112844951D01*
X141694167Y-112837994D01*
X141540245Y-112759567D01*
X141540240Y-112759565D01*
X141518414Y-112748444D01*
X141518413Y-112748443D01*
X141518412Y-112748443D01*
X141421550Y-112716970D01*
X141325074Y-112685623D01*
X141320552Y-112683770D01*
X141311362Y-112681600D01*
X141306599Y-112681226D01*
X141154957Y-112657208D01*
X141135489Y-112654124D01*
X141106290Y-112649500D01*
X141106287Y-112649500D01*
X140893713Y-112649500D01*
X140893709Y-112649500D01*
X140845646Y-112657112D01*
X140845607Y-112657118D01*
X140845042Y-112657208D01*
X140683760Y-112682753D01*
X140683757Y-112682754D01*
X140674523Y-112685754D01*
X140674519Y-112685755D01*
X140577461Y-112717291D01*
X140527612Y-112733489D01*
X140527611Y-112733489D01*
X140481590Y-112748441D01*
X140481584Y-112748443D01*
X140292182Y-112844949D01*
X140120210Y-112969892D01*
X139969892Y-113120210D01*
X139844949Y-113292182D01*
X139748445Y-113481580D01*
X139682752Y-113683759D01*
X139649500Y-113893707D01*
X139649500Y-114106286D01*
X139653298Y-114130266D01*
X139653298Y-114130267D01*
X139676730Y-114278213D01*
X139682753Y-114316241D01*
X139706624Y-114389710D01*
X139706625Y-114389710D01*
X139706625Y-114389711D01*
X139716519Y-114420160D01*
X139748445Y-114518418D01*
X139823911Y-114666527D01*
X139844951Y-114707820D01*
X139969890Y-114879786D01*
X139969892Y-114879788D01*
X140120216Y-115030112D01*
X140292169Y-115155042D01*
X140292177Y-115155047D01*
X140292179Y-115155048D01*
X140292181Y-115155049D01*
X140292182Y-115155050D01*
X140292200Y-115155060D01*
X140292442Y-115155182D01*
X140366084Y-115192705D01*
X140467133Y-115244192D01*
X140517929Y-115292167D01*
X140534724Y-115359988D01*
X140512187Y-115426123D01*
X140457471Y-115469574D01*
X140410738Y-115478677D01*
X136115004Y-115475205D01*
X136007341Y-115486716D01*
X136007337Y-115486716D01*
X135955719Y-115497925D01*
X135852998Y-115532091D01*
X135842449Y-115538871D01*
X135775409Y-115558553D01*
X135708370Y-115538866D01*
X135701021Y-115533759D01*
X135700298Y-115533217D01*
X135700290Y-115533211D01*
X135569191Y-115445613D01*
X135569190Y-115445612D01*
X135569185Y-115445609D01*
X135569172Y-115445602D01*
X135569165Y-115445598D01*
X135423523Y-115385272D01*
X135423509Y-115385267D01*
X135423501Y-115385264D01*
X135423491Y-115385261D01*
X135423488Y-115385260D01*
X135423484Y-115385259D01*
X135353091Y-115371257D01*
X135319807Y-115359515D01*
X135305953Y-115352268D01*
X135302108Y-115348558D01*
X135255678Y-115303758D01*
X135251984Y-115297270D01*
X135235739Y-115236621D01*
X135235508Y-115196369D01*
X135228560Y-113983832D01*
X135233383Y-113948870D01*
X135237700Y-113933850D01*
X135247249Y-113918800D01*
X135252169Y-113901675D01*
X135275126Y-113874866D01*
X135275300Y-113874713D01*
X135280567Y-113870096D01*
X135338121Y-113841718D01*
X135423497Y-113824737D01*
X135514765Y-113786933D01*
X135545313Y-113774280D01*
X135562633Y-113767105D01*
X135565411Y-113766137D01*
X135566860Y-113765467D01*
X135571523Y-113763423D01*
X135580791Y-113759584D01*
X135589678Y-113750697D01*
X135700289Y-113676789D01*
X135811786Y-113565292D01*
X135811789Y-113565289D01*
X135899394Y-113434179D01*
X135959737Y-113288497D01*
X135990500Y-113133842D01*
X135990500Y-112976158D01*
X135990500Y-112976155D01*
X135990500Y-112975971D01*
X135990064Y-112973966D01*
X135979559Y-112921153D01*
X135964401Y-112844951D01*
X135959737Y-112821503D01*
X135955920Y-112812288D01*
X135899397Y-112675827D01*
X135899390Y-112675814D01*
X135826488Y-112566709D01*
X135826487Y-112566708D01*
X135823107Y-112561649D01*
X135823102Y-112561643D01*
X135819973Y-112556959D01*
X135807151Y-112516014D01*
X135802866Y-112505564D01*
X135803240Y-112503527D01*
X135799094Y-112490285D01*
X135812999Y-112439587D01*
X135748975Y-112449965D01*
X135695529Y-112430030D01*
X135690040Y-112426362D01*
X135690031Y-112426355D01*
X135569191Y-112345612D01*
X135569165Y-112345598D01*
X135423523Y-112285272D01*
X135423509Y-112285267D01*
X135423501Y-112285264D01*
X135423491Y-112285261D01*
X135423486Y-112285260D01*
X135423483Y-112285259D01*
X135335305Y-112267719D01*
X135302021Y-112255977D01*
X135288167Y-112248730D01*
X135237889Y-112200215D01*
X135234196Y-112193730D01*
X135217954Y-112133084D01*
X135217132Y-111989711D01*
X135207214Y-110258848D01*
X135599499Y-110258848D01*
X135624542Y-110384737D01*
X135628710Y-110405694D01*
X135630256Y-110413463D01*
X135630264Y-110413502D01*
X135690598Y-110559165D01*
X135690603Y-110559174D01*
X135690613Y-110559191D01*
X135778211Y-110690290D01*
X135778212Y-110690291D01*
X135778217Y-110690297D01*
X135889701Y-110801781D01*
X135889707Y-110801786D01*
X135889711Y-110801789D01*
X136001543Y-110876514D01*
X136010477Y-110883079D01*
X136024888Y-110894699D01*
X136024888Y-110894700D01*
X136038445Y-110905631D01*
X136040137Y-110906995D01*
X136079968Y-110964400D01*
X136082441Y-111034226D01*
X136052289Y-111088837D01*
X136046612Y-111094825D01*
X136025516Y-111112614D01*
X135987230Y-111138195D01*
X135987207Y-111138212D01*
X135987193Y-111138225D01*
X135875717Y-111249701D01*
X135875712Y-111249707D01*
X135875711Y-111249708D01*
X135788113Y-111380807D01*
X135788103Y-111380824D01*
X135788098Y-111380833D01*
X135727764Y-111526496D01*
X135727757Y-111526527D01*
X135697000Y-111681150D01*
X135697000Y-111681153D01*
X135697000Y-111838846D01*
X135697000Y-111838848D01*
X135696999Y-111838848D01*
X135727757Y-111993471D01*
X135727764Y-111993502D01*
X135788098Y-112139165D01*
X135788112Y-112139191D01*
X135864392Y-112253351D01*
X135864398Y-112253358D01*
X135867524Y-112258036D01*
X135884079Y-112310903D01*
X135884974Y-112313295D01*
X135884914Y-112313569D01*
X135888404Y-112324713D01*
X135874498Y-112375410D01*
X135938523Y-112365033D01*
X135991969Y-112384968D01*
X135997458Y-112388636D01*
X135997474Y-112388648D01*
X136118297Y-112469379D01*
X136118301Y-112469381D01*
X136118314Y-112469390D01*
X136118327Y-112469397D01*
X136263998Y-112529735D01*
X136264003Y-112529737D01*
X136418653Y-112560499D01*
X136418656Y-112560500D01*
X136418658Y-112560500D01*
X136576344Y-112560500D01*
X136576345Y-112560499D01*
X136730997Y-112529737D01*
X136876679Y-112469394D01*
X137007789Y-112381789D01*
X137119289Y-112270289D01*
X137206894Y-112139179D01*
X137267237Y-111993497D01*
X137298000Y-111838842D01*
X137298000Y-111681158D01*
X137298000Y-111681155D01*
X137298000Y-111680973D01*
X137297565Y-111678972D01*
X137267897Y-111529824D01*
X137267494Y-111527467D01*
X137267238Y-111526508D01*
X137267237Y-111526506D01*
X137267237Y-111526503D01*
X137267235Y-111526498D01*
X137206897Y-111380827D01*
X137206890Y-111380814D01*
X137119289Y-111249711D01*
X137119286Y-111249707D01*
X137119281Y-111249701D01*
X137007794Y-111138214D01*
X136895529Y-111063200D01*
X136886478Y-111056539D01*
X136857240Y-111032909D01*
X136817473Y-110975460D01*
X136815078Y-110905631D01*
X136845250Y-110851099D01*
X136850916Y-110845130D01*
X136871947Y-110827407D01*
X136910289Y-110801789D01*
X137021789Y-110690289D01*
X137109394Y-110559179D01*
X137169737Y-110413497D01*
X137200500Y-110258842D01*
X137200500Y-110101158D01*
X137200500Y-110101155D01*
X137200500Y-110100973D01*
X137200065Y-110098971D01*
X137184082Y-110018620D01*
X137184081Y-110018619D01*
X137169737Y-109946503D01*
X137169735Y-109946498D01*
X137112719Y-109808848D01*
X139599499Y-109808848D01*
X139630257Y-109963471D01*
X139630264Y-109963502D01*
X139690598Y-110109165D01*
X139690603Y-110109174D01*
X139690613Y-110109191D01*
X139778211Y-110240290D01*
X139778212Y-110240291D01*
X139778217Y-110240297D01*
X139889701Y-110351781D01*
X139889707Y-110351786D01*
X139889711Y-110351789D01*
X140020814Y-110439390D01*
X140020827Y-110439397D01*
X140166498Y-110499735D01*
X140166503Y-110499737D01*
X140321153Y-110530499D01*
X140321156Y-110530500D01*
X140321158Y-110530500D01*
X140478844Y-110530500D01*
X140478845Y-110530499D01*
X140633497Y-110499737D01*
X140779179Y-110439394D01*
X140910289Y-110351789D01*
X141021789Y-110240289D01*
X141109394Y-110109179D01*
X141112719Y-110101153D01*
X141143297Y-110027329D01*
X141146904Y-110018622D01*
X141169735Y-109963501D01*
X141169737Y-109963497D01*
X141200500Y-109808842D01*
X141200500Y-109651158D01*
X141200500Y-109651155D01*
X141200500Y-109650974D01*
X141200069Y-109648991D01*
X141196279Y-109629938D01*
X141196279Y-109629937D01*
X141182012Y-109558212D01*
X141169737Y-109496503D01*
X141160623Y-109474500D01*
X141159011Y-109470609D01*
X141134013Y-109410257D01*
X141109397Y-109350827D01*
X141109390Y-109350814D01*
X141021789Y-109219711D01*
X141021786Y-109219707D01*
X141021781Y-109219701D01*
X140910297Y-109108217D01*
X140910291Y-109108212D01*
X140910290Y-109108211D01*
X140779191Y-109020613D01*
X140779190Y-109020612D01*
X140779185Y-109020609D01*
X140779172Y-109020602D01*
X140779165Y-109020598D01*
X140633502Y-108960264D01*
X140633471Y-108960257D01*
X140478847Y-108929500D01*
X140478845Y-108929500D01*
X140478842Y-108929500D01*
X140321158Y-108929500D01*
X140321155Y-108929500D01*
X140321153Y-108929500D01*
X140166527Y-108960257D01*
X140166496Y-108960264D01*
X140020833Y-109020598D01*
X140020824Y-109020603D01*
X140020807Y-109020613D01*
X139889708Y-109108211D01*
X139889707Y-109108212D01*
X139889701Y-109108217D01*
X139778217Y-109219701D01*
X139778212Y-109219707D01*
X139778211Y-109219708D01*
X139690613Y-109350807D01*
X139690603Y-109350824D01*
X139690598Y-109350833D01*
X139630264Y-109496496D01*
X139630257Y-109496527D01*
X139599500Y-109651150D01*
X139599500Y-109651153D01*
X139599500Y-109808846D01*
X139599500Y-109808848D01*
X139599499Y-109808848D01*
X137112719Y-109808848D01*
X137109397Y-109800827D01*
X137109390Y-109800814D01*
X137051354Y-109713957D01*
X137021789Y-109669711D01*
X137021786Y-109669707D01*
X137021781Y-109669701D01*
X136910297Y-109558217D01*
X136910291Y-109558212D01*
X136910290Y-109558211D01*
X136779191Y-109470613D01*
X136779190Y-109470612D01*
X136779185Y-109470609D01*
X136779172Y-109470602D01*
X136779165Y-109470598D01*
X136633502Y-109410264D01*
X136633471Y-109410257D01*
X136478847Y-109379500D01*
X136478845Y-109379500D01*
X136478842Y-109379500D01*
X136321158Y-109379500D01*
X136321155Y-109379500D01*
X136321153Y-109379500D01*
X136166527Y-109410257D01*
X136166496Y-109410264D01*
X136020833Y-109470598D01*
X136020824Y-109470603D01*
X136020807Y-109470613D01*
X135889708Y-109558211D01*
X135889707Y-109558212D01*
X135889701Y-109558217D01*
X135778217Y-109669701D01*
X135778212Y-109669707D01*
X135778211Y-109669708D01*
X135690613Y-109800807D01*
X135690603Y-109800824D01*
X135690598Y-109800833D01*
X135630264Y-109946496D01*
X135630257Y-109946527D01*
X135599500Y-110101150D01*
X135599500Y-110101152D01*
X135599500Y-110101153D01*
X135599500Y-110258846D01*
X135599500Y-110258848D01*
X135599499Y-110258848D01*
X135207214Y-110258848D01*
X135200000Y-109000000D01*
X120642330Y-109000000D01*
X120642325Y-108999999D01*
X120642323Y-109000000D01*
X120607389Y-108994975D01*
X120592390Y-108990570D01*
X120533644Y-108952827D01*
X120533615Y-108952793D01*
X120533614Y-108952793D01*
X120533613Y-108952791D01*
X120532457Y-108951458D01*
X120504977Y-108896583D01*
X120503332Y-108889021D01*
X120500500Y-108862668D01*
X120500500Y-86778848D01*
X124099499Y-86778848D01*
X124130257Y-86933471D01*
X124130264Y-86933502D01*
X124190598Y-87079165D01*
X124190603Y-87079174D01*
X124190613Y-87079191D01*
X124278211Y-87210290D01*
X124278212Y-87210291D01*
X124278217Y-87210297D01*
X124389701Y-87321781D01*
X124389707Y-87321786D01*
X124389711Y-87321789D01*
X124520814Y-87409390D01*
X124520827Y-87409397D01*
X124666498Y-87469735D01*
X124666503Y-87469737D01*
X124821153Y-87500499D01*
X124821156Y-87500500D01*
X124821158Y-87500500D01*
X124978844Y-87500500D01*
X124978845Y-87500499D01*
X125133497Y-87469737D01*
X125279179Y-87409394D01*
X125410289Y-87321789D01*
X125521789Y-87210289D01*
X125609394Y-87079179D01*
X125669737Y-86933497D01*
X125700500Y-86778842D01*
X125700500Y-86621158D01*
X125700500Y-86621155D01*
X125700500Y-86620971D01*
X125700064Y-86618966D01*
X125671547Y-86475602D01*
X125669737Y-86466503D01*
X125669735Y-86466498D01*
X125609397Y-86320827D01*
X125609390Y-86320814D01*
X125521789Y-86189711D01*
X125521786Y-86189707D01*
X125521781Y-86189701D01*
X125410297Y-86078217D01*
X125410291Y-86078212D01*
X125410290Y-86078211D01*
X125279191Y-85990613D01*
X125279190Y-85990612D01*
X125279185Y-85990609D01*
X125279172Y-85990602D01*
X125279165Y-85990598D01*
X125133502Y-85930264D01*
X125133471Y-85930257D01*
X124978847Y-85899500D01*
X124978845Y-85899500D01*
X124978842Y-85899500D01*
X124821158Y-85899500D01*
X124821155Y-85899500D01*
X124821153Y-85899500D01*
X124666527Y-85930257D01*
X124666496Y-85930264D01*
X124520833Y-85990598D01*
X124520824Y-85990603D01*
X124520807Y-85990613D01*
X124389708Y-86078211D01*
X124389707Y-86078212D01*
X124389701Y-86078217D01*
X124278217Y-86189701D01*
X124278212Y-86189707D01*
X124278211Y-86189708D01*
X124190613Y-86320807D01*
X124190603Y-86320824D01*
X124190598Y-86320833D01*
X124130264Y-86466496D01*
X124130257Y-86466527D01*
X124099500Y-86621150D01*
X124099500Y-86621153D01*
X124099500Y-86778846D01*
X124099500Y-86778848D01*
X124099499Y-86778848D01*
X120500500Y-86778848D01*
X120500500Y-82178848D01*
X123899499Y-82178848D01*
X123930257Y-82333471D01*
X123930264Y-82333502D01*
X123990598Y-82479165D01*
X123990603Y-82479174D01*
X123990613Y-82479191D01*
X124078211Y-82610290D01*
X124078212Y-82610291D01*
X124078217Y-82610297D01*
X124189701Y-82721781D01*
X124189707Y-82721786D01*
X124189711Y-82721789D01*
X124320814Y-82809390D01*
X124320827Y-82809397D01*
X124466498Y-82869735D01*
X124466503Y-82869737D01*
X124621153Y-82900499D01*
X124621156Y-82900500D01*
X124621158Y-82900500D01*
X124778844Y-82900500D01*
X124778845Y-82900499D01*
X124933497Y-82869737D01*
X125079179Y-82809394D01*
X125210289Y-82721789D01*
X125321789Y-82610289D01*
X125409394Y-82479179D01*
X125469737Y-82333497D01*
X125500500Y-82178842D01*
X125500500Y-82021158D01*
X125500500Y-82021155D01*
X125500500Y-82020973D01*
X125500065Y-82018972D01*
X125470398Y-81869830D01*
X125469984Y-81867406D01*
X125469736Y-81866501D01*
X125449287Y-81817132D01*
X125449287Y-81817131D01*
X125409400Y-81720833D01*
X125409395Y-81720824D01*
X125409390Y-81720814D01*
X125321789Y-81589711D01*
X125321786Y-81589707D01*
X125321781Y-81589701D01*
X125210297Y-81478217D01*
X125210291Y-81478212D01*
X125210290Y-81478211D01*
X125079191Y-81390613D01*
X125079190Y-81390612D01*
X125079185Y-81390609D01*
X125079172Y-81390602D01*
X125079165Y-81390598D01*
X124933502Y-81330264D01*
X124933471Y-81330257D01*
X124778847Y-81299500D01*
X124778845Y-81299500D01*
X124778842Y-81299500D01*
X124621158Y-81299500D01*
X124621155Y-81299500D01*
X124621153Y-81299500D01*
X124466527Y-81330257D01*
X124466496Y-81330264D01*
X124320833Y-81390598D01*
X124320824Y-81390603D01*
X124320807Y-81390613D01*
X124189708Y-81478211D01*
X124189707Y-81478212D01*
X124189701Y-81478217D01*
X124078217Y-81589701D01*
X124078212Y-81589707D01*
X124078211Y-81589708D01*
X123990613Y-81720807D01*
X123990603Y-81720824D01*
X123990598Y-81720833D01*
X123930264Y-81866496D01*
X123930257Y-81866527D01*
X123899500Y-82021150D01*
X123899500Y-82021153D01*
X123899500Y-82178846D01*
X123899500Y-82178848D01*
X123899499Y-82178848D01*
X120500500Y-82178848D01*
X120500500Y-71778848D01*
X127899499Y-71778848D01*
X127930257Y-71933471D01*
X127930264Y-71933502D01*
X127990598Y-72079165D01*
X127990603Y-72079174D01*
X127990613Y-72079191D01*
X128078211Y-72210290D01*
X128078212Y-72210291D01*
X128078217Y-72210297D01*
X128189701Y-72321781D01*
X128189707Y-72321786D01*
X128189711Y-72321789D01*
X128320814Y-72409390D01*
X128320827Y-72409397D01*
X128466498Y-72469735D01*
X128466503Y-72469737D01*
X128621153Y-72500499D01*
X128621156Y-72500500D01*
X128621158Y-72500500D01*
X128778844Y-72500500D01*
X128778845Y-72500499D01*
X128933497Y-72469737D01*
X129079179Y-72409394D01*
X129210289Y-72321789D01*
X129321789Y-72210289D01*
X129409394Y-72079179D01*
X129469737Y-71933497D01*
X129500499Y-71778848D01*
X132499499Y-71778848D01*
X132530257Y-71933471D01*
X132530264Y-71933502D01*
X132590598Y-72079165D01*
X132590603Y-72079174D01*
X132590613Y-72079191D01*
X132678211Y-72210290D01*
X132678212Y-72210291D01*
X132678217Y-72210297D01*
X132789701Y-72321781D01*
X132789707Y-72321786D01*
X132789711Y-72321789D01*
X132920814Y-72409390D01*
X132920827Y-72409397D01*
X133066498Y-72469735D01*
X133066503Y-72469737D01*
X133221153Y-72500499D01*
X133221156Y-72500500D01*
X133221158Y-72500500D01*
X133378844Y-72500500D01*
X133378845Y-72500499D01*
X133533497Y-72469737D01*
X133679179Y-72409394D01*
X133810289Y-72321789D01*
X133921789Y-72210289D01*
X134009394Y-72079179D01*
X134069737Y-71933497D01*
X134100500Y-71778842D01*
X134100500Y-71621158D01*
X134100500Y-71621155D01*
X134100500Y-71620971D01*
X134100064Y-71618966D01*
X134069739Y-71466510D01*
X134069736Y-71466501D01*
X134036041Y-71385152D01*
X134009397Y-71320827D01*
X134009390Y-71320814D01*
X133921789Y-71189711D01*
X133921786Y-71189707D01*
X133921781Y-71189701D01*
X133810297Y-71078217D01*
X133810291Y-71078212D01*
X133810290Y-71078211D01*
X133679191Y-70990613D01*
X133679190Y-70990612D01*
X133679185Y-70990609D01*
X133679172Y-70990602D01*
X133679165Y-70990598D01*
X133533502Y-70930264D01*
X133533471Y-70930257D01*
X133378847Y-70899500D01*
X133378845Y-70899500D01*
X133378842Y-70899500D01*
X133221158Y-70899500D01*
X133221155Y-70899500D01*
X133221153Y-70899500D01*
X133066527Y-70930257D01*
X133066496Y-70930264D01*
X132920833Y-70990598D01*
X132920824Y-70990603D01*
X132920807Y-70990613D01*
X132789708Y-71078211D01*
X132789707Y-71078212D01*
X132789701Y-71078217D01*
X132678217Y-71189701D01*
X132678212Y-71189707D01*
X132678211Y-71189708D01*
X132590613Y-71320807D01*
X132590603Y-71320824D01*
X132590598Y-71320833D01*
X132530264Y-71466496D01*
X132530257Y-71466527D01*
X132499500Y-71621150D01*
X132499500Y-71621153D01*
X132499500Y-71778846D01*
X132499500Y-71778848D01*
X132499499Y-71778848D01*
X129500499Y-71778848D01*
X129500500Y-71778842D01*
X129500500Y-71621158D01*
X129500500Y-71621155D01*
X129500499Y-71621153D01*
X129469742Y-71466527D01*
X129469739Y-71466510D01*
X129469736Y-71466501D01*
X129436041Y-71385152D01*
X129409397Y-71320827D01*
X129409390Y-71320814D01*
X129321789Y-71189711D01*
X129321786Y-71189707D01*
X129321781Y-71189701D01*
X129210297Y-71078217D01*
X129210291Y-71078212D01*
X129210290Y-71078211D01*
X129079191Y-70990613D01*
X129079190Y-70990612D01*
X129079185Y-70990609D01*
X129079172Y-70990602D01*
X129079165Y-70990598D01*
X128933502Y-70930264D01*
X128933471Y-70930257D01*
X128778847Y-70899500D01*
X128778845Y-70899500D01*
X128778842Y-70899500D01*
X128621158Y-70899500D01*
X128621155Y-70899500D01*
X128621153Y-70899500D01*
X128466527Y-70930257D01*
X128466496Y-70930264D01*
X128320833Y-70990598D01*
X128320824Y-70990603D01*
X128320807Y-70990613D01*
X128189708Y-71078211D01*
X128189707Y-71078212D01*
X128189701Y-71078217D01*
X128078217Y-71189701D01*
X128078212Y-71189707D01*
X128078211Y-71189708D01*
X127990613Y-71320807D01*
X127990603Y-71320824D01*
X127990598Y-71320833D01*
X127930264Y-71466496D01*
X127930257Y-71466527D01*
X127899500Y-71621150D01*
X127899500Y-71621153D01*
X127899500Y-71778846D01*
X127899500Y-71778848D01*
X127899499Y-71778848D01*
X120500500Y-71778848D01*
X120500500Y-70529500D01*
X120520185Y-70462461D01*
X120572989Y-70416706D01*
X120624500Y-70405500D01*
X121972010Y-70405500D01*
X121972010Y-70405499D01*
X122013059Y-70403115D01*
X122030510Y-70402102D01*
X122030512Y-70402101D01*
X122030525Y-70402101D01*
X122059042Y-70398777D01*
X122116768Y-70388627D01*
X122116769Y-70388626D01*
X122120844Y-70387910D01*
X122190279Y-70395688D01*
X122244487Y-70439771D01*
X122245418Y-70441144D01*
X122258213Y-70460292D01*
X122258217Y-70460297D01*
X122369701Y-70571781D01*
X122369707Y-70571786D01*
X122369711Y-70571789D01*
X122500814Y-70659390D01*
X122500827Y-70659397D01*
X122646498Y-70719735D01*
X122646503Y-70719737D01*
X122801153Y-70750499D01*
X122801156Y-70750500D01*
X122801158Y-70750500D01*
X122958844Y-70750500D01*
X122958845Y-70750499D01*
X123113497Y-70719737D01*
X123259179Y-70659394D01*
X123390289Y-70571789D01*
X123501789Y-70460289D01*
X123517016Y-70437499D01*
X123570625Y-70392696D01*
X123639950Y-70383987D01*
X123644011Y-70384715D01*
X123645580Y-70385023D01*
X123645582Y-70385023D01*
X123645585Y-70385024D01*
X123788001Y-70405500D01*
X123788004Y-70405500D01*
X134972479Y-70405500D01*
X134972483Y-70405500D01*
X135039916Y-70400980D01*
X135039929Y-70400978D01*
X135039950Y-70400977D01*
X135072754Y-70396559D01*
X135139011Y-70383072D01*
X135270936Y-70325650D01*
X135311527Y-70300576D01*
X135330378Y-70288933D01*
X135382099Y-70245710D01*
X135440781Y-70196670D01*
X135448385Y-70185290D01*
X135501995Y-70140484D01*
X135571320Y-70131775D01*
X135634348Y-70161928D01*
G37*
%TD.AperFunction*%
%TD*%
%TA.AperFunction,Conductor*%
%TO.N,+3.3V*%
G36*
X159442539Y-64019685D02*
G01*
X159488294Y-64072489D01*
X159499500Y-64124000D01*
X159499500Y-109776000D01*
X159479815Y-109843039D01*
X159427011Y-109888794D01*
X159375500Y-109900000D01*
X154210587Y-109900000D01*
X154143548Y-109880315D01*
X154097793Y-109827511D01*
X154087849Y-109758353D01*
X154088970Y-109751808D01*
X154100500Y-109693844D01*
X154100500Y-109536155D01*
X154100499Y-109536153D01*
X154094355Y-109505264D01*
X154069737Y-109381503D01*
X154038256Y-109305500D01*
X154009397Y-109235827D01*
X154009390Y-109235814D01*
X153921789Y-109104711D01*
X153921786Y-109104707D01*
X153810292Y-108993213D01*
X153810288Y-108993210D01*
X153679185Y-108905609D01*
X153679172Y-108905602D01*
X153533501Y-108845264D01*
X153533489Y-108845261D01*
X153378845Y-108814500D01*
X153378842Y-108814500D01*
X153221158Y-108814500D01*
X153221155Y-108814500D01*
X153066510Y-108845261D01*
X153066498Y-108845264D01*
X152920827Y-108905602D01*
X152920814Y-108905609D01*
X152789711Y-108993210D01*
X152789707Y-108993213D01*
X152678213Y-109104707D01*
X152678210Y-109104711D01*
X152636011Y-109167867D01*
X152582399Y-109212672D01*
X152513074Y-109221379D01*
X152450046Y-109191224D01*
X152429807Y-109167867D01*
X152394289Y-109114711D01*
X152394286Y-109114707D01*
X152282792Y-109003213D01*
X152282788Y-109003210D01*
X152151685Y-108915609D01*
X152151672Y-108915602D01*
X152006001Y-108855264D01*
X152005989Y-108855261D01*
X151851345Y-108824500D01*
X151851342Y-108824500D01*
X151693658Y-108824500D01*
X151693655Y-108824500D01*
X151539010Y-108855261D01*
X151538998Y-108855264D01*
X151393327Y-108915602D01*
X151393314Y-108915609D01*
X151262211Y-109003210D01*
X151262207Y-109003213D01*
X151150713Y-109114707D01*
X151150710Y-109114711D01*
X151063109Y-109245814D01*
X151063102Y-109245827D01*
X151002764Y-109391498D01*
X151002761Y-109391510D01*
X150972000Y-109546153D01*
X150972000Y-109703844D01*
X150981541Y-109751808D01*
X150975314Y-109821399D01*
X150932452Y-109876577D01*
X150866562Y-109899822D01*
X150859924Y-109900000D01*
X150381287Y-109900000D01*
X150314248Y-109880315D01*
X150268493Y-109827511D01*
X150266726Y-109823452D01*
X150240880Y-109761053D01*
X150240873Y-109761040D01*
X150153272Y-109629937D01*
X150153269Y-109629933D01*
X150041775Y-109518439D01*
X150041771Y-109518436D01*
X149910668Y-109430835D01*
X149910655Y-109430828D01*
X149764984Y-109370490D01*
X149764972Y-109370487D01*
X149610328Y-109339726D01*
X149610325Y-109339726D01*
X149452641Y-109339726D01*
X149452638Y-109339726D01*
X149297993Y-109370487D01*
X149297981Y-109370490D01*
X149152310Y-109430828D01*
X149152297Y-109430835D01*
X149021194Y-109518436D01*
X149021190Y-109518439D01*
X148909696Y-109629933D01*
X148909693Y-109629937D01*
X148822092Y-109761040D01*
X148822085Y-109761053D01*
X148796240Y-109823452D01*
X148752400Y-109877856D01*
X148686106Y-109899921D01*
X148681679Y-109900000D01*
X148223466Y-109900000D01*
X148156427Y-109880315D01*
X148120364Y-109844891D01*
X148066789Y-109764711D01*
X148066786Y-109764707D01*
X147955292Y-109653213D01*
X147955288Y-109653210D01*
X147824185Y-109565609D01*
X147824172Y-109565602D01*
X147678501Y-109505264D01*
X147678489Y-109505261D01*
X147523845Y-109474500D01*
X147523842Y-109474500D01*
X147366158Y-109474500D01*
X147366155Y-109474500D01*
X147211510Y-109505261D01*
X147211498Y-109505264D01*
X147065827Y-109565602D01*
X147065814Y-109565609D01*
X146934711Y-109653210D01*
X146934707Y-109653213D01*
X146823213Y-109764707D01*
X146823210Y-109764711D01*
X146769636Y-109844891D01*
X146716024Y-109889696D01*
X146666534Y-109900000D01*
X143124000Y-109900000D01*
X143056961Y-109880315D01*
X143011206Y-109827511D01*
X143000000Y-109776000D01*
X143000000Y-108426153D01*
X154762000Y-108426153D01*
X154762000Y-108583846D01*
X154792761Y-108738489D01*
X154792764Y-108738501D01*
X154853102Y-108884172D01*
X154853109Y-108884185D01*
X154940710Y-109015288D01*
X154940713Y-109015292D01*
X155052207Y-109126786D01*
X155052211Y-109126789D01*
X155183314Y-109214390D01*
X155183327Y-109214397D01*
X155328998Y-109274735D01*
X155329003Y-109274737D01*
X155483653Y-109305499D01*
X155483656Y-109305500D01*
X155483658Y-109305500D01*
X155641344Y-109305500D01*
X155641345Y-109305499D01*
X155795997Y-109274737D01*
X155941679Y-109214394D01*
X156072789Y-109126789D01*
X156184289Y-109015289D01*
X156271894Y-108884179D01*
X156332237Y-108738497D01*
X156363000Y-108583842D01*
X156363000Y-108426158D01*
X156363000Y-108426155D01*
X156362999Y-108426153D01*
X156341334Y-108317237D01*
X156332237Y-108271503D01*
X156289898Y-108169286D01*
X156271897Y-108125827D01*
X156271890Y-108125814D01*
X156184289Y-107994711D01*
X156184286Y-107994707D01*
X156072792Y-107883213D01*
X156072788Y-107883210D01*
X155941685Y-107795609D01*
X155941672Y-107795602D01*
X155796001Y-107735264D01*
X155795989Y-107735261D01*
X155641345Y-107704500D01*
X155641342Y-107704500D01*
X155483658Y-107704500D01*
X155483655Y-107704500D01*
X155329010Y-107735261D01*
X155328998Y-107735264D01*
X155183327Y-107795602D01*
X155183314Y-107795609D01*
X155052211Y-107883210D01*
X155052207Y-107883213D01*
X154940713Y-107994707D01*
X154940710Y-107994711D01*
X154853109Y-108125814D01*
X154853102Y-108125827D01*
X154792764Y-108271498D01*
X154792761Y-108271510D01*
X154762000Y-108426153D01*
X143000000Y-108426153D01*
X143000000Y-107468653D01*
X147024161Y-107468653D01*
X147024161Y-107626346D01*
X147054922Y-107780989D01*
X147054925Y-107781001D01*
X147115263Y-107926672D01*
X147115270Y-107926685D01*
X147202871Y-108057788D01*
X147202874Y-108057792D01*
X147314368Y-108169286D01*
X147314372Y-108169289D01*
X147445475Y-108256890D01*
X147445488Y-108256897D01*
X147591159Y-108317235D01*
X147591164Y-108317237D01*
X147745814Y-108347999D01*
X147745817Y-108348000D01*
X147745819Y-108348000D01*
X147903505Y-108348000D01*
X147903506Y-108347999D01*
X148058158Y-108317237D01*
X148168571Y-108271503D01*
X148203833Y-108256897D01*
X148203833Y-108256896D01*
X148203840Y-108256894D01*
X148334950Y-108169289D01*
X148446450Y-108057789D01*
X148534055Y-107926679D01*
X148594398Y-107780997D01*
X148625161Y-107626342D01*
X148625161Y-107468658D01*
X148625161Y-107468655D01*
X148625160Y-107468653D01*
X148594398Y-107314003D01*
X148593384Y-107311555D01*
X148534058Y-107168327D01*
X148534051Y-107168314D01*
X148446450Y-107037211D01*
X148446447Y-107037207D01*
X148334953Y-106925713D01*
X148334949Y-106925710D01*
X148203846Y-106838109D01*
X148203833Y-106838102D01*
X148058162Y-106777764D01*
X148058150Y-106777761D01*
X147903506Y-106747000D01*
X147903503Y-106747000D01*
X147745819Y-106747000D01*
X147745816Y-106747000D01*
X147591171Y-106777761D01*
X147591159Y-106777764D01*
X147445488Y-106838102D01*
X147445475Y-106838109D01*
X147314372Y-106925710D01*
X147314368Y-106925713D01*
X147202874Y-107037207D01*
X147202871Y-107037211D01*
X147115270Y-107168314D01*
X147115263Y-107168327D01*
X147054925Y-107313998D01*
X147054922Y-107314010D01*
X147024161Y-107468653D01*
X143000000Y-107468653D01*
X143000000Y-105953713D01*
X150839500Y-105953713D01*
X150839500Y-106166286D01*
X150872753Y-106376239D01*
X150938444Y-106578414D01*
X151034951Y-106767820D01*
X151159890Y-106939786D01*
X151310213Y-107090109D01*
X151482179Y-107215048D01*
X151482181Y-107215049D01*
X151482184Y-107215051D01*
X151671588Y-107311557D01*
X151873757Y-107377246D01*
X152083713Y-107410500D01*
X152083714Y-107410500D01*
X152296286Y-107410500D01*
X152296287Y-107410500D01*
X152506243Y-107377246D01*
X152708412Y-107311557D01*
X152897816Y-107215051D01*
X152962135Y-107168321D01*
X153069786Y-107090109D01*
X153069788Y-107090106D01*
X153069792Y-107090104D01*
X153220104Y-106939792D01*
X153220106Y-106939788D01*
X153220109Y-106939786D01*
X153345048Y-106767820D01*
X153345047Y-106767820D01*
X153345051Y-106767816D01*
X153349514Y-106759054D01*
X153397488Y-106708259D01*
X153465308Y-106691463D01*
X153531444Y-106713999D01*
X153570486Y-106759056D01*
X153574951Y-106767820D01*
X153699890Y-106939786D01*
X153850213Y-107090109D01*
X154022179Y-107215048D01*
X154022181Y-107215049D01*
X154022184Y-107215051D01*
X154211588Y-107311557D01*
X154413757Y-107377246D01*
X154623713Y-107410500D01*
X154623714Y-107410500D01*
X154836286Y-107410500D01*
X154836287Y-107410500D01*
X155046243Y-107377246D01*
X155248412Y-107311557D01*
X155437816Y-107215051D01*
X155609792Y-107090104D01*
X155723329Y-106976566D01*
X155784648Y-106943084D01*
X155854340Y-106948068D01*
X155910274Y-106989939D01*
X155927189Y-107020917D01*
X155976202Y-107152328D01*
X155976206Y-107152335D01*
X156062452Y-107267544D01*
X156062455Y-107267547D01*
X156177664Y-107353793D01*
X156177671Y-107353797D01*
X156312517Y-107404091D01*
X156312516Y-107404091D01*
X156319444Y-107404835D01*
X156372127Y-107410500D01*
X158167872Y-107410499D01*
X158227483Y-107404091D01*
X158362331Y-107353796D01*
X158477546Y-107267546D01*
X158563796Y-107152331D01*
X158614091Y-107017483D01*
X158620500Y-106957873D01*
X158620499Y-105162128D01*
X158614091Y-105102517D01*
X158612810Y-105099083D01*
X158563797Y-104967671D01*
X158563793Y-104967664D01*
X158477547Y-104852455D01*
X158477544Y-104852452D01*
X158362335Y-104766206D01*
X158362328Y-104766202D01*
X158227482Y-104715908D01*
X158227483Y-104715908D01*
X158167883Y-104709501D01*
X158167881Y-104709500D01*
X158167873Y-104709500D01*
X158167864Y-104709500D01*
X156372129Y-104709500D01*
X156372123Y-104709501D01*
X156312516Y-104715908D01*
X156177671Y-104766202D01*
X156177664Y-104766206D01*
X156062455Y-104852452D01*
X156062452Y-104852455D01*
X155976206Y-104967664D01*
X155976203Y-104967669D01*
X155927189Y-105099083D01*
X155885317Y-105155016D01*
X155819853Y-105179433D01*
X155751580Y-105164581D01*
X155723326Y-105143430D01*
X155609786Y-105029890D01*
X155437820Y-104904951D01*
X155248414Y-104808444D01*
X155248413Y-104808443D01*
X155248412Y-104808443D01*
X155046243Y-104742754D01*
X155046241Y-104742753D01*
X155046240Y-104742753D01*
X154884957Y-104717208D01*
X154836287Y-104709500D01*
X154623713Y-104709500D01*
X154575042Y-104717208D01*
X154413760Y-104742753D01*
X154211585Y-104808444D01*
X154022179Y-104904951D01*
X153850213Y-105029890D01*
X153699890Y-105180213D01*
X153574949Y-105352182D01*
X153570484Y-105360946D01*
X153522509Y-105411742D01*
X153454688Y-105428536D01*
X153388553Y-105405998D01*
X153349516Y-105360946D01*
X153345050Y-105352182D01*
X153220109Y-105180213D01*
X153069786Y-105029890D01*
X152897820Y-104904951D01*
X152708414Y-104808444D01*
X152708413Y-104808443D01*
X152708412Y-104808443D01*
X152506243Y-104742754D01*
X152506241Y-104742753D01*
X152506240Y-104742753D01*
X152344957Y-104717208D01*
X152296287Y-104709500D01*
X152083713Y-104709500D01*
X152035042Y-104717208D01*
X151873760Y-104742753D01*
X151671585Y-104808444D01*
X151482179Y-104904951D01*
X151310213Y-105029890D01*
X151159890Y-105180213D01*
X151034951Y-105352179D01*
X150938444Y-105541585D01*
X150872753Y-105743760D01*
X150839500Y-105953713D01*
X143000000Y-105953713D01*
X143000000Y-101202690D01*
X143019685Y-101135651D01*
X143072489Y-101089896D01*
X143141647Y-101079952D01*
X143205203Y-101108977D01*
X143227102Y-101133800D01*
X143278207Y-101210284D01*
X143278213Y-101210292D01*
X143389707Y-101321786D01*
X143389711Y-101321789D01*
X143520814Y-101409390D01*
X143520827Y-101409397D01*
X143666498Y-101469735D01*
X143666503Y-101469737D01*
X143821153Y-101500499D01*
X143821156Y-101500500D01*
X143821158Y-101500500D01*
X143978844Y-101500500D01*
X143978845Y-101500499D01*
X144133497Y-101469737D01*
X144279179Y-101409394D01*
X144410289Y-101321789D01*
X144521789Y-101210289D01*
X144608216Y-101080941D01*
X144609390Y-101079185D01*
X144609390Y-101079184D01*
X144609394Y-101079179D01*
X144669737Y-100933497D01*
X144700500Y-100778842D01*
X144700500Y-100621158D01*
X144700500Y-100621155D01*
X144687077Y-100553677D01*
X147289873Y-100553677D01*
X147289873Y-100553678D01*
X147324858Y-100579096D01*
X147500164Y-100668418D01*
X147687294Y-100729221D01*
X147881618Y-100760000D01*
X148078382Y-100760000D01*
X148272705Y-100729221D01*
X148459835Y-100668418D01*
X148635143Y-100579095D01*
X148670125Y-100553678D01*
X148670126Y-100553678D01*
X147980001Y-99863553D01*
X147980000Y-99863553D01*
X147289873Y-100553677D01*
X144687077Y-100553677D01*
X144682489Y-100530611D01*
X144682489Y-100530610D01*
X144669738Y-100466510D01*
X144669737Y-100466503D01*
X144669735Y-100466498D01*
X144609397Y-100320827D01*
X144609390Y-100320814D01*
X144521789Y-100189711D01*
X144521786Y-100189707D01*
X144410292Y-100078213D01*
X144410288Y-100078210D01*
X144279185Y-99990609D01*
X144279172Y-99990602D01*
X144133501Y-99930264D01*
X144133489Y-99930261D01*
X143978845Y-99899500D01*
X143978842Y-99899500D01*
X143821158Y-99899500D01*
X143821155Y-99899500D01*
X143666510Y-99930261D01*
X143666498Y-99930264D01*
X143520827Y-99990602D01*
X143520814Y-99990609D01*
X143389711Y-100078210D01*
X143389707Y-100078213D01*
X143278213Y-100189707D01*
X143278210Y-100189711D01*
X143227102Y-100266200D01*
X143173490Y-100311005D01*
X143104165Y-100319712D01*
X143041137Y-100289557D01*
X143004418Y-100230114D01*
X143000000Y-100197309D01*
X143000000Y-99411617D01*
X146730000Y-99411617D01*
X146730000Y-99608382D01*
X146760778Y-99802705D01*
X146821581Y-99989835D01*
X146910905Y-100165145D01*
X146936319Y-100200125D01*
X146936320Y-100200125D01*
X147626446Y-99510000D01*
X147626446Y-99509999D01*
X147580369Y-99463922D01*
X147630000Y-99463922D01*
X147630000Y-99556078D01*
X147653852Y-99645095D01*
X147699930Y-99724905D01*
X147765095Y-99790070D01*
X147844905Y-99836148D01*
X147933922Y-99860000D01*
X148026078Y-99860000D01*
X148115095Y-99836148D01*
X148194905Y-99790070D01*
X148260070Y-99724905D01*
X148306148Y-99645095D01*
X148330000Y-99556078D01*
X148330000Y-99509999D01*
X148333553Y-99509999D01*
X148333553Y-99510001D01*
X149023678Y-100200126D01*
X149023678Y-100200125D01*
X149049095Y-100165143D01*
X149138418Y-99989835D01*
X149199221Y-99802705D01*
X149230000Y-99608382D01*
X149230000Y-99411617D01*
X149199221Y-99217294D01*
X149138418Y-99030164D01*
X149049096Y-98854858D01*
X149023678Y-98819873D01*
X149023677Y-98819873D01*
X148333553Y-99509999D01*
X148330000Y-99509999D01*
X148330000Y-99463922D01*
X148306148Y-99374905D01*
X148260070Y-99295095D01*
X148194905Y-99229930D01*
X148115095Y-99183852D01*
X148026078Y-99160000D01*
X147933922Y-99160000D01*
X147844905Y-99183852D01*
X147765095Y-99229930D01*
X147699930Y-99295095D01*
X147653852Y-99374905D01*
X147630000Y-99463922D01*
X147580369Y-99463922D01*
X146936320Y-98819872D01*
X146936320Y-98819873D01*
X146910902Y-98854859D01*
X146910899Y-98854863D01*
X146821582Y-99030161D01*
X146760778Y-99217294D01*
X146730000Y-99411617D01*
X143000000Y-99411617D01*
X143000000Y-98466320D01*
X147289872Y-98466320D01*
X147980000Y-99156446D01*
X147980001Y-99156446D01*
X148670125Y-98466320D01*
X148670125Y-98466319D01*
X148635145Y-98440905D01*
X148459835Y-98351581D01*
X148272705Y-98290778D01*
X148078382Y-98260000D01*
X147881618Y-98260000D01*
X147687294Y-98290778D01*
X147500161Y-98351582D01*
X147324863Y-98440899D01*
X147324859Y-98440902D01*
X147289873Y-98466320D01*
X147289872Y-98466320D01*
X143000000Y-98466320D01*
X143000000Y-95921153D01*
X145299500Y-95921153D01*
X145299500Y-96078846D01*
X145330261Y-96233489D01*
X145330264Y-96233501D01*
X145390602Y-96379172D01*
X145390609Y-96379185D01*
X145478210Y-96510288D01*
X145478213Y-96510292D01*
X145589707Y-96621786D01*
X145589711Y-96621789D01*
X145720814Y-96709390D01*
X145720827Y-96709397D01*
X145866498Y-96769735D01*
X145866503Y-96769737D01*
X146016131Y-96799500D01*
X146021153Y-96800499D01*
X146021156Y-96800500D01*
X146021158Y-96800500D01*
X146178844Y-96800500D01*
X146178845Y-96800499D01*
X146333497Y-96769737D01*
X146449255Y-96721789D01*
X146479172Y-96709397D01*
X146479172Y-96709396D01*
X146479179Y-96709394D01*
X146610289Y-96621789D01*
X146721789Y-96510289D01*
X146809394Y-96379179D01*
X146869737Y-96233497D01*
X146900500Y-96078842D01*
X146900500Y-96021153D01*
X148799500Y-96021153D01*
X148799500Y-96178846D01*
X148830261Y-96333489D01*
X148830264Y-96333501D01*
X148890602Y-96479172D01*
X148890609Y-96479185D01*
X148978210Y-96610288D01*
X148978213Y-96610292D01*
X149080240Y-96712319D01*
X149113725Y-96773642D01*
X149108741Y-96843334D01*
X149080240Y-96887681D01*
X148978213Y-96989707D01*
X148978210Y-96989711D01*
X148890609Y-97120814D01*
X148890602Y-97120827D01*
X148830264Y-97266498D01*
X148830261Y-97266510D01*
X148799500Y-97421153D01*
X148799500Y-97578846D01*
X148830261Y-97733489D01*
X148830264Y-97733501D01*
X148890602Y-97879172D01*
X148890609Y-97879185D01*
X148978210Y-98010288D01*
X148978213Y-98010292D01*
X149089707Y-98121786D01*
X149089711Y-98121789D01*
X149220814Y-98209390D01*
X149220827Y-98209397D01*
X149366498Y-98269735D01*
X149366503Y-98269737D01*
X149472283Y-98290778D01*
X149521153Y-98300499D01*
X149521156Y-98300500D01*
X149521158Y-98300500D01*
X149678844Y-98300500D01*
X149678845Y-98300499D01*
X149833497Y-98269737D01*
X149979179Y-98209394D01*
X150110289Y-98121789D01*
X150221789Y-98010289D01*
X150309394Y-97879179D01*
X150369737Y-97733497D01*
X150400500Y-97578842D01*
X150400500Y-97421158D01*
X150400500Y-97421155D01*
X150400499Y-97421153D01*
X150373380Y-97284817D01*
X150369737Y-97266503D01*
X150350815Y-97220821D01*
X150329140Y-97168491D01*
X150312006Y-97127126D01*
X154514500Y-97127126D01*
X154514500Y-97284819D01*
X154545261Y-97439462D01*
X154545264Y-97439474D01*
X154605602Y-97585145D01*
X154605609Y-97585158D01*
X154693210Y-97716261D01*
X154693213Y-97716265D01*
X154804707Y-97827759D01*
X154804711Y-97827762D01*
X154935814Y-97915363D01*
X154935827Y-97915370D01*
X155081498Y-97975708D01*
X155081503Y-97975710D01*
X155236153Y-98006472D01*
X155236156Y-98006473D01*
X155236158Y-98006473D01*
X155393844Y-98006473D01*
X155393845Y-98006472D01*
X155548497Y-97975710D01*
X155694179Y-97915367D01*
X155825289Y-97827762D01*
X155936789Y-97716262D01*
X156024394Y-97585152D01*
X156084737Y-97439470D01*
X156115500Y-97284815D01*
X156115500Y-97127131D01*
X156115500Y-97127128D01*
X156115499Y-97127126D01*
X156088164Y-96989707D01*
X156084737Y-96972476D01*
X156049614Y-96887681D01*
X156024397Y-96826800D01*
X156024390Y-96826787D01*
X155936789Y-96695684D01*
X155936786Y-96695680D01*
X155825292Y-96584186D01*
X155825288Y-96584183D01*
X155694185Y-96496582D01*
X155694172Y-96496575D01*
X155548501Y-96436237D01*
X155548489Y-96436234D01*
X155393845Y-96405473D01*
X155393842Y-96405473D01*
X155236158Y-96405473D01*
X155236155Y-96405473D01*
X155081510Y-96436234D01*
X155081498Y-96436237D01*
X154935827Y-96496575D01*
X154935814Y-96496582D01*
X154804711Y-96584183D01*
X154804707Y-96584186D01*
X154693213Y-96695680D01*
X154693210Y-96695684D01*
X154605609Y-96826787D01*
X154605602Y-96826800D01*
X154545264Y-96972471D01*
X154545261Y-96972483D01*
X154514500Y-97127126D01*
X150312006Y-97127126D01*
X150309397Y-97120827D01*
X150309390Y-97120814D01*
X150221789Y-96989711D01*
X150221786Y-96989707D01*
X150119760Y-96887681D01*
X150086275Y-96826358D01*
X150091259Y-96756666D01*
X150119760Y-96712319D01*
X150221786Y-96610292D01*
X150221789Y-96610289D01*
X150309394Y-96479179D01*
X150369737Y-96333497D01*
X150400500Y-96178842D01*
X150400500Y-96021158D01*
X150400500Y-96021155D01*
X150400499Y-96021153D01*
X150369737Y-95866503D01*
X150328314Y-95766498D01*
X150309397Y-95720827D01*
X150309390Y-95720814D01*
X150265767Y-95655528D01*
X150244889Y-95588851D01*
X150263373Y-95521470D01*
X150315352Y-95474780D01*
X150384322Y-95463604D01*
X150393061Y-95465020D01*
X150521155Y-95490500D01*
X150521158Y-95490500D01*
X150678844Y-95490500D01*
X150678845Y-95490499D01*
X150833497Y-95459737D01*
X150979179Y-95399394D01*
X151110289Y-95311789D01*
X151221789Y-95200289D01*
X151309394Y-95069179D01*
X151369737Y-94923497D01*
X151383440Y-94854607D01*
X151392764Y-94807736D01*
X153722620Y-94807736D01*
X153722620Y-94965429D01*
X153753381Y-95120072D01*
X153753384Y-95120084D01*
X153813722Y-95265755D01*
X153813729Y-95265768D01*
X153901330Y-95396871D01*
X153901333Y-95396875D01*
X154012827Y-95508369D01*
X154012831Y-95508372D01*
X154143934Y-95595973D01*
X154143947Y-95595980D01*
X154287711Y-95655528D01*
X154289623Y-95656320D01*
X154444273Y-95687082D01*
X154444276Y-95687083D01*
X154444278Y-95687083D01*
X154601964Y-95687083D01*
X154601965Y-95687082D01*
X154756617Y-95656320D01*
X154902299Y-95595977D01*
X155033409Y-95508372D01*
X155144909Y-95396872D01*
X155232514Y-95265762D01*
X155292857Y-95120080D01*
X155323620Y-94965425D01*
X155323620Y-94807741D01*
X155323620Y-94807738D01*
X155323619Y-94807736D01*
X155292858Y-94653093D01*
X155292857Y-94653086D01*
X155275488Y-94611153D01*
X155232517Y-94507410D01*
X155232510Y-94507397D01*
X155144909Y-94376294D01*
X155144906Y-94376290D01*
X155033412Y-94264796D01*
X155033408Y-94264793D01*
X154902305Y-94177192D01*
X154902292Y-94177185D01*
X154756621Y-94116847D01*
X154756609Y-94116844D01*
X154601965Y-94086083D01*
X154601962Y-94086083D01*
X154444278Y-94086083D01*
X154444275Y-94086083D01*
X154289630Y-94116844D01*
X154289618Y-94116847D01*
X154143947Y-94177185D01*
X154143934Y-94177192D01*
X154012831Y-94264793D01*
X154012827Y-94264796D01*
X153901333Y-94376290D01*
X153901330Y-94376294D01*
X153813729Y-94507397D01*
X153813722Y-94507410D01*
X153753384Y-94653081D01*
X153753381Y-94653093D01*
X153722620Y-94807736D01*
X151392764Y-94807736D01*
X151398782Y-94777480D01*
X151398786Y-94777459D01*
X151400500Y-94768841D01*
X151400500Y-94611155D01*
X151400499Y-94611153D01*
X151379862Y-94507404D01*
X151369737Y-94456503D01*
X151336512Y-94376290D01*
X151309397Y-94310827D01*
X151309390Y-94310814D01*
X151221789Y-94179711D01*
X151221786Y-94179707D01*
X151110292Y-94068213D01*
X151110288Y-94068210D01*
X150979185Y-93980609D01*
X150979172Y-93980602D01*
X150833501Y-93920264D01*
X150833489Y-93920261D01*
X150678845Y-93889500D01*
X150678842Y-93889500D01*
X150521158Y-93889500D01*
X150521155Y-93889500D01*
X150366510Y-93920261D01*
X150366498Y-93920264D01*
X150220827Y-93980602D01*
X150220814Y-93980609D01*
X150089711Y-94068210D01*
X150089707Y-94068213D01*
X149978213Y-94179707D01*
X149978210Y-94179711D01*
X149890609Y-94310814D01*
X149890602Y-94310827D01*
X149830264Y-94456498D01*
X149830261Y-94456510D01*
X149799500Y-94611153D01*
X149799500Y-94768846D01*
X149830261Y-94923489D01*
X149830264Y-94923501D01*
X149890602Y-95069172D01*
X149890609Y-95069185D01*
X149934232Y-95134471D01*
X149955110Y-95201149D01*
X149936625Y-95268529D01*
X149884646Y-95315219D01*
X149815676Y-95326395D01*
X149806939Y-95324979D01*
X149678846Y-95299500D01*
X149678842Y-95299500D01*
X149521158Y-95299500D01*
X149521155Y-95299500D01*
X149366510Y-95330261D01*
X149366498Y-95330264D01*
X149220827Y-95390602D01*
X149220814Y-95390609D01*
X149089711Y-95478210D01*
X149089707Y-95478213D01*
X148978213Y-95589707D01*
X148978210Y-95589711D01*
X148890609Y-95720814D01*
X148890602Y-95720827D01*
X148830264Y-95866498D01*
X148830261Y-95866510D01*
X148799500Y-96021153D01*
X146900500Y-96021153D01*
X146900500Y-95921158D01*
X146900500Y-95921155D01*
X146900499Y-95921153D01*
X146869738Y-95766510D01*
X146869737Y-95766503D01*
X146850812Y-95720814D01*
X146809397Y-95620827D01*
X146809390Y-95620814D01*
X146721789Y-95489711D01*
X146721786Y-95489707D01*
X146610292Y-95378213D01*
X146610288Y-95378210D01*
X146479185Y-95290609D01*
X146479172Y-95290602D01*
X146333501Y-95230264D01*
X146333489Y-95230261D01*
X146178845Y-95199500D01*
X146178842Y-95199500D01*
X146021158Y-95199500D01*
X146021155Y-95199500D01*
X145866510Y-95230261D01*
X145866498Y-95230264D01*
X145720827Y-95290602D01*
X145720814Y-95290609D01*
X145589711Y-95378210D01*
X145589707Y-95378213D01*
X145478213Y-95489707D01*
X145478210Y-95489711D01*
X145390609Y-95620814D01*
X145390602Y-95620827D01*
X145330264Y-95766498D01*
X145330261Y-95766510D01*
X145299500Y-95921153D01*
X143000000Y-95921153D01*
X143000000Y-92421153D01*
X145199500Y-92421153D01*
X145199500Y-92578846D01*
X145230261Y-92733489D01*
X145230264Y-92733501D01*
X145290602Y-92879172D01*
X145290609Y-92879185D01*
X145378210Y-93010288D01*
X145378213Y-93010292D01*
X145489707Y-93121786D01*
X145489711Y-93121789D01*
X145620814Y-93209390D01*
X145620827Y-93209397D01*
X145766498Y-93269735D01*
X145766503Y-93269737D01*
X145921153Y-93300499D01*
X145921156Y-93300500D01*
X145921158Y-93300500D01*
X146078844Y-93300500D01*
X146078845Y-93300499D01*
X146233497Y-93269737D01*
X146379179Y-93209394D01*
X146510289Y-93121789D01*
X146621789Y-93010289D01*
X146709394Y-92879179D01*
X146769737Y-92733497D01*
X146800500Y-92578842D01*
X146800500Y-92421158D01*
X146800500Y-92421155D01*
X146800499Y-92421153D01*
X146769738Y-92266510D01*
X146769737Y-92266503D01*
X146769735Y-92266498D01*
X146709397Y-92120827D01*
X146709390Y-92120814D01*
X146621789Y-91989711D01*
X146621786Y-91989707D01*
X146510292Y-91878213D01*
X146510288Y-91878210D01*
X146379185Y-91790609D01*
X146379172Y-91790602D01*
X146233501Y-91730264D01*
X146233489Y-91730261D01*
X146078845Y-91699500D01*
X146078842Y-91699500D01*
X145921158Y-91699500D01*
X145921155Y-91699500D01*
X145766510Y-91730261D01*
X145766498Y-91730264D01*
X145620827Y-91790602D01*
X145620814Y-91790609D01*
X145489711Y-91878210D01*
X145489707Y-91878213D01*
X145378213Y-91989707D01*
X145378210Y-91989711D01*
X145290609Y-92120814D01*
X145290602Y-92120827D01*
X145230264Y-92266498D01*
X145230261Y-92266510D01*
X145199500Y-92421153D01*
X143000000Y-92421153D01*
X143000000Y-91888527D01*
X143019685Y-91821488D01*
X143072489Y-91775733D01*
X143141647Y-91765789D01*
X143205203Y-91794814D01*
X143227103Y-91819638D01*
X143238209Y-91836260D01*
X143238213Y-91836265D01*
X143349707Y-91947759D01*
X143349711Y-91947762D01*
X143480814Y-92035363D01*
X143480827Y-92035370D01*
X143626498Y-92095708D01*
X143626503Y-92095710D01*
X143752744Y-92120821D01*
X143781153Y-92126472D01*
X143781156Y-92126473D01*
X143781158Y-92126473D01*
X143938844Y-92126473D01*
X143938845Y-92126472D01*
X144093497Y-92095710D01*
X144239179Y-92035367D01*
X144370289Y-91947762D01*
X144481789Y-91836262D01*
X144569394Y-91705152D01*
X144629737Y-91559470D01*
X144660500Y-91404815D01*
X144660500Y-91247131D01*
X144660500Y-91247128D01*
X144660499Y-91247126D01*
X144629738Y-91092483D01*
X144629737Y-91092476D01*
X144608199Y-91040478D01*
X144569397Y-90946800D01*
X144569390Y-90946787D01*
X144481789Y-90815684D01*
X144481786Y-90815680D01*
X144370292Y-90704186D01*
X144370288Y-90704183D01*
X144239185Y-90616582D01*
X144239173Y-90616576D01*
X144222557Y-90609693D01*
X144168154Y-90565851D01*
X144146091Y-90499556D01*
X144148394Y-90470945D01*
X144170500Y-90359815D01*
X144170500Y-90202131D01*
X144170500Y-90202128D01*
X144170499Y-90202126D01*
X144154111Y-90119738D01*
X144139737Y-90047476D01*
X144139735Y-90047471D01*
X144079397Y-89901800D01*
X144079390Y-89901787D01*
X143991789Y-89770684D01*
X143991786Y-89770680D01*
X143962659Y-89741553D01*
X143929174Y-89680230D01*
X143934158Y-89610538D01*
X143962659Y-89566191D01*
X143979389Y-89549462D01*
X144066994Y-89418352D01*
X144074814Y-89399474D01*
X144127335Y-89272674D01*
X144127337Y-89272670D01*
X144127639Y-89271153D01*
X155949500Y-89271153D01*
X155949500Y-89428846D01*
X155980261Y-89583489D01*
X155980264Y-89583501D01*
X156040602Y-89729172D01*
X156040609Y-89729185D01*
X156128210Y-89860288D01*
X156128213Y-89860292D01*
X156239707Y-89971786D01*
X156239711Y-89971789D01*
X156370814Y-90059390D01*
X156370827Y-90059397D01*
X156516498Y-90119735D01*
X156516503Y-90119737D01*
X156671153Y-90150499D01*
X156671156Y-90150500D01*
X156671158Y-90150500D01*
X156828844Y-90150500D01*
X156828845Y-90150499D01*
X156983497Y-90119737D01*
X157129179Y-90059394D01*
X157260289Y-89971789D01*
X157305185Y-89926892D01*
X157366507Y-89893407D01*
X157436198Y-89898391D01*
X157440318Y-89900012D01*
X157526498Y-89935708D01*
X157526503Y-89935710D01*
X157681153Y-89966472D01*
X157681156Y-89966473D01*
X157681158Y-89966473D01*
X157838844Y-89966473D01*
X157838845Y-89966472D01*
X157993497Y-89935710D01*
X158139179Y-89875367D01*
X158270289Y-89787762D01*
X158381789Y-89676262D01*
X158469394Y-89545152D01*
X158529737Y-89399470D01*
X158560500Y-89244815D01*
X158560500Y-89087131D01*
X158560500Y-89087128D01*
X158560499Y-89087126D01*
X158529737Y-88932476D01*
X158477218Y-88805683D01*
X158469397Y-88786800D01*
X158469390Y-88786787D01*
X158381789Y-88655684D01*
X158381786Y-88655680D01*
X158270292Y-88544186D01*
X158270288Y-88544183D01*
X158139185Y-88456582D01*
X158139172Y-88456575D01*
X157993501Y-88396237D01*
X157993489Y-88396234D01*
X157838845Y-88365473D01*
X157838842Y-88365473D01*
X157681158Y-88365473D01*
X157681155Y-88365473D01*
X157526510Y-88396234D01*
X157526498Y-88396237D01*
X157380827Y-88456575D01*
X157380814Y-88456582D01*
X157249714Y-88544181D01*
X157249708Y-88544185D01*
X157204811Y-88589082D01*
X157143488Y-88622566D01*
X157073796Y-88617580D01*
X157069680Y-88615960D01*
X156983501Y-88580264D01*
X156983489Y-88580261D01*
X156828845Y-88549500D01*
X156828842Y-88549500D01*
X156671158Y-88549500D01*
X156671155Y-88549500D01*
X156516510Y-88580261D01*
X156516498Y-88580264D01*
X156370827Y-88640602D01*
X156370814Y-88640609D01*
X156239711Y-88728210D01*
X156239707Y-88728213D01*
X156128213Y-88839707D01*
X156128210Y-88839711D01*
X156040609Y-88970814D01*
X156040602Y-88970827D01*
X155980264Y-89116498D01*
X155980261Y-89116510D01*
X155949500Y-89271153D01*
X144127639Y-89271153D01*
X144132877Y-89244819D01*
X144133662Y-89240875D01*
X144158099Y-89118019D01*
X144158100Y-89118017D01*
X144158100Y-88960328D01*
X144158099Y-88960326D01*
X144127338Y-88805683D01*
X144127337Y-88805676D01*
X144095250Y-88728210D01*
X144066997Y-88660000D01*
X144066990Y-88659987D01*
X143979389Y-88528884D01*
X143979386Y-88528880D01*
X143867892Y-88417386D01*
X143867888Y-88417383D01*
X143736785Y-88329782D01*
X143736772Y-88329775D01*
X143591101Y-88269437D01*
X143591089Y-88269434D01*
X143436445Y-88238673D01*
X143436442Y-88238673D01*
X143278758Y-88238673D01*
X143278755Y-88238673D01*
X143148191Y-88264644D01*
X143078600Y-88258417D01*
X143023422Y-88215554D01*
X143000178Y-88149664D01*
X143000000Y-88143027D01*
X143000000Y-87750918D01*
X143019685Y-87683879D01*
X143072489Y-87638124D01*
X143141647Y-87628180D01*
X143148169Y-87629297D01*
X143228337Y-87645243D01*
X143278756Y-87655273D01*
X143278758Y-87655273D01*
X143436444Y-87655273D01*
X143436445Y-87655272D01*
X143591097Y-87624510D01*
X143736779Y-87564167D01*
X143818006Y-87509893D01*
X155629499Y-87509893D01*
X155658340Y-87654880D01*
X155658343Y-87654890D01*
X155714912Y-87791461D01*
X155714919Y-87791474D01*
X155797048Y-87914388D01*
X155797051Y-87914392D01*
X155901580Y-88018921D01*
X155901584Y-88018924D01*
X156024498Y-88101053D01*
X156024511Y-88101060D01*
X156141853Y-88149664D01*
X156161087Y-88157631D01*
X156161091Y-88157631D01*
X156161092Y-88157632D01*
X156306079Y-88186473D01*
X156306082Y-88186473D01*
X156453920Y-88186473D01*
X156551462Y-88167069D01*
X156598913Y-88157631D01*
X156735495Y-88101057D01*
X156858416Y-88018924D01*
X156962951Y-87914389D01*
X157045084Y-87791468D01*
X157101658Y-87654886D01*
X157119704Y-87564167D01*
X157130500Y-87509893D01*
X157130500Y-87362052D01*
X157101659Y-87217065D01*
X157101658Y-87217064D01*
X157101658Y-87217060D01*
X157098853Y-87210289D01*
X157045087Y-87080484D01*
X157045080Y-87080471D01*
X156962951Y-86957557D01*
X156962948Y-86957553D01*
X156858419Y-86853024D01*
X156858415Y-86853021D01*
X156735501Y-86770892D01*
X156735488Y-86770885D01*
X156598917Y-86714316D01*
X156598907Y-86714313D01*
X156453920Y-86685473D01*
X156453918Y-86685473D01*
X156306082Y-86685473D01*
X156306080Y-86685473D01*
X156161092Y-86714313D01*
X156161082Y-86714316D01*
X156024511Y-86770885D01*
X156024498Y-86770892D01*
X155901584Y-86853021D01*
X155901580Y-86853024D01*
X155797051Y-86957553D01*
X155797048Y-86957557D01*
X155714919Y-87080471D01*
X155714912Y-87080484D01*
X155658343Y-87217055D01*
X155658340Y-87217065D01*
X155629500Y-87362052D01*
X155629500Y-87362055D01*
X155629500Y-87509891D01*
X155629500Y-87509893D01*
X155629499Y-87509893D01*
X143818006Y-87509893D01*
X143867889Y-87476562D01*
X143979389Y-87365062D01*
X144008303Y-87321789D01*
X144031501Y-87287072D01*
X144066990Y-87233958D01*
X144066990Y-87233957D01*
X144066994Y-87233952D01*
X144127337Y-87088270D01*
X144158100Y-86933615D01*
X144158100Y-86775931D01*
X144158100Y-86775928D01*
X144143573Y-86702898D01*
X144149800Y-86633306D01*
X144192663Y-86578129D01*
X144258552Y-86554884D01*
X144289382Y-86557089D01*
X144292502Y-86557709D01*
X144292503Y-86557710D01*
X144304448Y-86560086D01*
X144447155Y-86588473D01*
X144447158Y-86588473D01*
X144604844Y-86588473D01*
X144604845Y-86588472D01*
X144759497Y-86557710D01*
X144905179Y-86497367D01*
X145036289Y-86409762D01*
X145147789Y-86298262D01*
X145235394Y-86167152D01*
X145295737Y-86021470D01*
X145326500Y-85866815D01*
X145326500Y-85709131D01*
X145326500Y-85709128D01*
X145326499Y-85709126D01*
X145303939Y-85595710D01*
X145295737Y-85554476D01*
X145239295Y-85418211D01*
X145235397Y-85408800D01*
X145235390Y-85408787D01*
X145147789Y-85277684D01*
X145147786Y-85277680D01*
X145036292Y-85166186D01*
X145036288Y-85166183D01*
X144905185Y-85078582D01*
X144905172Y-85078575D01*
X144759501Y-85018237D01*
X144759489Y-85018234D01*
X144604845Y-84987473D01*
X144604842Y-84987473D01*
X144447158Y-84987473D01*
X144447155Y-84987473D01*
X144292510Y-85018234D01*
X144292498Y-85018237D01*
X144146827Y-85078575D01*
X144146814Y-85078582D01*
X144015711Y-85166183D01*
X143915114Y-85266780D01*
X143853791Y-85300264D01*
X143784099Y-85295280D01*
X143779981Y-85293659D01*
X143723498Y-85270263D01*
X143723488Y-85270260D01*
X143568845Y-85239500D01*
X143568842Y-85239500D01*
X143411158Y-85239500D01*
X143411155Y-85239500D01*
X143256510Y-85270261D01*
X143256507Y-85270262D01*
X143256506Y-85270262D01*
X143256503Y-85270263D01*
X143184074Y-85300264D01*
X143171452Y-85305492D01*
X143101982Y-85312960D01*
X143039503Y-85281684D01*
X143003851Y-85221595D01*
X143000000Y-85190930D01*
X143000000Y-83561153D01*
X145499500Y-83561153D01*
X145499500Y-83718846D01*
X145530261Y-83873489D01*
X145530264Y-83873501D01*
X145590602Y-84019172D01*
X145590609Y-84019185D01*
X145678210Y-84150288D01*
X145678213Y-84150292D01*
X145789707Y-84261786D01*
X145789711Y-84261789D01*
X145920814Y-84349390D01*
X145920827Y-84349397D01*
X146066498Y-84409735D01*
X146066503Y-84409737D01*
X146221153Y-84440499D01*
X146221156Y-84440500D01*
X146221158Y-84440500D01*
X146378844Y-84440500D01*
X146378845Y-84440499D01*
X146533497Y-84409737D01*
X146679179Y-84349394D01*
X146810289Y-84261789D01*
X146921789Y-84150289D01*
X147009394Y-84019179D01*
X147069737Y-83873497D01*
X147100500Y-83718842D01*
X147100500Y-83561158D01*
X147100500Y-83561155D01*
X147100499Y-83561153D01*
X147079457Y-83455370D01*
X147069737Y-83406503D01*
X147053689Y-83367759D01*
X147009397Y-83260827D01*
X147009390Y-83260814D01*
X146921789Y-83129711D01*
X146921786Y-83129707D01*
X146810292Y-83018213D01*
X146810288Y-83018210D01*
X146679185Y-82930609D01*
X146679172Y-82930602D01*
X146533501Y-82870264D01*
X146533489Y-82870261D01*
X146378845Y-82839500D01*
X146378842Y-82839500D01*
X146221158Y-82839500D01*
X146221155Y-82839500D01*
X146066510Y-82870261D01*
X146066498Y-82870264D01*
X145920827Y-82930602D01*
X145920814Y-82930609D01*
X145789711Y-83018210D01*
X145789707Y-83018213D01*
X145678213Y-83129707D01*
X145678210Y-83129711D01*
X145590609Y-83260814D01*
X145590602Y-83260827D01*
X145530264Y-83406498D01*
X145530261Y-83406510D01*
X145499500Y-83561153D01*
X143000000Y-83561153D01*
X143000000Y-82667126D01*
X149214500Y-82667126D01*
X149214500Y-82824819D01*
X149245261Y-82979462D01*
X149245264Y-82979474D01*
X149305602Y-83125145D01*
X149305609Y-83125158D01*
X149393210Y-83256261D01*
X149393213Y-83256265D01*
X149504707Y-83367759D01*
X149504711Y-83367762D01*
X149635814Y-83455363D01*
X149635827Y-83455370D01*
X149781498Y-83515708D01*
X149781503Y-83515710D01*
X149781507Y-83515710D01*
X149781508Y-83515711D01*
X149857589Y-83530845D01*
X149919500Y-83563230D01*
X149954074Y-83623946D01*
X149950334Y-83693715D01*
X149909467Y-83750387D01*
X149857589Y-83774079D01*
X149826508Y-83780261D01*
X149826498Y-83780264D01*
X149680827Y-83840602D01*
X149680814Y-83840609D01*
X149549711Y-83928210D01*
X149549707Y-83928213D01*
X149438213Y-84039707D01*
X149438210Y-84039711D01*
X149350609Y-84170814D01*
X149350602Y-84170827D01*
X149290264Y-84316498D01*
X149290261Y-84316510D01*
X149259500Y-84471153D01*
X149259500Y-84628846D01*
X149290261Y-84783489D01*
X149290264Y-84783501D01*
X149350602Y-84929172D01*
X149350609Y-84929185D01*
X149438210Y-85060288D01*
X149438213Y-85060292D01*
X149549707Y-85171786D01*
X149549711Y-85171789D01*
X149680814Y-85259390D01*
X149680827Y-85259397D01*
X149826498Y-85319735D01*
X149826503Y-85319737D01*
X149981153Y-85350499D01*
X149981156Y-85350500D01*
X149981158Y-85350500D01*
X150138844Y-85350500D01*
X150138845Y-85350499D01*
X150293497Y-85319737D01*
X150412946Y-85270260D01*
X150439172Y-85259397D01*
X150439172Y-85259396D01*
X150439179Y-85259394D01*
X150570289Y-85171789D01*
X150662863Y-85079214D01*
X150724184Y-85045731D01*
X150793876Y-85050715D01*
X150849810Y-85092586D01*
X150865104Y-85119444D01*
X150900604Y-85205148D01*
X150900609Y-85205158D01*
X150988210Y-85336261D01*
X150988213Y-85336265D01*
X151099707Y-85447759D01*
X151099711Y-85447762D01*
X151230814Y-85535363D01*
X151230827Y-85535370D01*
X151276971Y-85554483D01*
X151376503Y-85595710D01*
X151531153Y-85626472D01*
X151531156Y-85626473D01*
X151531158Y-85626473D01*
X151688844Y-85626473D01*
X151688845Y-85626472D01*
X151843497Y-85595710D01*
X151989179Y-85535367D01*
X152120289Y-85447762D01*
X152231789Y-85336262D01*
X152319394Y-85205152D01*
X152379737Y-85059470D01*
X152410500Y-84904815D01*
X152410500Y-84747131D01*
X152410500Y-84747128D01*
X152410499Y-84747126D01*
X152386971Y-84628846D01*
X152379737Y-84592476D01*
X152329484Y-84471153D01*
X152319397Y-84446800D01*
X152319390Y-84446787D01*
X152231789Y-84315684D01*
X152231786Y-84315680D01*
X152120292Y-84204186D01*
X152120288Y-84204183D01*
X151989185Y-84116582D01*
X151989172Y-84116575D01*
X151843501Y-84056237D01*
X151843489Y-84056234D01*
X151688845Y-84025473D01*
X151688842Y-84025473D01*
X151531158Y-84025473D01*
X151531155Y-84025473D01*
X151376510Y-84056234D01*
X151376498Y-84056237D01*
X151230827Y-84116575D01*
X151230814Y-84116582D01*
X151099711Y-84204183D01*
X151007137Y-84296757D01*
X150945813Y-84330241D01*
X150876122Y-84325257D01*
X150820189Y-84283385D01*
X150804895Y-84256528D01*
X150769395Y-84170823D01*
X150769390Y-84170814D01*
X150681789Y-84039711D01*
X150681786Y-84039707D01*
X150570292Y-83928213D01*
X150570288Y-83928210D01*
X150439185Y-83840609D01*
X150439172Y-83840602D01*
X150293501Y-83780264D01*
X150293492Y-83780261D01*
X150217409Y-83765127D01*
X150155499Y-83732741D01*
X150120925Y-83672025D01*
X150124666Y-83602256D01*
X150165533Y-83545584D01*
X150217410Y-83521893D01*
X150248497Y-83515710D01*
X150394179Y-83455367D01*
X150525289Y-83367762D01*
X150636789Y-83256262D01*
X150724394Y-83125152D01*
X150784737Y-82979470D01*
X150815500Y-82824815D01*
X150815500Y-82667131D01*
X150815500Y-82667128D01*
X150815499Y-82667126D01*
X150785788Y-82517762D01*
X150784737Y-82512476D01*
X150770945Y-82479179D01*
X150724397Y-82366800D01*
X150724390Y-82366787D01*
X150636789Y-82235684D01*
X150636786Y-82235680D01*
X150525292Y-82124186D01*
X150525288Y-82124183D01*
X150394185Y-82036582D01*
X150394172Y-82036575D01*
X150248501Y-81976237D01*
X150248489Y-81976234D01*
X150093845Y-81945473D01*
X150093842Y-81945473D01*
X149936158Y-81945473D01*
X149936155Y-81945473D01*
X149781510Y-81976234D01*
X149781498Y-81976237D01*
X149635827Y-82036575D01*
X149635814Y-82036582D01*
X149504711Y-82124183D01*
X149504707Y-82124186D01*
X149393213Y-82235680D01*
X149393210Y-82235684D01*
X149305609Y-82366787D01*
X149305602Y-82366800D01*
X149245264Y-82512471D01*
X149245261Y-82512483D01*
X149214500Y-82667126D01*
X143000000Y-82667126D01*
X143000000Y-81817126D01*
X156929500Y-81817126D01*
X156929500Y-81974819D01*
X156960261Y-82129462D01*
X156960264Y-82129474D01*
X157020602Y-82275145D01*
X157020609Y-82275158D01*
X157108210Y-82406261D01*
X157108213Y-82406265D01*
X157219707Y-82517759D01*
X157219711Y-82517762D01*
X157350814Y-82605363D01*
X157350827Y-82605370D01*
X157496498Y-82665708D01*
X157496503Y-82665710D01*
X157651153Y-82696472D01*
X157651156Y-82696473D01*
X157651158Y-82696473D01*
X157808844Y-82696473D01*
X157808845Y-82696472D01*
X157963497Y-82665710D01*
X158109179Y-82605367D01*
X158240289Y-82517762D01*
X158351789Y-82406262D01*
X158439394Y-82275152D01*
X158499737Y-82129470D01*
X158530500Y-81974815D01*
X158530500Y-81817131D01*
X158530500Y-81817128D01*
X158530499Y-81817126D01*
X158499737Y-81662476D01*
X158469597Y-81589711D01*
X158439397Y-81516800D01*
X158439390Y-81516787D01*
X158351789Y-81385684D01*
X158351786Y-81385680D01*
X158240292Y-81274186D01*
X158240288Y-81274183D01*
X158109185Y-81186582D01*
X158109172Y-81186575D01*
X157963501Y-81126237D01*
X157963489Y-81126234D01*
X157808845Y-81095473D01*
X157808842Y-81095473D01*
X157651158Y-81095473D01*
X157651155Y-81095473D01*
X157496510Y-81126234D01*
X157496498Y-81126237D01*
X157350827Y-81186575D01*
X157350814Y-81186582D01*
X157219711Y-81274183D01*
X157219707Y-81274186D01*
X157108213Y-81385680D01*
X157108210Y-81385684D01*
X157020609Y-81516787D01*
X157020602Y-81516800D01*
X156960264Y-81662471D01*
X156960261Y-81662483D01*
X156929500Y-81817126D01*
X143000000Y-81817126D01*
X143000000Y-78337550D01*
X153469500Y-78337550D01*
X153469500Y-78534395D01*
X153500290Y-78728799D01*
X153561117Y-78916002D01*
X153650476Y-79091378D01*
X153766172Y-79250619D01*
X153905354Y-79389801D01*
X154064595Y-79505497D01*
X154147455Y-79547716D01*
X154239970Y-79594855D01*
X154239972Y-79594855D01*
X154239975Y-79594857D01*
X154340317Y-79627460D01*
X154427173Y-79655682D01*
X154621578Y-79686473D01*
X154621583Y-79686473D01*
X154818422Y-79686473D01*
X155012826Y-79655682D01*
X155074379Y-79635682D01*
X155200025Y-79594857D01*
X155375405Y-79505497D01*
X155534646Y-79389801D01*
X155673828Y-79250619D01*
X155789524Y-79091378D01*
X155878884Y-78915998D01*
X155890319Y-78880805D01*
X155929755Y-78823131D01*
X155994113Y-78795932D01*
X156062960Y-78807846D01*
X156114436Y-78855090D01*
X156126178Y-78880800D01*
X156129342Y-78890538D01*
X156131117Y-78896002D01*
X156141306Y-78915998D01*
X156220476Y-79071378D01*
X156336172Y-79230619D01*
X156475354Y-79369801D01*
X156634595Y-79485497D01*
X156717455Y-79527716D01*
X156809970Y-79574855D01*
X156809972Y-79574855D01*
X156809975Y-79574857D01*
X156910317Y-79607460D01*
X156997173Y-79635682D01*
X157191578Y-79666473D01*
X157191583Y-79666473D01*
X157388422Y-79666473D01*
X157582826Y-79635682D01*
X157770025Y-79574857D01*
X157945405Y-79485497D01*
X158104646Y-79369801D01*
X158243828Y-79230619D01*
X158359524Y-79071378D01*
X158448884Y-78895998D01*
X158509709Y-78708799D01*
X158537332Y-78534395D01*
X158540500Y-78514395D01*
X158540500Y-78317550D01*
X158509709Y-78123146D01*
X158448882Y-77935943D01*
X158359523Y-77760567D01*
X158243828Y-77601327D01*
X158104646Y-77462145D01*
X157945405Y-77346449D01*
X157884403Y-77315367D01*
X157770029Y-77257090D01*
X157582826Y-77196263D01*
X157388422Y-77165473D01*
X157388417Y-77165473D01*
X157191583Y-77165473D01*
X157191578Y-77165473D01*
X156997173Y-77196263D01*
X156809970Y-77257090D01*
X156634594Y-77346449D01*
X156543741Y-77412458D01*
X156475354Y-77462145D01*
X156475352Y-77462147D01*
X156475351Y-77462147D01*
X156336174Y-77601324D01*
X156336174Y-77601325D01*
X156336172Y-77601327D01*
X156321643Y-77621325D01*
X156220476Y-77760567D01*
X156131116Y-77935946D01*
X156119680Y-77971142D01*
X156080241Y-78028816D01*
X156015882Y-78056013D01*
X155947036Y-78044097D01*
X155895561Y-77996852D01*
X155883821Y-77971142D01*
X155878884Y-77955948D01*
X155789524Y-77780568D01*
X155673828Y-77621327D01*
X155534646Y-77482145D01*
X155375405Y-77366449D01*
X155334029Y-77345367D01*
X155200029Y-77277090D01*
X155012826Y-77216263D01*
X154818422Y-77185473D01*
X154818417Y-77185473D01*
X154621583Y-77185473D01*
X154621578Y-77185473D01*
X154427173Y-77216263D01*
X154239970Y-77277090D01*
X154064594Y-77366449D01*
X154009508Y-77406472D01*
X153905354Y-77482145D01*
X153905352Y-77482147D01*
X153905351Y-77482147D01*
X153766174Y-77621324D01*
X153766174Y-77621325D01*
X153766172Y-77621327D01*
X153716485Y-77689714D01*
X153650476Y-77780567D01*
X153561117Y-77955943D01*
X153500290Y-78143146D01*
X153469500Y-78337550D01*
X143000000Y-78337550D01*
X143000000Y-76557126D01*
X144309500Y-76557126D01*
X144309500Y-76714819D01*
X144340261Y-76869462D01*
X144340264Y-76869474D01*
X144400602Y-77015145D01*
X144400609Y-77015158D01*
X144488210Y-77146261D01*
X144488213Y-77146265D01*
X144599707Y-77257759D01*
X144599711Y-77257762D01*
X144730814Y-77345363D01*
X144730827Y-77345370D01*
X144804078Y-77375711D01*
X144876503Y-77405710D01*
X145031153Y-77436472D01*
X145031156Y-77436473D01*
X145031158Y-77436473D01*
X145188844Y-77436473D01*
X145188845Y-77436472D01*
X145343497Y-77405710D01*
X145489179Y-77345367D01*
X145620289Y-77257762D01*
X145731789Y-77146262D01*
X145819394Y-77015152D01*
X145879737Y-76869470D01*
X145910500Y-76714815D01*
X145910500Y-76557131D01*
X145904532Y-76527126D01*
X149074500Y-76527126D01*
X149074500Y-76684819D01*
X149105261Y-76839462D01*
X149105264Y-76839474D01*
X149165602Y-76985145D01*
X149165609Y-76985158D01*
X149253210Y-77116261D01*
X149253213Y-77116265D01*
X149364707Y-77227759D01*
X149364711Y-77227762D01*
X149495814Y-77315363D01*
X149495827Y-77315370D01*
X149641498Y-77375708D01*
X149641503Y-77375710D01*
X149792312Y-77405708D01*
X149796153Y-77406472D01*
X149796156Y-77406473D01*
X149796158Y-77406473D01*
X149953844Y-77406473D01*
X149953845Y-77406472D01*
X150108497Y-77375710D01*
X150254179Y-77315367D01*
X150385289Y-77227762D01*
X150496789Y-77116262D01*
X150584394Y-76985152D01*
X150644737Y-76839470D01*
X150675500Y-76684815D01*
X150675500Y-76527131D01*
X150675500Y-76527128D01*
X150675499Y-76527126D01*
X150644737Y-76372476D01*
X150596823Y-76256800D01*
X150584397Y-76226800D01*
X150584390Y-76226787D01*
X150496789Y-76095684D01*
X150496786Y-76095680D01*
X150385292Y-75984186D01*
X150385288Y-75984183D01*
X150254185Y-75896582D01*
X150254172Y-75896575D01*
X150108501Y-75836237D01*
X150108489Y-75836234D01*
X149953845Y-75805473D01*
X149953842Y-75805473D01*
X149796158Y-75805473D01*
X149796155Y-75805473D01*
X149641510Y-75836234D01*
X149641498Y-75836237D01*
X149495827Y-75896575D01*
X149495814Y-75896582D01*
X149364711Y-75984183D01*
X149364707Y-75984186D01*
X149253213Y-76095680D01*
X149253210Y-76095684D01*
X149165609Y-76226787D01*
X149165602Y-76226800D01*
X149105264Y-76372471D01*
X149105261Y-76372483D01*
X149074500Y-76527126D01*
X145904532Y-76527126D01*
X145879737Y-76402476D01*
X145867309Y-76372471D01*
X145819397Y-76256800D01*
X145819390Y-76256787D01*
X145731789Y-76125684D01*
X145731786Y-76125680D01*
X145620292Y-76014186D01*
X145620288Y-76014183D01*
X145489185Y-75926582D01*
X145489172Y-75926575D01*
X145343501Y-75866237D01*
X145343489Y-75866234D01*
X145188845Y-75835473D01*
X145188842Y-75835473D01*
X145031158Y-75835473D01*
X145031155Y-75835473D01*
X144876510Y-75866234D01*
X144876498Y-75866237D01*
X144730827Y-75926575D01*
X144730814Y-75926582D01*
X144599711Y-76014183D01*
X144599707Y-76014186D01*
X144488213Y-76125680D01*
X144488210Y-76125684D01*
X144400609Y-76256787D01*
X144400602Y-76256800D01*
X144340264Y-76402471D01*
X144340261Y-76402483D01*
X144309500Y-76557126D01*
X143000000Y-76557126D01*
X143000000Y-74552126D01*
X149012000Y-74552126D01*
X149012000Y-74709819D01*
X149042761Y-74864462D01*
X149042764Y-74864474D01*
X149103102Y-75010145D01*
X149103109Y-75010158D01*
X149190710Y-75141261D01*
X149190713Y-75141265D01*
X149302207Y-75252759D01*
X149302211Y-75252762D01*
X149433314Y-75340363D01*
X149433327Y-75340370D01*
X149561570Y-75393489D01*
X149579003Y-75400710D01*
X149733653Y-75431472D01*
X149733656Y-75431473D01*
X149733658Y-75431473D01*
X149891344Y-75431473D01*
X149891345Y-75431472D01*
X150045997Y-75400710D01*
X150191679Y-75340367D01*
X150322789Y-75252762D01*
X150434289Y-75141262D01*
X150474453Y-75081153D01*
X153589500Y-75081153D01*
X153589500Y-75238846D01*
X153620261Y-75393489D01*
X153620264Y-75393501D01*
X153680602Y-75539172D01*
X153680609Y-75539185D01*
X153768210Y-75670288D01*
X153768213Y-75670292D01*
X153879707Y-75781786D01*
X153879711Y-75781789D01*
X154010814Y-75869390D01*
X154010827Y-75869397D01*
X154148869Y-75926575D01*
X154156503Y-75929737D01*
X154311153Y-75960499D01*
X154311156Y-75960500D01*
X154311158Y-75960500D01*
X154468844Y-75960500D01*
X154468845Y-75960499D01*
X154623497Y-75929737D01*
X154769179Y-75869394D01*
X154900289Y-75781789D01*
X155011789Y-75670289D01*
X155099394Y-75539179D01*
X155159737Y-75393497D01*
X155190500Y-75238842D01*
X155190500Y-75081158D01*
X155190500Y-75081155D01*
X155190499Y-75081153D01*
X155176376Y-75010152D01*
X155159737Y-74926503D01*
X155134044Y-74864474D01*
X155099397Y-74780827D01*
X155099390Y-74780814D01*
X155011789Y-74649711D01*
X155011786Y-74649707D01*
X154900292Y-74538213D01*
X154900288Y-74538210D01*
X154769185Y-74450609D01*
X154769172Y-74450602D01*
X154623501Y-74390264D01*
X154623489Y-74390261D01*
X154468845Y-74359500D01*
X154468842Y-74359500D01*
X154311158Y-74359500D01*
X154311155Y-74359500D01*
X154156510Y-74390261D01*
X154156498Y-74390264D01*
X154010827Y-74450602D01*
X154010814Y-74450609D01*
X153879711Y-74538210D01*
X153879707Y-74538213D01*
X153768213Y-74649707D01*
X153768210Y-74649711D01*
X153680609Y-74780814D01*
X153680602Y-74780827D01*
X153620264Y-74926498D01*
X153620261Y-74926510D01*
X153589500Y-75081153D01*
X150474453Y-75081153D01*
X150521894Y-75010152D01*
X150582237Y-74864470D01*
X150613000Y-74709815D01*
X150613000Y-74552131D01*
X150613000Y-74552128D01*
X150612999Y-74552126D01*
X150582237Y-74397476D01*
X150579249Y-74390263D01*
X150521897Y-74251800D01*
X150521890Y-74251787D01*
X150434289Y-74120684D01*
X150434286Y-74120680D01*
X150322792Y-74009186D01*
X150322788Y-74009183D01*
X150191685Y-73921582D01*
X150191672Y-73921575D01*
X150046001Y-73861237D01*
X150045989Y-73861234D01*
X149891345Y-73830473D01*
X149891342Y-73830473D01*
X149733658Y-73830473D01*
X149733655Y-73830473D01*
X149579010Y-73861234D01*
X149578998Y-73861237D01*
X149433327Y-73921575D01*
X149433314Y-73921582D01*
X149302211Y-74009183D01*
X149302207Y-74009186D01*
X149190713Y-74120680D01*
X149190710Y-74120684D01*
X149103109Y-74251787D01*
X149103102Y-74251800D01*
X149042764Y-74397471D01*
X149042761Y-74397483D01*
X149012000Y-74552126D01*
X143000000Y-74552126D01*
X143000000Y-69900000D01*
X136127521Y-69900000D01*
X136102849Y-69892755D01*
X136077354Y-69889399D01*
X136069876Y-69883073D01*
X136060482Y-69880315D01*
X136043643Y-69860882D01*
X136024010Y-69844274D01*
X136021139Y-69834911D01*
X136014727Y-69827511D01*
X136011067Y-69802058D01*
X136003530Y-69777474D01*
X136006176Y-69768046D01*
X136004783Y-69758353D01*
X136008071Y-69751153D01*
X147489500Y-69751153D01*
X147489500Y-69908846D01*
X147520261Y-70063489D01*
X147520264Y-70063501D01*
X147580602Y-70209172D01*
X147580609Y-70209185D01*
X147668210Y-70340288D01*
X147668213Y-70340292D01*
X147779707Y-70451786D01*
X147779711Y-70451789D01*
X147910814Y-70539390D01*
X147910827Y-70539397D01*
X148056498Y-70599735D01*
X148056503Y-70599737D01*
X148162499Y-70620821D01*
X148211153Y-70630499D01*
X148211156Y-70630500D01*
X148211158Y-70630500D01*
X148368844Y-70630500D01*
X148368845Y-70630499D01*
X148523497Y-70599737D01*
X148669179Y-70539394D01*
X148800289Y-70451789D01*
X148911789Y-70340289D01*
X148999394Y-70209179D01*
X149059737Y-70063497D01*
X149090500Y-69908842D01*
X149090500Y-69827126D01*
X152137000Y-69827126D01*
X152137000Y-69984819D01*
X152167761Y-70139462D01*
X152167764Y-70139474D01*
X152228102Y-70285145D01*
X152228109Y-70285158D01*
X152315710Y-70416261D01*
X152315713Y-70416265D01*
X152427207Y-70527759D01*
X152427211Y-70527762D01*
X152558314Y-70615363D01*
X152558327Y-70615370D01*
X152664612Y-70659394D01*
X152704003Y-70675710D01*
X152858653Y-70706472D01*
X152858656Y-70706473D01*
X152858658Y-70706473D01*
X153016344Y-70706473D01*
X153016345Y-70706472D01*
X153170997Y-70675710D01*
X153316679Y-70615367D01*
X153447789Y-70527762D01*
X153559289Y-70416262D01*
X153646894Y-70285152D01*
X153707237Y-70139470D01*
X153738000Y-69984815D01*
X153738000Y-69827131D01*
X153738000Y-69827128D01*
X153737999Y-69827126D01*
X153731775Y-69795837D01*
X153707237Y-69672476D01*
X153706953Y-69671791D01*
X153646897Y-69526800D01*
X153646890Y-69526787D01*
X153559289Y-69395684D01*
X153559286Y-69395680D01*
X153447792Y-69284186D01*
X153447788Y-69284183D01*
X153316685Y-69196582D01*
X153316672Y-69196575D01*
X153171001Y-69136237D01*
X153170989Y-69136234D01*
X153016345Y-69105473D01*
X153016342Y-69105473D01*
X152858658Y-69105473D01*
X152858655Y-69105473D01*
X152704010Y-69136234D01*
X152703998Y-69136237D01*
X152558327Y-69196575D01*
X152558314Y-69196582D01*
X152427211Y-69284183D01*
X152427207Y-69284186D01*
X152315713Y-69395680D01*
X152315710Y-69395684D01*
X152228109Y-69526787D01*
X152228102Y-69526800D01*
X152167764Y-69672471D01*
X152167761Y-69672483D01*
X152137000Y-69827126D01*
X149090500Y-69827126D01*
X149090500Y-69751158D01*
X149090500Y-69751155D01*
X149090499Y-69751153D01*
X149076994Y-69683259D01*
X149059737Y-69596503D01*
X149044737Y-69560289D01*
X148999397Y-69450827D01*
X148999390Y-69450814D01*
X148911789Y-69319711D01*
X148911786Y-69319707D01*
X148800292Y-69208213D01*
X148800288Y-69208210D01*
X148669185Y-69120609D01*
X148669172Y-69120602D01*
X148523501Y-69060264D01*
X148523489Y-69060261D01*
X148368845Y-69029500D01*
X148368842Y-69029500D01*
X148211158Y-69029500D01*
X148211155Y-69029500D01*
X148056510Y-69060261D01*
X148056498Y-69060264D01*
X147910827Y-69120602D01*
X147910814Y-69120609D01*
X147779711Y-69208210D01*
X147779707Y-69208213D01*
X147668213Y-69319707D01*
X147668210Y-69319711D01*
X147580609Y-69450814D01*
X147580602Y-69450827D01*
X147520264Y-69596498D01*
X147520261Y-69596510D01*
X147489500Y-69751153D01*
X136008071Y-69751153D01*
X136015465Y-69734961D01*
X136022416Y-69710205D01*
X136030641Y-69701731D01*
X136033808Y-69694797D01*
X136045210Y-69683259D01*
X136051566Y-69677617D01*
X136060289Y-69671789D01*
X136171789Y-69560289D01*
X136259394Y-69429179D01*
X136319737Y-69283497D01*
X136350500Y-69128842D01*
X136350500Y-68971158D01*
X136350500Y-68971155D01*
X136350499Y-68971153D01*
X136336240Y-68899470D01*
X136319737Y-68816503D01*
X136290043Y-68744815D01*
X136259397Y-68670827D01*
X136259391Y-68670816D01*
X136245435Y-68649929D01*
X136245434Y-68649928D01*
X136203471Y-68587126D01*
X154047000Y-68587126D01*
X154047000Y-68744819D01*
X154077761Y-68899462D01*
X154077764Y-68899474D01*
X154138102Y-69045145D01*
X154138109Y-69045158D01*
X154225710Y-69176261D01*
X154225713Y-69176265D01*
X154337207Y-69287759D01*
X154337211Y-69287762D01*
X154468314Y-69375363D01*
X154468327Y-69375370D01*
X154598250Y-69429185D01*
X154614003Y-69435710D01*
X154768653Y-69466472D01*
X154768656Y-69466473D01*
X154768658Y-69466473D01*
X154926344Y-69466473D01*
X154926345Y-69466472D01*
X155080997Y-69435710D01*
X155226679Y-69375367D01*
X155357789Y-69287762D01*
X155469289Y-69176262D01*
X155556894Y-69045152D01*
X155617237Y-68899470D01*
X155648000Y-68744815D01*
X155648000Y-68587131D01*
X155648000Y-68587128D01*
X155647999Y-68587126D01*
X155617237Y-68432476D01*
X155579185Y-68340609D01*
X155556897Y-68286800D01*
X155556890Y-68286787D01*
X155469289Y-68155684D01*
X155469286Y-68155680D01*
X155357792Y-68044186D01*
X155357788Y-68044183D01*
X155226685Y-67956582D01*
X155226672Y-67956575D01*
X155081001Y-67896237D01*
X155080989Y-67896234D01*
X154926345Y-67865473D01*
X154926342Y-67865473D01*
X154768658Y-67865473D01*
X154768655Y-67865473D01*
X154614010Y-67896234D01*
X154613998Y-67896237D01*
X154468327Y-67956575D01*
X154468314Y-67956582D01*
X154337211Y-68044183D01*
X154337207Y-68044186D01*
X154225713Y-68155680D01*
X154225710Y-68155684D01*
X154138109Y-68286787D01*
X154138102Y-68286800D01*
X154077764Y-68432471D01*
X154077761Y-68432483D01*
X154047000Y-68587126D01*
X136203471Y-68587126D01*
X136171789Y-68539711D01*
X136171786Y-68539707D01*
X136060292Y-68428213D01*
X136060288Y-68428210D01*
X135929185Y-68340609D01*
X135929172Y-68340602D01*
X135783501Y-68280264D01*
X135783489Y-68280261D01*
X135628845Y-68249500D01*
X135628842Y-68249500D01*
X135471158Y-68249500D01*
X135471155Y-68249500D01*
X135316510Y-68280261D01*
X135316498Y-68280264D01*
X135170827Y-68340602D01*
X135170814Y-68340609D01*
X135039711Y-68428210D01*
X135039707Y-68428213D01*
X134928213Y-68539707D01*
X134928210Y-68539711D01*
X134840609Y-68670814D01*
X134840602Y-68670827D01*
X134780264Y-68816498D01*
X134780261Y-68816510D01*
X134749500Y-68971153D01*
X134749500Y-69128846D01*
X134780261Y-69283489D01*
X134780264Y-69283501D01*
X134840602Y-69429172D01*
X134840609Y-69429185D01*
X134928210Y-69560288D01*
X134928213Y-69560292D01*
X135039707Y-69671786D01*
X135039714Y-69671791D01*
X135041371Y-69672899D01*
X135042043Y-69673703D01*
X135044419Y-69675653D01*
X135044049Y-69676103D01*
X135086176Y-69726512D01*
X135094882Y-69795837D01*
X135064726Y-69858864D01*
X135005283Y-69895582D01*
X134972479Y-69900000D01*
X123788001Y-69900000D01*
X123720962Y-69880315D01*
X123675207Y-69827511D01*
X123666384Y-69800191D01*
X123658269Y-69759394D01*
X123649737Y-69716503D01*
X123631676Y-69672899D01*
X123589397Y-69570827D01*
X123589390Y-69570814D01*
X123501789Y-69439711D01*
X123501786Y-69439707D01*
X123390292Y-69328213D01*
X123390288Y-69328210D01*
X123259185Y-69240609D01*
X123259172Y-69240602D01*
X123113501Y-69180264D01*
X123113489Y-69180261D01*
X122958845Y-69149500D01*
X122958842Y-69149500D01*
X122801158Y-69149500D01*
X122801155Y-69149500D01*
X122646510Y-69180261D01*
X122646498Y-69180264D01*
X122500827Y-69240602D01*
X122500814Y-69240609D01*
X122369711Y-69328210D01*
X122369707Y-69328213D01*
X122258213Y-69439707D01*
X122258210Y-69439711D01*
X122170609Y-69570814D01*
X122170602Y-69570827D01*
X122110264Y-69716498D01*
X122110261Y-69716510D01*
X122093616Y-69800191D01*
X122061231Y-69862102D01*
X122000516Y-69896676D01*
X121971999Y-69900000D01*
X120624500Y-69900000D01*
X120557461Y-69880315D01*
X120511706Y-69827511D01*
X120500500Y-69776000D01*
X120500500Y-66921153D01*
X131749500Y-66921153D01*
X131749500Y-67078846D01*
X131780261Y-67233489D01*
X131780264Y-67233501D01*
X131840602Y-67379172D01*
X131840609Y-67379185D01*
X131928210Y-67510288D01*
X131928213Y-67510292D01*
X132039707Y-67621786D01*
X132039711Y-67621789D01*
X132170814Y-67709390D01*
X132170827Y-67709397D01*
X132292363Y-67759738D01*
X132316503Y-67769737D01*
X132471153Y-67800499D01*
X132471156Y-67800500D01*
X132471158Y-67800500D01*
X132628844Y-67800500D01*
X132628845Y-67800499D01*
X132783497Y-67769737D01*
X132929179Y-67709394D01*
X133060289Y-67621789D01*
X133171789Y-67510289D01*
X133171791Y-67510285D01*
X133171896Y-67510130D01*
X133171971Y-67510066D01*
X133175653Y-67505581D01*
X133176503Y-67506279D01*
X133225506Y-67465323D01*
X133294831Y-67456613D01*
X133357860Y-67486766D01*
X133374239Y-67505669D01*
X133374347Y-67505581D01*
X133377653Y-67509610D01*
X133378104Y-67510130D01*
X133378208Y-67510286D01*
X133378213Y-67510292D01*
X133489707Y-67621786D01*
X133489711Y-67621789D01*
X133620814Y-67709390D01*
X133620827Y-67709397D01*
X133742363Y-67759738D01*
X133766503Y-67769737D01*
X133921153Y-67800499D01*
X133921156Y-67800500D01*
X133921158Y-67800500D01*
X134078844Y-67800500D01*
X134078845Y-67800499D01*
X134233497Y-67769737D01*
X134379179Y-67709394D01*
X134510289Y-67621789D01*
X134621789Y-67510289D01*
X134709394Y-67379179D01*
X134769737Y-67233497D01*
X134800500Y-67078842D01*
X134800500Y-66921158D01*
X134798510Y-66911155D01*
X134795041Y-66893713D01*
X141649500Y-66893713D01*
X141649500Y-67106287D01*
X141682754Y-67316243D01*
X141745803Y-67510288D01*
X141748444Y-67518414D01*
X141844951Y-67707820D01*
X141969890Y-67879786D01*
X142120213Y-68030109D01*
X142292179Y-68155048D01*
X142292181Y-68155049D01*
X142292184Y-68155051D01*
X142481588Y-68251557D01*
X142683757Y-68317246D01*
X142893713Y-68350500D01*
X142893714Y-68350500D01*
X143106286Y-68350500D01*
X143106287Y-68350500D01*
X143316243Y-68317246D01*
X143518412Y-68251557D01*
X143707816Y-68155051D01*
X143860410Y-68044186D01*
X143879786Y-68030109D01*
X143879788Y-68030106D01*
X143879792Y-68030104D01*
X144030104Y-67879792D01*
X144030106Y-67879788D01*
X144030109Y-67879786D01*
X144153902Y-67709397D01*
X144155051Y-67707816D01*
X144251557Y-67518412D01*
X144317246Y-67316243D01*
X144350500Y-67106287D01*
X144350500Y-66911153D01*
X145939500Y-66911153D01*
X145939500Y-67068846D01*
X145970261Y-67223489D01*
X145970264Y-67223501D01*
X146030602Y-67369172D01*
X146030609Y-67369185D01*
X146118210Y-67500288D01*
X146118213Y-67500292D01*
X146229707Y-67611786D01*
X146229711Y-67611789D01*
X146360814Y-67699390D01*
X146360827Y-67699397D01*
X146506498Y-67759735D01*
X146506503Y-67759737D01*
X146661153Y-67790499D01*
X146661156Y-67790500D01*
X146661158Y-67790500D01*
X146818844Y-67790500D01*
X146818845Y-67790499D01*
X146973497Y-67759737D01*
X147086166Y-67713067D01*
X147119172Y-67699397D01*
X147119172Y-67699396D01*
X147119179Y-67699394D01*
X147250289Y-67611789D01*
X147361789Y-67500289D01*
X147449394Y-67369179D01*
X147509737Y-67223497D01*
X147540500Y-67068842D01*
X147540500Y-66911158D01*
X147540500Y-66911155D01*
X147540499Y-66911153D01*
X147537030Y-66893713D01*
X147509737Y-66756503D01*
X147453539Y-66620827D01*
X147449397Y-66610827D01*
X147449390Y-66610814D01*
X147361789Y-66479711D01*
X147361786Y-66479707D01*
X147250292Y-66368213D01*
X147250288Y-66368210D01*
X147119185Y-66280609D01*
X147119172Y-66280602D01*
X146973501Y-66220264D01*
X146973489Y-66220261D01*
X146818845Y-66189500D01*
X146818842Y-66189500D01*
X146661158Y-66189500D01*
X146661155Y-66189500D01*
X146506510Y-66220261D01*
X146506498Y-66220264D01*
X146360827Y-66280602D01*
X146360814Y-66280609D01*
X146229711Y-66368210D01*
X146229707Y-66368213D01*
X146118213Y-66479707D01*
X146118210Y-66479711D01*
X146030609Y-66610814D01*
X146030602Y-66610827D01*
X145970264Y-66756498D01*
X145970261Y-66756510D01*
X145939500Y-66911153D01*
X144350500Y-66911153D01*
X144350500Y-66893713D01*
X144317246Y-66683757D01*
X144251557Y-66481588D01*
X144155051Y-66292184D01*
X144155049Y-66292181D01*
X144155048Y-66292179D01*
X144030109Y-66120213D01*
X143879786Y-65969890D01*
X143707820Y-65844951D01*
X143518414Y-65748444D01*
X143518413Y-65748443D01*
X143518412Y-65748443D01*
X143316243Y-65682754D01*
X143316241Y-65682753D01*
X143316240Y-65682753D01*
X143154957Y-65657208D01*
X143106287Y-65649500D01*
X142893713Y-65649500D01*
X142845042Y-65657208D01*
X142683760Y-65682753D01*
X142481585Y-65748444D01*
X142292179Y-65844951D01*
X142120213Y-65969890D01*
X141969890Y-66120213D01*
X141844951Y-66292179D01*
X141748444Y-66481585D01*
X141682753Y-66683760D01*
X141671233Y-66756498D01*
X141649500Y-66893713D01*
X134795041Y-66893713D01*
X134769738Y-66766510D01*
X134769737Y-66766503D01*
X134725000Y-66658497D01*
X134709397Y-66620827D01*
X134709390Y-66620814D01*
X134621789Y-66489711D01*
X134621786Y-66489707D01*
X134510292Y-66378213D01*
X134510288Y-66378210D01*
X134379185Y-66290609D01*
X134379172Y-66290602D01*
X134233501Y-66230264D01*
X134233489Y-66230261D01*
X134078845Y-66199500D01*
X134078842Y-66199500D01*
X133921158Y-66199500D01*
X133921155Y-66199500D01*
X133766510Y-66230261D01*
X133766498Y-66230264D01*
X133620827Y-66290602D01*
X133620814Y-66290609D01*
X133489711Y-66378210D01*
X133489707Y-66378213D01*
X133378213Y-66489707D01*
X133378208Y-66489713D01*
X133378098Y-66489879D01*
X133378017Y-66489945D01*
X133374347Y-66494419D01*
X133373498Y-66493722D01*
X133324484Y-66534681D01*
X133255158Y-66543384D01*
X133192132Y-66513226D01*
X133175759Y-66494331D01*
X133175653Y-66494419D01*
X133172378Y-66490428D01*
X133171902Y-66489879D01*
X133171791Y-66489713D01*
X133171786Y-66489707D01*
X133060292Y-66378213D01*
X133060288Y-66378210D01*
X132929185Y-66290609D01*
X132929172Y-66290602D01*
X132783501Y-66230264D01*
X132783489Y-66230261D01*
X132628845Y-66199500D01*
X132628842Y-66199500D01*
X132471158Y-66199500D01*
X132471155Y-66199500D01*
X132316510Y-66230261D01*
X132316498Y-66230264D01*
X132170827Y-66290602D01*
X132170814Y-66290609D01*
X132039711Y-66378210D01*
X132039707Y-66378213D01*
X131928213Y-66489707D01*
X131928210Y-66489711D01*
X131840609Y-66620814D01*
X131840602Y-66620827D01*
X131780264Y-66766498D01*
X131780261Y-66766510D01*
X131749500Y-66921153D01*
X120500500Y-66921153D01*
X120500500Y-64124000D01*
X120520185Y-64056961D01*
X120572989Y-64011206D01*
X120624500Y-64000000D01*
X159375500Y-64000000D01*
X159442539Y-64019685D01*
G37*
%TD.AperFunction*%
%TD*%
%TA.AperFunction,Conductor*%
%TO.N,VBUS*%
G36*
X148165990Y-115990445D02*
G01*
X148222180Y-116003960D01*
X148329966Y-116058880D01*
X148329964Y-116058880D01*
X148329972Y-116058882D01*
X148329975Y-116058884D01*
X148383139Y-116076158D01*
X148517173Y-116119709D01*
X148711578Y-116150500D01*
X148711583Y-116150500D01*
X148908422Y-116150500D01*
X149102826Y-116119709D01*
X149290025Y-116058884D01*
X149395783Y-116004997D01*
X149452170Y-115991484D01*
X149960279Y-115991895D01*
X150027300Y-116011633D01*
X150073012Y-116064474D01*
X150074737Y-116068442D01*
X150120602Y-116179172D01*
X150120609Y-116179185D01*
X150208210Y-116310288D01*
X150208213Y-116310292D01*
X150319707Y-116421786D01*
X150319711Y-116421789D01*
X150450814Y-116509390D01*
X150450827Y-116509397D01*
X150596498Y-116569735D01*
X150596503Y-116569737D01*
X150751153Y-116600499D01*
X150751156Y-116600500D01*
X150751158Y-116600500D01*
X150908844Y-116600500D01*
X150908845Y-116600499D01*
X151063497Y-116569737D01*
X151209179Y-116509394D01*
X151340289Y-116421789D01*
X151451789Y-116310289D01*
X151539394Y-116179179D01*
X151584680Y-116069847D01*
X151628520Y-116015444D01*
X151694814Y-115993379D01*
X151699314Y-115993300D01*
X159375605Y-115999503D01*
X159442624Y-116019241D01*
X159488336Y-116072082D01*
X159499500Y-116123502D01*
X159499500Y-119676000D01*
X159479815Y-119743039D01*
X159427011Y-119788794D01*
X159375500Y-119800000D01*
X154213291Y-119800000D01*
X154146252Y-119780315D01*
X154100497Y-119727511D01*
X154090553Y-119658353D01*
X154110187Y-119607111D01*
X154181028Y-119501091D01*
X154237904Y-119363781D01*
X154266899Y-119218013D01*
X154266899Y-119069389D01*
X154237904Y-118923621D01*
X154185642Y-118797452D01*
X154178174Y-118727985D01*
X154185641Y-118702553D01*
X154237904Y-118576381D01*
X154266899Y-118430613D01*
X154266899Y-118281989D01*
X154237904Y-118136221D01*
X154181028Y-117998911D01*
X154154256Y-117958844D01*
X154098459Y-117875336D01*
X154098453Y-117875329D01*
X153993370Y-117770246D01*
X153993363Y-117770240D01*
X153869790Y-117687672D01*
X153732479Y-117630796D01*
X153732471Y-117630794D01*
X153586715Y-117601801D01*
X153586711Y-117601801D01*
X153438087Y-117601801D01*
X153438082Y-117601801D01*
X153292326Y-117630794D01*
X153292318Y-117630796D01*
X153166152Y-117683056D01*
X153096682Y-117690525D01*
X153071246Y-117683056D01*
X152945079Y-117630796D01*
X152945071Y-117630794D01*
X152799315Y-117601801D01*
X152799311Y-117601801D01*
X152650687Y-117601801D01*
X152650682Y-117601801D01*
X152504926Y-117630794D01*
X152504918Y-117630796D01*
X152378752Y-117683056D01*
X152309282Y-117690525D01*
X152283846Y-117683056D01*
X152157679Y-117630796D01*
X152157671Y-117630794D01*
X152011915Y-117601801D01*
X152011911Y-117601801D01*
X151863287Y-117601801D01*
X151863282Y-117601801D01*
X151717526Y-117630794D01*
X151717518Y-117630796D01*
X151580207Y-117687672D01*
X151456634Y-117770240D01*
X151456627Y-117770246D01*
X151351544Y-117875329D01*
X151351538Y-117875336D01*
X151268970Y-117998909D01*
X151212094Y-118136220D01*
X151212092Y-118136228D01*
X151183099Y-118281984D01*
X151183099Y-118430617D01*
X151212092Y-118576373D01*
X151212094Y-118576381D01*
X151264354Y-118702548D01*
X151271823Y-118772018D01*
X151264354Y-118797454D01*
X151212094Y-118923620D01*
X151212092Y-118923628D01*
X151183099Y-119069384D01*
X151183099Y-119218017D01*
X151212092Y-119363773D01*
X151212094Y-119363781D01*
X151268970Y-119501092D01*
X151351538Y-119624665D01*
X151351544Y-119624672D01*
X151456627Y-119729755D01*
X151456634Y-119729761D01*
X151580207Y-119812329D01*
X151580208Y-119812329D01*
X151580209Y-119812330D01*
X151717519Y-119869206D01*
X151842097Y-119893986D01*
X151863282Y-119898200D01*
X151863286Y-119898201D01*
X151863287Y-119898201D01*
X152011912Y-119898201D01*
X152011913Y-119898200D01*
X152157679Y-119869206D01*
X152283847Y-119816944D01*
X152353315Y-119809476D01*
X152378746Y-119816943D01*
X152504919Y-119869206D01*
X152629497Y-119893986D01*
X152650682Y-119898200D01*
X152650686Y-119898201D01*
X152650687Y-119898201D01*
X152799312Y-119898201D01*
X152799312Y-119898200D01*
X152823265Y-119893436D01*
X152851809Y-119887759D01*
X152921400Y-119893986D01*
X152976578Y-119936849D01*
X152999822Y-120002739D01*
X153000000Y-120009376D01*
X153000000Y-122400000D01*
X155511762Y-122400000D01*
X155519937Y-122401626D01*
X155525015Y-122400710D01*
X155559210Y-122409437D01*
X155623454Y-122436048D01*
X155677855Y-122479885D01*
X155699921Y-122546179D01*
X155700000Y-122550607D01*
X155700000Y-125524439D01*
X155680315Y-125591478D01*
X155627511Y-125637233D01*
X155558353Y-125647177D01*
X155551811Y-125646057D01*
X155518843Y-125639500D01*
X155518842Y-125639500D01*
X155361158Y-125639500D01*
X155361155Y-125639500D01*
X155206510Y-125670261D01*
X155206498Y-125670264D01*
X155060827Y-125730602D01*
X155060814Y-125730609D01*
X154958891Y-125798713D01*
X154892213Y-125819591D01*
X154824833Y-125801107D01*
X154821109Y-125798713D01*
X154719185Y-125730609D01*
X154719172Y-125730602D01*
X154573501Y-125670264D01*
X154573489Y-125670261D01*
X154418845Y-125639500D01*
X154418842Y-125639500D01*
X154261158Y-125639500D01*
X154261155Y-125639500D01*
X154106510Y-125670261D01*
X154106498Y-125670264D01*
X153960827Y-125730602D01*
X153960814Y-125730609D01*
X153829711Y-125818210D01*
X153829707Y-125818213D01*
X153718212Y-125929708D01*
X153708069Y-125944890D01*
X153654457Y-125989695D01*
X153604966Y-126000000D01*
X135423260Y-126000000D01*
X135356221Y-125980315D01*
X135310466Y-125927511D01*
X135299262Y-125876743D01*
X135298387Y-125730602D01*
X135293413Y-124900035D01*
X135312695Y-124832884D01*
X135365224Y-124786813D01*
X135434322Y-124776456D01*
X135441589Y-124777677D01*
X135497713Y-124788841D01*
X135581456Y-124805500D01*
X135581459Y-124805500D01*
X135778543Y-124805500D01*
X135924553Y-124776456D01*
X135971835Y-124767051D01*
X136153914Y-124691632D01*
X136317782Y-124582139D01*
X136457139Y-124442782D01*
X136566632Y-124278914D01*
X136570540Y-124269478D01*
X136614376Y-124215074D01*
X136680669Y-124193004D01*
X136748369Y-124210279D01*
X136753028Y-124213432D01*
X136756633Y-124215513D01*
X136756635Y-124215515D01*
X136887865Y-124291281D01*
X137034234Y-124330500D01*
X137034236Y-124330500D01*
X137185764Y-124330500D01*
X137185766Y-124330500D01*
X137332135Y-124291281D01*
X137463365Y-124215515D01*
X137570515Y-124108365D01*
X137646281Y-123977135D01*
X137685500Y-123830766D01*
X137685500Y-123679234D01*
X142314500Y-123679234D01*
X142314500Y-123830765D01*
X142353719Y-123977136D01*
X142391602Y-124042750D01*
X142429485Y-124108365D01*
X142536635Y-124215515D01*
X142667865Y-124291281D01*
X142814234Y-124330500D01*
X142814236Y-124330500D01*
X142965764Y-124330500D01*
X142965766Y-124330500D01*
X143112135Y-124291281D01*
X143243365Y-124215515D01*
X143243366Y-124215513D01*
X143250403Y-124211451D01*
X143251749Y-124213783D01*
X143304553Y-124193357D01*
X143373001Y-124207381D01*
X143423001Y-124256185D01*
X143429458Y-124269474D01*
X143433367Y-124278913D01*
X143433371Y-124278920D01*
X143542860Y-124442781D01*
X143542863Y-124442785D01*
X143682214Y-124582136D01*
X143682218Y-124582139D01*
X143846079Y-124691628D01*
X143846092Y-124691635D01*
X144028160Y-124767049D01*
X144028165Y-124767051D01*
X144028169Y-124767051D01*
X144028170Y-124767052D01*
X144221456Y-124805500D01*
X144221459Y-124805500D01*
X144418543Y-124805500D01*
X144564553Y-124776456D01*
X144611835Y-124767051D01*
X144793914Y-124691632D01*
X144957782Y-124582139D01*
X145097139Y-124442782D01*
X145206632Y-124278914D01*
X145282051Y-124096835D01*
X145320500Y-123903541D01*
X145320500Y-123761158D01*
X145559500Y-123761158D01*
X145559500Y-123918842D01*
X145562782Y-123935341D01*
X145562782Y-123935344D01*
X145590261Y-124073491D01*
X145590264Y-124073501D01*
X145650602Y-124219172D01*
X145650609Y-124219185D01*
X145738210Y-124350288D01*
X145738213Y-124350292D01*
X145849707Y-124461786D01*
X145849711Y-124461789D01*
X145980814Y-124549390D01*
X145980827Y-124549397D01*
X146126498Y-124609735D01*
X146126503Y-124609737D01*
X146281153Y-124640499D01*
X146281156Y-124640500D01*
X146281158Y-124640500D01*
X146438844Y-124640500D01*
X146438845Y-124640499D01*
X146593497Y-124609737D01*
X146739179Y-124549394D01*
X146870289Y-124461789D01*
X146981789Y-124350289D01*
X147069394Y-124219179D01*
X147071775Y-124213432D01*
X147115294Y-124108365D01*
X147129737Y-124073497D01*
X147160500Y-123918842D01*
X147160500Y-123761158D01*
X147154532Y-123731153D01*
X148369500Y-123731153D01*
X148369500Y-123888846D01*
X148400261Y-124043489D01*
X148400264Y-124043501D01*
X148460602Y-124189172D01*
X148460609Y-124189185D01*
X148548210Y-124320288D01*
X148548213Y-124320292D01*
X148659707Y-124431786D01*
X148659711Y-124431789D01*
X148790814Y-124519390D01*
X148790827Y-124519397D01*
X148936498Y-124579735D01*
X148936503Y-124579737D01*
X149087312Y-124609735D01*
X149091153Y-124610499D01*
X149091156Y-124610500D01*
X149091158Y-124610500D01*
X149248844Y-124610500D01*
X149248845Y-124610499D01*
X149403497Y-124579737D01*
X149549179Y-124519394D01*
X149680289Y-124431789D01*
X149791789Y-124320289D01*
X149879394Y-124189179D01*
X149939737Y-124043497D01*
X149970500Y-123888842D01*
X149970500Y-123731158D01*
X149970500Y-123731155D01*
X149970499Y-123731153D01*
X149960172Y-123679236D01*
X149939737Y-123576503D01*
X149891823Y-123460827D01*
X149879397Y-123430827D01*
X149879390Y-123430814D01*
X149791789Y-123299711D01*
X149791786Y-123299707D01*
X149680292Y-123188213D01*
X149680288Y-123188210D01*
X149549185Y-123100609D01*
X149549172Y-123100602D01*
X149403501Y-123040264D01*
X149403489Y-123040261D01*
X149248845Y-123009500D01*
X149248842Y-123009500D01*
X149091158Y-123009500D01*
X149091155Y-123009500D01*
X148936510Y-123040261D01*
X148936498Y-123040264D01*
X148790827Y-123100602D01*
X148790814Y-123100609D01*
X148659711Y-123188210D01*
X148659707Y-123188213D01*
X148548213Y-123299707D01*
X148548210Y-123299711D01*
X148460609Y-123430814D01*
X148460602Y-123430827D01*
X148400264Y-123576498D01*
X148400261Y-123576510D01*
X148369500Y-123731153D01*
X147154532Y-123731153D01*
X147129737Y-123606503D01*
X147106813Y-123551158D01*
X147069397Y-123460827D01*
X147069390Y-123460814D01*
X146981789Y-123329711D01*
X146981786Y-123329707D01*
X146870292Y-123218213D01*
X146870288Y-123218210D01*
X146739185Y-123130609D01*
X146739172Y-123130602D01*
X146593501Y-123070264D01*
X146593489Y-123070261D01*
X146438845Y-123039500D01*
X146438842Y-123039500D01*
X146281158Y-123039500D01*
X146281155Y-123039500D01*
X146126510Y-123070261D01*
X146126498Y-123070264D01*
X145980827Y-123130602D01*
X145980814Y-123130609D01*
X145849711Y-123218210D01*
X145849707Y-123218213D01*
X145738213Y-123329707D01*
X145738210Y-123329711D01*
X145650609Y-123460814D01*
X145650602Y-123460827D01*
X145590264Y-123606498D01*
X145590261Y-123606510D01*
X145568197Y-123717430D01*
X145568196Y-123717436D01*
X145559500Y-123761158D01*
X145320500Y-123761158D01*
X145320500Y-122606459D01*
X145320500Y-122606456D01*
X145282052Y-122413170D01*
X145282052Y-122413169D01*
X145282051Y-122413168D01*
X145282051Y-122413165D01*
X145269979Y-122384022D01*
X145262512Y-122314554D01*
X145293788Y-122252075D01*
X145353877Y-122216423D01*
X145420423Y-122218800D01*
X145420676Y-122217969D01*
X145426492Y-122219732D01*
X145426503Y-122219737D01*
X145581153Y-122250499D01*
X145581156Y-122250500D01*
X145581158Y-122250500D01*
X145738844Y-122250500D01*
X145738845Y-122250499D01*
X145893497Y-122219737D01*
X146039179Y-122159394D01*
X146170289Y-122071789D01*
X146281789Y-121960289D01*
X146369394Y-121829179D01*
X146429737Y-121683497D01*
X146460500Y-121528842D01*
X146460500Y-121371158D01*
X146460500Y-121371155D01*
X146460499Y-121371153D01*
X146429738Y-121216510D01*
X146429737Y-121216503D01*
X146410355Y-121169711D01*
X146369397Y-121070827D01*
X146369390Y-121070814D01*
X146281789Y-120939711D01*
X146281786Y-120939707D01*
X146170292Y-120828213D01*
X146170288Y-120828210D01*
X146039185Y-120740609D01*
X146039172Y-120740602D01*
X145893501Y-120680264D01*
X145893489Y-120680261D01*
X145738845Y-120649500D01*
X145738842Y-120649500D01*
X145581158Y-120649500D01*
X145581155Y-120649500D01*
X145426510Y-120680261D01*
X145426498Y-120680264D01*
X145280827Y-120740602D01*
X145280814Y-120740609D01*
X145149711Y-120828210D01*
X145149707Y-120828213D01*
X145038213Y-120939707D01*
X145038210Y-120939711D01*
X144950609Y-121070814D01*
X144950602Y-121070827D01*
X144890264Y-121216498D01*
X144890261Y-121216510D01*
X144859500Y-121371153D01*
X144859500Y-121528846D01*
X144882891Y-121646440D01*
X144876664Y-121716031D01*
X144833801Y-121771209D01*
X144767911Y-121794453D01*
X144713822Y-121785193D01*
X144707781Y-121782691D01*
X144611835Y-121742949D01*
X144611830Y-121742948D01*
X144611829Y-121742947D01*
X144418543Y-121704500D01*
X144418541Y-121704500D01*
X144221459Y-121704500D01*
X144221457Y-121704500D01*
X144028170Y-121742947D01*
X144028160Y-121742950D01*
X143846092Y-121818364D01*
X143846079Y-121818371D01*
X143682218Y-121927860D01*
X143682214Y-121927863D01*
X143542863Y-122067214D01*
X143542860Y-122067218D01*
X143433371Y-122231079D01*
X143433364Y-122231092D01*
X143357950Y-122413160D01*
X143357947Y-122413170D01*
X143319500Y-122606456D01*
X143319500Y-123123666D01*
X143299815Y-123190705D01*
X143247011Y-123236460D01*
X143177853Y-123246404D01*
X143133501Y-123231054D01*
X143112137Y-123218719D01*
X143007584Y-123190705D01*
X142965766Y-123179500D01*
X142814234Y-123179500D01*
X142667863Y-123218719D01*
X142536635Y-123294485D01*
X142536632Y-123294487D01*
X142429487Y-123401632D01*
X142429485Y-123401635D01*
X142353719Y-123532863D01*
X142314500Y-123679234D01*
X137685500Y-123679234D01*
X137646281Y-123532865D01*
X137570515Y-123401635D01*
X137463365Y-123294485D01*
X137380087Y-123246404D01*
X137332136Y-123218719D01*
X137227584Y-123190705D01*
X137185766Y-123179500D01*
X137034234Y-123179500D01*
X136887862Y-123218719D01*
X136866499Y-123231054D01*
X136798598Y-123247525D01*
X136732572Y-123224673D01*
X136689382Y-123169751D01*
X136680500Y-123123666D01*
X136680500Y-122606456D01*
X136642052Y-122413170D01*
X136642051Y-122413169D01*
X136642051Y-122413165D01*
X136640507Y-122409438D01*
X136566635Y-122231092D01*
X136566628Y-122231079D01*
X136457139Y-122067218D01*
X136457136Y-122067214D01*
X136317785Y-121927863D01*
X136317781Y-121927860D01*
X136153920Y-121818371D01*
X136153907Y-121818364D01*
X135971839Y-121742950D01*
X135971829Y-121742947D01*
X135778543Y-121704500D01*
X135778541Y-121704500D01*
X135581459Y-121704500D01*
X135581454Y-121704500D01*
X135421932Y-121736231D01*
X135352340Y-121730004D01*
X135297163Y-121687141D01*
X135273919Y-121621251D01*
X135273745Y-121615424D01*
X135265028Y-120159794D01*
X135284311Y-120092641D01*
X135336840Y-120046571D01*
X135405938Y-120036214D01*
X135469666Y-120064858D01*
X135507792Y-120123408D01*
X135510643Y-120134864D01*
X135530261Y-120233489D01*
X135530264Y-120233501D01*
X135590602Y-120379172D01*
X135590609Y-120379185D01*
X135678210Y-120510288D01*
X135678213Y-120510292D01*
X135789707Y-120621786D01*
X135789711Y-120621789D01*
X135920814Y-120709390D01*
X135920827Y-120709397D01*
X135996181Y-120740609D01*
X136066503Y-120769737D01*
X136221153Y-120800499D01*
X136221156Y-120800500D01*
X136221158Y-120800500D01*
X136378844Y-120800500D01*
X136378845Y-120800499D01*
X136533497Y-120769737D01*
X136679179Y-120709394D01*
X136810289Y-120621789D01*
X136921789Y-120510289D01*
X137009394Y-120379179D01*
X137069737Y-120233497D01*
X137100500Y-120078842D01*
X137100500Y-119921158D01*
X137100500Y-119921155D01*
X137084209Y-119839258D01*
X137084209Y-119839257D01*
X137080608Y-119821153D01*
X143099500Y-119821153D01*
X143099500Y-119978846D01*
X143130261Y-120133489D01*
X143130264Y-120133501D01*
X143190602Y-120279172D01*
X143190609Y-120279185D01*
X143278210Y-120410288D01*
X143278213Y-120410292D01*
X143389707Y-120521786D01*
X143389711Y-120521789D01*
X143520814Y-120609390D01*
X143520827Y-120609397D01*
X143666498Y-120669735D01*
X143666503Y-120669737D01*
X143821153Y-120700499D01*
X143821156Y-120700500D01*
X143821158Y-120700500D01*
X143978844Y-120700500D01*
X143978845Y-120700499D01*
X144133497Y-120669737D01*
X144279179Y-120609394D01*
X144410289Y-120521789D01*
X144521789Y-120410289D01*
X144609394Y-120279179D01*
X144669737Y-120133497D01*
X144700500Y-119978842D01*
X144700500Y-119821158D01*
X144700500Y-119821155D01*
X144700499Y-119821153D01*
X144693918Y-119788068D01*
X144669737Y-119666503D01*
X144650812Y-119620814D01*
X144609397Y-119520827D01*
X144609390Y-119520814D01*
X144521789Y-119389711D01*
X144521786Y-119389707D01*
X144410292Y-119278213D01*
X144410288Y-119278210D01*
X144279185Y-119190609D01*
X144279172Y-119190602D01*
X144133501Y-119130264D01*
X144133489Y-119130261D01*
X143978845Y-119099500D01*
X143978842Y-119099500D01*
X143821158Y-119099500D01*
X143821155Y-119099500D01*
X143666510Y-119130261D01*
X143666498Y-119130264D01*
X143520827Y-119190602D01*
X143520814Y-119190609D01*
X143389711Y-119278210D01*
X143389707Y-119278213D01*
X143278213Y-119389707D01*
X143278210Y-119389711D01*
X143190609Y-119520814D01*
X143190602Y-119520827D01*
X143130264Y-119666498D01*
X143130261Y-119666510D01*
X143099500Y-119821153D01*
X137080608Y-119821153D01*
X137074171Y-119788794D01*
X137069737Y-119766503D01*
X137028314Y-119666498D01*
X137009397Y-119620827D01*
X137009390Y-119620814D01*
X136921789Y-119489711D01*
X136921786Y-119489707D01*
X136810292Y-119378213D01*
X136810288Y-119378210D01*
X136679185Y-119290609D01*
X136679172Y-119290602D01*
X136533501Y-119230264D01*
X136533489Y-119230261D01*
X136378845Y-119199500D01*
X136378842Y-119199500D01*
X136221158Y-119199500D01*
X136221155Y-119199500D01*
X136066510Y-119230261D01*
X136066498Y-119230264D01*
X135920827Y-119290602D01*
X135920814Y-119290609D01*
X135789711Y-119378210D01*
X135789707Y-119378213D01*
X135678213Y-119489707D01*
X135678210Y-119489711D01*
X135590609Y-119620814D01*
X135590602Y-119620827D01*
X135530264Y-119766498D01*
X135530262Y-119766507D01*
X135508793Y-119874433D01*
X135476407Y-119936343D01*
X135415691Y-119970917D01*
X135345922Y-119967176D01*
X135289250Y-119926309D01*
X135263669Y-119861291D01*
X135263179Y-119851018D01*
X135257491Y-118901153D01*
X148299500Y-118901153D01*
X148299500Y-119058846D01*
X148330261Y-119213489D01*
X148330264Y-119213501D01*
X148390602Y-119359172D01*
X148390609Y-119359185D01*
X148478210Y-119490288D01*
X148478213Y-119490292D01*
X148589707Y-119601786D01*
X148589711Y-119601789D01*
X148720814Y-119689390D01*
X148720827Y-119689397D01*
X148818276Y-119729761D01*
X148866503Y-119749737D01*
X149020228Y-119780315D01*
X149021153Y-119780499D01*
X149021156Y-119780500D01*
X149021158Y-119780500D01*
X149178844Y-119780500D01*
X149178845Y-119780499D01*
X149333497Y-119749737D01*
X149479179Y-119689394D01*
X149610289Y-119601789D01*
X149721789Y-119490289D01*
X149809394Y-119359179D01*
X149869737Y-119213497D01*
X149900500Y-119058842D01*
X149900500Y-118901158D01*
X149900500Y-118901155D01*
X149900499Y-118901153D01*
X149874812Y-118772018D01*
X149869737Y-118746503D01*
X149809394Y-118600821D01*
X149798584Y-118584642D01*
X149777706Y-118517968D01*
X149796189Y-118450588D01*
X149814003Y-118428074D01*
X149851789Y-118390289D01*
X149924153Y-118281989D01*
X149939390Y-118259185D01*
X149939390Y-118259184D01*
X149939394Y-118259179D01*
X149999737Y-118113497D01*
X150030500Y-117958842D01*
X150030500Y-117801158D01*
X150030500Y-117801155D01*
X150030499Y-117801153D01*
X150024350Y-117770240D01*
X149999737Y-117646503D01*
X149988879Y-117620289D01*
X149939397Y-117500827D01*
X149939390Y-117500814D01*
X149851789Y-117369711D01*
X149851786Y-117369707D01*
X149740292Y-117258213D01*
X149740288Y-117258210D01*
X149609185Y-117170609D01*
X149609172Y-117170602D01*
X149534389Y-117139627D01*
X149463501Y-117110264D01*
X149463489Y-117110261D01*
X149308845Y-117079500D01*
X149308842Y-117079500D01*
X149151158Y-117079500D01*
X149151155Y-117079500D01*
X148996510Y-117110261D01*
X148996498Y-117110264D01*
X148850827Y-117170602D01*
X148850814Y-117170609D01*
X148719711Y-117258210D01*
X148719707Y-117258213D01*
X148608213Y-117369707D01*
X148608210Y-117369711D01*
X148520609Y-117500814D01*
X148520602Y-117500827D01*
X148460264Y-117646498D01*
X148460261Y-117646510D01*
X148429500Y-117801153D01*
X148429500Y-117958846D01*
X148460261Y-118113489D01*
X148460264Y-118113501D01*
X148520602Y-118259172D01*
X148520609Y-118259184D01*
X148531414Y-118275355D01*
X148552292Y-118342032D01*
X148533808Y-118409412D01*
X148515995Y-118431925D01*
X148478213Y-118469708D01*
X148478208Y-118469714D01*
X148390609Y-118600814D01*
X148390602Y-118600827D01*
X148330264Y-118746498D01*
X148330261Y-118746510D01*
X148299500Y-118901153D01*
X135257491Y-118901153D01*
X135246481Y-117062451D01*
X135255468Y-117031153D01*
X155799500Y-117031153D01*
X155799500Y-117188846D01*
X155830261Y-117343489D01*
X155830264Y-117343501D01*
X155890602Y-117489172D01*
X155890609Y-117489185D01*
X155978210Y-117620288D01*
X155978213Y-117620292D01*
X156089707Y-117731786D01*
X156089711Y-117731789D01*
X156220814Y-117819390D01*
X156220827Y-117819397D01*
X156355878Y-117875336D01*
X156366503Y-117879737D01*
X156521153Y-117910499D01*
X156521156Y-117910500D01*
X156521158Y-117910500D01*
X156678844Y-117910500D01*
X156678845Y-117910499D01*
X156833497Y-117879737D01*
X156979179Y-117819394D01*
X157110289Y-117731789D01*
X157221789Y-117620289D01*
X157309394Y-117489179D01*
X157369737Y-117343497D01*
X157400500Y-117188842D01*
X157400500Y-117031158D01*
X157400500Y-117031155D01*
X157400499Y-117031153D01*
X157369738Y-116876507D01*
X157369735Y-116876498D01*
X157309397Y-116730827D01*
X157309390Y-116730814D01*
X157221789Y-116599711D01*
X157221786Y-116599707D01*
X157110292Y-116488213D01*
X157110288Y-116488210D01*
X156979185Y-116400609D01*
X156979172Y-116400602D01*
X156833501Y-116340264D01*
X156833489Y-116340261D01*
X156678845Y-116309500D01*
X156678842Y-116309500D01*
X156521158Y-116309500D01*
X156521155Y-116309500D01*
X156366510Y-116340261D01*
X156366498Y-116340264D01*
X156220827Y-116400602D01*
X156220814Y-116400609D01*
X156089711Y-116488210D01*
X156089707Y-116488213D01*
X155978213Y-116599707D01*
X155978210Y-116599711D01*
X155890609Y-116730814D01*
X155890602Y-116730827D01*
X155830264Y-116876498D01*
X155830262Y-116876507D01*
X155799500Y-117031153D01*
X135255468Y-117031153D01*
X135265764Y-116995298D01*
X135318293Y-116949228D01*
X135346288Y-116940095D01*
X135354592Y-116938443D01*
X135423497Y-116924737D01*
X135569179Y-116864394D01*
X135700289Y-116776789D01*
X135811789Y-116665289D01*
X135899394Y-116534179D01*
X135959737Y-116388497D01*
X135990500Y-116233842D01*
X135990500Y-116104706D01*
X136010185Y-116037667D01*
X136062989Y-115991912D01*
X136114596Y-115980706D01*
X148165990Y-115990445D01*
G37*
%TD.AperFunction*%
%TD*%
%TA.AperFunction,Conductor*%
%TO.N,VBAT*%
G36*
X120642330Y-109505500D02*
G01*
X134574097Y-109505500D01*
X134641136Y-109525185D01*
X134686891Y-109577989D01*
X134698095Y-109628790D01*
X134698508Y-109700940D01*
X134701087Y-110150940D01*
X134701722Y-110261745D01*
X134710141Y-111730940D01*
X134712462Y-112135976D01*
X134712463Y-112135989D01*
X134729661Y-112263855D01*
X134737567Y-112293374D01*
X134735895Y-112363223D01*
X134696725Y-112421081D01*
X134686687Y-112428547D01*
X134679729Y-112433197D01*
X134679707Y-112433212D01*
X134679701Y-112433217D01*
X134568217Y-112544701D01*
X134568212Y-112544707D01*
X134568211Y-112544708D01*
X134480613Y-112675807D01*
X134480603Y-112675824D01*
X134480598Y-112675833D01*
X134420264Y-112821496D01*
X134420257Y-112821527D01*
X134389500Y-112976150D01*
X134389500Y-112976153D01*
X134389500Y-113133846D01*
X134389500Y-113133848D01*
X134389499Y-113133848D01*
X134420257Y-113288471D01*
X134420264Y-113288502D01*
X134480598Y-113434165D01*
X134480603Y-113434174D01*
X134480613Y-113434191D01*
X134568211Y-113565290D01*
X134568212Y-113565291D01*
X134568217Y-113565297D01*
X134679702Y-113676782D01*
X134679705Y-113676784D01*
X134679707Y-113676786D01*
X134679711Y-113676789D01*
X134693901Y-113686270D01*
X134705370Y-113699994D01*
X134720234Y-113709947D01*
X134727309Y-113726245D01*
X134738704Y-113739880D01*
X134740933Y-113757629D01*
X134748057Y-113774038D01*
X134746782Y-113804186D01*
X134747413Y-113809205D01*
X134747393Y-113809326D01*
X134746923Y-113812202D01*
X134732625Y-113879791D01*
X134727802Y-113914753D01*
X134726570Y-113933491D01*
X134726179Y-113939424D01*
X134726179Y-113939429D01*
X134723067Y-113986736D01*
X134730247Y-115239515D01*
X134730247Y-115239522D01*
X134747451Y-115367409D01*
X134747451Y-115367410D01*
X134751849Y-115383829D01*
X134751480Y-115399211D01*
X134756054Y-115413902D01*
X134750661Y-115433429D01*
X134750177Y-115453679D01*
X134741278Y-115467407D01*
X134737456Y-115481251D01*
X134721822Y-115497426D01*
X134714778Y-115508295D01*
X134708244Y-115514144D01*
X134679711Y-115533210D01*
X134679707Y-115533213D01*
X134617878Y-115595042D01*
X134615312Y-115597340D01*
X134611699Y-115599061D01*
X134592027Y-115613787D01*
X134578309Y-115621277D01*
X134553929Y-115626581D01*
X134552234Y-115627389D01*
X134550961Y-115627227D01*
X134510051Y-115636128D01*
X134508245Y-115635999D01*
X134450044Y-115616631D01*
X134443529Y-115612444D01*
X134422897Y-115595818D01*
X134360292Y-115533213D01*
X134360291Y-115533212D01*
X134360290Y-115533211D01*
X134229191Y-115445613D01*
X134229190Y-115445612D01*
X134229185Y-115445609D01*
X134229172Y-115445602D01*
X134229165Y-115445598D01*
X134083502Y-115385264D01*
X134083471Y-115385257D01*
X133928847Y-115354500D01*
X133928845Y-115354500D01*
X133928842Y-115354500D01*
X133771158Y-115354500D01*
X133771155Y-115354500D01*
X133771153Y-115354500D01*
X133616527Y-115385257D01*
X133616496Y-115385264D01*
X133470833Y-115445598D01*
X133470824Y-115445603D01*
X133470807Y-115445613D01*
X133339708Y-115533211D01*
X133339707Y-115533212D01*
X133339701Y-115533217D01*
X133228217Y-115644701D01*
X133228212Y-115644707D01*
X133228211Y-115644708D01*
X133140613Y-115775807D01*
X133140603Y-115775824D01*
X133140598Y-115775833D01*
X133080264Y-115921496D01*
X133080257Y-115921527D01*
X133049500Y-116076150D01*
X133049500Y-116076153D01*
X133049500Y-116233846D01*
X133049500Y-116233848D01*
X133049499Y-116233848D01*
X133080257Y-116388471D01*
X133080264Y-116388502D01*
X133140598Y-116534165D01*
X133140603Y-116534174D01*
X133140613Y-116534191D01*
X133228211Y-116665290D01*
X133228212Y-116665291D01*
X133228217Y-116665297D01*
X133339701Y-116776781D01*
X133339705Y-116776784D01*
X133339707Y-116776786D01*
X133339711Y-116776789D01*
X133470814Y-116864390D01*
X133470827Y-116864397D01*
X133616498Y-116924735D01*
X133616503Y-116924737D01*
X133771153Y-116955499D01*
X133771156Y-116955500D01*
X133771158Y-116955500D01*
X133928844Y-116955500D01*
X133928845Y-116955499D01*
X134083497Y-116924737D01*
X134229179Y-116864394D01*
X134360289Y-116776789D01*
X134360292Y-116776786D01*
X134419716Y-116717362D01*
X134419720Y-116717360D01*
X134447963Y-116696217D01*
X134461689Y-116688722D01*
X134479111Y-116684931D01*
X134481038Y-116683880D01*
X134483226Y-116684036D01*
X134529946Y-116673871D01*
X134531756Y-116674000D01*
X134589953Y-116693366D01*
X134596471Y-116697555D01*
X134617101Y-116714180D01*
X134679707Y-116776786D01*
X134679711Y-116776789D01*
X134698888Y-116789603D01*
X134707890Y-116795618D01*
X134752695Y-116849231D01*
X134761402Y-116918556D01*
X134760750Y-116922228D01*
X134760613Y-116922934D01*
X134740991Y-117065470D01*
X134740990Y-117065478D01*
X134741083Y-117080945D01*
X134752000Y-118904180D01*
X134752280Y-118950941D01*
X134757688Y-119854077D01*
X134758252Y-119875092D01*
X134758742Y-119885374D01*
X134760180Y-119906337D01*
X134760182Y-119906347D01*
X134776765Y-119976529D01*
X134778929Y-120021954D01*
X134759538Y-120162812D01*
X134759537Y-120162821D01*
X134762171Y-120602803D01*
X134742888Y-120669959D01*
X134690359Y-120716029D01*
X134621261Y-120726386D01*
X134590722Y-120718107D01*
X134523499Y-120690263D01*
X134523471Y-120690257D01*
X134368847Y-120659500D01*
X134368845Y-120659500D01*
X134368842Y-120659500D01*
X134211158Y-120659500D01*
X134211155Y-120659500D01*
X134211153Y-120659500D01*
X134056527Y-120690257D01*
X134056496Y-120690264D01*
X133910833Y-120750598D01*
X133910824Y-120750603D01*
X133910807Y-120750613D01*
X133779708Y-120838211D01*
X133779707Y-120838212D01*
X133779701Y-120838217D01*
X133668217Y-120949701D01*
X133668212Y-120949707D01*
X133668211Y-120949708D01*
X133580613Y-121080807D01*
X133580603Y-121080824D01*
X133580598Y-121080833D01*
X133520264Y-121226496D01*
X133520257Y-121226527D01*
X133489500Y-121381150D01*
X133489500Y-121381153D01*
X133489500Y-121538846D01*
X133489500Y-121538848D01*
X133489499Y-121538848D01*
X133520257Y-121693471D01*
X133520264Y-121693502D01*
X133580598Y-121839165D01*
X133580603Y-121839174D01*
X133580613Y-121839191D01*
X133668211Y-121970290D01*
X133668212Y-121970291D01*
X133668217Y-121970297D01*
X133779701Y-122081781D01*
X133779707Y-122081786D01*
X133779711Y-122081789D01*
X133910814Y-122169390D01*
X133910827Y-122169397D01*
X134056498Y-122229735D01*
X134056503Y-122229737D01*
X134211153Y-122260499D01*
X134211156Y-122260500D01*
X134211158Y-122260500D01*
X134368844Y-122260500D01*
X134368845Y-122260499D01*
X134523497Y-122229737D01*
X134556889Y-122215904D01*
X134591082Y-122207176D01*
X134602333Y-122205967D01*
X134671091Y-122218373D01*
X134722228Y-122265984D01*
X134739507Y-122333684D01*
X134739507Y-122333687D01*
X134739233Y-122341351D01*
X134729874Y-122384371D01*
X134717955Y-122413145D01*
X134717948Y-122413165D01*
X134717945Y-122413176D01*
X134679500Y-122606451D01*
X134679500Y-123859174D01*
X134674237Y-123877094D01*
X134717945Y-124096822D01*
X134717946Y-124096826D01*
X134717947Y-124096829D01*
X134717950Y-124096839D01*
X134717953Y-124096847D01*
X134717958Y-124096861D01*
X134793360Y-124278900D01*
X134793365Y-124278909D01*
X134793375Y-124278926D01*
X134888098Y-124420689D01*
X134908976Y-124487367D01*
X134899672Y-124536755D01*
X134892389Y-124554456D01*
X134885815Y-124562137D01*
X134826829Y-124693370D01*
X134807547Y-124760521D01*
X134807545Y-124760526D01*
X134807509Y-124760783D01*
X134807507Y-124760790D01*
X134787923Y-124903053D01*
X134787922Y-124903062D01*
X134788886Y-125064121D01*
X134793771Y-125879764D01*
X134793771Y-125879770D01*
X134805640Y-125985680D01*
X134805642Y-125985694D01*
X134816840Y-126036435D01*
X134816842Y-126036444D01*
X134850646Y-126137502D01*
X134850648Y-126137508D01*
X134918658Y-126243331D01*
X134938343Y-126310370D01*
X134918659Y-126377410D01*
X134905529Y-126393706D01*
X134905744Y-126393893D01*
X134902859Y-126397218D01*
X134793375Y-126561072D01*
X134793365Y-126561089D01*
X134793360Y-126561098D01*
X134717958Y-126743137D01*
X134717945Y-126743176D01*
X134679500Y-126936451D01*
X134679500Y-127889174D01*
X134674237Y-127907094D01*
X134717945Y-128126822D01*
X134717946Y-128126826D01*
X134717947Y-128126829D01*
X134717950Y-128126839D01*
X134717953Y-128126847D01*
X134717958Y-128126861D01*
X134793360Y-128308900D01*
X134793365Y-128308909D01*
X134793375Y-128308926D01*
X134902861Y-128472783D01*
X134902862Y-128472784D01*
X134902867Y-128472790D01*
X135042208Y-128612131D01*
X135042214Y-128612136D01*
X135042218Y-128612139D01*
X135206079Y-128721628D01*
X135206092Y-128721635D01*
X135388160Y-128797049D01*
X135388165Y-128797051D01*
X135388169Y-128797051D01*
X135388170Y-128797052D01*
X135388442Y-128797106D01*
X135388469Y-128797112D01*
X135581453Y-128835500D01*
X135778543Y-128835500D01*
X135778544Y-128835500D01*
X135800216Y-128831188D01*
X135908582Y-128809632D01*
X135908583Y-128809632D01*
X135921301Y-128807102D01*
X135971835Y-128797051D01*
X136153914Y-128721632D01*
X136317782Y-128612139D01*
X136457139Y-128472782D01*
X136566632Y-128308914D01*
X136642051Y-128126835D01*
X136680500Y-127933541D01*
X136680500Y-126936459D01*
X136680500Y-126936456D01*
X136680500Y-126936453D01*
X136642112Y-126743471D01*
X136642112Y-126743472D01*
X136642052Y-126743170D01*
X136642051Y-126743169D01*
X136641811Y-126741962D01*
X136639731Y-126737565D01*
X136614623Y-126676948D01*
X136607156Y-126607482D01*
X136638432Y-126545003D01*
X136698521Y-126509351D01*
X136729186Y-126505500D01*
X143270812Y-126505500D01*
X143337851Y-126525185D01*
X143383606Y-126577989D01*
X143393550Y-126647147D01*
X143385373Y-126676952D01*
X143357958Y-126743137D01*
X143357945Y-126743176D01*
X143319500Y-126936451D01*
X143319500Y-127889174D01*
X143314237Y-127907094D01*
X143357945Y-128126822D01*
X143357946Y-128126826D01*
X143357947Y-128126829D01*
X143357950Y-128126839D01*
X143357953Y-128126847D01*
X143357958Y-128126861D01*
X143433360Y-128308900D01*
X143433365Y-128308909D01*
X143433375Y-128308926D01*
X143542861Y-128472783D01*
X143542862Y-128472784D01*
X143542867Y-128472790D01*
X143682208Y-128612131D01*
X143682214Y-128612136D01*
X143682218Y-128612139D01*
X143846079Y-128721628D01*
X143846092Y-128721635D01*
X144028160Y-128797049D01*
X144028165Y-128797051D01*
X144028169Y-128797051D01*
X144028170Y-128797052D01*
X144028442Y-128797106D01*
X144028469Y-128797112D01*
X144221453Y-128835500D01*
X144418543Y-128835500D01*
X144418544Y-128835500D01*
X144440216Y-128831188D01*
X144548582Y-128809632D01*
X144548583Y-128809632D01*
X144561301Y-128807102D01*
X144611835Y-128797051D01*
X144793914Y-128721632D01*
X144957782Y-128612139D01*
X145097139Y-128472782D01*
X145206632Y-128308914D01*
X145282051Y-128126835D01*
X145320500Y-127933541D01*
X145320500Y-126936459D01*
X145320500Y-126936456D01*
X145320500Y-126936453D01*
X145282112Y-126743471D01*
X145282112Y-126743472D01*
X145282052Y-126743170D01*
X145282051Y-126743169D01*
X145281811Y-126741962D01*
X145279731Y-126737565D01*
X145254623Y-126676948D01*
X145247156Y-126607482D01*
X145278432Y-126545003D01*
X145338521Y-126509351D01*
X145369186Y-126505500D01*
X153435081Y-126505500D01*
X153502120Y-126525185D01*
X153547875Y-126577989D01*
X153556698Y-126605307D01*
X153570259Y-126673478D01*
X153570264Y-126673502D01*
X153630598Y-126819165D01*
X153630603Y-126819174D01*
X153630613Y-126819191D01*
X153718211Y-126950290D01*
X153718212Y-126950291D01*
X153718217Y-126950297D01*
X153829701Y-127061781D01*
X153829707Y-127061786D01*
X153829711Y-127061789D01*
X153960814Y-127149390D01*
X153960827Y-127149397D01*
X154106498Y-127209735D01*
X154106503Y-127209737D01*
X154261153Y-127240499D01*
X154261156Y-127240500D01*
X154261158Y-127240500D01*
X154418844Y-127240500D01*
X154418845Y-127240499D01*
X154573497Y-127209737D01*
X154719179Y-127149394D01*
X154806296Y-127091182D01*
X154838121Y-127075957D01*
X154853046Y-127071284D01*
X154922894Y-127070039D01*
X154936030Y-127073642D01*
X154972113Y-127090121D01*
X155060819Y-127149393D01*
X155060820Y-127149393D01*
X155060821Y-127149394D01*
X155060823Y-127149395D01*
X155060827Y-127149397D01*
X155206498Y-127209735D01*
X155206503Y-127209737D01*
X155361153Y-127240499D01*
X155361156Y-127240500D01*
X155361158Y-127240500D01*
X155518844Y-127240500D01*
X155518845Y-127240499D01*
X155673497Y-127209737D01*
X155819179Y-127149394D01*
X155950289Y-127061789D01*
X156061789Y-126950289D01*
X156149394Y-126819179D01*
X156209737Y-126673497D01*
X156240500Y-126518842D01*
X156240500Y-126361158D01*
X156240500Y-126361155D01*
X156240500Y-126360971D01*
X156240064Y-126358966D01*
X156219953Y-126257861D01*
X156212401Y-126219895D01*
X156209737Y-126206503D01*
X156182650Y-126141109D01*
X156181158Y-126137508D01*
X156161017Y-126088881D01*
X156149397Y-126060827D01*
X156149390Y-126060814D01*
X156107978Y-125998838D01*
X156087101Y-125932162D01*
X156103207Y-125873447D01*
X156101882Y-125872842D01*
X156105565Y-125864777D01*
X156105567Y-125864775D01*
X156165338Y-125733898D01*
X156185023Y-125666859D01*
X156185024Y-125666855D01*
X156205500Y-125524439D01*
X156205500Y-122550607D01*
X156205420Y-122541590D01*
X156205341Y-122537162D01*
X156205099Y-122528128D01*
X156203933Y-122521668D01*
X156211396Y-122452202D01*
X156255232Y-122397794D01*
X156267527Y-122390276D01*
X156269163Y-122389400D01*
X156269179Y-122389394D01*
X156400289Y-122301789D01*
X156511789Y-122190289D01*
X156599394Y-122059179D01*
X156659737Y-121913497D01*
X156690500Y-121758842D01*
X156690500Y-121601158D01*
X156690500Y-121601155D01*
X156690500Y-121600973D01*
X156690065Y-121598972D01*
X156660395Y-121449815D01*
X156659983Y-121447403D01*
X156659737Y-121446504D01*
X156644737Y-121410289D01*
X156599397Y-121300827D01*
X156599390Y-121300814D01*
X156511789Y-121169711D01*
X156511786Y-121169707D01*
X156511781Y-121169701D01*
X156400297Y-121058217D01*
X156400291Y-121058212D01*
X156400290Y-121058211D01*
X156269191Y-120970613D01*
X156269190Y-120970612D01*
X156269185Y-120970609D01*
X156269172Y-120970602D01*
X156269165Y-120970598D01*
X156123502Y-120910264D01*
X156123471Y-120910257D01*
X155968847Y-120879500D01*
X155968845Y-120879500D01*
X155968842Y-120879500D01*
X155811158Y-120879500D01*
X155811155Y-120879500D01*
X155811153Y-120879500D01*
X155656527Y-120910257D01*
X155656496Y-120910264D01*
X155510833Y-120970598D01*
X155510824Y-120970603D01*
X155510807Y-120970613D01*
X155379708Y-121058211D01*
X155379707Y-121058212D01*
X155379701Y-121058217D01*
X155268217Y-121169701D01*
X155268212Y-121169707D01*
X155268211Y-121169708D01*
X155180613Y-121300807D01*
X155180603Y-121300824D01*
X155180598Y-121300833D01*
X155120264Y-121446496D01*
X155120257Y-121446527D01*
X155089500Y-121601150D01*
X155089500Y-121764938D01*
X155088199Y-121764938D01*
X155076434Y-121826988D01*
X155028371Y-121877700D01*
X154966048Y-121894500D01*
X153629500Y-121894500D01*
X153562461Y-121874815D01*
X153516706Y-121822011D01*
X153505500Y-121770500D01*
X153505500Y-120145224D01*
X153525185Y-120078185D01*
X153577989Y-120032430D01*
X153647147Y-120022486D01*
X153710703Y-120051511D01*
X153723213Y-120064022D01*
X153764214Y-120111340D01*
X153764217Y-120111343D01*
X153764221Y-120111347D01*
X153872955Y-120205567D01*
X154003832Y-120265338D01*
X154070871Y-120285023D01*
X154070875Y-120285024D01*
X154213291Y-120305500D01*
X154213294Y-120305500D01*
X159375500Y-120305500D01*
X159442539Y-120325185D01*
X159488294Y-120377989D01*
X159499500Y-120429500D01*
X159499500Y-126994363D01*
X159499443Y-126998117D01*
X159499329Y-127001881D01*
X159499160Y-127005614D01*
X159481954Y-127290054D01*
X159481275Y-127297523D01*
X159480373Y-127304947D01*
X159479247Y-127312343D01*
X159428893Y-127587117D01*
X159427319Y-127594449D01*
X159425530Y-127601705D01*
X159423520Y-127608911D01*
X159340421Y-127875586D01*
X159337980Y-127882663D01*
X159335321Y-127889675D01*
X159332452Y-127896600D01*
X159217816Y-128151308D01*
X159214543Y-128158031D01*
X159211062Y-128164665D01*
X159207381Y-128171192D01*
X159124123Y-128308920D01*
X159062863Y-128410257D01*
X159058807Y-128416530D01*
X159054549Y-128422699D01*
X159050117Y-128428723D01*
X158877837Y-128648621D01*
X158873038Y-128654379D01*
X158868072Y-128659984D01*
X158862941Y-128665434D01*
X158665434Y-128862941D01*
X158659984Y-128868072D01*
X158654379Y-128873038D01*
X158648621Y-128877837D01*
X158428723Y-129050117D01*
X158422699Y-129054549D01*
X158416530Y-129058807D01*
X158410255Y-129062863D01*
X158171192Y-129207381D01*
X158164665Y-129211062D01*
X158158031Y-129214543D01*
X158151308Y-129217816D01*
X157896600Y-129332452D01*
X157889675Y-129335321D01*
X157882663Y-129337980D01*
X157875586Y-129340421D01*
X157608911Y-129423520D01*
X157601708Y-129425529D01*
X157594439Y-129427321D01*
X157587117Y-129428893D01*
X157312343Y-129479247D01*
X157304947Y-129480373D01*
X157297523Y-129481275D01*
X157290054Y-129481954D01*
X157005614Y-129499160D01*
X157001881Y-129499329D01*
X156998117Y-129499443D01*
X156994363Y-129499500D01*
X123005637Y-129499500D01*
X123001884Y-129499443D01*
X122998119Y-129499329D01*
X122994385Y-129499160D01*
X122709944Y-129481954D01*
X122702475Y-129481275D01*
X122695051Y-129480373D01*
X122687655Y-129479247D01*
X122412881Y-129428893D01*
X122405566Y-129427322D01*
X122398282Y-129425526D01*
X122391087Y-129423520D01*
X122124407Y-129340420D01*
X122117334Y-129337980D01*
X122110310Y-129335316D01*
X122103420Y-129332461D01*
X122048880Y-129307915D01*
X121954096Y-129265255D01*
X121954096Y-129265256D01*
X121848683Y-129217813D01*
X121841951Y-129214535D01*
X121835324Y-129211057D01*
X121828820Y-129207389D01*
X121589727Y-129062854D01*
X121583483Y-129058817D01*
X121577283Y-129054538D01*
X121571275Y-129050117D01*
X121351377Y-128877837D01*
X121345619Y-128873038D01*
X121340014Y-128868072D01*
X121334564Y-128862941D01*
X121137057Y-128665434D01*
X121131926Y-128659984D01*
X121126960Y-128654379D01*
X121122161Y-128648621D01*
X121093577Y-128612136D01*
X120984401Y-128472784D01*
X120949872Y-128428711D01*
X120945444Y-128422691D01*
X120941192Y-128416532D01*
X120937147Y-128410275D01*
X120792602Y-128171167D01*
X120788941Y-128164674D01*
X120785463Y-128158047D01*
X120782191Y-128151329D01*
X120667532Y-127896567D01*
X120664672Y-127889662D01*
X120664487Y-127889174D01*
X120662018Y-127882663D01*
X120659581Y-127875599D01*
X120576479Y-127608916D01*
X120574468Y-127601703D01*
X120572677Y-127594437D01*
X120571108Y-127587134D01*
X120520750Y-127312339D01*
X120519625Y-127304947D01*
X120518720Y-127297496D01*
X120518046Y-127290075D01*
X120513186Y-127209735D01*
X120500837Y-127005575D01*
X120500669Y-127001848D01*
X120500556Y-126998084D01*
X120500500Y-126994363D01*
X120500500Y-125621617D01*
X130950000Y-125621617D01*
X130950000Y-125818382D01*
X130980778Y-126012705D01*
X131041581Y-126199835D01*
X131041582Y-126199838D01*
X131041583Y-126199839D01*
X131130906Y-126375147D01*
X131156318Y-126410124D01*
X131156319Y-126410125D01*
X131156320Y-126410125D01*
X131700106Y-125866338D01*
X131761426Y-125832856D01*
X131831117Y-125837840D01*
X131887051Y-125879711D01*
X131895171Y-125892022D01*
X131919927Y-125934901D01*
X131919929Y-125934904D01*
X131919930Y-125934905D01*
X131985095Y-126000070D01*
X131985096Y-126000071D01*
X131985098Y-126000072D01*
X132027975Y-126024827D01*
X132076190Y-126075394D01*
X132089414Y-126144001D01*
X132063446Y-126208865D01*
X132053656Y-126219895D01*
X131509873Y-126763676D01*
X131509873Y-126763677D01*
X131509873Y-126763678D01*
X131544858Y-126789096D01*
X131720164Y-126878418D01*
X131907294Y-126939221D01*
X132101618Y-126970000D01*
X132298381Y-126970000D01*
X132298382Y-126970000D01*
X132492705Y-126939221D01*
X132679835Y-126878418D01*
X132855143Y-126789095D01*
X132857527Y-126787362D01*
X132858587Y-126786984D01*
X132859296Y-126786550D01*
X132859387Y-126786698D01*
X132884267Y-126777820D01*
X132890126Y-126763677D01*
X132346343Y-126219895D01*
X132312858Y-126158572D01*
X132317842Y-126088881D01*
X132359713Y-126032947D01*
X132372017Y-126024830D01*
X132414905Y-126000070D01*
X132480070Y-125934905D01*
X132504827Y-125892023D01*
X132555393Y-125843809D01*
X132624000Y-125830585D01*
X132688865Y-125856553D01*
X132699895Y-125866343D01*
X133243677Y-126410126D01*
X133243677Y-126410125D01*
X133243678Y-126410126D01*
X133243678Y-126410125D01*
X133257146Y-126404546D01*
X133263363Y-126383377D01*
X133267353Y-126377539D01*
X133269095Y-126375143D01*
X133358418Y-126199835D01*
X133419221Y-126012705D01*
X133450000Y-125818382D01*
X133450000Y-125621617D01*
X133419221Y-125427294D01*
X133358418Y-125240164D01*
X133269096Y-125064858D01*
X133260274Y-125052715D01*
X133243679Y-125029873D01*
X133243678Y-125029873D01*
X133243677Y-125029873D01*
X133243676Y-125029873D01*
X132699895Y-125573656D01*
X132638572Y-125607141D01*
X132568881Y-125602157D01*
X132512947Y-125560286D01*
X132504827Y-125547975D01*
X132480072Y-125505098D01*
X132480068Y-125505093D01*
X132414906Y-125439931D01*
X132414898Y-125439925D01*
X132372024Y-125415172D01*
X132323808Y-125364606D01*
X132310584Y-125295999D01*
X132336552Y-125231134D01*
X132346337Y-125220109D01*
X132890125Y-124676320D01*
X132890125Y-124676319D01*
X132890124Y-124676318D01*
X132855147Y-124650906D01*
X132679839Y-124561583D01*
X132679838Y-124561582D01*
X132679835Y-124561581D01*
X132492705Y-124500778D01*
X132298382Y-124470000D01*
X132298381Y-124470000D01*
X132101619Y-124470000D01*
X132101618Y-124470000D01*
X132017633Y-124483301D01*
X131907299Y-124500777D01*
X131907297Y-124500777D01*
X131907294Y-124500778D01*
X131796570Y-124536755D01*
X131720160Y-124561582D01*
X131720153Y-124561585D01*
X131544863Y-124650898D01*
X131544775Y-124650953D01*
X131544121Y-124651437D01*
X131542495Y-124652619D01*
X131541578Y-124652946D01*
X131540326Y-124653727D01*
X131540156Y-124653454D01*
X131515730Y-124662176D01*
X131509871Y-124676320D01*
X132053657Y-125220104D01*
X132087142Y-125281427D01*
X132082158Y-125351118D01*
X132040287Y-125407052D01*
X132027976Y-125415172D01*
X131985098Y-125439927D01*
X131985093Y-125439931D01*
X131919931Y-125505093D01*
X131919927Y-125505098D01*
X131895172Y-125547976D01*
X131844605Y-125596192D01*
X131775998Y-125609414D01*
X131711133Y-125583446D01*
X131700104Y-125573657D01*
X131156320Y-125029871D01*
X131148030Y-125033305D01*
X131137782Y-125052715D01*
X131136635Y-125056623D01*
X131132619Y-125062495D01*
X131131437Y-125064121D01*
X131130953Y-125064775D01*
X131130898Y-125064863D01*
X131041585Y-125240153D01*
X131041582Y-125240160D01*
X131041582Y-125240161D01*
X130980778Y-125427294D01*
X130980777Y-125427297D01*
X130980777Y-125427299D01*
X130978776Y-125439931D01*
X130950000Y-125621617D01*
X120500500Y-125621617D01*
X120500500Y-113355007D01*
X123400000Y-113355007D01*
X123400000Y-113355013D01*
X123400000Y-113905000D01*
X124137750Y-113905000D01*
X124204789Y-113924685D01*
X124250544Y-113977489D01*
X124260488Y-114046647D01*
X124257524Y-114061095D01*
X124250000Y-114089171D01*
X124250000Y-114220828D01*
X124257524Y-114248905D01*
X124255863Y-114318755D01*
X124216701Y-114376618D01*
X124152473Y-114404123D01*
X124137750Y-114405000D01*
X123400001Y-114405000D01*
X123400001Y-114954995D01*
X123410493Y-115057694D01*
X123410494Y-115057696D01*
X123450878Y-115179569D01*
X123465641Y-115224119D01*
X123465643Y-115224124D01*
X123557684Y-115373345D01*
X123681654Y-115497315D01*
X123830875Y-115589356D01*
X123830880Y-115589358D01*
X123997299Y-115644504D01*
X123997300Y-115644504D01*
X123997302Y-115644505D01*
X123997309Y-115644506D01*
X124100019Y-115654999D01*
X124499999Y-115654999D01*
X124500000Y-115654998D01*
X124500000Y-114767250D01*
X124519685Y-114700211D01*
X124572489Y-114654456D01*
X124641647Y-114644512D01*
X124656093Y-114647475D01*
X124684174Y-114655000D01*
X124815825Y-114655000D01*
X124815826Y-114655000D01*
X124843905Y-114647476D01*
X124913755Y-114649137D01*
X124971618Y-114688299D01*
X124999123Y-114752527D01*
X125000000Y-114767250D01*
X125000000Y-115654999D01*
X125399960Y-115654999D01*
X125399972Y-115654999D01*
X125399986Y-115654998D01*
X125502697Y-115644505D01*
X125669119Y-115589358D01*
X125669124Y-115589356D01*
X125818345Y-115497315D01*
X125942317Y-115373343D01*
X126028459Y-115233684D01*
X126051063Y-115206599D01*
X126061391Y-115197309D01*
X126124394Y-115167114D01*
X126193720Y-115175773D01*
X126202459Y-115179570D01*
X126240718Y-115205614D01*
X126370216Y-115335112D01*
X126542169Y-115460042D01*
X126542200Y-115460060D01*
X126542442Y-115460182D01*
X126731588Y-115556557D01*
X126933757Y-115622246D01*
X127143713Y-115655500D01*
X127143714Y-115655500D01*
X127356286Y-115655500D01*
X127356287Y-115655500D01*
X127566243Y-115622246D01*
X127768412Y-115556557D01*
X127957816Y-115460051D01*
X128026308Y-115410289D01*
X128129786Y-115335109D01*
X128129787Y-115335107D01*
X128129843Y-115335067D01*
X128130605Y-115334290D01*
X128280104Y-115184792D01*
X128280106Y-115184788D01*
X128280109Y-115184786D01*
X128405048Y-115012820D01*
X128405047Y-115012820D01*
X128405051Y-115012816D01*
X128405053Y-115012810D01*
X128425445Y-114984744D01*
X128433730Y-114956529D01*
X128501557Y-114823412D01*
X128567246Y-114621243D01*
X128600500Y-114411287D01*
X128600500Y-113898713D01*
X128567246Y-113688757D01*
X128501557Y-113486588D01*
X128405051Y-113297184D01*
X128405049Y-113297181D01*
X128405048Y-113297179D01*
X128404702Y-113296703D01*
X128404700Y-113296699D01*
X128280112Y-113125216D01*
X128129788Y-112974892D01*
X128129786Y-112974890D01*
X127957820Y-112849951D01*
X127902035Y-112821527D01*
X127790245Y-112764567D01*
X127790240Y-112764565D01*
X127768414Y-112753444D01*
X127768413Y-112753443D01*
X127768412Y-112753443D01*
X127671550Y-112721970D01*
X127575074Y-112690623D01*
X127570552Y-112688770D01*
X127561362Y-112686600D01*
X127556599Y-112686226D01*
X127404957Y-112662208D01*
X127385489Y-112659124D01*
X127356290Y-112654500D01*
X127356287Y-112654500D01*
X127143713Y-112654500D01*
X127143709Y-112654500D01*
X127104776Y-112660666D01*
X127095042Y-112662208D01*
X127057654Y-112668129D01*
X126933763Y-112687752D01*
X126731582Y-112753445D01*
X126542182Y-112849949D01*
X126370218Y-112974886D01*
X126243643Y-113101461D01*
X126243641Y-113101462D01*
X126243641Y-113101463D01*
X126215386Y-113122613D01*
X126203203Y-113129265D01*
X126134930Y-113144115D01*
X126069466Y-113119696D01*
X126061844Y-113113990D01*
X126030624Y-113079826D01*
X125965899Y-112974890D01*
X125942315Y-112936654D01*
X125818345Y-112812684D01*
X125669124Y-112720643D01*
X125669119Y-112720641D01*
X125669110Y-112720638D01*
X125502699Y-112665494D01*
X125502694Y-112665493D01*
X125399991Y-112655000D01*
X125399986Y-112655000D01*
X125000000Y-112655000D01*
X125000000Y-113542749D01*
X124980315Y-113609788D01*
X124927511Y-113655543D01*
X124858353Y-113665487D01*
X124843908Y-113662524D01*
X124815828Y-113655000D01*
X124815826Y-113655000D01*
X124684174Y-113655000D01*
X124684171Y-113655000D01*
X124656092Y-113662524D01*
X124586242Y-113660861D01*
X124528380Y-113621698D01*
X124500877Y-113557469D01*
X124500000Y-113542749D01*
X124500000Y-112655000D01*
X124100028Y-112655000D01*
X124100012Y-112655001D01*
X124100002Y-112655001D01*
X124100002Y-112655002D01*
X123997304Y-112665493D01*
X123997302Y-112665494D01*
X123830887Y-112720638D01*
X123830879Y-112720641D01*
X123830877Y-112720642D01*
X123830875Y-112720643D01*
X123731394Y-112782003D01*
X123681652Y-112812685D01*
X123557685Y-112936652D01*
X123557684Y-112936654D01*
X123469375Y-113079826D01*
X123465641Y-113085879D01*
X123465638Y-113085888D01*
X123410494Y-113252299D01*
X123410493Y-113252304D01*
X123400000Y-113355007D01*
X120500500Y-113355007D01*
X120500500Y-109628340D01*
X120520185Y-109561301D01*
X120572989Y-109515546D01*
X120636728Y-109504945D01*
X120642330Y-109505500D01*
G37*
%TD.AperFunction*%
%TD*%
M02*
