%TF.GenerationSoftware,KiCad,Pcbnew,10.0.3*%
%TF.CreationDate,2026-05-27T17:04:54-07:00*%
%TF.ProjectId,Beacon_and_eggs,42656163-6f6e-45f6-916e-645f65676773,rev?*%
%TF.SameCoordinates,Original*%
%TF.FileFunction,Soldermask,Top*%
%TF.FilePolarity,Negative*%
%FSLAX46Y46*%
G04 Gerber Fmt 4.6, Leading zero omitted, Abs format (unit mm)*
G04 Created by KiCad (PCBNEW 10.0.3) date 2026-05-27 17:04:54*
%MOMM*%
%LPD*%
G01*
G04 APERTURE LIST*
G04 Aperture macros list*
%AMRoundRect*
0 Rectangle with rounded corners*
0 $1 Rounding radius*
0 $2 $3 $4 $5 $6 $7 $8 $9 X,Y pos of 4 corners*
0 Add a 4 corners polygon primitive as box body*
4,1,4,$2,$3,$4,$5,$6,$7,$8,$9,$2,$3,0*
0 Add four circle primitives for the rounded corners*
1,1,$1+$1,$2,$3*
1,1,$1+$1,$4,$5*
1,1,$1+$1,$6,$7*
1,1,$1+$1,$8,$9*
0 Add four rect primitives between the rounded corners*
20,1,$1+$1,$2,$3,$4,$5,0*
20,1,$1+$1,$4,$5,$6,$7,0*
20,1,$1+$1,$6,$7,$8,$9,0*
20,1,$1+$1,$8,$9,$2,$3,0*%
G04 Aperture macros list end*
%ADD10C,0.000000*%
%ADD11RoundRect,0.140000X0.170000X-0.140000X0.170000X0.140000X-0.170000X0.140000X-0.170000X-0.140000X0*%
%ADD12RoundRect,0.135000X0.185000X-0.135000X0.185000X0.135000X-0.185000X0.135000X-0.185000X-0.135000X0*%
%ADD13RoundRect,0.140000X0.140000X0.170000X-0.140000X0.170000X-0.140000X-0.170000X0.140000X-0.170000X0*%
%ADD14RoundRect,0.135000X-0.185000X0.135000X-0.185000X-0.135000X0.185000X-0.135000X0.185000X0.135000X0*%
%ADD15RoundRect,0.147500X-0.172500X0.147500X-0.172500X-0.147500X0.172500X-0.147500X0.172500X0.147500X0*%
%ADD16RoundRect,0.100000X0.100000X-0.130000X0.100000X0.130000X-0.100000X0.130000X-0.100000X-0.130000X0*%
%ADD17RoundRect,0.140000X-0.170000X0.140000X-0.170000X-0.140000X0.170000X-0.140000X0.170000X0.140000X0*%
%ADD18C,2.200000*%
%ADD19C,3.600000*%
%ADD20C,5.600000*%
%ADD21RoundRect,0.063000X0.534000X0.189000X-0.534000X0.189000X-0.534000X-0.189000X0.534000X-0.189000X0*%
%ADD22RoundRect,0.147500X-0.147500X-0.172500X0.147500X-0.172500X0.147500X0.172500X-0.147500X0.172500X0*%
%ADD23RoundRect,0.135000X0.135000X0.185000X-0.135000X0.185000X-0.135000X-0.185000X0.135000X-0.185000X0*%
%ADD24C,1.500000*%
%ADD25RoundRect,0.150000X-0.150000X0.325000X-0.150000X-0.325000X0.150000X-0.325000X0.150000X0.325000X0*%
%ADD26RoundRect,0.150000X-0.325000X0.150000X-0.325000X-0.150000X0.325000X-0.150000X0.325000X0.150000X0*%
%ADD27RoundRect,0.100000X0.130000X0.100000X-0.130000X0.100000X-0.130000X-0.100000X0.130000X-0.100000X0*%
%ADD28RoundRect,0.140000X-0.140000X-0.170000X0.140000X-0.170000X0.140000X0.170000X-0.140000X0.170000X0*%
%ADD29R,0.127000X0.508000*%
%ADD30R,0.939800X0.304800*%
%ADD31RoundRect,0.062500X-0.062500X0.375000X-0.062500X-0.375000X0.062500X-0.375000X0.062500X0.375000X0*%
%ADD32RoundRect,0.062500X-0.375000X0.062500X-0.375000X-0.062500X0.375000X-0.062500X0.375000X0.062500X0*%
%ADD33R,5.600000X5.600000*%
%ADD34R,1.050000X0.650000*%
%ADD35RoundRect,0.100000X-0.130000X-0.100000X0.130000X-0.100000X0.130000X0.100000X-0.130000X0.100000X0*%
%ADD36RoundRect,0.250000X0.350000X-0.450000X0.350000X0.450000X-0.350000X0.450000X-0.350000X-0.450000X0*%
%ADD37R,0.850000X0.280000*%
%ADD38R,0.280000X0.850000*%
%ADD39C,0.508000*%
%ADD40RoundRect,0.243750X0.456250X-0.243750X0.456250X0.243750X-0.456250X0.243750X-0.456250X-0.243750X0*%
%ADD41C,0.650000*%
%ADD42RoundRect,0.150000X-0.150000X-0.425000X0.150000X-0.425000X0.150000X0.425000X-0.150000X0.425000X0*%
%ADD43RoundRect,0.075000X-0.075000X-0.500000X0.075000X-0.500000X0.075000X0.500000X-0.075000X0.500000X0*%
%ADD44O,1.000000X2.100000*%
%ADD45O,1.000000X1.800000*%
%ADD46RoundRect,0.102000X1.235000X-0.940000X1.235000X0.940000X-1.235000X0.940000X-1.235000X-0.940000X0*%
%ADD47RoundRect,0.102000X0.940000X-1.235000X0.940000X1.235000X-0.940000X1.235000X-0.940000X-1.235000X0*%
%ADD48RoundRect,0.102000X3.300000X-0.900000X3.300000X0.900000X-3.300000X0.900000X-3.300000X-0.900000X0*%
%ADD49RoundRect,0.102000X4.000000X-0.900000X4.000000X0.900000X-4.000000X0.900000X-4.000000X-0.900000X0*%
%ADD50RoundRect,0.135000X-0.135000X-0.185000X0.135000X-0.185000X0.135000X0.185000X-0.135000X0.185000X0*%
%ADD51RoundRect,0.063000X-0.189000X0.534000X-0.189000X-0.534000X0.189000X-0.534000X0.189000X0.534000X0*%
%ADD52R,1.700000X1.700000*%
%ADD53C,1.700000*%
%ADD54RoundRect,0.250000X-0.600000X-0.750000X0.600000X-0.750000X0.600000X0.750000X-0.600000X0.750000X0*%
%ADD55O,1.700000X2.000000*%
%ADD56RoundRect,0.250000X0.650000X-0.250000X0.650000X0.250000X-0.650000X0.250000X-0.650000X-0.250000X0*%
G04 APERTURE END LIST*
D10*
%TO.C,U6*%
G36*
X150994997Y-118210002D02*
G01*
X150004999Y-118210002D01*
X150004999Y-117790000D01*
X150994997Y-117790000D01*
X150994997Y-118210002D01*
G37*
G36*
X150994997Y-119710002D02*
G01*
X150004999Y-119710002D01*
X150004999Y-119290000D01*
X150994997Y-119290000D01*
X150994997Y-119710002D01*
G37*
G36*
X151185000Y-117520001D02*
G01*
X150764998Y-117520001D01*
X150764998Y-116530000D01*
X151185000Y-116530000D01*
X151185000Y-117520001D01*
G37*
G36*
X151185000Y-120970002D02*
G01*
X150764998Y-120970002D01*
X150764998Y-119980001D01*
X151185000Y-119980001D01*
X151185000Y-120970002D01*
G37*
G36*
X154313498Y-118156301D02*
G01*
X151136500Y-118156301D01*
X151136500Y-117661501D01*
X154313498Y-117661501D01*
X154313498Y-118156301D01*
G37*
G36*
X154313498Y-118943701D02*
G01*
X151136500Y-118943701D01*
X151136500Y-118556301D01*
X154313498Y-118556301D01*
X154313498Y-118943701D01*
G37*
G36*
X151737599Y-119838501D02*
G01*
X151136500Y-119838501D01*
X151136500Y-117661501D01*
X151737599Y-117661501D01*
X151737599Y-119838501D01*
G37*
G36*
X154313498Y-119838501D02*
G01*
X151136500Y-119838501D01*
X151136500Y-119343701D01*
X154313498Y-119343701D01*
X154313498Y-119838501D01*
G37*
G36*
X151684999Y-117520001D02*
G01*
X151264999Y-117520001D01*
X151264999Y-116530000D01*
X151684999Y-116530000D01*
X151684999Y-117520001D01*
G37*
G36*
X151684999Y-120970002D02*
G01*
X151264999Y-120970002D01*
X151264999Y-119980001D01*
X151684999Y-119980001D01*
X151684999Y-120970002D01*
G37*
G36*
X152185000Y-117520001D02*
G01*
X151764998Y-117520001D01*
X151764998Y-116530000D01*
X152185000Y-116530000D01*
X152185000Y-117520001D01*
G37*
G36*
X152185000Y-120970002D02*
G01*
X151764998Y-120970002D01*
X151764998Y-119980001D01*
X152185000Y-119980001D01*
X152185000Y-120970002D01*
G37*
G36*
X152524999Y-119838501D02*
G01*
X152137599Y-119838501D01*
X152137599Y-117661501D01*
X152524999Y-117661501D01*
X152524999Y-119838501D01*
G37*
G36*
X152684999Y-117520001D02*
G01*
X152265000Y-117520001D01*
X152265000Y-116530000D01*
X152684999Y-116530000D01*
X152684999Y-117520001D01*
G37*
G36*
X152684999Y-120970002D02*
G01*
X152265000Y-120970002D01*
X152265000Y-119980001D01*
X152684999Y-119980001D01*
X152684999Y-120970002D01*
G37*
G36*
X153184998Y-117520001D02*
G01*
X152764999Y-117520001D01*
X152764999Y-116530000D01*
X153184998Y-116530000D01*
X153184998Y-117520001D01*
G37*
G36*
X153184998Y-120970002D02*
G01*
X152764999Y-120970002D01*
X152764999Y-119980001D01*
X153184998Y-119980001D01*
X153184998Y-120970002D01*
G37*
G36*
X153312399Y-119838501D02*
G01*
X152924999Y-119838501D01*
X152924999Y-117661501D01*
X153312399Y-117661501D01*
X153312399Y-119838501D01*
G37*
G36*
X153685000Y-117520001D02*
G01*
X153264998Y-117520001D01*
X153264998Y-116530000D01*
X153685000Y-116530000D01*
X153685000Y-117520001D01*
G37*
G36*
X153685000Y-120970002D02*
G01*
X153264998Y-120970002D01*
X153264998Y-119980001D01*
X153685000Y-119980001D01*
X153685000Y-120970002D01*
G37*
G36*
X154313498Y-119838501D02*
G01*
X153712399Y-119838501D01*
X153712399Y-117661501D01*
X154313498Y-117661501D01*
X154313498Y-119838501D01*
G37*
G36*
X154184999Y-117520001D02*
G01*
X153764999Y-117520001D01*
X153764999Y-116530000D01*
X154184999Y-116530000D01*
X154184999Y-117520001D01*
G37*
G36*
X154184999Y-120970002D02*
G01*
X153764999Y-120970002D01*
X153764999Y-119980001D01*
X154184999Y-119980001D01*
X154184999Y-120970002D01*
G37*
G36*
X154685000Y-117520001D02*
G01*
X154264998Y-117520001D01*
X154264998Y-116530000D01*
X154685000Y-116530000D01*
X154685000Y-117520001D01*
G37*
G36*
X154685000Y-120970002D02*
G01*
X154264998Y-120970002D01*
X154264998Y-119980001D01*
X154685000Y-119980001D01*
X154685000Y-120970002D01*
G37*
G36*
X155444999Y-118210002D02*
G01*
X154455001Y-118210002D01*
X154455001Y-117790000D01*
X155444999Y-117790000D01*
X155444999Y-118210002D01*
G37*
G36*
X155444999Y-119710002D02*
G01*
X154455001Y-119710002D01*
X154455001Y-119290000D01*
X155444999Y-119290000D01*
X155444999Y-119710002D01*
G37*
G36*
X151200000Y-119125001D02*
G01*
X150075000Y-119125001D01*
X150075000Y-118910001D01*
X150800000Y-118910001D01*
X150800000Y-118590001D01*
X150075000Y-118590001D01*
X150075000Y-118375001D01*
X151200000Y-118375001D01*
X151200000Y-119125001D01*
G37*
G36*
X155374998Y-118590001D02*
G01*
X154649998Y-118590001D01*
X154649998Y-118910001D01*
X155374998Y-118910001D01*
X155374998Y-119125001D01*
X154249998Y-119125001D01*
X154249998Y-118375001D01*
X155374998Y-118375001D01*
X155374998Y-118590001D01*
G37*
%TD*%
D11*
%TO.C,C20*%
X151772500Y-111512500D03*
X151772500Y-110552500D03*
%TD*%
D12*
%TO.C,R20*%
X156510000Y-119310000D03*
X156510000Y-118290000D03*
%TD*%
D13*
%TO.C,C1*%
X155895000Y-69435973D03*
X154935000Y-69435973D03*
%TD*%
D14*
%TO.C,R22*%
X132570000Y-68030000D03*
X132570000Y-69050000D03*
%TD*%
D11*
%TO.C,C12*%
X146750000Y-69000000D03*
X146750000Y-68040000D03*
%TD*%
D15*
%TO.C,D5*%
X150500000Y-125235000D03*
X150500000Y-126205000D03*
%TD*%
%TO.C,D2*%
X147660000Y-125192500D03*
X147660000Y-126162500D03*
%TD*%
D16*
%TO.C,C2*%
X157150000Y-87345973D03*
X157150000Y-86705973D03*
%TD*%
D14*
%TO.C,R11*%
X132540000Y-114187500D03*
X132540000Y-115207500D03*
%TD*%
D17*
%TO.C,C23*%
X155440000Y-124327500D03*
X155440000Y-125287500D03*
%TD*%
D12*
%TO.C,R13*%
X157100000Y-110412500D03*
X157100000Y-109392500D03*
%TD*%
%TO.C,R3*%
X148260000Y-69050000D03*
X148260000Y-68030000D03*
%TD*%
D18*
%TO.C,*%
X141000000Y-114000000D03*
%TD*%
D19*
%TO.C,ANT.GND1*%
X154000000Y-56000000D03*
D20*
X154000000Y-56000000D03*
%TD*%
D13*
%TO.C,C16*%
X123912500Y-71000000D03*
X122952500Y-71000000D03*
%TD*%
D21*
%TO.C,Q1*%
X132920000Y-119200000D03*
X132920000Y-118200000D03*
X131480000Y-118700000D03*
%TD*%
D22*
%TO.C,D3*%
X155407500Y-97995973D03*
X156377500Y-97995973D03*
%TD*%
D12*
%TO.C,R21*%
X157000000Y-114510000D03*
X157000000Y-113490000D03*
%TD*%
D23*
%TO.C,R4*%
X158340000Y-83165973D03*
X157320000Y-83165973D03*
%TD*%
D24*
%TO.C,TP5*%
X132200000Y-125720000D03*
%TD*%
D17*
%TO.C,C22*%
X154340000Y-124327500D03*
X154340000Y-125287500D03*
%TD*%
D25*
%TO.C,U3*%
X156120000Y-71023473D03*
X155320000Y-71023473D03*
X154520000Y-71023473D03*
X153720000Y-71023473D03*
X152920000Y-71023473D03*
X152120000Y-71023473D03*
D26*
X152120000Y-72023473D03*
D25*
X152120000Y-73023473D03*
X152920000Y-73023473D03*
X153720000Y-73023473D03*
X154520000Y-73023473D03*
X155320000Y-73023473D03*
X156120000Y-73023473D03*
D26*
X156120000Y-72023473D03*
%TD*%
D27*
%TO.C,C5*%
X155242500Y-95525973D03*
X154602500Y-95525973D03*
%TD*%
D28*
%TO.C,C10*%
X150802500Y-82745973D03*
X151762500Y-82745973D03*
%TD*%
D14*
%TO.C,R14*%
X149140000Y-125222500D03*
X149140000Y-126242500D03*
%TD*%
D17*
%TO.C,C17*%
X133850000Y-114247500D03*
X133850000Y-115207500D03*
%TD*%
D14*
%TO.C,R17*%
X150757500Y-71123473D03*
X150757500Y-72143473D03*
%TD*%
D23*
%TO.C,R16*%
X137507500Y-110990000D03*
X136487500Y-110990000D03*
%TD*%
D17*
%TO.C,C25*%
X143900000Y-98750000D03*
X143900000Y-99710000D03*
%TD*%
D28*
%TO.C,C9*%
X150802500Y-76605973D03*
X151762500Y-76605973D03*
%TD*%
D12*
%TO.C,R12*%
X145160000Y-84468473D03*
X145160000Y-83448473D03*
%TD*%
D14*
%TO.C,R9*%
X156515000Y-95585973D03*
X156515000Y-96605973D03*
%TD*%
D27*
%TO.C,C4*%
X150000000Y-85330000D03*
X149360000Y-85330000D03*
%TD*%
D18*
%TO.C,REF\u002A\u002A*%
X143000000Y-67000000D03*
%TD*%
D29*
%TO.C,U4*%
X148836400Y-109637300D03*
X148430000Y-109637300D03*
X148023600Y-109637300D03*
X148023600Y-110932700D03*
X148430000Y-110932700D03*
X148836400Y-110932700D03*
D30*
X148430000Y-110285000D03*
%TD*%
D16*
%TO.C,C3*%
X147000000Y-93158473D03*
X147000000Y-92518473D03*
%TD*%
D31*
%TO.C,U2*%
X154597500Y-86848473D03*
X154097500Y-86848473D03*
X153597500Y-86848473D03*
X153097500Y-86848473D03*
X152597500Y-86848473D03*
X152097500Y-86848473D03*
X151597500Y-86848473D03*
X151097500Y-86848473D03*
X150597500Y-86848473D03*
X150097500Y-86848473D03*
X149597500Y-86848473D03*
X149097500Y-86848473D03*
D32*
X148410000Y-87535973D03*
X148410000Y-88035973D03*
X148410000Y-88535973D03*
X148410000Y-89035973D03*
X148410000Y-89535973D03*
X148410000Y-90035973D03*
X148410000Y-90535973D03*
X148410000Y-91035973D03*
X148410000Y-91535973D03*
X148410000Y-92035973D03*
X148410000Y-92535973D03*
X148410000Y-93035973D03*
D31*
X149097500Y-93723473D03*
X149597500Y-93723473D03*
X150097500Y-93723473D03*
X150597500Y-93723473D03*
X151097500Y-93723473D03*
X151597500Y-93723473D03*
X152097500Y-93723473D03*
X152597500Y-93723473D03*
X153097500Y-93723473D03*
X153597500Y-93723473D03*
X154097500Y-93723473D03*
X154597500Y-93723473D03*
D32*
X155285000Y-93035973D03*
X155285000Y-92535973D03*
X155285000Y-92035973D03*
X155285000Y-91535973D03*
X155285000Y-91035973D03*
X155285000Y-90535973D03*
X155285000Y-90035973D03*
X155285000Y-89535973D03*
X155285000Y-89035973D03*
X155285000Y-88535973D03*
X155285000Y-88035973D03*
X155285000Y-87535973D03*
D33*
X151847500Y-90285973D03*
%TD*%
D34*
%TO.C,RESET*%
X150025000Y-64745000D03*
X154175000Y-64745000D03*
X150025000Y-66895000D03*
X154175000Y-66895000D03*
%TD*%
D35*
%TO.C,C6*%
X144687500Y-91325973D03*
X145327500Y-91325973D03*
%TD*%
D28*
%TO.C,C7*%
X145912500Y-76635973D03*
X146872500Y-76635973D03*
%TD*%
D24*
%TO.C,TP3*%
X157290000Y-78415973D03*
%TD*%
D23*
%TO.C,R19*%
X144910000Y-97200000D03*
X143890000Y-97200000D03*
%TD*%
D36*
%TO.C,Y1*%
X146632500Y-80865973D03*
X146632500Y-78665973D03*
X144932500Y-78665973D03*
X144932500Y-80865973D03*
%TD*%
D23*
%TO.C,R5*%
X156540000Y-81835973D03*
X155520000Y-81835973D03*
%TD*%
D34*
%TO.C,BOOT0*%
X125715000Y-64745000D03*
X129865000Y-64745000D03*
X125715000Y-66895000D03*
X129865000Y-66895000D03*
%TD*%
D11*
%TO.C,C24*%
X155562500Y-110402500D03*
X155562500Y-109442500D03*
%TD*%
D12*
%TO.C,R10*%
X134420000Y-119212500D03*
X134420000Y-118192500D03*
%TD*%
D24*
%TO.C,TP6*%
X148810000Y-114900000D03*
%TD*%
D37*
%TO.C,U6*%
X150500000Y-119500002D03*
D38*
X150975000Y-120475001D03*
X151474999Y-120475001D03*
X151974998Y-120475001D03*
X152474999Y-120475001D03*
X152974999Y-120475001D03*
X153475000Y-120475001D03*
X153974999Y-120475001D03*
X154474998Y-120475001D03*
D37*
X154949998Y-119500002D03*
X154949998Y-118000000D03*
D38*
X154474998Y-117025001D03*
X153974999Y-117025001D03*
X153475000Y-117025001D03*
X152974999Y-117025001D03*
X152474999Y-117025001D03*
X151974998Y-117025001D03*
X151474999Y-117025001D03*
X150975000Y-117025001D03*
D37*
X150500000Y-118000000D03*
D39*
X151937599Y-119143701D03*
X152724999Y-119143701D03*
X153512399Y-119143701D03*
X151937599Y-118356301D03*
X152724999Y-118356301D03*
X153512399Y-118356301D03*
%TD*%
D23*
%TO.C,R8*%
X156410000Y-100385973D03*
X155390000Y-100385973D03*
%TD*%
D40*
%TO.C,D4*%
X143502025Y-84920673D03*
X143502025Y-83045673D03*
%TD*%
D11*
%TO.C,C26*%
X134000000Y-69000000D03*
X134000000Y-68040000D03*
%TD*%
D41*
%TO.C,J1*%
X137110000Y-123755000D03*
X142890000Y-123755000D03*
D42*
X136800000Y-122680000D03*
X137600000Y-122680000D03*
D43*
X138750000Y-122680000D03*
X139750000Y-122680000D03*
X140250000Y-122680000D03*
X141250000Y-122680000D03*
D42*
X142400000Y-122680000D03*
X143200000Y-122680000D03*
X143200000Y-122680000D03*
X142400000Y-122680000D03*
D43*
X141750000Y-122680000D03*
X140750000Y-122680000D03*
X139250000Y-122680000D03*
X138250000Y-122680000D03*
D42*
X137600000Y-122680000D03*
X136800000Y-122680000D03*
D44*
X135680000Y-123255000D03*
D45*
X135680000Y-127435000D03*
D44*
X144320000Y-123255000D03*
D45*
X144320000Y-127435000D03*
%TD*%
D23*
%TO.C,R6*%
X138510000Y-120000000D03*
X137490000Y-120000000D03*
%TD*%
D12*
%TO.C,R18*%
X135190000Y-115227500D03*
X135190000Y-114207500D03*
%TD*%
D24*
%TO.C,TP4*%
X154720000Y-78435973D03*
%TD*%
D28*
%TO.C,C18*%
X151952500Y-113000000D03*
X152912500Y-113000000D03*
%TD*%
%TO.C,C13*%
X147937500Y-112230000D03*
X148897500Y-112230000D03*
%TD*%
D11*
%TO.C,C21*%
X153300000Y-111512500D03*
X153300000Y-110552500D03*
%TD*%
D24*
%TO.C,3V3*%
X147980000Y-99510000D03*
%TD*%
D19*
%TO.C,ANT.SIG1*%
X126000000Y-56000000D03*
D20*
X126000000Y-56000000D03*
%TD*%
D28*
%TO.C,C8*%
X146300000Y-82775973D03*
X147260000Y-82775973D03*
%TD*%
D46*
%TO.C,U1*%
X122552046Y-104225000D03*
X122552046Y-99775000D03*
X122552046Y-95325000D03*
X122552046Y-90875000D03*
X122552046Y-86425000D03*
X122552046Y-81975000D03*
X122552046Y-77525000D03*
D47*
X124477046Y-73750000D03*
X129077046Y-73750000D03*
X133677046Y-73750000D03*
X138277046Y-73750000D03*
D46*
X140202046Y-77525000D03*
X140202046Y-81975000D03*
X140202046Y-86425000D03*
X140202046Y-90875000D03*
X140202046Y-95325000D03*
X140202046Y-99775000D03*
X140202046Y-104225000D03*
D48*
X125177046Y-108000000D03*
D49*
X136877046Y-108000000D03*
%TD*%
D50*
%TO.C,R7*%
X141892500Y-120000000D03*
X142912500Y-120000000D03*
%TD*%
D22*
%TO.C,D1*%
X155380000Y-99235973D03*
X156350000Y-99235973D03*
%TD*%
D50*
%TO.C,R25*%
X144260000Y-90250000D03*
X145280000Y-90250000D03*
%TD*%
D17*
%TO.C,C15*%
X150732500Y-73605973D03*
X150732500Y-74565973D03*
%TD*%
D14*
%TO.C,R15*%
X146230000Y-125235000D03*
X146230000Y-126255000D03*
%TD*%
D13*
%TO.C,C14*%
X148887500Y-108340000D03*
X147927500Y-108340000D03*
%TD*%
D51*
%TO.C,Q2*%
X137500000Y-112780000D03*
X136500000Y-112780000D03*
X137000000Y-114220000D03*
%TD*%
D52*
%TO.C,J2*%
X157270000Y-106060000D03*
D53*
X154730000Y-106060000D03*
X152190000Y-106060000D03*
%TD*%
D54*
%TO.C,J3*%
X124750000Y-114155000D03*
D55*
X127250000Y-114155000D03*
%TD*%
D11*
%TO.C,C19*%
X157400000Y-122320000D03*
X157400000Y-121360000D03*
%TD*%
D56*
%TO.C,Y2*%
X151172500Y-80885973D03*
X151172500Y-78385973D03*
%TD*%
M02*
