M48
; DRILL file KiCad 10.0.3 date 2026-05-27T17:04:25
; FORMAT={-:-/ absolute / metric / decimal}
; #@! TF.CreationDate,2026-05-27T17:04:25-07:00
; #@! TF.GenerationSoftware,Kicad,Pcbnew,10.0.3
; #@! TF.FileFunction,Plated,1,4,PTH
FMAT,2
METRIC
; #@! TA.AperFunction,Plated,PTH,ComponentDrill
T1C0.254
; #@! TA.AperFunction,Plated,PTH,ViaDrill
T2C0.300
; #@! TA.AperFunction,Plated,PTH,ComponentDrill
T3C0.600
; #@! TA.AperFunction,Plated,PTH,ComponentDrill
T4C0.700
; #@! TA.AperFunction,Plated,PTH,ComponentDrill
T5C1.000
; #@! TA.AperFunction,Plated,PTH,ComponentDrill
T6C3.200
%
G90
G05
T1
X151.938Y-118.356
X151.938Y-119.144
X152.725Y-118.356
X152.725Y-119.144
X153.512Y-118.356
X153.512Y-119.144
T2
X122.88Y-69.95
X124.7Y-82.1
X124.9Y-86.7
X125.1Y-71.0
X128.7Y-71.7
X132.55Y-67.0
X133.3Y-71.7
X133.85Y-116.155
X134.0Y-67.0
X134.29Y-121.46
X134.4Y-117.402
X135.19Y-113.055
X135.19Y-116.155
X135.55Y-69.05
X136.3Y-120.0
X136.4Y-110.18
X136.498Y-111.76
X136.5Y-120.9
X140.4Y-109.73
X142.0Y-97.6
X143.358Y-86.855
X143.358Y-89.039
X143.37Y-90.281
X143.49Y-86.04
X143.8Y-120.9
X143.86Y-91.326
X143.9Y-100.7
X143.9Y-119.9
X144.526Y-85.788
X145.11Y-76.636
X145.41Y-93.361
X145.66Y-121.45
X146.0Y-92.5
X146.1Y-96.0
X146.3Y-83.64
X146.36Y-123.84
X146.74Y-66.99
X146.89Y-112.365
X147.445Y-110.275
X147.825Y-107.547
X148.22Y-85.33
X148.23Y-66.95
X148.29Y-69.83
X148.975Y-107.597
X149.0Y-113.0
X149.1Y-118.98
X149.17Y-123.81
X149.23Y-117.88
X149.531Y-110.14
X149.597Y-110.938
X149.6Y-96.1
X149.6Y-97.5
X149.812Y-74.631
X149.875Y-76.606
X149.965Y-71.006
X150.015Y-82.746
X150.06Y-84.55
X150.6Y-94.69
X150.83Y-115.8
X150.835Y-111.535
X151.61Y-84.826
X151.772Y-109.625
X151.94Y-115.17
X152.36Y-124.62
X152.938Y-69.906
X153.3Y-109.615
X154.0Y-113.0
X154.0Y-114.9
X154.3Y-111.6
X154.34Y-126.44
X154.39Y-75.16
X154.523Y-94.887
X154.847Y-68.666
X155.315Y-97.206
X155.32Y-73.956
X155.32Y-94.816
X155.44Y-126.44
X155.47Y-82.676
X155.562Y-108.505
X155.89Y-121.68
X156.33Y-86.616
X156.38Y-87.436
X156.381Y-83.186
X156.6Y-117.11
X156.75Y-89.35
X157.0Y-112.5
X157.4Y-123.63
X157.5Y-69.5
X157.73Y-81.896
X157.76Y-89.166
T4
X132.2Y-125.72
X147.98Y-99.51
X148.81Y-114.9
X154.72Y-78.436
X157.29Y-78.416
T5
X124.75Y-114.155
X127.25Y-114.155
X152.19Y-106.06
X154.73Y-106.06
X157.27Y-106.06
T6
X126.0Y-56.0
X154.0Y-56.0
T3
G00X135.68Y-122.705
M15
G01X135.68Y-123.805
M16
G05
G00X135.68Y-127.035
M15
G01X135.68Y-127.835
M16
G05
G00X144.32Y-122.705
M15
G01X144.32Y-123.805
M16
G05
G00X144.32Y-127.035
M15
G01X144.32Y-127.835
M16
G05
M30
