%TF.GenerationSoftware,KiCad,Pcbnew,10.0.3*%
%TF.CreationDate,2026-05-27T17:04:54-07:00*%
%TF.ProjectId,Beacon_and_eggs,42656163-6f6e-45f6-916e-645f65676773,rev?*%
%TF.SameCoordinates,Original*%
%TF.FileFunction,Copper,L4,Bot*%
%TF.FilePolarity,Positive*%
%FSLAX46Y46*%
G04 Gerber Fmt 4.6, Leading zero omitted, Abs format (unit mm)*
G04 Created by KiCad (PCBNEW 10.0.3) date 2026-05-27 17:04:54*
%MOMM*%
%LPD*%
G01*
G04 APERTURE LIST*
G04 Aperture macros list*
%AMRoundRect*
0 Rectangle with rounded corners*
0 $1 Rounding radius*
0 $2 $3 $4 $5 $6 $7 $8 $9 X,Y pos of 4 corners*
0 Add a 4 corners polygon primitive as box body*
4,1,4,$2,$3,$4,$5,$6,$7,$8,$9,$2,$3,0*
0 Add four circle primitives for the rounded corners*
1,1,$1+$1,$2,$3*
1,1,$1+$1,$4,$5*
1,1,$1+$1,$6,$7*
1,1,$1+$1,$8,$9*
0 Add four rect primitives between the rounded corners*
20,1,$1+$1,$2,$3,$4,$5,0*
20,1,$1+$1,$4,$5,$6,$7,0*
20,1,$1+$1,$6,$7,$8,$9,0*
20,1,$1+$1,$8,$9,$2,$3,0*%
G04 Aperture macros list end*
%TA.AperFunction,ComponentPad*%
%ADD10C,3.600000*%
%TD*%
%TA.AperFunction,ConnectorPad*%
%ADD11C,5.600000*%
%TD*%
%TA.AperFunction,ComponentPad*%
%ADD12C,1.500000*%
%TD*%
%TA.AperFunction,ComponentPad*%
%ADD13C,0.508000*%
%TD*%
%TA.AperFunction,ComponentPad*%
%ADD14O,1.000000X2.100000*%
%TD*%
%TA.AperFunction,ComponentPad*%
%ADD15O,1.000000X1.800000*%
%TD*%
%TA.AperFunction,ComponentPad*%
%ADD16R,1.700000X1.700000*%
%TD*%
%TA.AperFunction,ComponentPad*%
%ADD17C,1.700000*%
%TD*%
%TA.AperFunction,ComponentPad*%
%ADD18RoundRect,0.250000X-0.600000X-0.750000X0.600000X-0.750000X0.600000X0.750000X-0.600000X0.750000X0*%
%TD*%
%TA.AperFunction,ComponentPad*%
%ADD19O,1.700000X2.000000*%
%TD*%
%TA.AperFunction,ViaPad*%
%ADD20C,0.600000*%
%TD*%
%TA.AperFunction,ViaPad*%
%ADD21C,0.500000*%
%TD*%
%TA.AperFunction,Conductor*%
%ADD22C,0.200000*%
%TD*%
G04 APERTURE END LIST*
D10*
%TO.P,ANT.GND1,1,Pin_1_1*%
%TO.N,GND*%
X154000000Y-56000000D03*
D11*
X154000000Y-56000000D03*
%TD*%
D12*
%TO.P,TP5,1,1_1*%
%TO.N,VBAT*%
X132200000Y-125720000D03*
%TD*%
%TO.P,TP3,1,1_1*%
%TO.N,/SCL*%
X157290000Y-78415973D03*
%TD*%
%TO.P,TP6,1,1_1*%
%TO.N,VSYS*%
X148810000Y-114900000D03*
%TD*%
D13*
%TO.P,U6,V*%
%TO.N,GND*%
X151937599Y-119143701D03*
X152724999Y-119143701D03*
X153512399Y-119143701D03*
X151937599Y-118356301D03*
X152724999Y-118356301D03*
X153512399Y-118356301D03*
%TD*%
D14*
%TO.P,J1,SH*%
%TO.N,GND*%
X135680000Y-123255000D03*
D15*
X135680000Y-127435000D03*
D14*
X144320000Y-123255000D03*
D15*
X144320000Y-127435000D03*
%TD*%
D12*
%TO.P,TP4,1,1_1*%
%TO.N,/SDA*%
X154720000Y-78435973D03*
%TD*%
%TO.P,3V3,1,1_1*%
%TO.N,+3.3V*%
X147980000Y-99510000D03*
%TD*%
D10*
%TO.P,ANT.SIG1,1,Pin_1_1*%
%TO.N,/ANT_SIG*%
X126000000Y-56000000D03*
D11*
X126000000Y-56000000D03*
%TD*%
D16*
%TO.P,J2,1,Pin_1_1*%
%TO.N,/SWCLK*%
X157270000Y-106060000D03*
D17*
%TO.P,J2,2,Pin_2_2*%
%TO.N,/SWDIO*%
X154730000Y-106060000D03*
%TO.P,J2,3,Pin_3_3*%
%TO.N,GND*%
X152190000Y-106060000D03*
%TD*%
D18*
%TO.P,J3,1,Pin_1_1*%
%TO.N,VBAT*%
X124750000Y-114155000D03*
D19*
%TO.P,J3,2,Pin_2_2*%
%TO.N,GND*%
X127250000Y-114155000D03*
%TD*%
D20*
%TO.N,VSYS*%
X125100000Y-71000000D03*
X154300000Y-111600000D03*
X146890000Y-112365000D03*
X149597500Y-110937500D03*
X151940000Y-115170000D03*
X150835000Y-111535000D03*
%TO.N,GND*%
X152937500Y-69905973D03*
X155440000Y-126440000D03*
D21*
X156380000Y-87435973D03*
D20*
X146300000Y-83640000D03*
X157000000Y-112500000D03*
X122880000Y-69950000D03*
X154390000Y-75160000D03*
X155562500Y-108505000D03*
X136497500Y-111760000D03*
X150060000Y-84550000D03*
X135190000Y-116155000D03*
X145660000Y-121450000D03*
X134000000Y-67000000D03*
X150830000Y-115800000D03*
X149812500Y-74630973D03*
X150015000Y-82745973D03*
X149531483Y-110140226D03*
X149000000Y-113000000D03*
X136400000Y-110180000D03*
X156600000Y-117110000D03*
X134290000Y-121460000D03*
X154340000Y-126440000D03*
X154000000Y-113000000D03*
X151772500Y-109625000D03*
X133850000Y-116155000D03*
X143900000Y-100700000D03*
X146000000Y-92500000D03*
X143860000Y-91325973D03*
X154523120Y-94886583D03*
X147445000Y-110275000D03*
X136300000Y-120000000D03*
X155315000Y-97205973D03*
X132550000Y-67000000D03*
X143490000Y-86040000D03*
X143370000Y-90280973D03*
X143900000Y-119900000D03*
X146740000Y-66990000D03*
X147824661Y-107547500D03*
X128700000Y-71700000D03*
X153300000Y-109615000D03*
X154847500Y-68665973D03*
X149875000Y-76605973D03*
X145110000Y-76635973D03*
X149230000Y-117880000D03*
X133300000Y-71700000D03*
%TO.N,+3.3V*%
X148230000Y-66950000D03*
X156381000Y-83185973D03*
D21*
X156330000Y-86615973D03*
D20*
X149965000Y-71005973D03*
X148975000Y-107597500D03*
X155470000Y-82675973D03*
X155320000Y-94815973D03*
X157500000Y-69500000D03*
X155320000Y-73955973D03*
X148220000Y-85330000D03*
X145409877Y-93360536D03*
%TO.N,/BOOT0*%
X135550000Y-69050000D03*
X156750000Y-89350000D03*
%TO.N,/NRST*%
X148290000Y-69830000D03*
X151610000Y-84825973D03*
%TO.N,/BATT_V_ADC*%
X143357600Y-89039173D03*
X135190000Y-113055000D03*
%TO.N,VBUS*%
X143800000Y-120900000D03*
X152360000Y-124620000D03*
X136500000Y-120900000D03*
%TO.N,VBAT*%
X157400000Y-123630000D03*
X134400000Y-117402500D03*
%TO.N,/SDA*%
X157730000Y-81895973D03*
X157760000Y-89165973D03*
%TO.N,/VREF*%
X155890000Y-121680000D03*
X149100000Y-118980000D03*
X149170000Y-123810000D03*
X146360000Y-123840000D03*
X154000000Y-114900000D03*
%TO.N,/BATT_EN*%
X150600000Y-94690000D03*
X140400000Y-109730000D03*
%TO.N,/TX_PWR_DN*%
X124700000Y-82100000D03*
X144526000Y-85787973D03*
%TO.N,/TX_EN*%
X143357600Y-86854773D03*
X124900000Y-86700000D03*
%TO.N,/TXD*%
X149600000Y-96100000D03*
X146100000Y-96000000D03*
%TO.N,/RXD*%
X149600000Y-97500000D03*
X142000000Y-97600000D03*
%TD*%
%TO.N,/BOOT0*%
D22*
X156750000Y-89350000D02*
X153017818Y-89350000D01*
X135550000Y-71882182D02*
X135550000Y-69050000D01*
X153017818Y-89350000D02*
X135550000Y-71882182D01*
%TO.N,/NRST*%
X148290000Y-81870916D02*
X148290000Y-69830000D01*
X150684057Y-84264973D02*
X148290000Y-81870916D01*
X151049000Y-84264973D02*
X150684057Y-84264973D01*
X151610000Y-84825973D02*
X151049000Y-84264973D01*
%TO.N,/BATT_V_ADC*%
X135190000Y-97206773D02*
X143357600Y-89039173D01*
X135190000Y-113055000D02*
X135190000Y-97206773D01*
%TO.N,VBUS*%
X143800000Y-120900000D02*
X148640000Y-120900000D01*
X148640000Y-120900000D02*
X152360000Y-124620000D01*
%TO.N,/SDA*%
X157730000Y-81895973D02*
X157730000Y-89135973D01*
X157730000Y-89135973D02*
X157760000Y-89165973D01*
%TO.N,/VREF*%
X149100000Y-118980000D02*
X149520000Y-118980000D01*
X153600000Y-114900000D02*
X154000000Y-114900000D01*
X146390000Y-123810000D02*
X146360000Y-123840000D01*
X156000000Y-116900000D02*
X156000000Y-121570000D01*
X156000000Y-121570000D02*
X155890000Y-121680000D01*
X149170000Y-123810000D02*
X146390000Y-123810000D01*
X154000000Y-114900000D02*
X156000000Y-116900000D01*
X149520000Y-118980000D02*
X153600000Y-114900000D01*
%TO.N,/BATT_EN*%
X150600000Y-99530000D02*
X150600000Y-94690000D01*
X140400000Y-109730000D02*
X150600000Y-99530000D01*
%TO.N,/TX_PWR_DN*%
X144526000Y-85787973D02*
X140838027Y-82100000D01*
X140838027Y-82100000D02*
X124700000Y-82100000D01*
%TO.N,/TX_EN*%
X143357600Y-86854773D02*
X125054773Y-86854773D01*
X125054773Y-86854773D02*
X124900000Y-86700000D01*
%TO.N,/TXD*%
X146100000Y-96000000D02*
X146200000Y-96100000D01*
X146200000Y-96100000D02*
X149600000Y-96100000D01*
%TO.N,/RXD*%
X142000000Y-97600000D02*
X149500000Y-97600000D01*
X149500000Y-97600000D02*
X149600000Y-97500000D01*
%TO.N,/ANT_SIG*%
X125000000Y-56000000D02*
X125037200Y-56000000D01*
%TD*%
M02*
