G04 #@! TF.GenerationSoftware,KiCad,Pcbnew,(6.0.2-0)*
G04 #@! TF.CreationDate,2025-10-28T11:30:20-07:00*
G04 #@! TF.ProjectId,Beacon_BNC_PCB,42656163-6f6e-45f4-924e-435f5043422e,V1.0*
G04 #@! TF.SameCoordinates,Original*
G04 #@! TF.FileFunction,Copper,L2,Bot*
G04 #@! TF.FilePolarity,Positive*
%FSLAX46Y46*%
G04 Gerber Fmt 4.6, Leading zero omitted, Abs format (unit mm)*
G04 Created by KiCad (PCBNEW (6.0.2-0)) date 2025-10-28 11:30:20*
%MOMM*%
%LPD*%
G01*
G04 APERTURE LIST*
G04 #@! TA.AperFunction,ComponentPad*
%ADD10C,3.600000*%
G04 #@! TD*
G04 #@! TA.AperFunction,ConnectorPad*
%ADD11C,5.600000*%
G04 #@! TD*
G04 #@! TA.AperFunction,ComponentPad*
%ADD12C,5.600000*%
G04 #@! TD*
G04 #@! TA.AperFunction,ComponentPad*
%ADD13O,1.600000X2.500000*%
G04 #@! TD*
G04 #@! TA.AperFunction,ComponentPad*
%ADD14O,3.500000X7.000000*%
G04 #@! TD*
G04 APERTURE END LIST*
D10*
X163000000Y-81173200D03*
D11*
X163000000Y-81173200D03*
D10*
X138970000Y-81173200D03*
D11*
X138970000Y-81173200D03*
D12*
X138970000Y-81173200D03*
D13*
X151000000Y-81173200D03*
D14*
X145920000Y-86253200D03*
D13*
X153540000Y-81173200D03*
D14*
X156080000Y-86253200D03*
G04 #@! TA.AperFunction,Conductor*
G36*
X169434121Y-70528002D02*
G01*
X169480614Y-70581658D01*
X169492000Y-70634000D01*
X169492000Y-93366000D01*
X169471998Y-93434121D01*
X169418342Y-93480614D01*
X169366000Y-93492000D01*
X132634000Y-93492000D01*
X132565879Y-93471998D01*
X132519386Y-93418342D01*
X132508000Y-93366000D01*
X132508000Y-81161634D01*
X135656661Y-81161634D01*
X135674792Y-81519540D01*
X135675329Y-81522895D01*
X135675330Y-81522901D01*
X135680316Y-81554028D01*
X135731470Y-81873395D01*
X135826033Y-82219059D01*
X135957374Y-82552488D01*
X135988151Y-82611109D01*
X136116281Y-82855161D01*
X136123957Y-82869782D01*
X136125858Y-82872611D01*
X136125864Y-82872621D01*
X136309569Y-83146000D01*
X136323834Y-83167229D01*
X136554665Y-83441350D01*
X136813751Y-83688938D01*
X137098061Y-83907097D01*
X137130056Y-83926550D01*
X137401355Y-84091503D01*
X137401360Y-84091506D01*
X137404270Y-84093275D01*
X137407358Y-84094721D01*
X137407357Y-84094721D01*
X137725710Y-84243849D01*
X137725720Y-84243853D01*
X137728794Y-84245293D01*
X137732012Y-84246395D01*
X137732015Y-84246396D01*
X138064615Y-84360271D01*
X138064623Y-84360273D01*
X138067838Y-84361374D01*
X138417435Y-84440159D01*
X138469728Y-84446117D01*
X138770114Y-84480342D01*
X138770122Y-84480342D01*
X138773497Y-84480727D01*
X138776901Y-84480745D01*
X138776904Y-84480745D01*
X138971227Y-84481762D01*
X139131857Y-84482603D01*
X139135243Y-84482253D01*
X139135245Y-84482253D01*
X139484932Y-84446117D01*
X139484941Y-84446116D01*
X139488324Y-84445766D01*
X139491657Y-84445052D01*
X139491660Y-84445051D01*
X139664186Y-84408064D01*
X139838727Y-84370646D01*
X140178968Y-84258122D01*
X140505066Y-84109511D01*
X140599052Y-84053706D01*
X140810262Y-83928299D01*
X140810267Y-83928296D01*
X140813207Y-83926550D01*
X141099786Y-83711380D01*
X141361451Y-83466519D01*
X141595140Y-83194830D01*
X141772549Y-82936698D01*
X141796190Y-82902301D01*
X141796195Y-82902294D01*
X141798120Y-82899492D01*
X141799732Y-82896498D01*
X141799737Y-82896490D01*
X141966395Y-82586972D01*
X141968017Y-82583960D01*
X142089632Y-82284457D01*
X142101562Y-82255077D01*
X142101564Y-82255072D01*
X142102842Y-82251924D01*
X142113142Y-82215768D01*
X142155481Y-82067133D01*
X142201020Y-81907270D01*
X142239812Y-81680327D01*
X149691500Y-81680327D01*
X149706457Y-81851287D01*
X149707881Y-81856600D01*
X149707881Y-81856602D01*
X149720560Y-81903918D01*
X149765716Y-82072443D01*
X149768039Y-82077424D01*
X149768039Y-82077425D01*
X149860151Y-82274962D01*
X149860154Y-82274967D01*
X149862477Y-82279949D01*
X149993802Y-82467500D01*
X150155700Y-82629398D01*
X150160208Y-82632555D01*
X150160211Y-82632557D01*
X150238389Y-82687298D01*
X150343251Y-82760723D01*
X150348233Y-82763046D01*
X150348238Y-82763049D01*
X150545775Y-82855161D01*
X150550757Y-82857484D01*
X150556065Y-82858906D01*
X150556067Y-82858907D01*
X150766598Y-82915319D01*
X150766600Y-82915319D01*
X150771913Y-82916743D01*
X151000000Y-82936698D01*
X151228087Y-82916743D01*
X151233400Y-82915319D01*
X151233402Y-82915319D01*
X151443933Y-82858907D01*
X151443935Y-82858906D01*
X151449243Y-82857484D01*
X151454225Y-82855161D01*
X151651762Y-82763049D01*
X151651767Y-82763046D01*
X151656749Y-82760723D01*
X151761611Y-82687298D01*
X151839789Y-82632557D01*
X151839792Y-82632555D01*
X151844300Y-82629398D01*
X152006198Y-82467500D01*
X152137523Y-82279949D01*
X152139846Y-82274967D01*
X152139849Y-82274962D01*
X152231961Y-82077425D01*
X152231961Y-82077424D01*
X152234284Y-82072443D01*
X152279441Y-81903918D01*
X152292119Y-81856602D01*
X152292119Y-81856600D01*
X152293543Y-81851287D01*
X152308500Y-81680327D01*
X152308500Y-80666073D01*
X152293543Y-80495113D01*
X152283707Y-80458406D01*
X152235707Y-80279267D01*
X152235706Y-80279265D01*
X152234284Y-80273957D01*
X152231961Y-80268975D01*
X152139849Y-80071438D01*
X152139846Y-80071433D01*
X152137523Y-80066451D01*
X152006198Y-79878900D01*
X151844300Y-79717002D01*
X151839792Y-79713845D01*
X151839789Y-79713843D01*
X151761611Y-79659102D01*
X151656749Y-79585677D01*
X151651767Y-79583354D01*
X151651762Y-79583351D01*
X151454225Y-79491239D01*
X151454224Y-79491239D01*
X151449243Y-79488916D01*
X151443935Y-79487494D01*
X151443933Y-79487493D01*
X151233402Y-79431081D01*
X151233400Y-79431081D01*
X151228087Y-79429657D01*
X151000000Y-79409702D01*
X150771913Y-79429657D01*
X150766600Y-79431081D01*
X150766598Y-79431081D01*
X150556067Y-79487493D01*
X150556065Y-79487494D01*
X150550757Y-79488916D01*
X150545776Y-79491239D01*
X150545775Y-79491239D01*
X150348238Y-79583351D01*
X150348233Y-79583354D01*
X150343251Y-79585677D01*
X150238389Y-79659102D01*
X150160211Y-79713843D01*
X150160208Y-79713845D01*
X150155700Y-79717002D01*
X149993802Y-79878900D01*
X149862477Y-80066451D01*
X149860154Y-80071433D01*
X149860151Y-80071438D01*
X149768039Y-80268975D01*
X149765716Y-80273957D01*
X149764294Y-80279265D01*
X149764293Y-80279267D01*
X149716293Y-80458406D01*
X149706457Y-80495113D01*
X149691500Y-80666073D01*
X149691500Y-81680327D01*
X142239812Y-81680327D01*
X142261401Y-81554028D01*
X142263511Y-81519540D01*
X142283168Y-81198128D01*
X142283278Y-81196331D01*
X142283359Y-81173200D01*
X142263979Y-80815359D01*
X142206066Y-80461705D01*
X142110297Y-80116373D01*
X142107243Y-80108697D01*
X141979052Y-79786569D01*
X141977793Y-79783405D01*
X141874773Y-79588834D01*
X141811702Y-79469713D01*
X141811698Y-79469706D01*
X141810103Y-79466694D01*
X141609190Y-79169946D01*
X141377403Y-78896632D01*
X141117454Y-78649950D01*
X140832384Y-78432785D01*
X140829472Y-78431028D01*
X140829467Y-78431025D01*
X140528443Y-78249436D01*
X140528437Y-78249433D01*
X140525528Y-78247678D01*
X140200475Y-78096793D01*
X140030752Y-78039345D01*
X139864255Y-77982989D01*
X139864250Y-77982988D01*
X139861028Y-77981897D01*
X139662681Y-77937924D01*
X139514493Y-77905071D01*
X139514487Y-77905070D01*
X139511158Y-77904332D01*
X139507769Y-77903958D01*
X139507764Y-77903957D01*
X139158338Y-77865380D01*
X139158333Y-77865380D01*
X139154957Y-77865007D01*
X139151558Y-77865001D01*
X139151557Y-77865001D01*
X138982080Y-77864705D01*
X138796592Y-77864382D01*
X138683413Y-77876477D01*
X138443639Y-77902101D01*
X138443631Y-77902102D01*
X138440256Y-77902463D01*
X138090117Y-77978806D01*
X137750271Y-78092517D01*
X137747178Y-78093939D01*
X137747177Y-78093940D01*
X137740974Y-78096793D01*
X137424694Y-78242266D01*
X137117193Y-78426301D01*
X137114467Y-78428363D01*
X137114465Y-78428364D01*
X137108620Y-78432785D01*
X136831367Y-78642470D01*
X136570559Y-78888243D01*
X136337819Y-79160746D01*
X136335900Y-79163558D01*
X136335897Y-79163563D01*
X136242624Y-79300297D01*
X136135871Y-79456791D01*
X135967077Y-79772914D01*
X135833411Y-80105418D01*
X135832491Y-80108692D01*
X135832489Y-80108697D01*
X135786037Y-80273957D01*
X135736437Y-80450413D01*
X135735875Y-80453770D01*
X135735875Y-80453771D01*
X135699890Y-80668813D01*
X135677290Y-80803863D01*
X135656661Y-81161634D01*
X132508000Y-81161634D01*
X132508000Y-70634000D01*
X132528002Y-70565879D01*
X132581658Y-70519386D01*
X132634000Y-70508000D01*
X169366000Y-70508000D01*
X169434121Y-70528002D01*
G37*
G04 #@! TD.AperFunction*
M02*
