%TF.GenerationSoftware,KiCad,Pcbnew,10.0.3*%
%TF.CreationDate,2026-05-27T17:03:36-07:00*%
%TF.ProjectId,Beacon_and_eggs,42656163-6f6e-45f6-916e-645f65676773,rev?*%
%TF.SameCoordinates,Original*%
%TF.FileFunction,Copper,L2,Inr*%
%TF.FilePolarity,Positive*%
%FSLAX46Y46*%
G04 Gerber Fmt 4.6, Leading zero omitted, Abs format (unit mm)*
G04 Created by KiCad (PCBNEW 10.0.3) date 2026-05-27 17:03:36*
%MOMM*%
%LPD*%
G01*
G04 APERTURE LIST*
G04 Aperture macros list*
%AMRoundRect*
0 Rectangle with rounded corners*
0 $1 Rounding radius*
0 $2 $3 $4 $5 $6 $7 $8 $9 X,Y pos of 4 corners*
0 Add a 4 corners polygon primitive as box body*
4,1,4,$2,$3,$4,$5,$6,$7,$8,$9,$2,$3,0*
0 Add four circle primitives for the rounded corners*
1,1,$1+$1,$2,$3*
1,1,$1+$1,$4,$5*
1,1,$1+$1,$6,$7*
1,1,$1+$1,$8,$9*
0 Add four rect primitives between the rounded corners*
20,1,$1+$1,$2,$3,$4,$5,0*
20,1,$1+$1,$4,$5,$6,$7,0*
20,1,$1+$1,$6,$7,$8,$9,0*
20,1,$1+$1,$8,$9,$2,$3,0*%
G04 Aperture macros list end*
%TA.AperFunction,ComponentPad*%
%ADD10C,3.600000*%
%TD*%
%TA.AperFunction,ComponentPad*%
%ADD11C,1.500000*%
%TD*%
%TA.AperFunction,ComponentPad*%
%ADD12C,0.508000*%
%TD*%
%TA.AperFunction,ComponentPad*%
%ADD13O,1.000000X2.100000*%
%TD*%
%TA.AperFunction,ComponentPad*%
%ADD14O,1.000000X1.800000*%
%TD*%
%TA.AperFunction,ComponentPad*%
%ADD15R,1.700000X1.700000*%
%TD*%
%TA.AperFunction,ComponentPad*%
%ADD16C,1.700000*%
%TD*%
%TA.AperFunction,ComponentPad*%
%ADD17RoundRect,0.250000X-0.600000X-0.750000X0.600000X-0.750000X0.600000X0.750000X-0.600000X0.750000X0*%
%TD*%
%TA.AperFunction,ComponentPad*%
%ADD18O,1.700000X2.000000*%
%TD*%
%TA.AperFunction,ViaPad*%
%ADD19C,0.600000*%
%TD*%
%TA.AperFunction,ViaPad*%
%ADD20C,0.500000*%
%TD*%
G04 APERTURE END LIST*
D10*
%TO.N,GND*%
%TO.C,ANT.GND1*%
X154000000Y-56000000D03*
%TD*%
D11*
%TO.N,VBAT*%
%TO.C,TP5*%
X132200000Y-125720000D03*
%TD*%
%TO.N,/SCL*%
%TO.C,TP3*%
X157290000Y-78415973D03*
%TD*%
%TO.N,VSYS*%
%TO.C,TP6*%
X148810000Y-114900000D03*
%TD*%
D12*
%TO.N,GND*%
%TO.C,U6*%
X151937599Y-119143701D03*
X152724999Y-119143701D03*
X153512399Y-119143701D03*
X151937599Y-118356301D03*
X152724999Y-118356301D03*
X153512399Y-118356301D03*
%TD*%
D13*
%TO.N,GND*%
%TO.C,J1*%
X135680000Y-123255000D03*
D14*
X135680000Y-127435000D03*
D13*
X144320000Y-123255000D03*
D14*
X144320000Y-127435000D03*
%TD*%
D11*
%TO.N,/SDA*%
%TO.C,TP4*%
X154720000Y-78435973D03*
%TD*%
%TO.N,+3.3V*%
%TO.C,3V3*%
X147980000Y-99510000D03*
%TD*%
D10*
%TO.N,/ANT_SIG*%
%TO.C,ANT.SIG1*%
X126000000Y-56000000D03*
%TD*%
D15*
%TO.N,/SWCLK*%
%TO.C,J2*%
X157270000Y-106060000D03*
D16*
%TO.N,/SWDIO*%
X154730000Y-106060000D03*
%TO.N,GND*%
X152190000Y-106060000D03*
%TD*%
D17*
%TO.N,VBAT*%
%TO.C,J3*%
X124750000Y-114155000D03*
D18*
%TO.N,GND*%
X127250000Y-114155000D03*
%TD*%
D19*
%TO.N,VSYS*%
X125100000Y-71000000D03*
X154300000Y-111600000D03*
X146890000Y-112365000D03*
X149597500Y-110937500D03*
X151940000Y-115170000D03*
X150835000Y-111535000D03*
%TO.N,GND*%
X152937500Y-69905973D03*
X155440000Y-126440000D03*
D20*
X156380000Y-87435973D03*
D19*
X146300000Y-83640000D03*
X157000000Y-112500000D03*
X122880000Y-69950000D03*
X154390000Y-75160000D03*
X155562500Y-108505000D03*
X136497500Y-111760000D03*
X150060000Y-84550000D03*
X135190000Y-116155000D03*
X145660000Y-121450000D03*
X134000000Y-67000000D03*
X150830000Y-115800000D03*
X149812500Y-74630973D03*
X150015000Y-82745973D03*
X149531483Y-110140226D03*
X149000000Y-113000000D03*
X136400000Y-110180000D03*
X156600000Y-117110000D03*
X134290000Y-121460000D03*
X154340000Y-126440000D03*
X154000000Y-113000000D03*
X151772500Y-109625000D03*
X133850000Y-116155000D03*
X143900000Y-100700000D03*
X146000000Y-92500000D03*
X143860000Y-91325973D03*
X154523120Y-94886583D03*
X147445000Y-110275000D03*
X136300000Y-120000000D03*
X155315000Y-97205973D03*
X132550000Y-67000000D03*
X143490000Y-86040000D03*
X143370000Y-90280973D03*
X143900000Y-119900000D03*
X146740000Y-66990000D03*
X147824661Y-107547500D03*
X128700000Y-71700000D03*
X153300000Y-109615000D03*
X154847500Y-68665973D03*
X149875000Y-76605973D03*
X145110000Y-76635973D03*
X149230000Y-117880000D03*
X133300000Y-71700000D03*
%TO.N,+3.3V*%
X148230000Y-66950000D03*
X156381000Y-83185973D03*
D20*
X156330000Y-86615973D03*
D19*
X149965000Y-71005973D03*
X148975000Y-107597500D03*
X155470000Y-82675973D03*
X155320000Y-94815973D03*
X157500000Y-69500000D03*
X155320000Y-73955973D03*
X148220000Y-85330000D03*
X145409877Y-93360536D03*
%TO.N,/BOOT0*%
X135550000Y-69050000D03*
X156750000Y-89350000D03*
%TO.N,/NRST*%
X148290000Y-69830000D03*
X151610000Y-84825973D03*
%TO.N,/BATT_V_ADC*%
X143357600Y-89039173D03*
X135190000Y-113055000D03*
%TO.N,VBUS*%
X143800000Y-120900000D03*
X152360000Y-124620000D03*
X136500000Y-120900000D03*
%TO.N,VBAT*%
X157400000Y-123630000D03*
X134400000Y-117402500D03*
%TO.N,/SDA*%
X157730000Y-81895973D03*
X157760000Y-89165973D03*
%TO.N,/VREF*%
X155890000Y-121680000D03*
X149100000Y-118980000D03*
X149170000Y-123810000D03*
X146360000Y-123840000D03*
X154000000Y-114900000D03*
%TO.N,/BATT_EN*%
X150600000Y-94690000D03*
X140400000Y-109730000D03*
%TO.N,/TX_PWR_DN*%
X124700000Y-82100000D03*
X144526000Y-85787973D03*
%TO.N,/TX_EN*%
X143357600Y-86854773D03*
X124900000Y-86700000D03*
%TO.N,/TXD*%
X149600000Y-96100000D03*
X146100000Y-96000000D03*
%TO.N,/RXD*%
X149600000Y-97500000D03*
X142000000Y-97600000D03*
%TD*%
%TA.AperFunction,Conductor*%
%TO.N,GND*%
G36*
X157003736Y-50500726D02*
G01*
X157293796Y-50518271D01*
X157308659Y-50520076D01*
X157590797Y-50571780D01*
X157605334Y-50575363D01*
X157879182Y-50660698D01*
X157893163Y-50666000D01*
X158154734Y-50783724D01*
X158167987Y-50790680D01*
X158413458Y-50939071D01*
X158425776Y-50947573D01*
X158651573Y-51124474D01*
X158662781Y-51134404D01*
X158865595Y-51337218D01*
X158875525Y-51348426D01*
X159052422Y-51574217D01*
X159060928Y-51586541D01*
X159209319Y-51832012D01*
X159216277Y-51845269D01*
X159333994Y-52106823D01*
X159339304Y-52120825D01*
X159424635Y-52394664D01*
X159428219Y-52409202D01*
X159479923Y-52691340D01*
X159481728Y-52706205D01*
X159499274Y-52996263D01*
X159499500Y-53003750D01*
X159499500Y-126996249D01*
X159499274Y-127003736D01*
X159481728Y-127293794D01*
X159479923Y-127308659D01*
X159428219Y-127590797D01*
X159424635Y-127605335D01*
X159339304Y-127879174D01*
X159333994Y-127893176D01*
X159216277Y-128154730D01*
X159209319Y-128167987D01*
X159060928Y-128413458D01*
X159052422Y-128425782D01*
X158875525Y-128651573D01*
X158865595Y-128662781D01*
X158662781Y-128865595D01*
X158651573Y-128875525D01*
X158425782Y-129052422D01*
X158413458Y-129060928D01*
X158167987Y-129209319D01*
X158154730Y-129216277D01*
X157893176Y-129333994D01*
X157879174Y-129339304D01*
X157605335Y-129424635D01*
X157590797Y-129428219D01*
X157308659Y-129479923D01*
X157293794Y-129481728D01*
X157003736Y-129499274D01*
X156996249Y-129499500D01*
X123003751Y-129499500D01*
X122996264Y-129499274D01*
X122706205Y-129481728D01*
X122691340Y-129479923D01*
X122409202Y-129428219D01*
X122394664Y-129424635D01*
X122120825Y-129339304D01*
X122106827Y-129333995D01*
X121954096Y-129265256D01*
X121845269Y-129216277D01*
X121832012Y-129209319D01*
X121586541Y-129060928D01*
X121574217Y-129052422D01*
X121348426Y-128875525D01*
X121337218Y-128865595D01*
X121134404Y-128662781D01*
X121124474Y-128651573D01*
X121093273Y-128611748D01*
X120947573Y-128425776D01*
X120939071Y-128413458D01*
X120790680Y-128167987D01*
X120783722Y-128154730D01*
X120666000Y-127893163D01*
X120660702Y-127879196D01*
X120575363Y-127605334D01*
X120571780Y-127590797D01*
X120520076Y-127308659D01*
X120518271Y-127293794D01*
X120500726Y-127003736D01*
X120500500Y-126996249D01*
X120500500Y-125621577D01*
X130949500Y-125621577D01*
X130949500Y-125818422D01*
X130980290Y-126012826D01*
X131041117Y-126200029D01*
X131070783Y-126258251D01*
X131130476Y-126375405D01*
X131246172Y-126534646D01*
X131385354Y-126673828D01*
X131544595Y-126789524D01*
X131627455Y-126831743D01*
X131719970Y-126878882D01*
X131719972Y-126878882D01*
X131719975Y-126878884D01*
X131820317Y-126911487D01*
X131907173Y-126939709D01*
X132101578Y-126970500D01*
X132101583Y-126970500D01*
X132298422Y-126970500D01*
X132492826Y-126939709D01*
X132502690Y-126936504D01*
X134680000Y-126936504D01*
X134680000Y-127185000D01*
X135380000Y-127185000D01*
X135380000Y-127685000D01*
X134680000Y-127685000D01*
X134680000Y-127933495D01*
X134718427Y-128126681D01*
X134718430Y-128126693D01*
X134793807Y-128308671D01*
X134793814Y-128308684D01*
X134903248Y-128472462D01*
X134903251Y-128472466D01*
X135042533Y-128611748D01*
X135042537Y-128611751D01*
X135206315Y-128721185D01*
X135206328Y-128721192D01*
X135388308Y-128796569D01*
X135430000Y-128804862D01*
X135430000Y-128001988D01*
X135439940Y-128019205D01*
X135495795Y-128075060D01*
X135564204Y-128114556D01*
X135640504Y-128135000D01*
X135719496Y-128135000D01*
X135795796Y-128114556D01*
X135864205Y-128075060D01*
X135920060Y-128019205D01*
X135930000Y-128001988D01*
X135930000Y-128804862D01*
X135971690Y-128796569D01*
X135971692Y-128796569D01*
X136153671Y-128721192D01*
X136153684Y-128721185D01*
X136317462Y-128611751D01*
X136317466Y-128611748D01*
X136456748Y-128472466D01*
X136456751Y-128472462D01*
X136566185Y-128308684D01*
X136566192Y-128308671D01*
X136641569Y-128126693D01*
X136641572Y-128126681D01*
X136679999Y-127933495D01*
X136680000Y-127933492D01*
X136680000Y-127685000D01*
X135980000Y-127685000D01*
X135980000Y-127185000D01*
X136680000Y-127185000D01*
X136680000Y-126936508D01*
X136679999Y-126936504D01*
X143320000Y-126936504D01*
X143320000Y-127185000D01*
X144020000Y-127185000D01*
X144020000Y-127685000D01*
X143320000Y-127685000D01*
X143320000Y-127933495D01*
X143358427Y-128126681D01*
X143358430Y-128126693D01*
X143433807Y-128308671D01*
X143433814Y-128308684D01*
X143543248Y-128472462D01*
X143543251Y-128472466D01*
X143682533Y-128611748D01*
X143682537Y-128611751D01*
X143846315Y-128721185D01*
X143846328Y-128721192D01*
X144028308Y-128796569D01*
X144070000Y-128804862D01*
X144070000Y-128001988D01*
X144079940Y-128019205D01*
X144135795Y-128075060D01*
X144204204Y-128114556D01*
X144280504Y-128135000D01*
X144359496Y-128135000D01*
X144435796Y-128114556D01*
X144504205Y-128075060D01*
X144560060Y-128019205D01*
X144570000Y-128001988D01*
X144570000Y-128804862D01*
X144611690Y-128796569D01*
X144611692Y-128796569D01*
X144793671Y-128721192D01*
X144793684Y-128721185D01*
X144957462Y-128611751D01*
X144957466Y-128611748D01*
X145096748Y-128472466D01*
X145096751Y-128472462D01*
X145206185Y-128308684D01*
X145206192Y-128308671D01*
X145281569Y-128126693D01*
X145281572Y-128126681D01*
X145319999Y-127933495D01*
X145320000Y-127933492D01*
X145320000Y-127685000D01*
X144620000Y-127685000D01*
X144620000Y-127185000D01*
X145320000Y-127185000D01*
X145320000Y-126936508D01*
X145319999Y-126936504D01*
X145281572Y-126743318D01*
X145281569Y-126743306D01*
X145206192Y-126561328D01*
X145206185Y-126561315D01*
X145096751Y-126397537D01*
X145096748Y-126397533D01*
X144957466Y-126258251D01*
X144957462Y-126258248D01*
X144793684Y-126148814D01*
X144793671Y-126148807D01*
X144611691Y-126073429D01*
X144611683Y-126073427D01*
X144570000Y-126065135D01*
X144570000Y-126868011D01*
X144560060Y-126850795D01*
X144504205Y-126794940D01*
X144435796Y-126755444D01*
X144359496Y-126735000D01*
X144280504Y-126735000D01*
X144204204Y-126755444D01*
X144135795Y-126794940D01*
X144079940Y-126850795D01*
X144070000Y-126868011D01*
X144070000Y-126065136D01*
X144069999Y-126065135D01*
X144028316Y-126073427D01*
X144028308Y-126073429D01*
X143846328Y-126148807D01*
X143846315Y-126148814D01*
X143682537Y-126258248D01*
X143682533Y-126258251D01*
X143543251Y-126397533D01*
X143543248Y-126397537D01*
X143433814Y-126561315D01*
X143433807Y-126561328D01*
X143358430Y-126743306D01*
X143358427Y-126743318D01*
X143320000Y-126936504D01*
X136679999Y-126936504D01*
X136641572Y-126743318D01*
X136641569Y-126743306D01*
X136566192Y-126561328D01*
X136566185Y-126561315D01*
X136456751Y-126397537D01*
X136456748Y-126397533D01*
X136317466Y-126258251D01*
X136317462Y-126258248D01*
X136153684Y-126148814D01*
X136153671Y-126148807D01*
X135971691Y-126073429D01*
X135971683Y-126073427D01*
X135930000Y-126065135D01*
X135930000Y-126868011D01*
X135920060Y-126850795D01*
X135864205Y-126794940D01*
X135795796Y-126755444D01*
X135719496Y-126735000D01*
X135640504Y-126735000D01*
X135564204Y-126755444D01*
X135495795Y-126794940D01*
X135439940Y-126850795D01*
X135430000Y-126868011D01*
X135430000Y-126065136D01*
X135429999Y-126065135D01*
X135388316Y-126073427D01*
X135388308Y-126073429D01*
X135206328Y-126148807D01*
X135206315Y-126148814D01*
X135042537Y-126258248D01*
X135042533Y-126258251D01*
X134903251Y-126397533D01*
X134903248Y-126397537D01*
X134793814Y-126561315D01*
X134793807Y-126561328D01*
X134718430Y-126743306D01*
X134718427Y-126743318D01*
X134680000Y-126936504D01*
X132502690Y-126936504D01*
X132680025Y-126878884D01*
X132855405Y-126789524D01*
X133014646Y-126673828D01*
X133153828Y-126534646D01*
X133269524Y-126375405D01*
X133358884Y-126200025D01*
X133419709Y-126012826D01*
X133450500Y-125818422D01*
X133450500Y-125621577D01*
X133419709Y-125427173D01*
X133358882Y-125239970D01*
X133302998Y-125130292D01*
X133269524Y-125064595D01*
X133153828Y-124905354D01*
X133014646Y-124766172D01*
X132855405Y-124650476D01*
X132835824Y-124640499D01*
X132680029Y-124561117D01*
X132492826Y-124500290D01*
X132298422Y-124469500D01*
X132298417Y-124469500D01*
X132101583Y-124469500D01*
X132101578Y-124469500D01*
X131907173Y-124500290D01*
X131719970Y-124561117D01*
X131544594Y-124650476D01*
X131478020Y-124698846D01*
X131385354Y-124766172D01*
X131385352Y-124766174D01*
X131385351Y-124766174D01*
X131246174Y-124905351D01*
X131246174Y-124905352D01*
X131246172Y-124905354D01*
X131196485Y-124973741D01*
X131130476Y-125064594D01*
X131041117Y-125239970D01*
X130980290Y-125427173D01*
X130949500Y-125621577D01*
X120500500Y-125621577D01*
X120500500Y-122606504D01*
X134680000Y-122606504D01*
X134680000Y-123005000D01*
X135380000Y-123005000D01*
X135380000Y-123505000D01*
X134680000Y-123505000D01*
X134680000Y-123903495D01*
X134718427Y-124096681D01*
X134718430Y-124096693D01*
X134793807Y-124278671D01*
X134793814Y-124278684D01*
X134903248Y-124442462D01*
X134903251Y-124442466D01*
X135042533Y-124581748D01*
X135042537Y-124581751D01*
X135206315Y-124691185D01*
X135206328Y-124691192D01*
X135388308Y-124766569D01*
X135430000Y-124774862D01*
X135430000Y-123971988D01*
X135439940Y-123989205D01*
X135495795Y-124045060D01*
X135564204Y-124084556D01*
X135640504Y-124105000D01*
X135719496Y-124105000D01*
X135795796Y-124084556D01*
X135864205Y-124045060D01*
X135920060Y-123989205D01*
X135930000Y-123971988D01*
X135930000Y-124774862D01*
X135971690Y-124766569D01*
X135971692Y-124766569D01*
X136153671Y-124691192D01*
X136153684Y-124691185D01*
X136317462Y-124581751D01*
X136317466Y-124581748D01*
X136456748Y-124442466D01*
X136456751Y-124442462D01*
X136566185Y-124278684D01*
X136566186Y-124278682D01*
X136570129Y-124269163D01*
X136613968Y-124214757D01*
X136680261Y-124192689D01*
X136747961Y-124209965D01*
X136753400Y-124213647D01*
X136756634Y-124215514D01*
X136756635Y-124215515D01*
X136887865Y-124291281D01*
X137034234Y-124330500D01*
X137034236Y-124330500D01*
X137185764Y-124330500D01*
X137185766Y-124330500D01*
X137332135Y-124291281D01*
X137463365Y-124215515D01*
X137570515Y-124108365D01*
X137646281Y-123977135D01*
X137685500Y-123830766D01*
X137685500Y-123679234D01*
X142314500Y-123679234D01*
X142314500Y-123830766D01*
X142323268Y-123863489D01*
X142353719Y-123977136D01*
X142372223Y-124009185D01*
X142429485Y-124108365D01*
X142536635Y-124215515D01*
X142667865Y-124291281D01*
X142814234Y-124330500D01*
X142814236Y-124330500D01*
X142965764Y-124330500D01*
X142965766Y-124330500D01*
X143112135Y-124291281D01*
X143243365Y-124215515D01*
X143243366Y-124215513D01*
X143250403Y-124211451D01*
X143251676Y-124213656D01*
X143304956Y-124193043D01*
X143373405Y-124207063D01*
X143423407Y-124255864D01*
X143429867Y-124269157D01*
X143433809Y-124278674D01*
X143433814Y-124278684D01*
X143543248Y-124442462D01*
X143543251Y-124442466D01*
X143682533Y-124581748D01*
X143682537Y-124581751D01*
X143846315Y-124691185D01*
X143846328Y-124691192D01*
X144028308Y-124766569D01*
X144070000Y-124774862D01*
X144070000Y-123971988D01*
X144079940Y-123989205D01*
X144135795Y-124045060D01*
X144204204Y-124084556D01*
X144280504Y-124105000D01*
X144359496Y-124105000D01*
X144435796Y-124084556D01*
X144504205Y-124045060D01*
X144560060Y-123989205D01*
X144570000Y-123971988D01*
X144570000Y-124774862D01*
X144611690Y-124766569D01*
X144611692Y-124766569D01*
X144793671Y-124691192D01*
X144793684Y-124691185D01*
X144957462Y-124581751D01*
X144957466Y-124581748D01*
X145096748Y-124442466D01*
X145096751Y-124442462D01*
X145206185Y-124278684D01*
X145206192Y-124278671D01*
X145281569Y-124096693D01*
X145281572Y-124096681D01*
X145314517Y-123931052D01*
X145318632Y-123761158D01*
X145559500Y-123761158D01*
X145559500Y-123918842D01*
X145562519Y-123934019D01*
X145562519Y-123934023D01*
X145590261Y-124073491D01*
X145590264Y-124073501D01*
X145650602Y-124219172D01*
X145650609Y-124219185D01*
X145738210Y-124350288D01*
X145738213Y-124350292D01*
X145849707Y-124461786D01*
X145849711Y-124461789D01*
X145980814Y-124549390D01*
X145980827Y-124549397D01*
X146058938Y-124581751D01*
X146126503Y-124609737D01*
X146281153Y-124640499D01*
X146281156Y-124640500D01*
X146281158Y-124640500D01*
X146438844Y-124640500D01*
X146438845Y-124640499D01*
X146593497Y-124609737D01*
X146739179Y-124549394D01*
X146870289Y-124461789D01*
X146981789Y-124350289D01*
X147069394Y-124219179D01*
X147129737Y-124073497D01*
X147160500Y-123918842D01*
X147160500Y-123761158D01*
X147154531Y-123731153D01*
X148369500Y-123731153D01*
X148369500Y-123888846D01*
X148400261Y-124043489D01*
X148400264Y-124043501D01*
X148460602Y-124189172D01*
X148460609Y-124189185D01*
X148548210Y-124320288D01*
X148548213Y-124320292D01*
X148659707Y-124431786D01*
X148659711Y-124431789D01*
X148790814Y-124519390D01*
X148790827Y-124519397D01*
X148936498Y-124579735D01*
X148936503Y-124579737D01*
X149087312Y-124609735D01*
X149091153Y-124610499D01*
X149091156Y-124610500D01*
X149091158Y-124610500D01*
X149248844Y-124610500D01*
X149248845Y-124610499D01*
X149403497Y-124579737D01*
X149496648Y-124541153D01*
X151559500Y-124541153D01*
X151559500Y-124698846D01*
X151590261Y-124853489D01*
X151590264Y-124853501D01*
X151650602Y-124999172D01*
X151650609Y-124999185D01*
X151738210Y-125130288D01*
X151738213Y-125130292D01*
X151849707Y-125241786D01*
X151849711Y-125241789D01*
X151980814Y-125329390D01*
X151980827Y-125329397D01*
X152126498Y-125389735D01*
X152126503Y-125389737D01*
X152281153Y-125420499D01*
X152281156Y-125420500D01*
X152281158Y-125420500D01*
X152438844Y-125420500D01*
X152438845Y-125420499D01*
X152593497Y-125389737D01*
X152739179Y-125329394D01*
X152870289Y-125241789D01*
X152981789Y-125130289D01*
X153069394Y-124999179D01*
X153129737Y-124853497D01*
X153160500Y-124698842D01*
X153160500Y-124541158D01*
X153160500Y-124541155D01*
X153160499Y-124541153D01*
X153138744Y-124431786D01*
X153129737Y-124386503D01*
X153114737Y-124350289D01*
X153069397Y-124240827D01*
X153069390Y-124240814D01*
X152981789Y-124109711D01*
X152981786Y-124109707D01*
X152870292Y-123998213D01*
X152870288Y-123998210D01*
X152739185Y-123910609D01*
X152739172Y-123910602D01*
X152593501Y-123850264D01*
X152593489Y-123850261D01*
X152438845Y-123819500D01*
X152438842Y-123819500D01*
X152281158Y-123819500D01*
X152281155Y-123819500D01*
X152126510Y-123850261D01*
X152126498Y-123850264D01*
X151980827Y-123910602D01*
X151980814Y-123910609D01*
X151849711Y-123998210D01*
X151849707Y-123998213D01*
X151738213Y-124109707D01*
X151738210Y-124109711D01*
X151650609Y-124240814D01*
X151650602Y-124240827D01*
X151590264Y-124386498D01*
X151590261Y-124386510D01*
X151559500Y-124541153D01*
X149496648Y-124541153D01*
X149549179Y-124519394D01*
X149635391Y-124461789D01*
X149680028Y-124431964D01*
X149680194Y-124431852D01*
X149680289Y-124431789D01*
X149791789Y-124320289D01*
X149879394Y-124189179D01*
X149939737Y-124043497D01*
X149970500Y-123888842D01*
X149970500Y-123731158D01*
X149970500Y-123731155D01*
X149970499Y-123731153D01*
X149939739Y-123576510D01*
X149939735Y-123576498D01*
X149929237Y-123551153D01*
X156599500Y-123551153D01*
X156599500Y-123708846D01*
X156630261Y-123863489D01*
X156630264Y-123863501D01*
X156690602Y-124009172D01*
X156690609Y-124009185D01*
X156778210Y-124140288D01*
X156778213Y-124140292D01*
X156889707Y-124251786D01*
X156889711Y-124251789D01*
X157020814Y-124339390D01*
X157020827Y-124339397D01*
X157134541Y-124386498D01*
X157166503Y-124399737D01*
X157321153Y-124430499D01*
X157321156Y-124430500D01*
X157321158Y-124430500D01*
X157478844Y-124430500D01*
X157478845Y-124430499D01*
X157633497Y-124399737D01*
X157779179Y-124339394D01*
X157910289Y-124251789D01*
X158021789Y-124140289D01*
X158109394Y-124009179D01*
X158113938Y-123998210D01*
X158146812Y-123918844D01*
X158169737Y-123863497D01*
X158200500Y-123708842D01*
X158200500Y-123551158D01*
X158200500Y-123551155D01*
X158200499Y-123551153D01*
X158196861Y-123532863D01*
X158169737Y-123396503D01*
X158142071Y-123329711D01*
X158109397Y-123250827D01*
X158109390Y-123250814D01*
X158021789Y-123119711D01*
X158021786Y-123119707D01*
X157910292Y-123008213D01*
X157910288Y-123008210D01*
X157779185Y-122920609D01*
X157779172Y-122920602D01*
X157633501Y-122860264D01*
X157633489Y-122860261D01*
X157478845Y-122829500D01*
X157478842Y-122829500D01*
X157321158Y-122829500D01*
X157321155Y-122829500D01*
X157166510Y-122860261D01*
X157166498Y-122860264D01*
X157020827Y-122920602D01*
X157020814Y-122920609D01*
X156889711Y-123008210D01*
X156889707Y-123008213D01*
X156778213Y-123119707D01*
X156778210Y-123119711D01*
X156690609Y-123250814D01*
X156690602Y-123250827D01*
X156630264Y-123396498D01*
X156630261Y-123396510D01*
X156599500Y-123551153D01*
X149929237Y-123551153D01*
X149879397Y-123430827D01*
X149879390Y-123430814D01*
X149791789Y-123299711D01*
X149791786Y-123299707D01*
X149680292Y-123188213D01*
X149680288Y-123188210D01*
X149549185Y-123100609D01*
X149549172Y-123100602D01*
X149403501Y-123040264D01*
X149403489Y-123040261D01*
X149248845Y-123009500D01*
X149248842Y-123009500D01*
X149091158Y-123009500D01*
X149091155Y-123009500D01*
X148936510Y-123040261D01*
X148936498Y-123040264D01*
X148790827Y-123100602D01*
X148790814Y-123100609D01*
X148659711Y-123188210D01*
X148659707Y-123188213D01*
X148548213Y-123299707D01*
X148548210Y-123299711D01*
X148460609Y-123430814D01*
X148460602Y-123430827D01*
X148400264Y-123576498D01*
X148400261Y-123576510D01*
X148369500Y-123731153D01*
X147154531Y-123731153D01*
X147150094Y-123708846D01*
X147129738Y-123606510D01*
X147129738Y-123606508D01*
X147129737Y-123606503D01*
X147106813Y-123551158D01*
X147069397Y-123460827D01*
X147069390Y-123460814D01*
X146981789Y-123329711D01*
X146981786Y-123329707D01*
X146870292Y-123218213D01*
X146870288Y-123218210D01*
X146739185Y-123130609D01*
X146739172Y-123130602D01*
X146593501Y-123070264D01*
X146593489Y-123070261D01*
X146438845Y-123039500D01*
X146438842Y-123039500D01*
X146281158Y-123039500D01*
X146281155Y-123039500D01*
X146126510Y-123070261D01*
X146126498Y-123070264D01*
X145980827Y-123130602D01*
X145980814Y-123130609D01*
X145849711Y-123218210D01*
X145849707Y-123218213D01*
X145738213Y-123329707D01*
X145738210Y-123329711D01*
X145650609Y-123460814D01*
X145650602Y-123460827D01*
X145590264Y-123606498D01*
X145590261Y-123606508D01*
X145567705Y-123719905D01*
X145567704Y-123719909D01*
X145559500Y-123761158D01*
X145318632Y-123761158D01*
X145320000Y-123704695D01*
X145320000Y-123505000D01*
X144620000Y-123505000D01*
X144620000Y-123005000D01*
X145320000Y-123005000D01*
X145320000Y-122606508D01*
X145319999Y-122606504D01*
X145281572Y-122413318D01*
X145281569Y-122413306D01*
X145206192Y-122231328D01*
X145206185Y-122231315D01*
X145096751Y-122067537D01*
X145096748Y-122067533D01*
X144957466Y-121928251D01*
X144957462Y-121928248D01*
X144793684Y-121818814D01*
X144793671Y-121818807D01*
X144611691Y-121743429D01*
X144611683Y-121743427D01*
X144570000Y-121735135D01*
X144570000Y-122538011D01*
X144560060Y-122520795D01*
X144504205Y-122464940D01*
X144435796Y-122425444D01*
X144359496Y-122405000D01*
X144280504Y-122405000D01*
X144204204Y-122425444D01*
X144135795Y-122464940D01*
X144079940Y-122520795D01*
X144070000Y-122538011D01*
X144070000Y-121737471D01*
X144073545Y-121725397D01*
X144072467Y-121712858D01*
X144083203Y-121692505D01*
X144089685Y-121670432D01*
X144099975Y-121660712D01*
X144105067Y-121651060D01*
X144123277Y-121638701D01*
X144133014Y-121629505D01*
X144139578Y-121625796D01*
X144179179Y-121609394D01*
X144191512Y-121601153D01*
X155089500Y-121601153D01*
X155089500Y-121758846D01*
X155120261Y-121913489D01*
X155120264Y-121913501D01*
X155180602Y-122059172D01*
X155180609Y-122059185D01*
X155268210Y-122190288D01*
X155268213Y-122190292D01*
X155379707Y-122301786D01*
X155379711Y-122301789D01*
X155510814Y-122389390D01*
X155510827Y-122389397D01*
X155656498Y-122449735D01*
X155656503Y-122449737D01*
X155811153Y-122480499D01*
X155811156Y-122480500D01*
X155811158Y-122480500D01*
X155968844Y-122480500D01*
X155968845Y-122480499D01*
X156123497Y-122449737D01*
X156269179Y-122389394D01*
X156400289Y-122301789D01*
X156511789Y-122190289D01*
X156599394Y-122059179D01*
X156659737Y-121913497D01*
X156690500Y-121758842D01*
X156690500Y-121601158D01*
X156690500Y-121601155D01*
X156690499Y-121601153D01*
X156659738Y-121446510D01*
X156659737Y-121446503D01*
X156644737Y-121410289D01*
X156599397Y-121300827D01*
X156599390Y-121300814D01*
X156511789Y-121169711D01*
X156511786Y-121169707D01*
X156400292Y-121058213D01*
X156400288Y-121058210D01*
X156269185Y-120970609D01*
X156269172Y-120970602D01*
X156123501Y-120910264D01*
X156123489Y-120910261D01*
X155968845Y-120879500D01*
X155968842Y-120879500D01*
X155811158Y-120879500D01*
X155811155Y-120879500D01*
X155656510Y-120910261D01*
X155656498Y-120910264D01*
X155510827Y-120970602D01*
X155510814Y-120970609D01*
X155379711Y-121058210D01*
X155379707Y-121058213D01*
X155268213Y-121169707D01*
X155268210Y-121169711D01*
X155180609Y-121300814D01*
X155180602Y-121300827D01*
X155120264Y-121446498D01*
X155120261Y-121446510D01*
X155089500Y-121601153D01*
X144191512Y-121601153D01*
X144236925Y-121570808D01*
X144236929Y-121570807D01*
X144262607Y-121553648D01*
X144310289Y-121521789D01*
X144316765Y-121515313D01*
X144324694Y-121507385D01*
X144421786Y-121410292D01*
X144421789Y-121410289D01*
X144509394Y-121279179D01*
X144569737Y-121133497D01*
X144600500Y-120978842D01*
X144600500Y-120821158D01*
X144600500Y-120821155D01*
X144600499Y-120821153D01*
X144569738Y-120666510D01*
X144569737Y-120666503D01*
X144569735Y-120666498D01*
X144509397Y-120520827D01*
X144509390Y-120520814D01*
X144421789Y-120389711D01*
X144421786Y-120389707D01*
X144310292Y-120278213D01*
X144310288Y-120278210D01*
X144179185Y-120190609D01*
X144179172Y-120190602D01*
X144033501Y-120130264D01*
X144033489Y-120130261D01*
X143878845Y-120099500D01*
X143878842Y-120099500D01*
X143721158Y-120099500D01*
X143721155Y-120099500D01*
X143566510Y-120130261D01*
X143566498Y-120130264D01*
X143420827Y-120190602D01*
X143420814Y-120190609D01*
X143289711Y-120278210D01*
X143289707Y-120278213D01*
X143178213Y-120389707D01*
X143178210Y-120389711D01*
X143090609Y-120520814D01*
X143090602Y-120520827D01*
X143030264Y-120666498D01*
X143030261Y-120666510D01*
X142999500Y-120821153D01*
X142999500Y-120978846D01*
X143030261Y-121133489D01*
X143030264Y-121133501D01*
X143090602Y-121279172D01*
X143090609Y-121279185D01*
X143178210Y-121410288D01*
X143178213Y-121410292D01*
X143289707Y-121521786D01*
X143289711Y-121521789D01*
X143420814Y-121609390D01*
X143420827Y-121609397D01*
X143566498Y-121669735D01*
X143566503Y-121669737D01*
X143660444Y-121688423D01*
X143722355Y-121720807D01*
X143756929Y-121781523D01*
X143753190Y-121851292D01*
X143712324Y-121907965D01*
X143705147Y-121913140D01*
X143682538Y-121928247D01*
X143682533Y-121928251D01*
X143543251Y-122067533D01*
X143543248Y-122067537D01*
X143433814Y-122231315D01*
X143433807Y-122231328D01*
X143358430Y-122413306D01*
X143358427Y-122413318D01*
X143320000Y-122606504D01*
X143320000Y-123005000D01*
X144020000Y-123005000D01*
X144020000Y-123505000D01*
X143481784Y-123505000D01*
X143414745Y-123485315D01*
X143374397Y-123443000D01*
X143367369Y-123430827D01*
X143350515Y-123401635D01*
X143243365Y-123294485D01*
X143177750Y-123256602D01*
X143112136Y-123218719D01*
X143038950Y-123199109D01*
X142965766Y-123179500D01*
X142814234Y-123179500D01*
X142667863Y-123218719D01*
X142536635Y-123294485D01*
X142536632Y-123294487D01*
X142429487Y-123401632D01*
X142429485Y-123401635D01*
X142353719Y-123532863D01*
X142333986Y-123606510D01*
X142314500Y-123679234D01*
X137685500Y-123679234D01*
X137646281Y-123532865D01*
X137570515Y-123401635D01*
X137463365Y-123294485D01*
X137397750Y-123256602D01*
X137332136Y-123218719D01*
X137258950Y-123199109D01*
X137185766Y-123179500D01*
X137034234Y-123179500D01*
X136887863Y-123218719D01*
X136756635Y-123294485D01*
X136756632Y-123294487D01*
X136649487Y-123401632D01*
X136649483Y-123401638D01*
X136625603Y-123443000D01*
X136575036Y-123491216D01*
X136518216Y-123505000D01*
X135980000Y-123505000D01*
X135980000Y-123005000D01*
X136680000Y-123005000D01*
X136680000Y-122606508D01*
X136679999Y-122606504D01*
X136641572Y-122413318D01*
X136641569Y-122413306D01*
X136566192Y-122231328D01*
X136566185Y-122231315D01*
X136456751Y-122067537D01*
X136456748Y-122067533D01*
X136317464Y-121928249D01*
X136306507Y-121920928D01*
X136261703Y-121867315D01*
X136252997Y-121797990D01*
X136283153Y-121734963D01*
X136342597Y-121698245D01*
X136399591Y-121696210D01*
X136421158Y-121700500D01*
X136578844Y-121700500D01*
X136578845Y-121700499D01*
X136733497Y-121669737D01*
X136879179Y-121609394D01*
X137010289Y-121521789D01*
X137121789Y-121410289D01*
X137209394Y-121279179D01*
X137269737Y-121133497D01*
X137300500Y-120978842D01*
X137300500Y-120821158D01*
X137300500Y-120821155D01*
X137300499Y-120821153D01*
X137269738Y-120666510D01*
X137269737Y-120666503D01*
X137269735Y-120666498D01*
X137209397Y-120520827D01*
X137209390Y-120520814D01*
X137121789Y-120389711D01*
X137121786Y-120389707D01*
X137010292Y-120278213D01*
X137010288Y-120278210D01*
X136879185Y-120190609D01*
X136879172Y-120190602D01*
X136733501Y-120130264D01*
X136733489Y-120130261D01*
X136578845Y-120099500D01*
X136578842Y-120099500D01*
X136421158Y-120099500D01*
X136421155Y-120099500D01*
X136266510Y-120130261D01*
X136266498Y-120130264D01*
X136120827Y-120190602D01*
X136120814Y-120190609D01*
X135989711Y-120278210D01*
X135989707Y-120278213D01*
X135878213Y-120389707D01*
X135878210Y-120389711D01*
X135790609Y-120520814D01*
X135790602Y-120520827D01*
X135730264Y-120666498D01*
X135730261Y-120666510D01*
X135699500Y-120821153D01*
X135699500Y-120978846D01*
X135730261Y-121133489D01*
X135730264Y-121133501D01*
X135790602Y-121279172D01*
X135790609Y-121279185D01*
X135878210Y-121410288D01*
X135878213Y-121410292D01*
X135983234Y-121515313D01*
X136016719Y-121576636D01*
X136011735Y-121646328D01*
X135974218Y-121698847D01*
X135930000Y-121735135D01*
X135930000Y-122538011D01*
X135920060Y-122520795D01*
X135864205Y-122464940D01*
X135795796Y-122425444D01*
X135719496Y-122405000D01*
X135640504Y-122405000D01*
X135564204Y-122425444D01*
X135495795Y-122464940D01*
X135439940Y-122520795D01*
X135430000Y-122538011D01*
X135430000Y-121735136D01*
X135429999Y-121735135D01*
X135388316Y-121743427D01*
X135388308Y-121743429D01*
X135206328Y-121818807D01*
X135206315Y-121818814D01*
X135042537Y-121928248D01*
X135042533Y-121928251D01*
X134903251Y-122067533D01*
X134903248Y-122067537D01*
X134793814Y-122231315D01*
X134793807Y-122231328D01*
X134718430Y-122413306D01*
X134718427Y-122413318D01*
X134680000Y-122606504D01*
X120500500Y-122606504D01*
X120500500Y-119824339D01*
X151610512Y-119824339D01*
X151717668Y-119868725D01*
X151717672Y-119868726D01*
X151863332Y-119897700D01*
X151863335Y-119897701D01*
X152011863Y-119897701D01*
X152011865Y-119897700D01*
X152157525Y-119868726D01*
X152157533Y-119868724D01*
X152283846Y-119816404D01*
X152353315Y-119808935D01*
X152378752Y-119816404D01*
X152505064Y-119868724D01*
X152505072Y-119868726D01*
X152650732Y-119897700D01*
X152650735Y-119897701D01*
X152799263Y-119897701D01*
X152799265Y-119897700D01*
X152944925Y-119868726D01*
X152944933Y-119868724D01*
X153071246Y-119816404D01*
X153140715Y-119808935D01*
X153166152Y-119816404D01*
X153292464Y-119868724D01*
X153292472Y-119868726D01*
X153438132Y-119897700D01*
X153438135Y-119897701D01*
X153586663Y-119897701D01*
X153586665Y-119897700D01*
X153732326Y-119868726D01*
X153732341Y-119868722D01*
X153839485Y-119824340D01*
X153839485Y-119824339D01*
X153335622Y-119320478D01*
X153335621Y-119320478D01*
X153133584Y-119118439D01*
X153385399Y-119118439D01*
X153385399Y-119168963D01*
X153404734Y-119215641D01*
X153440459Y-119251366D01*
X153487137Y-119270701D01*
X153537661Y-119270701D01*
X153584339Y-119251366D01*
X153620064Y-119215641D01*
X153639399Y-119168963D01*
X153639399Y-119118439D01*
X153620064Y-119071761D01*
X153584339Y-119036036D01*
X153537661Y-119016701D01*
X153487137Y-119016701D01*
X153440459Y-119036036D01*
X153404734Y-119071761D01*
X153385399Y-119118439D01*
X153133584Y-119118439D01*
X153118699Y-119103554D01*
X153118698Y-119103554D01*
X152989456Y-119232796D01*
X152928133Y-119266281D01*
X152858441Y-119261297D01*
X152814955Y-119233349D01*
X152832664Y-119215641D01*
X152851999Y-119168963D01*
X152851999Y-119118439D01*
X152832664Y-119071761D01*
X152796939Y-119036036D01*
X152750261Y-119016701D01*
X152699737Y-119016701D01*
X152653059Y-119036036D01*
X152617334Y-119071761D01*
X152597999Y-119118439D01*
X152597999Y-119168963D01*
X152617334Y-119215641D01*
X152634989Y-119233296D01*
X152574580Y-119266281D01*
X152504888Y-119261297D01*
X152460540Y-119232796D01*
X152331299Y-119103554D01*
X152114377Y-119320478D01*
X152114376Y-119320478D01*
X151610512Y-119824339D01*
X120500500Y-119824339D01*
X120500500Y-118901153D01*
X148299500Y-118901153D01*
X148299500Y-119058846D01*
X148330261Y-119213489D01*
X148330264Y-119213501D01*
X148390602Y-119359172D01*
X148390609Y-119359185D01*
X148478210Y-119490288D01*
X148478213Y-119490292D01*
X148589707Y-119601786D01*
X148589711Y-119601789D01*
X148720814Y-119689390D01*
X148720827Y-119689397D01*
X148866498Y-119749735D01*
X148866503Y-119749737D01*
X149021153Y-119780499D01*
X149021156Y-119780500D01*
X149021158Y-119780500D01*
X149178844Y-119780500D01*
X149178845Y-119780499D01*
X149333497Y-119749737D01*
X149479179Y-119689394D01*
X149479185Y-119689390D01*
X149492606Y-119680423D01*
X149550394Y-119641809D01*
X149610289Y-119601789D01*
X149721789Y-119490289D01*
X149809394Y-119359179D01*
X149869737Y-119213497D01*
X149900500Y-119058842D01*
X149900500Y-118901158D01*
X149900500Y-118901155D01*
X149900499Y-118901153D01*
X149879872Y-118797454D01*
X149869737Y-118746503D01*
X149851531Y-118702549D01*
X149809397Y-118600827D01*
X149809390Y-118600814D01*
X149721789Y-118469711D01*
X149721786Y-118469707D01*
X149610292Y-118358213D01*
X149610288Y-118358210D01*
X149496284Y-118282034D01*
X151183599Y-118282034D01*
X151183599Y-118430567D01*
X151212573Y-118576227D01*
X151212576Y-118576239D01*
X151264895Y-118702549D01*
X151272364Y-118772018D01*
X151264895Y-118797453D01*
X151212576Y-118923762D01*
X151212573Y-118923774D01*
X151183599Y-119069434D01*
X151183599Y-119217967D01*
X151212573Y-119363627D01*
X151212575Y-119363635D01*
X151256959Y-119470787D01*
X151609307Y-119118439D01*
X151810599Y-119118439D01*
X151810599Y-119168963D01*
X151829934Y-119215641D01*
X151865659Y-119251366D01*
X151912337Y-119270701D01*
X151962861Y-119270701D01*
X152009539Y-119251366D01*
X152045264Y-119215641D01*
X152064599Y-119168963D01*
X152064599Y-119118439D01*
X152045264Y-119071761D01*
X152009539Y-119036036D01*
X151962861Y-119016701D01*
X151912337Y-119016701D01*
X151865659Y-119036036D01*
X151829934Y-119071761D01*
X151810599Y-119118439D01*
X151609307Y-119118439D01*
X151977745Y-118750001D01*
X151977744Y-118750000D01*
X152684852Y-118750000D01*
X152724999Y-118790147D01*
X152765145Y-118750002D01*
X152765145Y-118750001D01*
X153472252Y-118750001D01*
X153689176Y-118966923D01*
X153689176Y-118966924D01*
X154193037Y-119470787D01*
X154193038Y-119470787D01*
X154237420Y-119363643D01*
X154237424Y-119363628D01*
X154266398Y-119217967D01*
X154266399Y-119217965D01*
X154266399Y-119069436D01*
X154266398Y-119069434D01*
X154237424Y-118923774D01*
X154237422Y-118923766D01*
X154185102Y-118797454D01*
X154177633Y-118727985D01*
X154185102Y-118702548D01*
X154237422Y-118576235D01*
X154237424Y-118576227D01*
X154266398Y-118430567D01*
X154266399Y-118430565D01*
X154266399Y-118282036D01*
X154266398Y-118282034D01*
X154237424Y-118136374D01*
X154237423Y-118136370D01*
X154193037Y-118029214D01*
X153689176Y-118533078D01*
X153689176Y-118533079D01*
X153472252Y-118750001D01*
X152765145Y-118750001D01*
X152724999Y-118709854D01*
X152684852Y-118750000D01*
X151977744Y-118750000D01*
X151760822Y-118533078D01*
X151558784Y-118331039D01*
X151810599Y-118331039D01*
X151810599Y-118381563D01*
X151829934Y-118428241D01*
X151865659Y-118463966D01*
X151912337Y-118483301D01*
X151962861Y-118483301D01*
X152009539Y-118463966D01*
X152045264Y-118428241D01*
X152064599Y-118381563D01*
X152064599Y-118331039D01*
X152045264Y-118284361D01*
X152009539Y-118248636D01*
X151962861Y-118229301D01*
X151912337Y-118229301D01*
X151865659Y-118248636D01*
X151829934Y-118284361D01*
X151810599Y-118331039D01*
X151558784Y-118331039D01*
X151256959Y-118029213D01*
X151212575Y-118136366D01*
X151212573Y-118136374D01*
X151183599Y-118282034D01*
X149496284Y-118282034D01*
X149479185Y-118270609D01*
X149479172Y-118270602D01*
X149333501Y-118210264D01*
X149333489Y-118210261D01*
X149178845Y-118179500D01*
X149178842Y-118179500D01*
X149021158Y-118179500D01*
X149021155Y-118179500D01*
X148866510Y-118210261D01*
X148866498Y-118210264D01*
X148720827Y-118270602D01*
X148720814Y-118270609D01*
X148589711Y-118358210D01*
X148589707Y-118358213D01*
X148478213Y-118469707D01*
X148478210Y-118469711D01*
X148390609Y-118600814D01*
X148390602Y-118600827D01*
X148330264Y-118746498D01*
X148330261Y-118746510D01*
X148299500Y-118901153D01*
X120500500Y-118901153D01*
X120500500Y-117323653D01*
X133599500Y-117323653D01*
X133599500Y-117481346D01*
X133630261Y-117635989D01*
X133630264Y-117636001D01*
X133690602Y-117781672D01*
X133690609Y-117781685D01*
X133778210Y-117912788D01*
X133778213Y-117912792D01*
X133889707Y-118024286D01*
X133889711Y-118024289D01*
X134020814Y-118111890D01*
X134020827Y-118111897D01*
X134079921Y-118136374D01*
X134166503Y-118172237D01*
X134321153Y-118202999D01*
X134321156Y-118203000D01*
X134321158Y-118203000D01*
X134478844Y-118203000D01*
X134478845Y-118202999D01*
X134633497Y-118172237D01*
X134779179Y-118111894D01*
X134910289Y-118024289D01*
X135021789Y-117912789D01*
X135109394Y-117781679D01*
X135153308Y-117675661D01*
X151610511Y-117675661D01*
X152114376Y-118179524D01*
X152331299Y-118396447D01*
X152460541Y-118267205D01*
X152521864Y-118233720D01*
X152591556Y-118238704D01*
X152635042Y-118266652D01*
X152617334Y-118284361D01*
X152597999Y-118331039D01*
X152597999Y-118381563D01*
X152617334Y-118428241D01*
X152653059Y-118463966D01*
X152699737Y-118483301D01*
X152750261Y-118483301D01*
X152796939Y-118463966D01*
X152832664Y-118428241D01*
X152851999Y-118381563D01*
X152851999Y-118331039D01*
X152832664Y-118284361D01*
X152815008Y-118266705D01*
X152875418Y-118233720D01*
X152945110Y-118238704D01*
X152989457Y-118267205D01*
X153118699Y-118396447D01*
X153184107Y-118331039D01*
X153385399Y-118331039D01*
X153385399Y-118381563D01*
X153404734Y-118428241D01*
X153440459Y-118463966D01*
X153487137Y-118483301D01*
X153537661Y-118483301D01*
X153584339Y-118463966D01*
X153620064Y-118428241D01*
X153639399Y-118381563D01*
X153639399Y-118331039D01*
X153620064Y-118284361D01*
X153584339Y-118248636D01*
X153537661Y-118229301D01*
X153487137Y-118229301D01*
X153440459Y-118248636D01*
X153404734Y-118284361D01*
X153385399Y-118331039D01*
X153184107Y-118331039D01*
X153839485Y-117675661D01*
X153732333Y-117631277D01*
X153732325Y-117631275D01*
X153586664Y-117602301D01*
X153438134Y-117602301D01*
X153292472Y-117631275D01*
X153292460Y-117631278D01*
X153166151Y-117683597D01*
X153096682Y-117691066D01*
X153071247Y-117683597D01*
X152944937Y-117631278D01*
X152944925Y-117631275D01*
X152799264Y-117602301D01*
X152650734Y-117602301D01*
X152505072Y-117631275D01*
X152505060Y-117631278D01*
X152378751Y-117683597D01*
X152309282Y-117691066D01*
X152283847Y-117683597D01*
X152157537Y-117631278D01*
X152157525Y-117631275D01*
X152011864Y-117602301D01*
X151863334Y-117602301D01*
X151717672Y-117631275D01*
X151717664Y-117631277D01*
X151610511Y-117675661D01*
X135153308Y-117675661D01*
X135169737Y-117635997D01*
X135200500Y-117481342D01*
X135200500Y-117323658D01*
X135200500Y-117323655D01*
X135200499Y-117323653D01*
X135169738Y-117169010D01*
X135169737Y-117169003D01*
X135169735Y-117168998D01*
X135109397Y-117023327D01*
X135109390Y-117023314D01*
X135021789Y-116892211D01*
X135021786Y-116892207D01*
X134910292Y-116780713D01*
X134910288Y-116780710D01*
X134779185Y-116693109D01*
X134779172Y-116693102D01*
X134633501Y-116632764D01*
X134633489Y-116632761D01*
X134478845Y-116602000D01*
X134478842Y-116602000D01*
X134321158Y-116602000D01*
X134321155Y-116602000D01*
X134166510Y-116632761D01*
X134166498Y-116632764D01*
X134020827Y-116693102D01*
X134020814Y-116693109D01*
X133889711Y-116780710D01*
X133889707Y-116780713D01*
X133778213Y-116892207D01*
X133778210Y-116892211D01*
X133690609Y-117023314D01*
X133690602Y-117023327D01*
X133630264Y-117168998D01*
X133630261Y-117169010D01*
X133599500Y-117323653D01*
X120500500Y-117323653D01*
X120500500Y-113354983D01*
X123399500Y-113354983D01*
X123399500Y-114955001D01*
X123399501Y-114955018D01*
X123410000Y-115057796D01*
X123410001Y-115057799D01*
X123465185Y-115224331D01*
X123465187Y-115224336D01*
X123480304Y-115248844D01*
X123557288Y-115373656D01*
X123681344Y-115497712D01*
X123830666Y-115589814D01*
X123997203Y-115644999D01*
X124099991Y-115655500D01*
X125400008Y-115655499D01*
X125502797Y-115644999D01*
X125669334Y-115589814D01*
X125818656Y-115497712D01*
X125942712Y-115373656D01*
X126034814Y-115224334D01*
X126034814Y-115224331D01*
X126038448Y-115218441D01*
X126090395Y-115171716D01*
X126159358Y-115160493D01*
X126223440Y-115188336D01*
X126231668Y-115195856D01*
X126370535Y-115334723D01*
X126370540Y-115334727D01*
X126542442Y-115459620D01*
X126731782Y-115556095D01*
X126933871Y-115621757D01*
X127000000Y-115632231D01*
X127000000Y-114588012D01*
X127057007Y-114620925D01*
X127184174Y-114655000D01*
X127315826Y-114655000D01*
X127442993Y-114620925D01*
X127500000Y-114588012D01*
X127500000Y-115632230D01*
X127566126Y-115621757D01*
X127566129Y-115621757D01*
X127768217Y-115556095D01*
X127957557Y-115459620D01*
X128129459Y-115334727D01*
X128129464Y-115334723D01*
X128279723Y-115184464D01*
X128279727Y-115184459D01*
X128404620Y-115012557D01*
X128501095Y-114823217D01*
X128566757Y-114621130D01*
X128566757Y-114621127D01*
X128600000Y-114411246D01*
X128600000Y-114405000D01*
X127683012Y-114405000D01*
X127715925Y-114347993D01*
X127750000Y-114220826D01*
X127750000Y-114089174D01*
X127715925Y-113962007D01*
X127683012Y-113905000D01*
X128600000Y-113905000D01*
X128600000Y-113898753D01*
X128599202Y-113893713D01*
X139649500Y-113893713D01*
X139649500Y-114106287D01*
X139653298Y-114130264D01*
X139676730Y-114278213D01*
X139682754Y-114316243D01*
X139729659Y-114460602D01*
X139748444Y-114518414D01*
X139844951Y-114707820D01*
X139969890Y-114879786D01*
X140120213Y-115030109D01*
X140292179Y-115155048D01*
X140292181Y-115155049D01*
X140292184Y-115155051D01*
X140481588Y-115251557D01*
X140683757Y-115317246D01*
X140893713Y-115350500D01*
X140893714Y-115350500D01*
X141106286Y-115350500D01*
X141106287Y-115350500D01*
X141316243Y-115317246D01*
X141518412Y-115251557D01*
X141707816Y-115155051D01*
X141795765Y-115091153D01*
X141879786Y-115030109D01*
X141879788Y-115030106D01*
X141879792Y-115030104D01*
X142030104Y-114879792D01*
X142086930Y-114801577D01*
X147559500Y-114801577D01*
X147559500Y-114998422D01*
X147590290Y-115192826D01*
X147651117Y-115380029D01*
X147691671Y-115459620D01*
X147740476Y-115555405D01*
X147856172Y-115714646D01*
X147995354Y-115853828D01*
X148154595Y-115969524D01*
X148156509Y-115970499D01*
X148329970Y-116058882D01*
X148329972Y-116058882D01*
X148329975Y-116058884D01*
X148430317Y-116091487D01*
X148517173Y-116119709D01*
X148711578Y-116150500D01*
X148711583Y-116150500D01*
X148908422Y-116150500D01*
X149102826Y-116119709D01*
X149290025Y-116058884D01*
X149465405Y-115969524D01*
X149624646Y-115853828D01*
X149763828Y-115714646D01*
X149879524Y-115555405D01*
X149968884Y-115380025D01*
X150029709Y-115192826D01*
X150031034Y-115184459D01*
X150045812Y-115091153D01*
X151139500Y-115091153D01*
X151139500Y-115248846D01*
X151170261Y-115403489D01*
X151170264Y-115403501D01*
X151230602Y-115549172D01*
X151230609Y-115549185D01*
X151318210Y-115680288D01*
X151318213Y-115680292D01*
X151429707Y-115791786D01*
X151429711Y-115791789D01*
X151560814Y-115879390D01*
X151560827Y-115879397D01*
X151706498Y-115939735D01*
X151706503Y-115939737D01*
X151856246Y-115969523D01*
X151861153Y-115970499D01*
X151861156Y-115970500D01*
X151861158Y-115970500D01*
X152018844Y-115970500D01*
X152018845Y-115970499D01*
X152173497Y-115939737D01*
X152319179Y-115879394D01*
X152450289Y-115791789D01*
X152561789Y-115680289D01*
X152649394Y-115549179D01*
X152709737Y-115403497D01*
X152740500Y-115248842D01*
X152740500Y-115091158D01*
X152740500Y-115091155D01*
X152740499Y-115091153D01*
X152733864Y-115057796D01*
X152709737Y-114936503D01*
X152686246Y-114879790D01*
X152679092Y-114862518D01*
X152661958Y-114821153D01*
X153199500Y-114821153D01*
X153199500Y-114978846D01*
X153230261Y-115133489D01*
X153230264Y-115133501D01*
X153290602Y-115279172D01*
X153290609Y-115279185D01*
X153378210Y-115410288D01*
X153378213Y-115410292D01*
X153489707Y-115521786D01*
X153489711Y-115521789D01*
X153620814Y-115609390D01*
X153620827Y-115609397D01*
X153766498Y-115669735D01*
X153766503Y-115669737D01*
X153921153Y-115700499D01*
X153921156Y-115700500D01*
X153921158Y-115700500D01*
X154078844Y-115700500D01*
X154078845Y-115700499D01*
X154233497Y-115669737D01*
X154379179Y-115609394D01*
X154510289Y-115521789D01*
X154621789Y-115410289D01*
X154709394Y-115279179D01*
X154769737Y-115133497D01*
X154800500Y-114978842D01*
X154800500Y-114821158D01*
X154800500Y-114821155D01*
X154800499Y-114821153D01*
X154794467Y-114790827D01*
X154769737Y-114666503D01*
X154750858Y-114620925D01*
X154709397Y-114520827D01*
X154709390Y-114520814D01*
X154621789Y-114389711D01*
X154621786Y-114389707D01*
X154510292Y-114278213D01*
X154510288Y-114278210D01*
X154379185Y-114190609D01*
X154379172Y-114190602D01*
X154233501Y-114130264D01*
X154233489Y-114130261D01*
X154078845Y-114099500D01*
X154078842Y-114099500D01*
X153921158Y-114099500D01*
X153921155Y-114099500D01*
X153766510Y-114130261D01*
X153766498Y-114130264D01*
X153620827Y-114190602D01*
X153620814Y-114190609D01*
X153489711Y-114278210D01*
X153489707Y-114278213D01*
X153378213Y-114389707D01*
X153378210Y-114389711D01*
X153290609Y-114520814D01*
X153290602Y-114520827D01*
X153230264Y-114666498D01*
X153230261Y-114666510D01*
X153199500Y-114821153D01*
X152661958Y-114821153D01*
X152649397Y-114790827D01*
X152649390Y-114790814D01*
X152561789Y-114659711D01*
X152561786Y-114659707D01*
X152450292Y-114548213D01*
X152450288Y-114548210D01*
X152319185Y-114460609D01*
X152319172Y-114460602D01*
X152173501Y-114400264D01*
X152173489Y-114400261D01*
X152018845Y-114369500D01*
X152018842Y-114369500D01*
X151861158Y-114369500D01*
X151861155Y-114369500D01*
X151706510Y-114400261D01*
X151706498Y-114400264D01*
X151560827Y-114460602D01*
X151560814Y-114460609D01*
X151429711Y-114548210D01*
X151429707Y-114548213D01*
X151318213Y-114659707D01*
X151318210Y-114659711D01*
X151230609Y-114790814D01*
X151230602Y-114790827D01*
X151170264Y-114936498D01*
X151170261Y-114936510D01*
X151139500Y-115091153D01*
X150045812Y-115091153D01*
X150049849Y-115065668D01*
X150060500Y-114998422D01*
X150060500Y-114801577D01*
X150029709Y-114607173D01*
X149982086Y-114460606D01*
X149968884Y-114419975D01*
X149968882Y-114419972D01*
X149968882Y-114419970D01*
X149896652Y-114278211D01*
X149879524Y-114244595D01*
X149763828Y-114085354D01*
X149624646Y-113946172D01*
X149465405Y-113830476D01*
X149290029Y-113741117D01*
X149102826Y-113680290D01*
X148908422Y-113649500D01*
X148908417Y-113649500D01*
X148711583Y-113649500D01*
X148711578Y-113649500D01*
X148517173Y-113680290D01*
X148329970Y-113741117D01*
X148154594Y-113830476D01*
X148067557Y-113893713D01*
X147995354Y-113946172D01*
X147995352Y-113946174D01*
X147995351Y-113946174D01*
X147856174Y-114085351D01*
X147856174Y-114085352D01*
X147856172Y-114085354D01*
X147823545Y-114130261D01*
X147740476Y-114244594D01*
X147651117Y-114419970D01*
X147590290Y-114607173D01*
X147559500Y-114801577D01*
X142086930Y-114801577D01*
X142155051Y-114707816D01*
X142251557Y-114518412D01*
X142317246Y-114316243D01*
X142350500Y-114106287D01*
X142350500Y-113893713D01*
X142317246Y-113683757D01*
X142251557Y-113481588D01*
X142155051Y-113292184D01*
X142155049Y-113292181D01*
X142155048Y-113292179D01*
X142030109Y-113120213D01*
X141879786Y-112969890D01*
X141707820Y-112844951D01*
X141518414Y-112748444D01*
X141518413Y-112748443D01*
X141518412Y-112748443D01*
X141316243Y-112682754D01*
X141316241Y-112682753D01*
X141316240Y-112682753D01*
X141154957Y-112657208D01*
X141106287Y-112649500D01*
X140893713Y-112649500D01*
X140845042Y-112657208D01*
X140683760Y-112682753D01*
X140481585Y-112748444D01*
X140292179Y-112844951D01*
X140120213Y-112969890D01*
X139969890Y-113120213D01*
X139844951Y-113292179D01*
X139748444Y-113481585D01*
X139682753Y-113683760D01*
X139655552Y-113855500D01*
X139649500Y-113893713D01*
X128599202Y-113893713D01*
X128566757Y-113688872D01*
X128566757Y-113688869D01*
X128501095Y-113486782D01*
X128404620Y-113297442D01*
X128279727Y-113125540D01*
X128279723Y-113125535D01*
X128130341Y-112976153D01*
X134389500Y-112976153D01*
X134389500Y-113133846D01*
X134420261Y-113288489D01*
X134420264Y-113288501D01*
X134480602Y-113434172D01*
X134480609Y-113434185D01*
X134568210Y-113565288D01*
X134568213Y-113565292D01*
X134679707Y-113676786D01*
X134679711Y-113676789D01*
X134810814Y-113764390D01*
X134810827Y-113764397D01*
X134956498Y-113824735D01*
X134956503Y-113824737D01*
X135111153Y-113855499D01*
X135111156Y-113855500D01*
X135111158Y-113855500D01*
X135268844Y-113855500D01*
X135268845Y-113855499D01*
X135423497Y-113824737D01*
X135475904Y-113803029D01*
X135545313Y-113774280D01*
X135569172Y-113764397D01*
X135569172Y-113764396D01*
X135569179Y-113764394D01*
X135700289Y-113676789D01*
X135811789Y-113565289D01*
X135899394Y-113434179D01*
X135959737Y-113288497D01*
X135990500Y-113133842D01*
X135990500Y-112976158D01*
X135990500Y-112976155D01*
X135990499Y-112976153D01*
X135970436Y-112875289D01*
X135959737Y-112821503D01*
X135959735Y-112821498D01*
X135899397Y-112675827D01*
X135899390Y-112675814D01*
X135811789Y-112544711D01*
X135811786Y-112544707D01*
X135700292Y-112433213D01*
X135700288Y-112433210D01*
X135625395Y-112383168D01*
X135569185Y-112345609D01*
X135569172Y-112345602D01*
X135425647Y-112286153D01*
X146089500Y-112286153D01*
X146089500Y-112443846D01*
X146120261Y-112598489D01*
X146120264Y-112598501D01*
X146180602Y-112744172D01*
X146180609Y-112744185D01*
X146268210Y-112875288D01*
X146268213Y-112875292D01*
X146379707Y-112986786D01*
X146379711Y-112986789D01*
X146510814Y-113074390D01*
X146510827Y-113074397D01*
X146634287Y-113125535D01*
X146656503Y-113134737D01*
X146811153Y-113165499D01*
X146811156Y-113165500D01*
X146811158Y-113165500D01*
X146968844Y-113165500D01*
X146968845Y-113165499D01*
X147123497Y-113134737D01*
X147269179Y-113074394D01*
X147400289Y-112986789D01*
X147511789Y-112875289D01*
X147599394Y-112744179D01*
X147659737Y-112598497D01*
X147690500Y-112443842D01*
X147690500Y-112286158D01*
X147690500Y-112286155D01*
X147690499Y-112286153D01*
X147682193Y-112244397D01*
X147659737Y-112131503D01*
X147624028Y-112045292D01*
X147599397Y-111985827D01*
X147599390Y-111985814D01*
X147511789Y-111854711D01*
X147511786Y-111854707D01*
X147400292Y-111743213D01*
X147400288Y-111743210D01*
X147269185Y-111655609D01*
X147269172Y-111655602D01*
X147123501Y-111595264D01*
X147123489Y-111595261D01*
X146968845Y-111564500D01*
X146968842Y-111564500D01*
X146811158Y-111564500D01*
X146811155Y-111564500D01*
X146656510Y-111595261D01*
X146656498Y-111595264D01*
X146510827Y-111655602D01*
X146510814Y-111655609D01*
X146379711Y-111743210D01*
X146379707Y-111743213D01*
X146268213Y-111854707D01*
X146268210Y-111854711D01*
X146180609Y-111985814D01*
X146180602Y-111985827D01*
X146120264Y-112131498D01*
X146120261Y-112131510D01*
X146089500Y-112286153D01*
X135425647Y-112286153D01*
X135423501Y-112285264D01*
X135423489Y-112285261D01*
X135268845Y-112254500D01*
X135268842Y-112254500D01*
X135111158Y-112254500D01*
X135111155Y-112254500D01*
X134956510Y-112285261D01*
X134956498Y-112285264D01*
X134810827Y-112345602D01*
X134810814Y-112345609D01*
X134679711Y-112433210D01*
X134679707Y-112433213D01*
X134568213Y-112544707D01*
X134568210Y-112544711D01*
X134480609Y-112675814D01*
X134480602Y-112675827D01*
X134420264Y-112821498D01*
X134420261Y-112821510D01*
X134389500Y-112976153D01*
X128130341Y-112976153D01*
X128129464Y-112975276D01*
X128129459Y-112975272D01*
X127957557Y-112850379D01*
X127768215Y-112753903D01*
X127566124Y-112688241D01*
X127500000Y-112677768D01*
X127500000Y-113721988D01*
X127442993Y-113689075D01*
X127315826Y-113655000D01*
X127184174Y-113655000D01*
X127057007Y-113689075D01*
X127000000Y-113721988D01*
X127000000Y-112677768D01*
X126999999Y-112677768D01*
X126933875Y-112688241D01*
X126731784Y-112753903D01*
X126542442Y-112850379D01*
X126370541Y-112975271D01*
X126231668Y-113114144D01*
X126170345Y-113147628D01*
X126100653Y-113142644D01*
X126044720Y-113100772D01*
X126038448Y-113091558D01*
X125973826Y-112986789D01*
X125942712Y-112936344D01*
X125818656Y-112812288D01*
X125669334Y-112720186D01*
X125502797Y-112665001D01*
X125502795Y-112665000D01*
X125400010Y-112654500D01*
X124099998Y-112654500D01*
X124099981Y-112654501D01*
X123997203Y-112665000D01*
X123997200Y-112665001D01*
X123830668Y-112720185D01*
X123830663Y-112720187D01*
X123681342Y-112812289D01*
X123557289Y-112936342D01*
X123465187Y-113085663D01*
X123465185Y-113085668D01*
X123460180Y-113100772D01*
X123410001Y-113252203D01*
X123410001Y-113252204D01*
X123410000Y-113252204D01*
X123399500Y-113354983D01*
X120500500Y-113354983D01*
X120500500Y-110858653D01*
X148797000Y-110858653D01*
X148797000Y-111016346D01*
X148827761Y-111170989D01*
X148827764Y-111171001D01*
X148888102Y-111316672D01*
X148888109Y-111316685D01*
X148975710Y-111447788D01*
X148975713Y-111447792D01*
X149087207Y-111559286D01*
X149087211Y-111559289D01*
X149218314Y-111646890D01*
X149218327Y-111646897D01*
X149363998Y-111707235D01*
X149364003Y-111707237D01*
X149518653Y-111737999D01*
X149518656Y-111738000D01*
X149518658Y-111738000D01*
X149676344Y-111738000D01*
X149676345Y-111737999D01*
X149830997Y-111707237D01*
X149896579Y-111680071D01*
X149966049Y-111672603D01*
X150028528Y-111703878D01*
X150063420Y-111762687D01*
X150063494Y-111762665D01*
X150063584Y-111762963D01*
X150064180Y-111763967D01*
X150065044Y-111767774D01*
X150065264Y-111768501D01*
X150125602Y-111914172D01*
X150125609Y-111914185D01*
X150213210Y-112045288D01*
X150213213Y-112045292D01*
X150324707Y-112156786D01*
X150324711Y-112156789D01*
X150455814Y-112244390D01*
X150455827Y-112244397D01*
X150601498Y-112304735D01*
X150601503Y-112304737D01*
X150756153Y-112335499D01*
X150756156Y-112335500D01*
X150756158Y-112335500D01*
X150913844Y-112335500D01*
X150913845Y-112335499D01*
X151068497Y-112304737D01*
X151214179Y-112244394D01*
X151345289Y-112156789D01*
X151456789Y-112045289D01*
X151544394Y-111914179D01*
X151604737Y-111768497D01*
X151635500Y-111613842D01*
X151635500Y-111521153D01*
X153499500Y-111521153D01*
X153499500Y-111678846D01*
X153530261Y-111833489D01*
X153530264Y-111833501D01*
X153590602Y-111979172D01*
X153590609Y-111979185D01*
X153678210Y-112110288D01*
X153678213Y-112110292D01*
X153789707Y-112221786D01*
X153789711Y-112221789D01*
X153920814Y-112309390D01*
X153920827Y-112309397D01*
X154008245Y-112345606D01*
X154066503Y-112369737D01*
X154221153Y-112400499D01*
X154221156Y-112400500D01*
X154221158Y-112400500D01*
X154378844Y-112400500D01*
X154378845Y-112400499D01*
X154533497Y-112369737D01*
X154679179Y-112309394D01*
X154810289Y-112221789D01*
X154921789Y-112110289D01*
X155009394Y-111979179D01*
X155069737Y-111833497D01*
X155100500Y-111678842D01*
X155100500Y-111521158D01*
X155100500Y-111521155D01*
X155100499Y-111521153D01*
X155069737Y-111366503D01*
X155049102Y-111316685D01*
X155009397Y-111220827D01*
X155009390Y-111220814D01*
X154921789Y-111089711D01*
X154921786Y-111089707D01*
X154810292Y-110978213D01*
X154810288Y-110978210D01*
X154679185Y-110890609D01*
X154679172Y-110890602D01*
X154533501Y-110830264D01*
X154533489Y-110830261D01*
X154378845Y-110799500D01*
X154378842Y-110799500D01*
X154221158Y-110799500D01*
X154221155Y-110799500D01*
X154066510Y-110830261D01*
X154066498Y-110830264D01*
X153920827Y-110890602D01*
X153920814Y-110890609D01*
X153789711Y-110978210D01*
X153789707Y-110978213D01*
X153678213Y-111089707D01*
X153678210Y-111089711D01*
X153590609Y-111220814D01*
X153590602Y-111220827D01*
X153530264Y-111366498D01*
X153530261Y-111366510D01*
X153499500Y-111521153D01*
X151635500Y-111521153D01*
X151635500Y-111456158D01*
X151635500Y-111456155D01*
X151635499Y-111456153D01*
X151607757Y-111316685D01*
X151604737Y-111301503D01*
X151550682Y-111171001D01*
X151544397Y-111155827D01*
X151544390Y-111155814D01*
X151456789Y-111024711D01*
X151456786Y-111024707D01*
X151345292Y-110913213D01*
X151345288Y-110913210D01*
X151214185Y-110825609D01*
X151214172Y-110825602D01*
X151068501Y-110765264D01*
X151068489Y-110765261D01*
X150913845Y-110734500D01*
X150913842Y-110734500D01*
X150756158Y-110734500D01*
X150756155Y-110734500D01*
X150601510Y-110765261D01*
X150601498Y-110765264D01*
X150535919Y-110792428D01*
X150466450Y-110799897D01*
X150403971Y-110768621D01*
X150369078Y-110709812D01*
X150369006Y-110709835D01*
X150368915Y-110709538D01*
X150368319Y-110708532D01*
X150367453Y-110704717D01*
X150367235Y-110703998D01*
X150306897Y-110558327D01*
X150306890Y-110558314D01*
X150219289Y-110427211D01*
X150219286Y-110427207D01*
X150107792Y-110315713D01*
X150107788Y-110315710D01*
X149976685Y-110228109D01*
X149976672Y-110228102D01*
X149831001Y-110167764D01*
X149830989Y-110167761D01*
X149676345Y-110137000D01*
X149676342Y-110137000D01*
X149518658Y-110137000D01*
X149518655Y-110137000D01*
X149364010Y-110167761D01*
X149363998Y-110167764D01*
X149218327Y-110228102D01*
X149218314Y-110228109D01*
X149087211Y-110315710D01*
X149087207Y-110315713D01*
X148975713Y-110427207D01*
X148975710Y-110427211D01*
X148888109Y-110558314D01*
X148888102Y-110558327D01*
X148827764Y-110703998D01*
X148827761Y-110704010D01*
X148797000Y-110858653D01*
X120500500Y-110858653D01*
X120500500Y-109651153D01*
X139599500Y-109651153D01*
X139599500Y-109808846D01*
X139630261Y-109963489D01*
X139630264Y-109963501D01*
X139690602Y-110109172D01*
X139690609Y-110109185D01*
X139778210Y-110240288D01*
X139778213Y-110240292D01*
X139889707Y-110351786D01*
X139889711Y-110351789D01*
X140020814Y-110439390D01*
X140020827Y-110439397D01*
X140166498Y-110499735D01*
X140166503Y-110499737D01*
X140321153Y-110530499D01*
X140321156Y-110530500D01*
X140321158Y-110530500D01*
X140478844Y-110530500D01*
X140478845Y-110530499D01*
X140633497Y-110499737D01*
X140779179Y-110439394D01*
X140910289Y-110351789D01*
X141021789Y-110240289D01*
X141109394Y-110109179D01*
X141169737Y-109963497D01*
X141200500Y-109808842D01*
X141200500Y-109651158D01*
X141200500Y-109651155D01*
X141200499Y-109651153D01*
X141169738Y-109496510D01*
X141169737Y-109496503D01*
X141169735Y-109496498D01*
X141109397Y-109350827D01*
X141109390Y-109350814D01*
X141021789Y-109219711D01*
X141021786Y-109219707D01*
X140910292Y-109108213D01*
X140910288Y-109108210D01*
X140779185Y-109020609D01*
X140779172Y-109020602D01*
X140633501Y-108960264D01*
X140633489Y-108960261D01*
X140478845Y-108929500D01*
X140478842Y-108929500D01*
X140321158Y-108929500D01*
X140321155Y-108929500D01*
X140166510Y-108960261D01*
X140166498Y-108960264D01*
X140020827Y-109020602D01*
X140020814Y-109020609D01*
X139889711Y-109108210D01*
X139889707Y-109108213D01*
X139778213Y-109219707D01*
X139778210Y-109219711D01*
X139690609Y-109350814D01*
X139690602Y-109350827D01*
X139630264Y-109496498D01*
X139630261Y-109496510D01*
X139599500Y-109651153D01*
X120500500Y-109651153D01*
X120500500Y-107518653D01*
X148174500Y-107518653D01*
X148174500Y-107676346D01*
X148205261Y-107830989D01*
X148205264Y-107831001D01*
X148265602Y-107976672D01*
X148265609Y-107976685D01*
X148353210Y-108107788D01*
X148353213Y-108107792D01*
X148464707Y-108219286D01*
X148464711Y-108219289D01*
X148595814Y-108306890D01*
X148595827Y-108306897D01*
X148741498Y-108367235D01*
X148741503Y-108367237D01*
X148896153Y-108397999D01*
X148896156Y-108398000D01*
X148896158Y-108398000D01*
X149053844Y-108398000D01*
X149053845Y-108397999D01*
X149208497Y-108367237D01*
X149354179Y-108306894D01*
X149485289Y-108219289D01*
X149596789Y-108107789D01*
X149684394Y-107976679D01*
X149744737Y-107830997D01*
X149775500Y-107676342D01*
X149775500Y-107518658D01*
X149775500Y-107518655D01*
X149775499Y-107518653D01*
X149753986Y-107410500D01*
X149744737Y-107364003D01*
X149740508Y-107353793D01*
X149684397Y-107218327D01*
X149684390Y-107218314D01*
X149670083Y-107196902D01*
X149596789Y-107087211D01*
X149596786Y-107087207D01*
X149485292Y-106975713D01*
X149485288Y-106975710D01*
X149354185Y-106888109D01*
X149354172Y-106888102D01*
X149208501Y-106827764D01*
X149208489Y-106827761D01*
X149053845Y-106797000D01*
X149053842Y-106797000D01*
X148896158Y-106797000D01*
X148896155Y-106797000D01*
X148741510Y-106827761D01*
X148741498Y-106827764D01*
X148595827Y-106888102D01*
X148595814Y-106888109D01*
X148464711Y-106975710D01*
X148464707Y-106975713D01*
X148353213Y-107087207D01*
X148353210Y-107087211D01*
X148265609Y-107218314D01*
X148265602Y-107218327D01*
X148205264Y-107363998D01*
X148205261Y-107364010D01*
X148174500Y-107518653D01*
X120500500Y-107518653D01*
X120500500Y-105953753D01*
X150840000Y-105953753D01*
X150840000Y-106166246D01*
X150873242Y-106376127D01*
X150873242Y-106376130D01*
X150938904Y-106578217D01*
X151035375Y-106767550D01*
X151074728Y-106821716D01*
X151707037Y-106189408D01*
X151724075Y-106252993D01*
X151789901Y-106367007D01*
X151882993Y-106460099D01*
X151997007Y-106525925D01*
X152060590Y-106542962D01*
X151428282Y-107175269D01*
X151428282Y-107175270D01*
X151482449Y-107214624D01*
X151671782Y-107311095D01*
X151873870Y-107376757D01*
X152083754Y-107410000D01*
X152296246Y-107410000D01*
X152506127Y-107376757D01*
X152506130Y-107376757D01*
X152708217Y-107311095D01*
X152897554Y-107214622D01*
X152951716Y-107175270D01*
X152951717Y-107175270D01*
X152319408Y-106542962D01*
X152382993Y-106525925D01*
X152497007Y-106460099D01*
X152590099Y-106367007D01*
X152655925Y-106252993D01*
X152672962Y-106189408D01*
X153305270Y-106821717D01*
X153305270Y-106821716D01*
X153344622Y-106767555D01*
X153349232Y-106758507D01*
X153397205Y-106707709D01*
X153465025Y-106690912D01*
X153531161Y-106713447D01*
X153570204Y-106758504D01*
X153574949Y-106767817D01*
X153699890Y-106939786D01*
X153850213Y-107090109D01*
X154022179Y-107215048D01*
X154022181Y-107215049D01*
X154022184Y-107215051D01*
X154211588Y-107311557D01*
X154413757Y-107377246D01*
X154623713Y-107410500D01*
X154623714Y-107410500D01*
X154836286Y-107410500D01*
X154836287Y-107410500D01*
X155046243Y-107377246D01*
X155248412Y-107311557D01*
X155437816Y-107215051D01*
X155609792Y-107090104D01*
X155723329Y-106976566D01*
X155784648Y-106943084D01*
X155854340Y-106948068D01*
X155910274Y-106989939D01*
X155927189Y-107020917D01*
X155976202Y-107152328D01*
X155976206Y-107152335D01*
X156062452Y-107267544D01*
X156062455Y-107267547D01*
X156177664Y-107353793D01*
X156177671Y-107353797D01*
X156312517Y-107404091D01*
X156312516Y-107404091D01*
X156319444Y-107404835D01*
X156372127Y-107410500D01*
X158167872Y-107410499D01*
X158227483Y-107404091D01*
X158362331Y-107353796D01*
X158477546Y-107267546D01*
X158563796Y-107152331D01*
X158614091Y-107017483D01*
X158620500Y-106957873D01*
X158620499Y-105162128D01*
X158614091Y-105102517D01*
X158612810Y-105099083D01*
X158563797Y-104967671D01*
X158563793Y-104967664D01*
X158477547Y-104852455D01*
X158477544Y-104852452D01*
X158362335Y-104766206D01*
X158362328Y-104766202D01*
X158227482Y-104715908D01*
X158227483Y-104715908D01*
X158167883Y-104709501D01*
X158167881Y-104709500D01*
X158167873Y-104709500D01*
X158167864Y-104709500D01*
X156372129Y-104709500D01*
X156372123Y-104709501D01*
X156312516Y-104715908D01*
X156177671Y-104766202D01*
X156177664Y-104766206D01*
X156062455Y-104852452D01*
X156062452Y-104852455D01*
X155976206Y-104967664D01*
X155976203Y-104967669D01*
X155927189Y-105099083D01*
X155885317Y-105155016D01*
X155819853Y-105179433D01*
X155751580Y-105164581D01*
X155723326Y-105143430D01*
X155609786Y-105029890D01*
X155437820Y-104904951D01*
X155248414Y-104808444D01*
X155248413Y-104808443D01*
X155248412Y-104808443D01*
X155046243Y-104742754D01*
X155046241Y-104742753D01*
X155046240Y-104742753D01*
X154884957Y-104717208D01*
X154836287Y-104709500D01*
X154623713Y-104709500D01*
X154575042Y-104717208D01*
X154413760Y-104742753D01*
X154211585Y-104808444D01*
X154022179Y-104904951D01*
X153850213Y-105029890D01*
X153699890Y-105180213D01*
X153574949Y-105352182D01*
X153570202Y-105361499D01*
X153522227Y-105412293D01*
X153454405Y-105429087D01*
X153388271Y-105406548D01*
X153349234Y-105361495D01*
X153344626Y-105352452D01*
X153305270Y-105298282D01*
X153305269Y-105298282D01*
X152672962Y-105930590D01*
X152655925Y-105867007D01*
X152590099Y-105752993D01*
X152497007Y-105659901D01*
X152382993Y-105594075D01*
X152319409Y-105577037D01*
X152951716Y-104944728D01*
X152897550Y-104905375D01*
X152708217Y-104808904D01*
X152506129Y-104743242D01*
X152296246Y-104710000D01*
X152083754Y-104710000D01*
X151873872Y-104743242D01*
X151873869Y-104743242D01*
X151671782Y-104808904D01*
X151482439Y-104905380D01*
X151428282Y-104944727D01*
X151428282Y-104944728D01*
X152060591Y-105577037D01*
X151997007Y-105594075D01*
X151882993Y-105659901D01*
X151789901Y-105752993D01*
X151724075Y-105867007D01*
X151707037Y-105930590D01*
X151074728Y-105298282D01*
X151074727Y-105298282D01*
X151035380Y-105352439D01*
X150938904Y-105541782D01*
X150873242Y-105743869D01*
X150873242Y-105743872D01*
X150840000Y-105953753D01*
X120500500Y-105953753D01*
X120500500Y-99411577D01*
X146729500Y-99411577D01*
X146729500Y-99608422D01*
X146760290Y-99802826D01*
X146821117Y-99990029D01*
X146910476Y-100165405D01*
X147026172Y-100324646D01*
X147165354Y-100463828D01*
X147324595Y-100579524D01*
X147407455Y-100621743D01*
X147499970Y-100668882D01*
X147499972Y-100668882D01*
X147499975Y-100668884D01*
X147600317Y-100701487D01*
X147687173Y-100729709D01*
X147881578Y-100760500D01*
X147881583Y-100760500D01*
X148078422Y-100760500D01*
X148272826Y-100729709D01*
X148460025Y-100668884D01*
X148635405Y-100579524D01*
X148794646Y-100463828D01*
X148933828Y-100324646D01*
X149049524Y-100165405D01*
X149138884Y-99990025D01*
X149199709Y-99802826D01*
X149230500Y-99608422D01*
X149230500Y-99411577D01*
X149199709Y-99217173D01*
X149138882Y-99029970D01*
X149049523Y-98854594D01*
X148933828Y-98695354D01*
X148794646Y-98556172D01*
X148635405Y-98440476D01*
X148460029Y-98351117D01*
X148272826Y-98290290D01*
X148078422Y-98259500D01*
X148078417Y-98259500D01*
X147881583Y-98259500D01*
X147881578Y-98259500D01*
X147687173Y-98290290D01*
X147499970Y-98351117D01*
X147324594Y-98440476D01*
X147233741Y-98506485D01*
X147165354Y-98556172D01*
X147165352Y-98556174D01*
X147165351Y-98556174D01*
X147026174Y-98695351D01*
X147026174Y-98695352D01*
X147026172Y-98695354D01*
X146976485Y-98763741D01*
X146910476Y-98854594D01*
X146821117Y-99029970D01*
X146760290Y-99217173D01*
X146729500Y-99411577D01*
X120500500Y-99411577D01*
X120500500Y-97521153D01*
X141199500Y-97521153D01*
X141199500Y-97678846D01*
X141230261Y-97833489D01*
X141230264Y-97833501D01*
X141290602Y-97979172D01*
X141290609Y-97979185D01*
X141378210Y-98110288D01*
X141378213Y-98110292D01*
X141489707Y-98221786D01*
X141489711Y-98221789D01*
X141620814Y-98309390D01*
X141620827Y-98309397D01*
X141766498Y-98369735D01*
X141766503Y-98369737D01*
X141921153Y-98400499D01*
X141921156Y-98400500D01*
X141921158Y-98400500D01*
X142078844Y-98400500D01*
X142078845Y-98400499D01*
X142233497Y-98369737D01*
X142379179Y-98309394D01*
X142510289Y-98221789D01*
X142621789Y-98110289D01*
X142709394Y-97979179D01*
X142769737Y-97833497D01*
X142800500Y-97678842D01*
X142800500Y-97521158D01*
X142800500Y-97521155D01*
X142800499Y-97521153D01*
X142769737Y-97366503D01*
X142728314Y-97266498D01*
X142709397Y-97220827D01*
X142709390Y-97220814D01*
X142621789Y-97089711D01*
X142621786Y-97089707D01*
X142510292Y-96978213D01*
X142510288Y-96978210D01*
X142379185Y-96890609D01*
X142379172Y-96890602D01*
X142233501Y-96830264D01*
X142233489Y-96830261D01*
X142078845Y-96799500D01*
X142078842Y-96799500D01*
X141921158Y-96799500D01*
X141921155Y-96799500D01*
X141766510Y-96830261D01*
X141766498Y-96830264D01*
X141620827Y-96890602D01*
X141620814Y-96890609D01*
X141489711Y-96978210D01*
X141489707Y-96978213D01*
X141378213Y-97089707D01*
X141378210Y-97089711D01*
X141290609Y-97220814D01*
X141290602Y-97220827D01*
X141230264Y-97366498D01*
X141230261Y-97366510D01*
X141199500Y-97521153D01*
X120500500Y-97521153D01*
X120500500Y-95921153D01*
X145299500Y-95921153D01*
X145299500Y-96078846D01*
X145330261Y-96233489D01*
X145330264Y-96233501D01*
X145390602Y-96379172D01*
X145390609Y-96379185D01*
X145478210Y-96510288D01*
X145478213Y-96510292D01*
X145589707Y-96621786D01*
X145589711Y-96621789D01*
X145720814Y-96709390D01*
X145720827Y-96709397D01*
X145866498Y-96769735D01*
X145866503Y-96769737D01*
X146016131Y-96799500D01*
X146021153Y-96800499D01*
X146021156Y-96800500D01*
X146021158Y-96800500D01*
X146178844Y-96800500D01*
X146178845Y-96800499D01*
X146333497Y-96769737D01*
X146449255Y-96721789D01*
X146479172Y-96709397D01*
X146479172Y-96709396D01*
X146479179Y-96709394D01*
X146610289Y-96621789D01*
X146721789Y-96510289D01*
X146809394Y-96379179D01*
X146869737Y-96233497D01*
X146900500Y-96078842D01*
X146900500Y-96021153D01*
X148799500Y-96021153D01*
X148799500Y-96178846D01*
X148830261Y-96333489D01*
X148830264Y-96333501D01*
X148890602Y-96479172D01*
X148890609Y-96479185D01*
X148978210Y-96610288D01*
X148978213Y-96610292D01*
X149080240Y-96712319D01*
X149113725Y-96773642D01*
X149108741Y-96843334D01*
X149080240Y-96887681D01*
X148978213Y-96989707D01*
X148978210Y-96989711D01*
X148890609Y-97120814D01*
X148890602Y-97120827D01*
X148830264Y-97266498D01*
X148830261Y-97266510D01*
X148799500Y-97421153D01*
X148799500Y-97578846D01*
X148830261Y-97733489D01*
X148830264Y-97733501D01*
X148890602Y-97879172D01*
X148890609Y-97879185D01*
X148978210Y-98010288D01*
X148978213Y-98010292D01*
X149089707Y-98121786D01*
X149089711Y-98121789D01*
X149220814Y-98209390D01*
X149220827Y-98209397D01*
X149366498Y-98269735D01*
X149366503Y-98269737D01*
X149521153Y-98300499D01*
X149521156Y-98300500D01*
X149521158Y-98300500D01*
X149678844Y-98300500D01*
X149678845Y-98300499D01*
X149833497Y-98269737D01*
X149979179Y-98209394D01*
X150110289Y-98121789D01*
X150221789Y-98010289D01*
X150309394Y-97879179D01*
X150369737Y-97733497D01*
X150400500Y-97578842D01*
X150400500Y-97421158D01*
X150400500Y-97421155D01*
X150400499Y-97421153D01*
X150369738Y-97266510D01*
X150369737Y-97266503D01*
X150350812Y-97220814D01*
X150309397Y-97120827D01*
X150309390Y-97120814D01*
X150221789Y-96989711D01*
X150221786Y-96989707D01*
X150119760Y-96887681D01*
X150086275Y-96826358D01*
X150091259Y-96756666D01*
X150119760Y-96712319D01*
X150221786Y-96610292D01*
X150221789Y-96610289D01*
X150309394Y-96479179D01*
X150369737Y-96333497D01*
X150400500Y-96178842D01*
X150400500Y-96021158D01*
X150400500Y-96021155D01*
X150400499Y-96021153D01*
X150369737Y-95866503D01*
X150328314Y-95766498D01*
X150309397Y-95720827D01*
X150309390Y-95720814D01*
X150265767Y-95655528D01*
X150244889Y-95588851D01*
X150263373Y-95521470D01*
X150315352Y-95474780D01*
X150384322Y-95463604D01*
X150393061Y-95465020D01*
X150521155Y-95490500D01*
X150521158Y-95490500D01*
X150678844Y-95490500D01*
X150678845Y-95490499D01*
X150833497Y-95459737D01*
X150979179Y-95399394D01*
X151110289Y-95311789D01*
X151221789Y-95200289D01*
X151309394Y-95069179D01*
X151369737Y-94923497D01*
X151400500Y-94768842D01*
X151400500Y-94737126D01*
X154519500Y-94737126D01*
X154519500Y-94894819D01*
X154550261Y-95049462D01*
X154550264Y-95049474D01*
X154610602Y-95195145D01*
X154610609Y-95195158D01*
X154698210Y-95326261D01*
X154698213Y-95326265D01*
X154809707Y-95437759D01*
X154809711Y-95437762D01*
X154940814Y-95525363D01*
X154940827Y-95525370D01*
X155086498Y-95585708D01*
X155086503Y-95585710D01*
X155241153Y-95616472D01*
X155241156Y-95616473D01*
X155241158Y-95616473D01*
X155398844Y-95616473D01*
X155398845Y-95616472D01*
X155553497Y-95585710D01*
X155699179Y-95525367D01*
X155830289Y-95437762D01*
X155941789Y-95326262D01*
X156029394Y-95195152D01*
X156089737Y-95049470D01*
X156120500Y-94894815D01*
X156120500Y-94737131D01*
X156120500Y-94737128D01*
X156120499Y-94737126D01*
X156095442Y-94611158D01*
X156089737Y-94582476D01*
X156037556Y-94456498D01*
X156029397Y-94436800D01*
X156029390Y-94436787D01*
X155941789Y-94305684D01*
X155941786Y-94305680D01*
X155830292Y-94194186D01*
X155830288Y-94194183D01*
X155699185Y-94106582D01*
X155699172Y-94106575D01*
X155553501Y-94046237D01*
X155553489Y-94046234D01*
X155398845Y-94015473D01*
X155398842Y-94015473D01*
X155241158Y-94015473D01*
X155241155Y-94015473D01*
X155086510Y-94046234D01*
X155086498Y-94046237D01*
X154940827Y-94106575D01*
X154940814Y-94106582D01*
X154809711Y-94194183D01*
X154809707Y-94194186D01*
X154698213Y-94305680D01*
X154698210Y-94305684D01*
X154610609Y-94436787D01*
X154610602Y-94436800D01*
X154550264Y-94582471D01*
X154550261Y-94582483D01*
X154519500Y-94737126D01*
X151400500Y-94737126D01*
X151400500Y-94611158D01*
X151400500Y-94611155D01*
X151400499Y-94611153D01*
X151369738Y-94456510D01*
X151369737Y-94456503D01*
X151361573Y-94436794D01*
X151309397Y-94310827D01*
X151309390Y-94310814D01*
X151221789Y-94179711D01*
X151221786Y-94179707D01*
X151110292Y-94068213D01*
X151110288Y-94068210D01*
X150979185Y-93980609D01*
X150979172Y-93980602D01*
X150833501Y-93920264D01*
X150833489Y-93920261D01*
X150678845Y-93889500D01*
X150678842Y-93889500D01*
X150521158Y-93889500D01*
X150521155Y-93889500D01*
X150366510Y-93920261D01*
X150366498Y-93920264D01*
X150220827Y-93980602D01*
X150220814Y-93980609D01*
X150089711Y-94068210D01*
X150089707Y-94068213D01*
X149978213Y-94179707D01*
X149978210Y-94179711D01*
X149890609Y-94310814D01*
X149890602Y-94310827D01*
X149830264Y-94456498D01*
X149830261Y-94456510D01*
X149799500Y-94611153D01*
X149799500Y-94768846D01*
X149830261Y-94923489D01*
X149830264Y-94923501D01*
X149890602Y-95069172D01*
X149890609Y-95069185D01*
X149934232Y-95134471D01*
X149955110Y-95201149D01*
X149936625Y-95268529D01*
X149884646Y-95315219D01*
X149815676Y-95326395D01*
X149806939Y-95324979D01*
X149678846Y-95299500D01*
X149678842Y-95299500D01*
X149521158Y-95299500D01*
X149521155Y-95299500D01*
X149366510Y-95330261D01*
X149366498Y-95330264D01*
X149220827Y-95390602D01*
X149220814Y-95390609D01*
X149089711Y-95478210D01*
X149089707Y-95478213D01*
X148978213Y-95589707D01*
X148978210Y-95589711D01*
X148890609Y-95720814D01*
X148890602Y-95720827D01*
X148830264Y-95866498D01*
X148830261Y-95866510D01*
X148799500Y-96021153D01*
X146900500Y-96021153D01*
X146900500Y-95921158D01*
X146900500Y-95921155D01*
X146900499Y-95921153D01*
X146869738Y-95766510D01*
X146869737Y-95766503D01*
X146823770Y-95655528D01*
X146809397Y-95620827D01*
X146809390Y-95620814D01*
X146721789Y-95489711D01*
X146721786Y-95489707D01*
X146610292Y-95378213D01*
X146610288Y-95378210D01*
X146479185Y-95290609D01*
X146479172Y-95290602D01*
X146333501Y-95230264D01*
X146333489Y-95230261D01*
X146178845Y-95199500D01*
X146178842Y-95199500D01*
X146021158Y-95199500D01*
X146021155Y-95199500D01*
X145866510Y-95230261D01*
X145866498Y-95230264D01*
X145720827Y-95290602D01*
X145720814Y-95290609D01*
X145589711Y-95378210D01*
X145589707Y-95378213D01*
X145478213Y-95489707D01*
X145478210Y-95489711D01*
X145390609Y-95620814D01*
X145390602Y-95620827D01*
X145330264Y-95766498D01*
X145330261Y-95766510D01*
X145299500Y-95921153D01*
X120500500Y-95921153D01*
X120500500Y-93281689D01*
X144609377Y-93281689D01*
X144609377Y-93439382D01*
X144640138Y-93594025D01*
X144640141Y-93594037D01*
X144700479Y-93739708D01*
X144700486Y-93739721D01*
X144788087Y-93870824D01*
X144788090Y-93870828D01*
X144899584Y-93982322D01*
X144899588Y-93982325D01*
X145030691Y-94069926D01*
X145030704Y-94069933D01*
X145119177Y-94106579D01*
X145176380Y-94130273D01*
X145331030Y-94161035D01*
X145331033Y-94161036D01*
X145331035Y-94161036D01*
X145488721Y-94161036D01*
X145488722Y-94161035D01*
X145643374Y-94130273D01*
X145789056Y-94069930D01*
X145920166Y-93982325D01*
X146031666Y-93870825D01*
X146119271Y-93739715D01*
X146179614Y-93594033D01*
X146210377Y-93439378D01*
X146210377Y-93281694D01*
X146210377Y-93281691D01*
X146210376Y-93281689D01*
X146179615Y-93127046D01*
X146179614Y-93127039D01*
X146179612Y-93127034D01*
X146119274Y-92981363D01*
X146119267Y-92981350D01*
X146031666Y-92850247D01*
X146031663Y-92850243D01*
X145920169Y-92738749D01*
X145920165Y-92738746D01*
X145789062Y-92651145D01*
X145789049Y-92651138D01*
X145643378Y-92590800D01*
X145643366Y-92590797D01*
X145488722Y-92560036D01*
X145488719Y-92560036D01*
X145331035Y-92560036D01*
X145331032Y-92560036D01*
X145176387Y-92590797D01*
X145176375Y-92590800D01*
X145030704Y-92651138D01*
X145030691Y-92651145D01*
X144899588Y-92738746D01*
X144899584Y-92738749D01*
X144788090Y-92850243D01*
X144788087Y-92850247D01*
X144700486Y-92981350D01*
X144700479Y-92981363D01*
X144640141Y-93127034D01*
X144640138Y-93127046D01*
X144609377Y-93281689D01*
X120500500Y-93281689D01*
X120500500Y-88960326D01*
X142557100Y-88960326D01*
X142557100Y-89118019D01*
X142587861Y-89272662D01*
X142587864Y-89272674D01*
X142648202Y-89418345D01*
X142648209Y-89418358D01*
X142735810Y-89549461D01*
X142735813Y-89549465D01*
X142847307Y-89660959D01*
X142847311Y-89660962D01*
X142978414Y-89748563D01*
X142978427Y-89748570D01*
X143124098Y-89808908D01*
X143124103Y-89808910D01*
X143278753Y-89839672D01*
X143278756Y-89839673D01*
X143278758Y-89839673D01*
X143436444Y-89839673D01*
X143436445Y-89839672D01*
X143591097Y-89808910D01*
X143736779Y-89748567D01*
X143867889Y-89660962D01*
X143979389Y-89549462D01*
X144066994Y-89418352D01*
X144074814Y-89399474D01*
X144127335Y-89272674D01*
X144127337Y-89272670D01*
X144127639Y-89271153D01*
X155949500Y-89271153D01*
X155949500Y-89428846D01*
X155980261Y-89583489D01*
X155980264Y-89583501D01*
X156040602Y-89729172D01*
X156040609Y-89729185D01*
X156128210Y-89860288D01*
X156128213Y-89860292D01*
X156239707Y-89971786D01*
X156239711Y-89971789D01*
X156370814Y-90059390D01*
X156370827Y-90059397D01*
X156516498Y-90119735D01*
X156516503Y-90119737D01*
X156671153Y-90150499D01*
X156671156Y-90150500D01*
X156671158Y-90150500D01*
X156828844Y-90150500D01*
X156828845Y-90150499D01*
X156983497Y-90119737D01*
X157129179Y-90059394D01*
X157260289Y-89971789D01*
X157305185Y-89926892D01*
X157366507Y-89893407D01*
X157436198Y-89898391D01*
X157440318Y-89900012D01*
X157526498Y-89935708D01*
X157526503Y-89935710D01*
X157681153Y-89966472D01*
X157681156Y-89966473D01*
X157681158Y-89966473D01*
X157838844Y-89966473D01*
X157838845Y-89966472D01*
X157993497Y-89935710D01*
X158139179Y-89875367D01*
X158270289Y-89787762D01*
X158381789Y-89676262D01*
X158469394Y-89545152D01*
X158529737Y-89399470D01*
X158560500Y-89244815D01*
X158560500Y-89087131D01*
X158560500Y-89087128D01*
X158560499Y-89087126D01*
X158529737Y-88932476D01*
X158477218Y-88805683D01*
X158469397Y-88786800D01*
X158469390Y-88786787D01*
X158381789Y-88655684D01*
X158381786Y-88655680D01*
X158270292Y-88544186D01*
X158270288Y-88544183D01*
X158139185Y-88456582D01*
X158139172Y-88456575D01*
X157993501Y-88396237D01*
X157993489Y-88396234D01*
X157838845Y-88365473D01*
X157838842Y-88365473D01*
X157681158Y-88365473D01*
X157681155Y-88365473D01*
X157526510Y-88396234D01*
X157526498Y-88396237D01*
X157380827Y-88456575D01*
X157380814Y-88456582D01*
X157249714Y-88544181D01*
X157249708Y-88544185D01*
X157204811Y-88589082D01*
X157143488Y-88622566D01*
X157073796Y-88617580D01*
X157069680Y-88615960D01*
X156983501Y-88580264D01*
X156983489Y-88580261D01*
X156828845Y-88549500D01*
X156828842Y-88549500D01*
X156671158Y-88549500D01*
X156671155Y-88549500D01*
X156516510Y-88580261D01*
X156516498Y-88580264D01*
X156370827Y-88640602D01*
X156370814Y-88640609D01*
X156239711Y-88728210D01*
X156239707Y-88728213D01*
X156128213Y-88839707D01*
X156128210Y-88839711D01*
X156040609Y-88970814D01*
X156040602Y-88970827D01*
X155980264Y-89116498D01*
X155980261Y-89116510D01*
X155949500Y-89271153D01*
X144127639Y-89271153D01*
X144132877Y-89244819D01*
X144133662Y-89240875D01*
X144158099Y-89118019D01*
X144158100Y-89118017D01*
X144158100Y-88960328D01*
X144158099Y-88960326D01*
X144127338Y-88805683D01*
X144127337Y-88805676D01*
X144095250Y-88728210D01*
X144066997Y-88660000D01*
X144066990Y-88659987D01*
X143979389Y-88528884D01*
X143979386Y-88528880D01*
X143867892Y-88417386D01*
X143867888Y-88417383D01*
X143736785Y-88329782D01*
X143736772Y-88329775D01*
X143591101Y-88269437D01*
X143591089Y-88269434D01*
X143436445Y-88238673D01*
X143436442Y-88238673D01*
X143278758Y-88238673D01*
X143278755Y-88238673D01*
X143124110Y-88269434D01*
X143124098Y-88269437D01*
X142978427Y-88329775D01*
X142978414Y-88329782D01*
X142847311Y-88417383D01*
X142847307Y-88417386D01*
X142735813Y-88528880D01*
X142735810Y-88528884D01*
X142648209Y-88659987D01*
X142648202Y-88660000D01*
X142587864Y-88805671D01*
X142587861Y-88805683D01*
X142557100Y-88960326D01*
X120500500Y-88960326D01*
X120500500Y-86621153D01*
X124099500Y-86621153D01*
X124099500Y-86778846D01*
X124130261Y-86933489D01*
X124130264Y-86933501D01*
X124190602Y-87079172D01*
X124190609Y-87079185D01*
X124278210Y-87210288D01*
X124278213Y-87210292D01*
X124389707Y-87321786D01*
X124389711Y-87321789D01*
X124520814Y-87409390D01*
X124520827Y-87409397D01*
X124666498Y-87469735D01*
X124666503Y-87469737D01*
X124821153Y-87500499D01*
X124821156Y-87500500D01*
X124821158Y-87500500D01*
X124978844Y-87500500D01*
X124978845Y-87500499D01*
X125133497Y-87469737D01*
X125279179Y-87409394D01*
X125410289Y-87321789D01*
X125521789Y-87210289D01*
X125609394Y-87079179D01*
X125669737Y-86933497D01*
X125700500Y-86778842D01*
X125700500Y-86775926D01*
X142557100Y-86775926D01*
X142557100Y-86933619D01*
X142587861Y-87088262D01*
X142587864Y-87088274D01*
X142648202Y-87233945D01*
X142648209Y-87233958D01*
X142735810Y-87365061D01*
X142735813Y-87365065D01*
X142847307Y-87476559D01*
X142847311Y-87476562D01*
X142978414Y-87564163D01*
X142978427Y-87564170D01*
X143124098Y-87624508D01*
X143124103Y-87624510D01*
X143278753Y-87655272D01*
X143278756Y-87655273D01*
X143278758Y-87655273D01*
X143436444Y-87655273D01*
X143436445Y-87655272D01*
X143591097Y-87624510D01*
X143736779Y-87564167D01*
X143867889Y-87476562D01*
X143979389Y-87365062D01*
X144066994Y-87233952D01*
X144127337Y-87088270D01*
X144158100Y-86933615D01*
X144158100Y-86775931D01*
X144158100Y-86775928D01*
X144143573Y-86702898D01*
X144144737Y-86689893D01*
X155579499Y-86689893D01*
X155608340Y-86834880D01*
X155608343Y-86834890D01*
X155664912Y-86971461D01*
X155664919Y-86971474D01*
X155747048Y-87094388D01*
X155747051Y-87094392D01*
X155851580Y-87198921D01*
X155851584Y-87198924D01*
X155974498Y-87281053D01*
X155974511Y-87281060D01*
X156111082Y-87337629D01*
X156111087Y-87337631D01*
X156111091Y-87337631D01*
X156111092Y-87337632D01*
X156256079Y-87366473D01*
X156256082Y-87366473D01*
X156403920Y-87366473D01*
X156501462Y-87347069D01*
X156548913Y-87337631D01*
X156685495Y-87281057D01*
X156808416Y-87198924D01*
X156912951Y-87094389D01*
X156995084Y-86971468D01*
X157051658Y-86834886D01*
X157080500Y-86689891D01*
X157080500Y-86542055D01*
X157080500Y-86542052D01*
X157051659Y-86397065D01*
X157051658Y-86397064D01*
X157051658Y-86397060D01*
X157051656Y-86397055D01*
X156995087Y-86260484D01*
X156995080Y-86260471D01*
X156912951Y-86137557D01*
X156912948Y-86137553D01*
X156808419Y-86033024D01*
X156808415Y-86033021D01*
X156685501Y-85950892D01*
X156685488Y-85950885D01*
X156548917Y-85894316D01*
X156548907Y-85894313D01*
X156403920Y-85865473D01*
X156403918Y-85865473D01*
X156256082Y-85865473D01*
X156256080Y-85865473D01*
X156111092Y-85894313D01*
X156111082Y-85894316D01*
X155974511Y-85950885D01*
X155974498Y-85950892D01*
X155851584Y-86033021D01*
X155851580Y-86033024D01*
X155747051Y-86137553D01*
X155747048Y-86137557D01*
X155664919Y-86260471D01*
X155664912Y-86260484D01*
X155608343Y-86397055D01*
X155608340Y-86397065D01*
X155579500Y-86542052D01*
X155579500Y-86542055D01*
X155579500Y-86689891D01*
X155579500Y-86689893D01*
X155579499Y-86689893D01*
X144144737Y-86689893D01*
X144149800Y-86633306D01*
X144192663Y-86578129D01*
X144258552Y-86554884D01*
X144289382Y-86557089D01*
X144292502Y-86557709D01*
X144292503Y-86557710D01*
X144327531Y-86564677D01*
X144447155Y-86588473D01*
X144447158Y-86588473D01*
X144604844Y-86588473D01*
X144604845Y-86588472D01*
X144759497Y-86557710D01*
X144905179Y-86497367D01*
X144951360Y-86466510D01*
X145001720Y-86432861D01*
X145023110Y-86418568D01*
X145036289Y-86409762D01*
X145147789Y-86298262D01*
X145235394Y-86167152D01*
X145295737Y-86021470D01*
X145326500Y-85866815D01*
X145326500Y-85709131D01*
X145326500Y-85709128D01*
X145326499Y-85709126D01*
X145303939Y-85595710D01*
X145295737Y-85554476D01*
X145235414Y-85408842D01*
X145235397Y-85408800D01*
X145235390Y-85408787D01*
X145172026Y-85313957D01*
X145172025Y-85313955D01*
X145147792Y-85277688D01*
X145147786Y-85277680D01*
X145121259Y-85251153D01*
X147419500Y-85251153D01*
X147419500Y-85408846D01*
X147450261Y-85563489D01*
X147450264Y-85563501D01*
X147510602Y-85709172D01*
X147510609Y-85709185D01*
X147598210Y-85840288D01*
X147598213Y-85840292D01*
X147709707Y-85951786D01*
X147709711Y-85951789D01*
X147840814Y-86039390D01*
X147840827Y-86039397D01*
X147986498Y-86099735D01*
X147986503Y-86099737D01*
X148141153Y-86130499D01*
X148141156Y-86130500D01*
X148141158Y-86130500D01*
X148298844Y-86130500D01*
X148298845Y-86130499D01*
X148453497Y-86099737D01*
X148599179Y-86039394D01*
X148730289Y-85951789D01*
X148841789Y-85840289D01*
X148929394Y-85709179D01*
X148989737Y-85563497D01*
X149020500Y-85408842D01*
X149020500Y-85251158D01*
X149020500Y-85251155D01*
X149020499Y-85251153D01*
X149003598Y-85166186D01*
X148989737Y-85096503D01*
X148974394Y-85059462D01*
X148929397Y-84950827D01*
X148929390Y-84950814D01*
X148841788Y-84819709D01*
X148769205Y-84747126D01*
X150809500Y-84747126D01*
X150809500Y-84904819D01*
X150840261Y-85059462D01*
X150840264Y-85059474D01*
X150900602Y-85205145D01*
X150900609Y-85205158D01*
X150988210Y-85336261D01*
X150988213Y-85336265D01*
X151099707Y-85447759D01*
X151099711Y-85447762D01*
X151230814Y-85535363D01*
X151230827Y-85535370D01*
X151376498Y-85595708D01*
X151376503Y-85595710D01*
X151531153Y-85626472D01*
X151531156Y-85626473D01*
X151531158Y-85626473D01*
X151688844Y-85626473D01*
X151688845Y-85626472D01*
X151843497Y-85595710D01*
X151989179Y-85535367D01*
X152120289Y-85447762D01*
X152231789Y-85336262D01*
X152319394Y-85205152D01*
X152379737Y-85059470D01*
X152410500Y-84904815D01*
X152410500Y-84747131D01*
X152410500Y-84747128D01*
X152410499Y-84747126D01*
X152385332Y-84620606D01*
X152379737Y-84592476D01*
X152379735Y-84592471D01*
X152319397Y-84446800D01*
X152319390Y-84446787D01*
X152231789Y-84315684D01*
X152231786Y-84315680D01*
X152120292Y-84204186D01*
X152120288Y-84204183D01*
X151989185Y-84116582D01*
X151989172Y-84116575D01*
X151843501Y-84056237D01*
X151843489Y-84056234D01*
X151688845Y-84025473D01*
X151688842Y-84025473D01*
X151531158Y-84025473D01*
X151531155Y-84025473D01*
X151376510Y-84056234D01*
X151376498Y-84056237D01*
X151230827Y-84116575D01*
X151230814Y-84116582D01*
X151099711Y-84204183D01*
X151099707Y-84204186D01*
X150988213Y-84315680D01*
X150988210Y-84315684D01*
X150900609Y-84446787D01*
X150900602Y-84446800D01*
X150840264Y-84592471D01*
X150840261Y-84592483D01*
X150809500Y-84747126D01*
X148769205Y-84747126D01*
X148730292Y-84708213D01*
X148730288Y-84708210D01*
X148599185Y-84620609D01*
X148599172Y-84620602D01*
X148453501Y-84560264D01*
X148453489Y-84560261D01*
X148298845Y-84529500D01*
X148298842Y-84529500D01*
X148141158Y-84529500D01*
X148141155Y-84529500D01*
X147986510Y-84560261D01*
X147986498Y-84560264D01*
X147840827Y-84620602D01*
X147840814Y-84620609D01*
X147709711Y-84708210D01*
X147709707Y-84708213D01*
X147598215Y-84819706D01*
X147598210Y-84819711D01*
X147510609Y-84950814D01*
X147510602Y-84950827D01*
X147450264Y-85096498D01*
X147450261Y-85096510D01*
X147419500Y-85251153D01*
X145121259Y-85251153D01*
X145036292Y-85166186D01*
X145036288Y-85166183D01*
X144905185Y-85078582D01*
X144905172Y-85078575D01*
X144759501Y-85018237D01*
X144759489Y-85018234D01*
X144604845Y-84987473D01*
X144604842Y-84987473D01*
X144447158Y-84987473D01*
X144447155Y-84987473D01*
X144292510Y-85018234D01*
X144292498Y-85018237D01*
X144146827Y-85078575D01*
X144146814Y-85078582D01*
X144015711Y-85166183D01*
X144015707Y-85166186D01*
X143904213Y-85277680D01*
X143904210Y-85277684D01*
X143816609Y-85408787D01*
X143816602Y-85408800D01*
X143756264Y-85554471D01*
X143756261Y-85554483D01*
X143725500Y-85709126D01*
X143725500Y-85709131D01*
X143725500Y-85866815D01*
X143734218Y-85910643D01*
X143740027Y-85939848D01*
X143733799Y-86009440D01*
X143690935Y-86064617D01*
X143625045Y-86087861D01*
X143594218Y-86085656D01*
X143436445Y-86054273D01*
X143436442Y-86054273D01*
X143278758Y-86054273D01*
X143278755Y-86054273D01*
X143124110Y-86085034D01*
X143124098Y-86085037D01*
X142978427Y-86145375D01*
X142978414Y-86145382D01*
X142847311Y-86232983D01*
X142847307Y-86232986D01*
X142735813Y-86344480D01*
X142735810Y-86344484D01*
X142648209Y-86475587D01*
X142648202Y-86475600D01*
X142587864Y-86621271D01*
X142587861Y-86621283D01*
X142557100Y-86775926D01*
X125700500Y-86775926D01*
X125700500Y-86621158D01*
X125700500Y-86621155D01*
X125700499Y-86621153D01*
X125669737Y-86466503D01*
X125649882Y-86418568D01*
X125609397Y-86320827D01*
X125609390Y-86320814D01*
X125521789Y-86189711D01*
X125521786Y-86189707D01*
X125410292Y-86078213D01*
X125410288Y-86078210D01*
X125279185Y-85990609D01*
X125279172Y-85990602D01*
X125133501Y-85930264D01*
X125133489Y-85930261D01*
X124978845Y-85899500D01*
X124978842Y-85899500D01*
X124821158Y-85899500D01*
X124821155Y-85899500D01*
X124666510Y-85930261D01*
X124666498Y-85930264D01*
X124520827Y-85990602D01*
X124520814Y-85990609D01*
X124389711Y-86078210D01*
X124389707Y-86078213D01*
X124278213Y-86189707D01*
X124278210Y-86189711D01*
X124190609Y-86320814D01*
X124190602Y-86320827D01*
X124130264Y-86466498D01*
X124130261Y-86466510D01*
X124099500Y-86621153D01*
X120500500Y-86621153D01*
X120500500Y-82021153D01*
X123899500Y-82021153D01*
X123899500Y-82178846D01*
X123930261Y-82333489D01*
X123930264Y-82333501D01*
X123990602Y-82479172D01*
X123990609Y-82479185D01*
X124078210Y-82610288D01*
X124078213Y-82610292D01*
X124189707Y-82721786D01*
X124189711Y-82721789D01*
X124320814Y-82809390D01*
X124320827Y-82809397D01*
X124466498Y-82869735D01*
X124466503Y-82869737D01*
X124621153Y-82900499D01*
X124621156Y-82900500D01*
X124621158Y-82900500D01*
X124778844Y-82900500D01*
X124778845Y-82900499D01*
X124933497Y-82869737D01*
X125079179Y-82809394D01*
X125210289Y-82721789D01*
X125321789Y-82610289D01*
X125330584Y-82597126D01*
X154669500Y-82597126D01*
X154669500Y-82754819D01*
X154700261Y-82909462D01*
X154700264Y-82909474D01*
X154760602Y-83055145D01*
X154760609Y-83055158D01*
X154848210Y-83186261D01*
X154848213Y-83186265D01*
X154959707Y-83297759D01*
X154959711Y-83297762D01*
X155090814Y-83385363D01*
X155090827Y-83385370D01*
X155173163Y-83419474D01*
X155236503Y-83445710D01*
X155391153Y-83476472D01*
X155391156Y-83476473D01*
X155552020Y-83476473D01*
X155619059Y-83496158D01*
X155664814Y-83548962D01*
X155666582Y-83553023D01*
X155671604Y-83565148D01*
X155671609Y-83565158D01*
X155759210Y-83696261D01*
X155759213Y-83696265D01*
X155870707Y-83807759D01*
X155870711Y-83807762D01*
X156001814Y-83895363D01*
X156001827Y-83895370D01*
X156147498Y-83955708D01*
X156147503Y-83955710D01*
X156302153Y-83986472D01*
X156302156Y-83986473D01*
X156302158Y-83986473D01*
X156459844Y-83986473D01*
X156459845Y-83986472D01*
X156614497Y-83955710D01*
X156760179Y-83895367D01*
X156891289Y-83807762D01*
X157002789Y-83696262D01*
X157090394Y-83565152D01*
X157150737Y-83419470D01*
X157181500Y-83264815D01*
X157181500Y-83107131D01*
X157181500Y-83107128D01*
X157181499Y-83107126D01*
X157150738Y-82952483D01*
X157150737Y-82952476D01*
X157132925Y-82909474D01*
X157090397Y-82806800D01*
X157090390Y-82806787D01*
X157002789Y-82675684D01*
X157002786Y-82675680D01*
X156891292Y-82564186D01*
X156891288Y-82564183D01*
X156760185Y-82476582D01*
X156760172Y-82476575D01*
X156614501Y-82416237D01*
X156614489Y-82416234D01*
X156459845Y-82385473D01*
X156459842Y-82385473D01*
X156302158Y-82385473D01*
X156298980Y-82385473D01*
X156231941Y-82365788D01*
X156186186Y-82312984D01*
X156184419Y-82308926D01*
X156179392Y-82296790D01*
X156091789Y-82165684D01*
X156091786Y-82165680D01*
X155980292Y-82054186D01*
X155980288Y-82054183D01*
X155849185Y-81966582D01*
X155849172Y-81966575D01*
X155750247Y-81925600D01*
X155703501Y-81906237D01*
X155703489Y-81906234D01*
X155548845Y-81875473D01*
X155548842Y-81875473D01*
X155391158Y-81875473D01*
X155391155Y-81875473D01*
X155236510Y-81906234D01*
X155236498Y-81906237D01*
X155090827Y-81966575D01*
X155090814Y-81966582D01*
X154959711Y-82054183D01*
X154959707Y-82054186D01*
X154848213Y-82165680D01*
X154848210Y-82165684D01*
X154760609Y-82296787D01*
X154760602Y-82296800D01*
X154700264Y-82442471D01*
X154700261Y-82442483D01*
X154669500Y-82597126D01*
X125330584Y-82597126D01*
X125352594Y-82564186D01*
X125380684Y-82522148D01*
X125409391Y-82479183D01*
X125409394Y-82479179D01*
X125469737Y-82333497D01*
X125500500Y-82178842D01*
X125500500Y-82021158D01*
X125500500Y-82021155D01*
X125500499Y-82021153D01*
X125469737Y-81866503D01*
X125449287Y-81817131D01*
X125449285Y-81817126D01*
X156929500Y-81817126D01*
X156929500Y-81974819D01*
X156960261Y-82129462D01*
X156960264Y-82129474D01*
X157020602Y-82275145D01*
X157020609Y-82275158D01*
X157108210Y-82406261D01*
X157108213Y-82406265D01*
X157219707Y-82517759D01*
X157219711Y-82517762D01*
X157350814Y-82605363D01*
X157350827Y-82605370D01*
X157496498Y-82665708D01*
X157496503Y-82665710D01*
X157651153Y-82696472D01*
X157651156Y-82696473D01*
X157651158Y-82696473D01*
X157808844Y-82696473D01*
X157808845Y-82696472D01*
X157963497Y-82665710D01*
X158109179Y-82605367D01*
X158240289Y-82517762D01*
X158351789Y-82406262D01*
X158439394Y-82275152D01*
X158499737Y-82129470D01*
X158530500Y-81974815D01*
X158530500Y-81817131D01*
X158530500Y-81817128D01*
X158530499Y-81817126D01*
X158511344Y-81720827D01*
X158499737Y-81662476D01*
X158469597Y-81589711D01*
X158439397Y-81516800D01*
X158439390Y-81516787D01*
X158351789Y-81385684D01*
X158351786Y-81385680D01*
X158240292Y-81274186D01*
X158240288Y-81274183D01*
X158109185Y-81186582D01*
X158109172Y-81186575D01*
X157963501Y-81126237D01*
X157963489Y-81126234D01*
X157808845Y-81095473D01*
X157808842Y-81095473D01*
X157651158Y-81095473D01*
X157651155Y-81095473D01*
X157496510Y-81126234D01*
X157496498Y-81126237D01*
X157350827Y-81186575D01*
X157350814Y-81186582D01*
X157219711Y-81274183D01*
X157219707Y-81274186D01*
X157108213Y-81385680D01*
X157108210Y-81385684D01*
X157020609Y-81516787D01*
X157020602Y-81516800D01*
X156960264Y-81662471D01*
X156960261Y-81662483D01*
X156929500Y-81817126D01*
X125449285Y-81817126D01*
X125409397Y-81720827D01*
X125409390Y-81720814D01*
X125321789Y-81589711D01*
X125321786Y-81589707D01*
X125210292Y-81478213D01*
X125210288Y-81478210D01*
X125079185Y-81390609D01*
X125079172Y-81390602D01*
X124933501Y-81330264D01*
X124933489Y-81330261D01*
X124778845Y-81299500D01*
X124778842Y-81299500D01*
X124621158Y-81299500D01*
X124621155Y-81299500D01*
X124466510Y-81330261D01*
X124466498Y-81330264D01*
X124320827Y-81390602D01*
X124320814Y-81390609D01*
X124189711Y-81478210D01*
X124189707Y-81478213D01*
X124078213Y-81589707D01*
X124078210Y-81589711D01*
X123990609Y-81720814D01*
X123990602Y-81720827D01*
X123930264Y-81866498D01*
X123930261Y-81866510D01*
X123899500Y-82021153D01*
X120500500Y-82021153D01*
X120500500Y-78337550D01*
X153469500Y-78337550D01*
X153469500Y-78534395D01*
X153500290Y-78728799D01*
X153561117Y-78916002D01*
X153650476Y-79091378D01*
X153766172Y-79250619D01*
X153905354Y-79389801D01*
X154064595Y-79505497D01*
X154147455Y-79547716D01*
X154239970Y-79594855D01*
X154239972Y-79594855D01*
X154239975Y-79594857D01*
X154340317Y-79627460D01*
X154427173Y-79655682D01*
X154621578Y-79686473D01*
X154621583Y-79686473D01*
X154818422Y-79686473D01*
X155012826Y-79655682D01*
X155074379Y-79635682D01*
X155200025Y-79594857D01*
X155375405Y-79505497D01*
X155534646Y-79389801D01*
X155673828Y-79250619D01*
X155789524Y-79091378D01*
X155878884Y-78915998D01*
X155890319Y-78880805D01*
X155929755Y-78823131D01*
X155994113Y-78795932D01*
X156062960Y-78807846D01*
X156114436Y-78855090D01*
X156126178Y-78880800D01*
X156129342Y-78890538D01*
X156131117Y-78896002D01*
X156141306Y-78915998D01*
X156220476Y-79071378D01*
X156336172Y-79230619D01*
X156475354Y-79369801D01*
X156634595Y-79485497D01*
X156717455Y-79527716D01*
X156809970Y-79574855D01*
X156809972Y-79574855D01*
X156809975Y-79574857D01*
X156910317Y-79607460D01*
X156997173Y-79635682D01*
X157191578Y-79666473D01*
X157191583Y-79666473D01*
X157388422Y-79666473D01*
X157582826Y-79635682D01*
X157770025Y-79574857D01*
X157945405Y-79485497D01*
X158104646Y-79369801D01*
X158243828Y-79230619D01*
X158359524Y-79071378D01*
X158448884Y-78895998D01*
X158509709Y-78708799D01*
X158537332Y-78534395D01*
X158540500Y-78514395D01*
X158540500Y-78317550D01*
X158509709Y-78123146D01*
X158448882Y-77935943D01*
X158359523Y-77760567D01*
X158243828Y-77601327D01*
X158104646Y-77462145D01*
X157945405Y-77346449D01*
X157770029Y-77257090D01*
X157582826Y-77196263D01*
X157388422Y-77165473D01*
X157388417Y-77165473D01*
X157191583Y-77165473D01*
X157191578Y-77165473D01*
X156997173Y-77196263D01*
X156809970Y-77257090D01*
X156634594Y-77346449D01*
X156543741Y-77412458D01*
X156475354Y-77462145D01*
X156475352Y-77462147D01*
X156475351Y-77462147D01*
X156336174Y-77601324D01*
X156336174Y-77601325D01*
X156336172Y-77601327D01*
X156321643Y-77621325D01*
X156220476Y-77760567D01*
X156131116Y-77935946D01*
X156119680Y-77971142D01*
X156080241Y-78028816D01*
X156015882Y-78056013D01*
X155947036Y-78044097D01*
X155895561Y-77996852D01*
X155883821Y-77971142D01*
X155878884Y-77955948D01*
X155789524Y-77780568D01*
X155673828Y-77621327D01*
X155534646Y-77482145D01*
X155375405Y-77366449D01*
X155336153Y-77346449D01*
X155200029Y-77277090D01*
X155012826Y-77216263D01*
X154818422Y-77185473D01*
X154818417Y-77185473D01*
X154621583Y-77185473D01*
X154621578Y-77185473D01*
X154427173Y-77216263D01*
X154239970Y-77277090D01*
X154064594Y-77366449D01*
X153973741Y-77432458D01*
X153905354Y-77482145D01*
X153905352Y-77482147D01*
X153905351Y-77482147D01*
X153766174Y-77621324D01*
X153766174Y-77621325D01*
X153766172Y-77621327D01*
X153716485Y-77689714D01*
X153650476Y-77780567D01*
X153561117Y-77955943D01*
X153500290Y-78143146D01*
X153469500Y-78337550D01*
X120500500Y-78337550D01*
X120500500Y-73877126D01*
X154519500Y-73877126D01*
X154519500Y-74034819D01*
X154550261Y-74189462D01*
X154550264Y-74189474D01*
X154610602Y-74335145D01*
X154610609Y-74335158D01*
X154698210Y-74466261D01*
X154698213Y-74466265D01*
X154809707Y-74577759D01*
X154809711Y-74577762D01*
X154940814Y-74665363D01*
X154940827Y-74665370D01*
X155086498Y-74725708D01*
X155086503Y-74725710D01*
X155241153Y-74756472D01*
X155241156Y-74756473D01*
X155241158Y-74756473D01*
X155398844Y-74756473D01*
X155398845Y-74756472D01*
X155553497Y-74725710D01*
X155699179Y-74665367D01*
X155830289Y-74577762D01*
X155941789Y-74466262D01*
X156029394Y-74335152D01*
X156089737Y-74189470D01*
X156120500Y-74034815D01*
X156120500Y-73877131D01*
X156120500Y-73877128D01*
X156120499Y-73877126D01*
X156089738Y-73722483D01*
X156089737Y-73722476D01*
X156089735Y-73722471D01*
X156029397Y-73576800D01*
X156029390Y-73576787D01*
X155941789Y-73445684D01*
X155941786Y-73445680D01*
X155830292Y-73334186D01*
X155830288Y-73334183D01*
X155699185Y-73246582D01*
X155699172Y-73246575D01*
X155553501Y-73186237D01*
X155553489Y-73186234D01*
X155398845Y-73155473D01*
X155398842Y-73155473D01*
X155241158Y-73155473D01*
X155241155Y-73155473D01*
X155086510Y-73186234D01*
X155086498Y-73186237D01*
X154940827Y-73246575D01*
X154940814Y-73246582D01*
X154809711Y-73334183D01*
X154809707Y-73334186D01*
X154698213Y-73445680D01*
X154698210Y-73445684D01*
X154610609Y-73576787D01*
X154610602Y-73576800D01*
X154550264Y-73722471D01*
X154550261Y-73722483D01*
X154519500Y-73877126D01*
X120500500Y-73877126D01*
X120500500Y-70921153D01*
X124299500Y-70921153D01*
X124299500Y-71078846D01*
X124330261Y-71233489D01*
X124330264Y-71233501D01*
X124390602Y-71379172D01*
X124390609Y-71379185D01*
X124478210Y-71510288D01*
X124478213Y-71510292D01*
X124589707Y-71621786D01*
X124589711Y-71621789D01*
X124720814Y-71709390D01*
X124720827Y-71709397D01*
X124866498Y-71769735D01*
X124866503Y-71769737D01*
X125021153Y-71800499D01*
X125021156Y-71800500D01*
X125021158Y-71800500D01*
X125178844Y-71800500D01*
X125178845Y-71800499D01*
X125333497Y-71769737D01*
X125464759Y-71715367D01*
X125479172Y-71709397D01*
X125479172Y-71709396D01*
X125479179Y-71709394D01*
X125610289Y-71621789D01*
X125721789Y-71510289D01*
X125809394Y-71379179D01*
X125869737Y-71233497D01*
X125900500Y-71078842D01*
X125900500Y-70927126D01*
X149164500Y-70927126D01*
X149164500Y-71084819D01*
X149195261Y-71239462D01*
X149195264Y-71239472D01*
X149255602Y-71385145D01*
X149255609Y-71385158D01*
X149343210Y-71516261D01*
X149343213Y-71516265D01*
X149454707Y-71627759D01*
X149454711Y-71627762D01*
X149585814Y-71715363D01*
X149585827Y-71715370D01*
X149717078Y-71769735D01*
X149731503Y-71775710D01*
X149856125Y-71800499D01*
X149886153Y-71806472D01*
X149886156Y-71806473D01*
X149886158Y-71806473D01*
X150043844Y-71806473D01*
X150043845Y-71806472D01*
X150198497Y-71775710D01*
X150344179Y-71715367D01*
X150475289Y-71627762D01*
X150586789Y-71516262D01*
X150674394Y-71385152D01*
X150734737Y-71239470D01*
X150765500Y-71084815D01*
X150765500Y-70927131D01*
X150765500Y-70927128D01*
X150765499Y-70927126D01*
X150734738Y-70772483D01*
X150734737Y-70772476D01*
X150732261Y-70766498D01*
X150674397Y-70626800D01*
X150674390Y-70626787D01*
X150586789Y-70495684D01*
X150586786Y-70495680D01*
X150475292Y-70384186D01*
X150475288Y-70384183D01*
X150344185Y-70296582D01*
X150344172Y-70296575D01*
X150198501Y-70236237D01*
X150198489Y-70236234D01*
X150043845Y-70205473D01*
X150043842Y-70205473D01*
X149886158Y-70205473D01*
X149886155Y-70205473D01*
X149731510Y-70236234D01*
X149731498Y-70236237D01*
X149585827Y-70296575D01*
X149585814Y-70296582D01*
X149454711Y-70384183D01*
X149454707Y-70384186D01*
X149343213Y-70495680D01*
X149343210Y-70495684D01*
X149255609Y-70626787D01*
X149255602Y-70626800D01*
X149195264Y-70772471D01*
X149195261Y-70772483D01*
X149164500Y-70927126D01*
X125900500Y-70927126D01*
X125900500Y-70921158D01*
X125900500Y-70921155D01*
X125900499Y-70921153D01*
X125869737Y-70766503D01*
X125869735Y-70766498D01*
X125809397Y-70620827D01*
X125809390Y-70620814D01*
X125721789Y-70489711D01*
X125721786Y-70489707D01*
X125610292Y-70378213D01*
X125610288Y-70378210D01*
X125479185Y-70290609D01*
X125479172Y-70290602D01*
X125333501Y-70230264D01*
X125333489Y-70230261D01*
X125178845Y-70199500D01*
X125178842Y-70199500D01*
X125021158Y-70199500D01*
X125021155Y-70199500D01*
X124866510Y-70230261D01*
X124866498Y-70230264D01*
X124720827Y-70290602D01*
X124720814Y-70290609D01*
X124589711Y-70378210D01*
X124589707Y-70378213D01*
X124478213Y-70489707D01*
X124478210Y-70489711D01*
X124390609Y-70620814D01*
X124390602Y-70620827D01*
X124330264Y-70766498D01*
X124330261Y-70766510D01*
X124299500Y-70921153D01*
X120500500Y-70921153D01*
X120500500Y-68971153D01*
X134749500Y-68971153D01*
X134749500Y-69128846D01*
X134780261Y-69283489D01*
X134780264Y-69283501D01*
X134840602Y-69429172D01*
X134840609Y-69429185D01*
X134928210Y-69560288D01*
X134928213Y-69560292D01*
X135039707Y-69671786D01*
X135039711Y-69671789D01*
X135170814Y-69759390D01*
X135170827Y-69759397D01*
X135316498Y-69819735D01*
X135316503Y-69819737D01*
X135471153Y-69850499D01*
X135471156Y-69850500D01*
X135471158Y-69850500D01*
X135628844Y-69850500D01*
X135628845Y-69850499D01*
X135783497Y-69819737D01*
X135929179Y-69759394D01*
X135941513Y-69751153D01*
X147489500Y-69751153D01*
X147489500Y-69908846D01*
X147520261Y-70063489D01*
X147520264Y-70063501D01*
X147580602Y-70209172D01*
X147580609Y-70209185D01*
X147668210Y-70340288D01*
X147668213Y-70340292D01*
X147779707Y-70451786D01*
X147779711Y-70451789D01*
X147910814Y-70539390D01*
X147910827Y-70539397D01*
X148056498Y-70599735D01*
X148056503Y-70599737D01*
X148192492Y-70626787D01*
X148211153Y-70630499D01*
X148211156Y-70630500D01*
X148211158Y-70630500D01*
X148368844Y-70630500D01*
X148368845Y-70630499D01*
X148523497Y-70599737D01*
X148669179Y-70539394D01*
X148800289Y-70451789D01*
X148911789Y-70340289D01*
X148999394Y-70209179D01*
X149059737Y-70063497D01*
X149090500Y-69908842D01*
X149090500Y-69751158D01*
X149090500Y-69751155D01*
X149090499Y-69751153D01*
X149059738Y-69596510D01*
X149059737Y-69596503D01*
X149052423Y-69578846D01*
X149004240Y-69462518D01*
X148999396Y-69450826D01*
X148999390Y-69450814D01*
X148979571Y-69421153D01*
X156699500Y-69421153D01*
X156699500Y-69578846D01*
X156730261Y-69733489D01*
X156730264Y-69733501D01*
X156790602Y-69879172D01*
X156790609Y-69879185D01*
X156878210Y-70010288D01*
X156878213Y-70010292D01*
X156989707Y-70121786D01*
X156989711Y-70121789D01*
X157120814Y-70209390D01*
X157120827Y-70209397D01*
X157266498Y-70269735D01*
X157266503Y-70269737D01*
X157401426Y-70296575D01*
X157421153Y-70300499D01*
X157421156Y-70300500D01*
X157421158Y-70300500D01*
X157578844Y-70300500D01*
X157578845Y-70300499D01*
X157733497Y-70269737D01*
X157879179Y-70209394D01*
X158010289Y-70121789D01*
X158121789Y-70010289D01*
X158209394Y-69879179D01*
X158269737Y-69733497D01*
X158300500Y-69578842D01*
X158300500Y-69421158D01*
X158300500Y-69421155D01*
X158300499Y-69421153D01*
X158273117Y-69283497D01*
X158269737Y-69266503D01*
X158245592Y-69208211D01*
X158209397Y-69120827D01*
X158209390Y-69120814D01*
X158121789Y-68989711D01*
X158121786Y-68989707D01*
X158010292Y-68878213D01*
X158010288Y-68878210D01*
X157879185Y-68790609D01*
X157879172Y-68790602D01*
X157733501Y-68730264D01*
X157733489Y-68730261D01*
X157578845Y-68699500D01*
X157578842Y-68699500D01*
X157421158Y-68699500D01*
X157421155Y-68699500D01*
X157266510Y-68730261D01*
X157266498Y-68730264D01*
X157120827Y-68790602D01*
X157120814Y-68790609D01*
X156989711Y-68878210D01*
X156989707Y-68878213D01*
X156878213Y-68989707D01*
X156878210Y-68989711D01*
X156790609Y-69120814D01*
X156790602Y-69120827D01*
X156730264Y-69266498D01*
X156730261Y-69266510D01*
X156699500Y-69421153D01*
X148979571Y-69421153D01*
X148911789Y-69319711D01*
X148911786Y-69319707D01*
X148800292Y-69208213D01*
X148800288Y-69208210D01*
X148669185Y-69120609D01*
X148669172Y-69120602D01*
X148523501Y-69060264D01*
X148523489Y-69060261D01*
X148368845Y-69029500D01*
X148368842Y-69029500D01*
X148211158Y-69029500D01*
X148211155Y-69029500D01*
X148056510Y-69060261D01*
X148056498Y-69060264D01*
X147910827Y-69120602D01*
X147910814Y-69120609D01*
X147779711Y-69208210D01*
X147779707Y-69208213D01*
X147668213Y-69319707D01*
X147668210Y-69319711D01*
X147580609Y-69450814D01*
X147580602Y-69450827D01*
X147520264Y-69596498D01*
X147520261Y-69596510D01*
X147489500Y-69751153D01*
X135941513Y-69751153D01*
X136060289Y-69671789D01*
X136060292Y-69671786D01*
X136074694Y-69657385D01*
X136171786Y-69560292D01*
X136171789Y-69560289D01*
X136259394Y-69429179D01*
X136262719Y-69421153D01*
X136319735Y-69283501D01*
X136319737Y-69283497D01*
X136350500Y-69128842D01*
X136350500Y-68971158D01*
X136350500Y-68971155D01*
X136350499Y-68971153D01*
X136332012Y-68878213D01*
X136319737Y-68816503D01*
X136319735Y-68816498D01*
X136259397Y-68670827D01*
X136259390Y-68670814D01*
X136171789Y-68539711D01*
X136171786Y-68539707D01*
X136060292Y-68428213D01*
X136060288Y-68428210D01*
X135929185Y-68340609D01*
X135929172Y-68340602D01*
X135783501Y-68280264D01*
X135783489Y-68280261D01*
X135628845Y-68249500D01*
X135628842Y-68249500D01*
X135471158Y-68249500D01*
X135471155Y-68249500D01*
X135316510Y-68280261D01*
X135316498Y-68280264D01*
X135170827Y-68340602D01*
X135170814Y-68340609D01*
X135039711Y-68428210D01*
X135039707Y-68428213D01*
X134928213Y-68539707D01*
X134928210Y-68539711D01*
X134840609Y-68670814D01*
X134840602Y-68670827D01*
X134780264Y-68816498D01*
X134780261Y-68816510D01*
X134749500Y-68971153D01*
X120500500Y-68971153D01*
X120500500Y-66893713D01*
X141649500Y-66893713D01*
X141649500Y-67106287D01*
X141682754Y-67316243D01*
X141729557Y-67460288D01*
X141748444Y-67518414D01*
X141844951Y-67707820D01*
X141969890Y-67879786D01*
X142120213Y-68030109D01*
X142292179Y-68155048D01*
X142292181Y-68155049D01*
X142292184Y-68155051D01*
X142481588Y-68251557D01*
X142683757Y-68317246D01*
X142893713Y-68350500D01*
X142893714Y-68350500D01*
X143106286Y-68350500D01*
X143106287Y-68350500D01*
X143316243Y-68317246D01*
X143518412Y-68251557D01*
X143707816Y-68155051D01*
X143729789Y-68139086D01*
X143879786Y-68030109D01*
X143879788Y-68030106D01*
X143879792Y-68030104D01*
X144030104Y-67879792D01*
X144030106Y-67879788D01*
X144030109Y-67879786D01*
X144155048Y-67707820D01*
X144155047Y-67707820D01*
X144155051Y-67707816D01*
X144251557Y-67518412D01*
X144317246Y-67316243D01*
X144350500Y-67106287D01*
X144350500Y-66893713D01*
X144346927Y-66871153D01*
X147429500Y-66871153D01*
X147429500Y-67028846D01*
X147460261Y-67183489D01*
X147460264Y-67183501D01*
X147520602Y-67329172D01*
X147520609Y-67329185D01*
X147608210Y-67460288D01*
X147608213Y-67460292D01*
X147719707Y-67571786D01*
X147719711Y-67571789D01*
X147850814Y-67659390D01*
X147850827Y-67659397D01*
X147996498Y-67719735D01*
X147996503Y-67719737D01*
X148151153Y-67750499D01*
X148151156Y-67750500D01*
X148151158Y-67750500D01*
X148308844Y-67750500D01*
X148308845Y-67750499D01*
X148463497Y-67719737D01*
X148609179Y-67659394D01*
X148740289Y-67571789D01*
X148851789Y-67460289D01*
X148939394Y-67329179D01*
X148999737Y-67183497D01*
X149030500Y-67028842D01*
X149030500Y-66871158D01*
X149030500Y-66871155D01*
X149030499Y-66871153D01*
X148999738Y-66716510D01*
X148999737Y-66716503D01*
X148986173Y-66683757D01*
X148939397Y-66570827D01*
X148939390Y-66570814D01*
X148851789Y-66439711D01*
X148851786Y-66439707D01*
X148740292Y-66328213D01*
X148740288Y-66328210D01*
X148609185Y-66240609D01*
X148609172Y-66240602D01*
X148463501Y-66180264D01*
X148463489Y-66180261D01*
X148308845Y-66149500D01*
X148308842Y-66149500D01*
X148151158Y-66149500D01*
X148151155Y-66149500D01*
X147996510Y-66180261D01*
X147996498Y-66180264D01*
X147850827Y-66240602D01*
X147850814Y-66240609D01*
X147719711Y-66328210D01*
X147719707Y-66328213D01*
X147608213Y-66439707D01*
X147608210Y-66439711D01*
X147520609Y-66570814D01*
X147520602Y-66570827D01*
X147460264Y-66716498D01*
X147460261Y-66716510D01*
X147429500Y-66871153D01*
X144346927Y-66871153D01*
X144317246Y-66683757D01*
X144251557Y-66481588D01*
X144155051Y-66292184D01*
X144155049Y-66292181D01*
X144155048Y-66292179D01*
X144030109Y-66120213D01*
X143879786Y-65969890D01*
X143707820Y-65844951D01*
X143518414Y-65748444D01*
X143518413Y-65748443D01*
X143518412Y-65748443D01*
X143316243Y-65682754D01*
X143316241Y-65682753D01*
X143316240Y-65682753D01*
X143154957Y-65657208D01*
X143106287Y-65649500D01*
X142893713Y-65649500D01*
X142845042Y-65657208D01*
X142683760Y-65682753D01*
X142481585Y-65748444D01*
X142292179Y-65844951D01*
X142120213Y-65969890D01*
X141969890Y-66120213D01*
X141844951Y-66292179D01*
X141748444Y-66481585D01*
X141682753Y-66683760D01*
X141677566Y-66716510D01*
X141649500Y-66893713D01*
X120500500Y-66893713D01*
X120500500Y-55849223D01*
X123699500Y-55849223D01*
X123699500Y-56150776D01*
X123699501Y-56150793D01*
X123738861Y-56449766D01*
X123816913Y-56741060D01*
X123932314Y-57019661D01*
X123932318Y-57019671D01*
X124083099Y-57280831D01*
X124266679Y-57520078D01*
X124266685Y-57520085D01*
X124479914Y-57733314D01*
X124479921Y-57733320D01*
X124719168Y-57916900D01*
X124980328Y-58067681D01*
X124980329Y-58067681D01*
X124980332Y-58067683D01*
X125166072Y-58144619D01*
X125258939Y-58183086D01*
X125258940Y-58183086D01*
X125258942Y-58183087D01*
X125550232Y-58261138D01*
X125849217Y-58300500D01*
X125849224Y-58300500D01*
X126150776Y-58300500D01*
X126150783Y-58300500D01*
X126449768Y-58261138D01*
X126741058Y-58183087D01*
X127019668Y-58067683D01*
X127280832Y-57916900D01*
X127520080Y-57733319D01*
X127733319Y-57520080D01*
X127916900Y-57280832D01*
X128067683Y-57019668D01*
X128183087Y-56741058D01*
X128261138Y-56449768D01*
X128300500Y-56150783D01*
X128300500Y-55849217D01*
X128261138Y-55550232D01*
X128183087Y-55258942D01*
X128067683Y-54980332D01*
X127916900Y-54719168D01*
X127733319Y-54479920D01*
X127733314Y-54479914D01*
X127520085Y-54266685D01*
X127520078Y-54266679D01*
X127280831Y-54083099D01*
X127019671Y-53932318D01*
X127019661Y-53932314D01*
X126741060Y-53816913D01*
X126449766Y-53738861D01*
X126150793Y-53699501D01*
X126150788Y-53699500D01*
X126150783Y-53699500D01*
X125849217Y-53699500D01*
X125849211Y-53699500D01*
X125849206Y-53699501D01*
X125550233Y-53738861D01*
X125258939Y-53816913D01*
X124980338Y-53932314D01*
X124980328Y-53932318D01*
X124719168Y-54083099D01*
X124479921Y-54266679D01*
X124479914Y-54266685D01*
X124266685Y-54479914D01*
X124266679Y-54479921D01*
X124083099Y-54719168D01*
X123932318Y-54980328D01*
X123932314Y-54980338D01*
X123816913Y-55258939D01*
X123738861Y-55550233D01*
X123699501Y-55849206D01*
X123699500Y-55849223D01*
X120500500Y-55849223D01*
X120500500Y-53003750D01*
X120500726Y-52996263D01*
X120518271Y-52706205D01*
X120520076Y-52691340D01*
X120571780Y-52409202D01*
X120575364Y-52394664D01*
X120660699Y-52120812D01*
X120665997Y-52106842D01*
X120783727Y-51845258D01*
X120790680Y-51832012D01*
X120830959Y-51765381D01*
X120939075Y-51586534D01*
X120947567Y-51574230D01*
X121124481Y-51348417D01*
X121134396Y-51337226D01*
X121337226Y-51134396D01*
X121348417Y-51124481D01*
X121574230Y-50947567D01*
X121586534Y-50939075D01*
X121832012Y-50790680D01*
X121845258Y-50783727D01*
X122106842Y-50665997D01*
X122120812Y-50660699D01*
X122394668Y-50575362D01*
X122409198Y-50571780D01*
X122691344Y-50520075D01*
X122706201Y-50518271D01*
X122996264Y-50500726D01*
X123003751Y-50500500D01*
X123065892Y-50500500D01*
X156934108Y-50500500D01*
X156996249Y-50500500D01*
X157003736Y-50500726D01*
G37*
%TD.AperFunction*%
%TD*%
M02*
